<svg xmlns="http://www.w3.org/2000/svg" width="666.667" height="666.667"><defs><clipPath id="a" clipPathUnits="userSpaceOnUse"><path d="M0 500h500V0H0Z"/></clipPath><clipPath id="b" clipPathUnits="userSpaceOnUse"><path d="M0 500h500V0H0Z"/></clipPath><clipPath id="c" clipPathUnits="userSpaceOnUse"><path d="M0 500h500V0H0Z"/></clipPath><clipPath id="d" clipPathUnits="userSpaceOnUse"><path d="M406.726 284.899h31.567v-76.776h-31.567z"/></clipPath><clipPath id="e" clipPathUnits="userSpaceOnUse"><path d="M411.275 263.859h43.651v-68.19h-43.651z"/></clipPath><clipPath id="f" clipPathUnits="userSpaceOnUse"><path d="M0 500h500V0H0Z"/></clipPath><clipPath id="g" clipPathUnits="userSpaceOnUse"><path d="M0 500h500V0H0Z"/></clipPath><clipPath id="h" clipPathUnits="userSpaceOnUse"><path d="M92.006 294.179h15.057v-20.385H92.006Z"/></clipPath><clipPath id="i" clipPathUnits="userSpaceOnUse"><path d="M84.35 243.765h27.651v-30.587h-27.65Z"/></clipPath><clipPath id="j" clipPathUnits="userSpaceOnUse"><path d="M86.604 261.266h25.514v-32.239H86.604Z"/></clipPath><clipPath id="k" clipPathUnits="userSpaceOnUse"><path d="M82.956 225.415h56.873v-32.841H82.955Z"/></clipPath><clipPath id="l" clipPathUnits="userSpaceOnUse"><path d="M83.842 225.415h55.921v-30.889H83.842Z"/></clipPath><clipPath id="m" clipPathUnits="userSpaceOnUse"><path d="M82.956 227.367h56.872v-21.611H82.956Z"/></clipPath><clipPath id="n" clipPathUnits="userSpaceOnUse"><path d="M84.138 228.789h28.192v-17.75H84.138Z"/></clipPath><clipPath id="o" clipPathUnits="userSpaceOnUse"><path d="M71.868 272.157h35.665v-48.078H71.868Z"/></clipPath><clipPath id="p" clipPathUnits="userSpaceOnUse"><path d="M63.744 267.5h35.664v-48.078H63.744Z"/></clipPath><clipPath id="q" clipPathUnits="userSpaceOnUse"><path d="M55.62 262.844h35.664v-48.078H55.619Z"/></clipPath><clipPath id="r" clipPathUnits="userSpaceOnUse"><path d="M40.526 287.249h68.025v-76.544H40.526Z"/></clipPath><clipPath id="s" clipPathUnits="userSpaceOnUse"><path d="M40.526 263.489H83.5v-52.784H40.526Z"/></clipPath><clipPath id="t" clipPathUnits="userSpaceOnUse"><path d="M82.24 260.855h16v-50.15h-16z"/></clipPath><clipPath id="u" clipPathUnits="userSpaceOnUse"><path d="M82.764 262.852h30.941v-52.143H82.763Z"/></clipPath><clipPath id="v" clipPathUnits="userSpaceOnUse"><path d="M0 500h500V0H0Z"/></clipPath><clipPath id="w" clipPathUnits="userSpaceOnUse"><path d="M178.94 349.24h141.494V161.436H178.94Z"/></clipPath><clipPath id="x" clipPathUnits="userSpaceOnUse"><path d="M179.698 349.241h139.973V268.43H179.698Z"/></clipPath><clipPath id="y" clipPathUnits="userSpaceOnUse"><path d="M178.936 272.682h10.19V161.439h-10.19z"/></clipPath><clipPath id="z" clipPathUnits="userSpaceOnUse"><path d="M178.936 272.682h10.19V161.439h-10.19z"/></clipPath><clipPath id="A" clipPathUnits="userSpaceOnUse"><path d="M187.072 344.989h133.361V161.845H187.072Z"/></clipPath><clipPath id="B" clipPathUnits="userSpaceOnUse"><path d="M187.072 344.989h133.361V161.845H187.072Z"/></clipPath><clipPath id="C" clipPathUnits="userSpaceOnUse"><path d="M211.436 330.459h141.495V142.655H211.436Z"/></clipPath><clipPath id="D" clipPathUnits="userSpaceOnUse"><path d="M212.194 330.46h139.974v-80.811H212.194Z"/></clipPath><clipPath id="E" clipPathUnits="userSpaceOnUse"><path d="M211.432 253.902h10.177V142.658h-10.177z"/></clipPath><clipPath id="F" clipPathUnits="userSpaceOnUse"><path d="M219.569 326.208H352.93V143.064H219.569Z"/></clipPath><clipPath id="G" clipPathUnits="userSpaceOnUse"><path d="M219.569 326.208H352.93V143.064H219.569Z"/></clipPath><clipPath id="H" clipPathUnits="userSpaceOnUse"><path d="M0 500h500V0H0Z"/></clipPath><clipPath id="I" clipPathUnits="userSpaceOnUse"><path d="M244.202 308.752h141.227V123.879H244.202Z"/></clipPath><clipPath id="J" clipPathUnits="userSpaceOnUse"><path d="M244.669 340.198h69.61v-100.53h-69.61z"/></clipPath><clipPath id="K" clipPathUnits="userSpaceOnUse"><path d="M312.239 341.126h65.13v-23.418h-65.13z"/></clipPath><clipPath id="L" clipPathUnits="userSpaceOnUse"><path d="M245.199 242.342h.018v-.041h-.018z"/></clipPath><clipPath id="M" clipPathUnits="userSpaceOnUse"><path d="M244.666 240.846"/></clipPath><clipPath id="N" clipPathUnits="userSpaceOnUse"><path d="M312.242 340.198z"/></clipPath><clipPath id="O" clipPathUnits="userSpaceOnUse"><path d="M245.498 243.012h.048v-.096h-.048z"/></clipPath><clipPath id="P" clipPathUnits="userSpaceOnUse"><path d="M311.561 339.879h.33v-.396h-.33z"/></clipPath><clipPath id="Q" clipPathUnits="userSpaceOnUse"><path d="M246.237 316.182H379.62v-85.618H246.237Z"/></clipPath><clipPath id="R" clipPathUnits="userSpaceOnUse"><path d="M250.969 207.96h58.01v-82.536h-58.01z"/></clipPath><clipPath id="S" clipPathUnits="userSpaceOnUse"><path d="M312.109 221.127h69.94v-19.709h-69.94z"/></clipPath><clipPath id="T" clipPathUnits="userSpaceOnUse"><path d="M308.839 219.21h19.77v-14.3h-19.77z"/></clipPath><clipPath id="U" clipPathUnits="userSpaceOnUse"><path d="M326.569 307.578h58.81V218.1h-58.81z"/></clipPath><clipPath id="V" clipPathUnits="userSpaceOnUse"><path d="M244.202 231.745h11.767V123.879h-11.767z"/></clipPath><clipPath id="W" clipPathUnits="userSpaceOnUse"><path d="M328.616 218.094h56.813v-28.898h-56.813z"/></clipPath><clipPath id="X" clipPathUnits="userSpaceOnUse"><path d="M252.049 216.63h62.24v-92.352h-62.24z"/></clipPath><clipPath id="Y" clipPathUnits="userSpaceOnUse"><path d="M244.199 240.848h2.51v-10.28h-2.51z"/></clipPath><clipPath id="Z" clipPathUnits="userSpaceOnUse"><path d="M246.233 231.734h60.586v-24.043h-60.586z"/></clipPath><clipPath id="aa" clipPathUnits="userSpaceOnUse"><path d="M0 500h500V0H0Z"/></clipPath><clipPath id="ab" clipPathUnits="userSpaceOnUse"><path d="M0 500h500V0H0Z"/></clipPath><clipPath id="ac" clipPathUnits="userSpaceOnUse"><path d="M404.958 360.776h30.576v-25.499h-30.576z"/></clipPath></defs><g clip-path="url(#a)" transform="matrix(1.33333 0 0 -1.33333 0 666.667)"><path d="M0 0c87.244-51.246 87.244-134.333-.001-185.579-87.244-51.246-228.695-51.246-315.939-.001-87.244 51.247-87.243 134.333.001 185.58C-228.694 51.246-87.243 51.246 0 0" style="fill:#f5f5f5;fill-opacity:1;fill-rule:nonzero;stroke:none" transform="translate(407.97 246.994)"/></g><g clip-path="url(#b)" transform="matrix(1.33333 0 0 -1.33333 0 666.667)"><path d="M0 0c12.927-7.463 12.927-19.564 0-27.028-12.928-7.463-33.887-7.463-46.813 0-12.928 7.464-12.928 19.564 0 27.028C-33.886 7.463-12.927 7.463 0 0" style="fill:#e1e1e1;fill-opacity:1;fill-rule:nonzero;stroke:none" transform="translate(93.965 154.093)"/><path d="m0 0 117.264-67.702c2.391-1.381 6.268-1.381 8.66 0L324.428 46.904c2.39 1.381 2.39 3.619 0 5l-117.264 67.702c-2.392 1.381-6.269 1.381-8.66 0L0 5c-2.392-1.38-2.392-3.619 0-5" style="fill:#e1e1e1;fill-opacity:1;fill-rule:nonzero;stroke:none" transform="translate(122.336 136.94)"/></g><g clip-path="url(#c)" transform="matrix(1.33333 0 0 -1.33333 0 666.667)"><path d="m0 0-8.169 4.72s-4.862 20.204-2.925 38.383c2.724 25.559 16.48 36.695 25.946 32.972 6.297-2.476 8.251-9.641-2.335-24.864C6.271 42.229-1.401 23.522 0 0" style="fill:#00dfbf;fill-opacity:1;fill-rule:nonzero;stroke:none" transform="translate(418.276 208.124)"/><g clip-path="url(#d)" opacity=".3"><path d="m0 0-8.169 4.72s-4.862 20.204-2.925 38.383c2.724 25.559 16.48 36.695 25.946 32.972 6.297-2.476 8.251-9.641-2.335-24.864C6.271 42.229-1.401 23.522 0 0" style="fill:#000;fill-opacity:1;fill-rule:nonzero;stroke:none" transform="translate(418.276 208.124)"/></g><path d="M0 0q.039.002.078.009c.308.059.51.355.451.662-4.478 23.575 3.757 50.066 13.955 61.089a.566.566 0 1 1-.833.769C3.268 51.305-5.129 24.382-.584.46A.57.57 0 0 1 0 0" style="fill:#fff;fill-opacity:1;fill-rule:nonzero;stroke:none" transform="translate(414.892 218.049)"/><path d="M0 0c1.29-.657 4.722 2.281 5.679 2.995 1.637 1.223 2.93 2.903 3.751 4.771.954 2.173 1.107 4.459.657 6.787-.234 1.207-.635 2.376-1.033 3.539l-1.175 3.427c-.387 1.127-.778 2.293-.687 3.481.185 2.394 2.211 4.167 4.058 5.701 2.042 1.695 4.146 3.904 3.989 6.767-.12 2.209-1.368 4.202-2.824 5.867C10.958 45 9.257 46.45 7.927 48.218c-.957 1.272-1.73 2.784-1.665 4.376.04.988.401 1.936.829 2.828.917 1.915 2.164 3.69 2.761 5.728.596 2.038.371 4.524-1.265 5.878-1.342 1.111-3.257 1.18-4.987.977-1.602-.187-3.135-.991-4.501-1.844-4.418-2.757-6.741-8.271-11.466-10.459-1.822-.844-3.853-1.111-5.766-1.721s-3.841-1.701-4.648-3.54c-1.592-3.625 1.913-7.818.858-11.634-.933-3.378-4.098-4.812-5.76-7.897-.726-1.35-.833-2.872-.628-4.392.347-2.571.821-4.447 2.204-7.256 1.144-2.321 4.365-6.709 4.365-6.709S-.198.101 0 0" style="fill:#00dfbf;fill-opacity:1;fill-rule:nonzero;stroke:none" transform="translate(439.678 195.764)"/><g clip-path="url(#e)" opacity=".15"><path d="M0 0c1.29-.657 4.722 2.281 5.679 2.995 1.637 1.223 2.93 2.903 3.751 4.771.954 2.173 1.107 4.459.657 6.787-.234 1.207-.635 2.376-1.033 3.539l-1.175 3.427c-.387 1.127-.778 2.293-.687 3.481.185 2.394 2.211 4.167 4.058 5.701 2.042 1.695 4.146 3.904 3.989 6.767-.12 2.209-1.368 4.202-2.824 5.867C10.958 45 9.257 46.45 7.927 48.218c-.957 1.272-1.73 2.784-1.665 4.376.04.988.401 1.936.829 2.828.917 1.915 2.164 3.69 2.761 5.728.596 2.038.371 4.524-1.265 5.878-1.342 1.111-3.257 1.18-4.987.977-1.602-.187-3.135-.991-4.501-1.844-4.418-2.757-6.741-8.271-11.466-10.459-1.822-.844-3.853-1.111-5.766-1.721s-3.841-1.701-4.648-3.54c-1.592-3.625 1.913-7.818.858-11.634-.933-3.378-4.098-4.812-5.76-7.897-.726-1.35-.833-2.872-.628-4.392.347-2.571.821-4.447 2.204-7.256 1.144-2.321 4.365-6.709 4.365-6.709S-.198.101 0 0" style="fill:#000;fill-opacity:1;fill-rule:nonzero;stroke:none" transform="translate(439.678 195.764)"/></g><path d="M0 0h.015c.32.03.548.307.521.618-2.068 22.423 7.268 47.763 14.603 55.358a.57.57 0 0 1-.014.802.57.57 0 0 1-.802-.014C6.841 49.016-2.69 23.252-.594.514A.57.57 0 0 1 0 0" style="fill:#fff;fill-opacity:1;fill-rule:nonzero;stroke:none" transform="translate(427.173 202.282)"/><path d="M0 0a.5.5 0 0 1 .166.034C7.272 2.629 16.25 3.477 16.34 3.485a.57.57 0 0 1 .513.616.55.55 0 0 1-.617.513c-.091-.009-9.212-.869-16.459-3.516A.566.566 0 0 1 0 0" style="fill:#fff;fill-opacity:1;fill-rule:nonzero;stroke:none" transform="translate(429.4 229.93)"/></g><g clip-path="url(#f)" transform="matrix(1.33333 0 0 -1.33333 0 666.667)"><path d="M0 0c0-2.959 2.215-6.636 4.947-8.213L112.636-70.4c2.732-1.578 7.161-1.578 9.893 0L312.158 39.083c2.732 1.576 4.946 5.254 4.946 8.213s-2.213 6.637-4.946 8.214l-107.689 62.186c-2.732 1.577-7.161 1.577-9.893 0L4.946 8.214C2.214 6.637 0 2.959 0 0" style="fill:#2b454e;fill-opacity:1;fill-rule:nonzero;stroke:none" transform="translate(126.345 149.383)"/><path d="m0 0 107.69-62.187c2.732-1.577 7.161-1.577 9.893 0L307.212 47.296c2.733 1.577 2.733 4.134 0 5.711l-107.689 62.187c-2.731 1.577-7.161 1.577-9.893 0L0 5.711C-2.732 4.134-2.732 1.577 0 0" style="fill:#375a64;fill-opacity:1;fill-rule:nonzero;stroke:none" transform="translate(131.29 151.885)"/><path d="M0 0v-10.704c-1.793 0-3.587.389-4.946 1.177l-107.695 62.19c-2.73 1.576-4.946 5.254-4.946 8.213 0 2.776 1.954 6.18 4.444 7.894-2.216-1.588-2.045-3.919.502-5.393L-4.946 1.187C-3.587.399-1.793 0 0 0" style="fill:#1a2e35;fill-opacity:1;fill-rule:nonzero;stroke:none" transform="translate(243.93 88.506)"/><path d="M0 0c-2.563 1.479-2.423 3.978-2.423 7.132l-.001 148.747c0 3.154 2.215 6.99 4.946 8.567l189.63 109.483c2.731 1.577 7.023 1.656 9.587.176 2.562-1.48 2.424-3.978 2.424-7.132V118.227c0-3.155-2.215-6.991-4.947-8.568L9.586.177C6.854-1.4 2.563-1.479 0 0" style="fill:#2b454e;fill-opacity:1;fill-rule:nonzero;stroke:none" transform="translate(121.705 157.42)"/><path d="M0 0c0 3.148-2.217 4.425-4.948 2.855l-189.634-109.488c-1.365-.789-2.607-2.146-3.493-3.698l-7.059 4.106h-.009c.896 1.552 2.137 2.909 3.503 3.698L-12.016 6.952c2.732 1.578 7.023 1.658 9.586.177S0 3.148 0 0" style="fill:#375a64;fill-opacity:1;fill-rule:nonzero;stroke:none" transform="translate(325.87 424.397)"/><path d="M0 0c-2.73-1.279-6.614-1.256-9.001.126-2.559 1.473-2.422 3.973-2.422 7.126v148.753c0 1.576.548 3.324 1.451 4.866l7.059-4.088v-.011c-.891-1.554-1.451-3.29-1.451-4.866V3.153C-4.364.229-2.456-1.085 0 0" style="fill:#1a2e35;fill-opacity:1;fill-rule:nonzero;stroke:none" transform="translate(130.707 157.298)"/><path d="m0 0 182.827 105.528c1.64.946 2.969.179 2.969-1.714V-26.033c0-1.893-1.329-4.194-2.969-5.14L0-136.699c-1.639-.947-2.968-.179-2.968 1.713V-5.141C-2.968-3.248-1.639-.947 0 0" style="fill:#fafafa;fill-opacity:1;fill-rule:nonzero;stroke:none" transform="translate(133.951 312.061)"/><path d="m0 0 176.018 101.623c1.366.788 3.581.788 4.946-.001l2.931-1.61c1.366-.788 1.366-2.067 0-2.855L7.851-4.45c-1.366-.788-3.58-.788-4.947 0L0-2.855C-1.366-2.067-1.366-.789 0 0" style="fill:#1a2e35;fill-opacity:1;fill-rule:nonzero;stroke:none" transform="translate(144.978 157.305)"/><path d="m0 0 176.016 101.624c1.366.788 3.389.898 4.519.246l45.815-26.452c1.129-.652.938-1.821-.427-2.609L50.112-28.677c-1.366-.788-3.392-.902-4.525-.253L-.421-2.602C-1.555-1.954-1.366-.789 0 0" style="fill:#1a2e35;fill-opacity:1;fill-rule:nonzero;stroke:none" transform="translate(158.784 149.095)"/><path d="M0 0c.208-.12.567-.108.801.027l5.511 3.182c.234.135.255.342.047.462L1.087 6.715c-.208.12-.566.108-.801-.027l-5.511-3.182c-.234-.135-.255-.342-.047-.462Zm65.979 40.327c.209-.12.567-.108.801.027l5.511 3.182c.234.135.255.342.047.462l-1.403.81c-.208.12-.567.108-.801-.027l-5.511-3.182c-.233-.136-.256-.342-.047-.462Zm42.528-14.764 5.511 3.183c.234.135.255.341.047.462l-5.272 3.044c-.208.12-.567.107-.801-.027l-5.512-3.182c-.233-.136-.254-.342-.046-.462l5.272-3.045c.208-.12.566-.107.801.027m-15.343 17.67c.209-.12.566-.108.801.027l5.512 3.182c.233.135.254.342.046.462l-5.272 3.044c-.208.12-.566.108-.801-.027l-5.511-3.182c-.234-.135-.255-.343-.046-.462zm-11.075 6.394c.208-.12.566-.108.801.027l5.51 3.182c.235.136.255.343.047.463l-1.403.81c-.208.12-.566.108-.801-.027L80.732 50.9c-.234-.135-.255-.342-.046-.462ZM57.925 35.676c.208-.12.566-.108.801.028l5.51 3.182c.235.135.255.342.048.462l-1.404.81c-.208.12-.567.108-.8-.027l-5.512-3.182c-.233-.136-.255-.342-.047-.462ZM16.109 9.3c.208-.12.567-.107.801.028l5.511 3.182c.234.135.255.342.047.462l-5.272 3.044c-.208.12-.566.108-.8-.027l-5.511-3.182c-.235-.136-.256-.342-.048-.462ZM8.055 4.65c.208-.12.566-.108.8.028l5.511 3.181c.235.135.256.343.048.463l-5.272 3.043c-.208.12-.567.109-.801-.027L2.829 8.156c-.233-.135-.255-.342-.047-.462Zm34 19.63c.207-.121.566-.109.8.027l5.511 3.182c.234.135.255.342.047.462l-5.272 3.044c-.208.12-.567.108-.8-.027l-5.512-3.182c-.234-.136-.256-.342-.048-.462ZM24.164 13.951c.208-.12.566-.108.801.027l5.511 3.182c.234.135.255.342.047.463l-5.272 3.044c-.208.119-.566.107-.801-.028l-5.511-3.182c-.234-.135-.255-.342-.047-.462ZM50.109 28.93c.207-.12.567-.108.8.028l5.511 3.181c.234.135.256.342.048.463l-5.273 3.044c-.208.12-.566.107-.8-.028l-5.511-3.182c-.234-.135-.256-.342-.047-.462ZM34 19.629c.207-.12.565-.108.8.028l5.512 3.181c.233.136.254.343.046.463l-5.272 3.043c-.208.121-.566.109-.801-.027l-5.511-3.182c-.234-.135-.255-.342-.047-.462Zm40.034 25.348c.208-.12.567-.108.801.027l5.511 3.182c.234.135.255.342.047.462l-1.404.811c-.208.12-.566.107-.801-.028l-5.51-3.182c-.234-.135-.255-.342-.047-.462zM30.079-19.716l5.512 3.182c.233.135.255.342.047.462l-5.273 3.044c-.208.12-.566.108-.801-.028l-5.51-3.181c-.235-.135-.255-.343-.047-.463l5.271-3.044c.209-.12.567-.108.801.028M13.97-29.017l5.511 3.182c.234.135.255.342.047.462l-5.272 3.044c-.207.12-.567.108-.801-.027l-5.511-3.182c-.234-.135-.255-.342-.047-.462l5.273-3.044c.208-.12.566-.108.8.027m8.054 4.65 5.512 3.182c.235.135.255.343.047.462l-5.272 3.045c-.207.12-.567.107-.801-.028l-5.511-3.182c-.233-.134-.255-.341-.047-.462l5.273-3.044c.208-.12.566-.107.799.027m-32.218-18.601 5.511 3.182c.235.135.256.342.048.462l-5.273 3.044c-.208.12-.566.108-.8-.027l-5.511-3.182c-.235-.135-.256-.342-.048-.462l5.273-3.045c.208-.119.566-.108.8.028m16.11 9.301 5.511 3.182c.234.135.255.342.047.462l-5.273 3.044c-.208.12-.565.108-.8-.028L-.11-30.188c-.234-.135-.255-.343-.047-.462l5.272-3.044c.208-.12.567-.109.801.027m-8.055-4.651 5.511 3.183c.234.135.255.341.047.461l-5.272 3.045c-.208.12-.566.108-.801-.028l-5.511-3.182c-.234-.135-.255-.342-.047-.462l5.273-3.044c.208-.12.566-.108.8.027m75.93 44.274c.209-.12.567-.108.801.027l5.512 3.182c.234.135.254.342.046.462l-5.272 3.044c-.208.121-.566.108-.801-.027l-5.511-3.182c-.234-.135-.254-.342-.046-.462ZM38.134-15.066l5.512 3.182c.234.135.254.342.046.462L38.42-8.378c-.208.121-.566.108-.801-.027l-5.511-3.182c-.234-.135-.254-.342-.046-.462l5.272-3.044c.208-.12.565-.108.8.027m46.731 35.677 5.512 3.183c.233.135.255.342.047.461l-5.273 3.044c-.208.121-.566.108-.8-.027l-5.511-3.181c-.235-.136-.256-.342-.048-.463l5.272-3.044c.208-.12.567-.107.801.027m6.732-4.375c.208-.12.566-.108.799.027l5.512 3.182c.235.135.256.342.047.462l-5.272 3.044c-.207.12-.566.108-.8-.027l-5.512-3.182c-.233-.135-.255-.343-.047-.462ZM46.188-10.416l16.111 9.301c.233.136.255.343.047.463l-5.273 3.044c-.208.119-.566.108-.801-.028L40.163-6.937c-.234-.134-.255-.342-.047-.462l5.273-3.043c.208-.121.565-.109.799.026m21.395 29.747 5.511 3.182c.234.135.255.342.048.462l-5.274 3.044c-.207.12-.565.108-.8-.028l-5.51-3.181c-.236-.136-.256-.342-.048-.462l5.272-3.044c.208-.12.567-.109.801.027m32.868 1.583 5.512 3.181c.234.135.256.342.048.463l-5.273 3.043c-.208.12-.566.108-.8-.027l-5.512-3.181c-.234-.136-.255-.343-.047-.463l5.272-3.044c.208-.12.567-.108.8.028M82.41 8.323c-.208.12-.566.107-.801-.028l-5.51-3.182c-.235-.134-.255-.342-.047-.462l5.272-3.044c.207-.12.566-.107.8.028l5.511 3.181c.234.136.256.342.048.463zM53.583-8.321c-.208.12-.566.108-.801-.027l-6.783-3.916c-.233-.135-.255-.342-.047-.462l5.273-3.044c.208-.121.566-.108.8.027l6.784 3.916c.234.135.254.342.046.462zm-85.21-49.196c-.207.121-.566.108-.801-.027l-6.782-3.916c-.235-.136-.255-.342-.047-.462l5.272-3.044c.208-.12.566-.108.8.027l6.783 3.916c.234.135.256.342.048.462zM34.93-19.09c-.208.12-.567.108-.8-.027l-6.783-3.916c-.235-.136-.256-.342-.048-.463l5.273-3.043c.207-.121.566-.108.8.026l6.783 3.917c.235.135.255.342.047.462zM-22.3-52.132c-.208.12-.567.108-.801-.027l-6.783-3.916c-.234-.135-.255-.342-.047-.463l5.272-3.044c.208-.12.567-.107.801.028l6.783 3.916c.233.135.255.342.047.462zm47.904 27.657c-.208.121-.567.108-.801-.027l-45.36-26.189c-.235-.135-.256-.342-.048-.462l5.273-3.044c.207-.12.566-.108.8.027l45.361 26.189c.233.135.255.342.047.462zM64.605-1.957c-.208.12-.566.107-.8-.027L55.326-6.88c-.234-.135-.255-.342-.048-.462l5.273-3.044c.208-.12.566-.107.801.028l8.478 4.895c.234.135.256.341.048.462zM44.257-13.706c-.208.121-.568.108-.801-.027l-6.783-3.916c-.235-.135-.255-.342-.047-.462l5.272-3.044c.208-.12.567-.108.801.028l6.782 3.916c.235.134.256.342.048.461zm85.395 43.215-12.805 7.393c-.208.12-.566.108-.8-.027l-5.512-3.182c-.233-.135-.255-.342-.047-.462l12.805-7.393c.208-.12.566-.108.8.027l5.511 3.182c.235.135.255.343.048.462m-13.328-1.606c-.208.12-.566.108-.8-.027l-5.511-3.182c-.234-.135-.255-.342-.047-.462l5.272-3.044c.208-.12.567-.108.8.027l5.512 3.182c.234.135.255.342.048.462zM74.355 3.672c-.208.12-.566.108-.8-.027L68.044.463c-.234-.135-.256-.342-.047-.462l5.272-3.044c.208-.12.566-.108.8.027L79.58.166c.234.135.256.342.048.462zm-92.604-51.29 5.512 3.181c.234.136.255.343.047.463l-5.272 3.044c-.208.12-.567.108-.801-.028l-5.511-3.182c-.234-.134-.255-.341-.047-.462l5.272-3.044c.208-.12.567-.107.8.028M90.465 12.973c-.208.12-.567.108-.801-.028l-5.511-3.181c-.234-.136-.255-.342-.047-.462l5.272-3.045c.209-.119.566-.107.801.028l5.511 3.182c.234.135.255.342.047.462zm17.805 10.28c-.208.12-.566.108-.801-.027l-13.565-7.832c-.234-.136-.256-.343-.048-.463l5.273-3.044c.208-.12.566-.108.801.028l13.565 7.832c.234.135.256.341.047.461zM-55.337-31.949c.208-.12.566-.108.8.027l5.512 3.182c.234.135.255.343.047.462l-5.272 3.044c-.208.121-.567.108-.801-.027l-5.511-3.182c-.234-.135-.255-.342-.047-.462zm8.055 4.65c.208-.12.566-.107.801.028l5.51 3.181c.235.136.256.342.048.463l-5.272 3.044c-.209.12-.567.107-.801-.027l-5.511-3.182c-.235-.136-.255-.342-.048-.462zm6.329-35.602c-.209.12-.567.108-.801-.028l-8.478-4.895c-.235-.134-.256-.342-.048-.462l5.273-3.044c.208-.12.566-.108.8.028l8.479 4.894c.234.136.255.343.047.463zm5.23 42.276c.208-.12.567-.108.801.028l5.51 3.181c.235.135.256.342.048.462l-5.272 3.044c-.208.12-.567.108-.801-.027l-5.511-3.182c-.235-.135-.255-.342-.047-.462zm16.11 9.301c.208-.12.566-.109.8.027l5.511 3.182c.234.135.256.342.047.462l-5.272 3.044c-.208.12-.566.108-.801-.027l-5.51-3.182c-.235-.135-.256-.342-.048-.462zm-43.779-25.275c.208-.12.567-.109.801.027l5.511 3.182c.234.135.256.342.048.462l-5.273 3.044c-.208.12-.567.108-.8-.028l-5.512-3.181c-.234-.136-.255-.343-.047-.463zm35.724 20.624c.208-.12.566-.108.8.028l5.512 3.182c.234.135.254.342.046.462l-5.272 3.044c-.208.12-.566.108-.8-.028l-5.511-3.181c-.234-.136-.255-.342-.048-.463zm16.109 9.301c.208-.12.566-.108.8.027l5.511 3.183c.234.134.256.341.048.461L-10.472.041c-.208.121-.567.108-.801-.027l-5.511-3.181c-.234-.136-.256-.343-.048-.463zm-33.35-55.902-5.273 3.044c-.207.12-.566.109-.799-.027l-6.784-3.916c-.234-.135-.255-.343-.047-.462l5.272-3.044c.208-.121.567-.108.801.027l6.783 3.916c.234.135.255.342.047.462m-3.716 6.552-5.272 3.044c-.209.12-.567.107-.801-.028l-10.599-6.118c-.234-.136-.255-.343-.047-.463l5.272-3.044c.208-.12.567-.108.801.028l10.598 6.118c.235.136.256.342.048.463M-71.446-41.25c.208-.12.567-.107.8.027l5.511 3.183c.235.135.256.341.048.461l-5.273 3.045c-.207.12-.566.107-.801-.028l-5.51-3.181c-.234-.136-.256-.342-.048-.463zm-5.2-3.002-5.272 3.044c-.209.12-.567.108-.801-.027l-6.783-3.916c-.234-.136-.256-.343-.047-.463l5.272-3.044c.208-.12.567-.107.8.028l6.784 3.916c.234.134.255.342.047.462m18.369-8.647-5.273 3.043c-.207.12-.566.108-.8-.027l-8.479-4.895c-.234-.135-.255-.342-.047-.462l5.272-3.044c.208-.12.566-.108.801.027l8.478 4.895c.235.136.256.342.048.463m-10.499 2.635-5.273 3.044c-.208.12-.567.108-.801-.028l-5.511-3.181c-.234-.135-.255-.342-.047-.463l5.272-3.044c.209-.12.567-.107.801.028l5.511 3.181c.234.136.255.343.048.463m42.473-2.005 5.511 3.182c.234.135.255.342.047.462l-5.272 3.044c-.208.121-.566.108-.801-.027l-5.511-3.182c-.234-.135-.255-.342-.047-.462l5.272-3.044c.208-.12.566-.108.801.027m10.281 30.289-5.511-3.183c-.234-.135-.256-.341-.048-.462l5.273-3.044c.207-.12.566-.107.8.027l5.511 3.183c.235.135.256.342.048.461l-5.273 3.044c-.207.121-.566.108-.8-.026m-8.054-4.651-5.511-3.182c-.235-.135-.256-.342-.048-.462l5.273-3.044c.207-.12.566-.108.8.027l5.511 3.182c.234.135.256.342.047.463l-5.272 3.043c-.208.12-.567.108-.8-.027M8.142-8.029l-5.511-3.182c-.235-.136-.255-.342-.047-.462l5.271-3.045c.208-.12.567-.107.801.028l5.512 3.182c.234.135.255.341.047.462L8.942-8.002c-.208.12-.566.107-.8-.027M-7.967-17.33l-5.512-3.182c-.233-.135-.255-.342-.047-.462l5.272-3.044c.209-.12.567-.108.801.027l5.511 3.181c.234.136.256.343.047.463l-5.272 3.044c-.208.12-.566.108-.8-.027m8.054 4.65-5.511-3.182c-.234-.135-.255-.342-.047-.462l5.272-3.044c.209-.12.566-.108.801.028l5.51 3.181c.235.135.256.343.048.463L.888-12.653c-.208.12-.567.109-.801-.027m-32.218-18.601-5.511-3.182c-.234-.135-.256-.342-.048-.462l5.273-3.045c.208-.12.566-.107.8.028l5.512 3.182c.233.135.254.342.046.462l-5.272 3.044c-.208.12-.566.108-.8-.027m-8.055-4.651-5.511-3.181c-.234-.136-.255-.343-.048-.463l5.273-3.044c.208-.12.566-.108.801.028l5.511 3.181c.234.136.255.343.047.463l-5.273 3.044c-.207.119-.566.108-.8-.028m26.275-.485 5.512 3.182c.234.135.255.342.047.463l-5.273 3.043c-.207.121-.566.108-.8-.027l-5.511-3.182c-.234-.135-.256-.342-.047-.461l5.272-3.045c.208-.12.566-.108.8.027m-8.054-4.65 5.511 3.182c.234.135.255.342.047.462l-5.272 3.044c-.208.12-.567.108-.801-.027l-5.511-3.182c-.234-.135-.256-.342-.047-.462l5.273-3.044c.207-.12.566-.108.8.027m-8.055-4.65 5.511 3.182c.234.135.256.342.048.462l-5.273 3.044c-.208.12-.566.108-.801-.028l-5.511-3.181c-.233-.136-.255-.343-.047-.463l5.273-3.043c.208-.12.566-.109.8.027m-18.221 5.135-5.511-3.182c-.234-.135-.255-.342-.047-.462l5.272-3.044c.209-.12.567-.108.801.027l5.511 3.182c.234.135.255.342.047.462l-5.272 3.044c-.208.12-.566.108-.801-.027m9.366-9.813c.208-.12.566-.108.8.027l5.512 3.182c.233.136.255.342.047.462l-5.273 3.044c-.208.12-.566.108-.8-.027l-5.511-3.182c-.234-.135-.255-.342-.047-.462zM24.251 1.271 18.74-1.911c-.234-.135-.255-.341-.047-.462l5.273-3.044c.208-.12.565-.108.8.027l5.511 3.182c.235.136.255.343.047.462l-5.272 3.044c-.208.121-.567.108-.801-.027m67.868 23.964c.208-.12.567-.108.801.027l5.512 3.182c.233.135.255.342.047.462l-5.273 3.044c-.208.12-.566.108-.801-.027l-5.51-3.182c-.235-.135-.256-.343-.048-.462ZM16.197-3.379l-5.511-3.182c-.235-.135-.255-.342-.047-.462l5.271-3.044c.209-.12.568-.108.801.027l5.512 3.182c.234.135.255.342.047.462l-5.273 3.044c-.208.121-.566.108-.8-.027m60.621 35-5.51-3.182c-.235-.135-.256-.342-.048-.462l5.273-3.044c.208-.12.567-.108.8.027l5.512 3.182c.233.136.255.342.047.462l-5.273 3.044c-.208.12-.566.108-.801-.027m18.606 10.307 12.805-7.393c.208-.12.566-.107.8.028l5.511 3.181c.234.135.256.342.048.463L101.783 45.6c-.208.119-.566.107-.801-.028l-5.51-3.181c-.235-.136-.256-.343-.048-.463m-1.695-.979c-.208.12-.567.108-.801-.027l-5.511-3.182c-.234-.136-.256-.343-.047-.462l5.273-3.044c.207-.12.566-.108.799.027l5.511 3.181c.235.136.256.343.048.463zM85.388 29.61l5.511 3.183c.234.135.255.341.047.461l-5.272 3.045c-.208.12-.567.107-.8-.028l-5.512-3.181c-.234-.136-.256-.342-.048-.463l5.274-3.044c.207-.12.566-.107.8.027m15.587.303 5.51 3.181c.235.135.256.343.048.463L101.26 36.6c-.208.12-.566.108-.8-.027l-5.511-3.182c-.234-.135-.256-.342-.048-.462l5.273-3.044c.208-.12.566-.108.801.028M2.199-27.116l5.511 3.182c.234.135.255.342.047.462l-5.273 3.044c-.208.12-.565.108-.799-.027l-5.512-3.182c-.234-.135-.255-.342-.047-.462l5.272-3.044c.208-.12.567-.108.801.027m83.997 72.414c-.208.119-.566.108-.8-.027l-5.511-3.182c-.234-.136-.255-.342-.047-.463l5.272-3.043c.207-.121.567-.108.8.026l5.511 3.183c.234.135.256.341.048.461zM32.82-.739l5.512 3.181c.234.136.255.343.047.463l-5.273 3.044c-.208.12-.566.108-.8-.027L26.795 2.74c-.234-.136-.255-.342-.048-.462L32.02-.767c.209-.12.567-.107.8.028M77.341 40.62l-5.511-3.182c-.233-.135-.255-.342-.048-.462l5.274-3.044c.207-.12.566-.108.799.027l5.512 3.182c.234.135.255.342.047.463l-5.272 3.043c-.208.12-.566.108-.801-.027M59.536 30.34l-5.511-3.182c-.234-.135-.255-.342-.047-.462l5.272-3.044c.208-.12.566-.108.801.028l5.511 3.181c.234.136.255.343.047.463l-5.272 3.044c-.208.12-.566.107-.801-.028m9.751 5.63-5.512-3.182c-.234-.135-.254-.342-.047-.462l5.273-3.044c.208-.12.566-.108.801.027l5.511 3.182c.234.135.254.342.046.462l-5.272 3.044c-.208.12-.566.107-.8-.027M-5.856-31.767l5.511 3.183c.235.135.255.342.048.461l-5.273 3.045c-.208.12-.566.107-.8-.027l-5.511-3.182c-.235-.136-.256-.342-.048-.463l5.273-3.043c.208-.121.566-.108.8.026m-36.775 3.121-5.511-3.182c-.234-.135-.255-.342-.047-.462l5.272-3.044c.208-.121.566-.108.8.027l5.512 3.182c.234.135.255.342.047.462l-5.272 3.044c-.209.12-.566.108-.801-.027m8.055 4.65-5.511-3.182c-.234-.134-.256-.342-.048-.461l5.273-3.045c.208-.12.566-.108.8.028l5.512 3.181c.233.136.255.343.047.463l-5.272 3.044c-.208.12-.567.107-.801-.028m8.055 4.651-5.511-3.182c-.235-.135-.257-.342-.048-.462l5.273-3.044c.207-.12.566-.109.8.027l5.511 3.182c.234.135.256.342.047.462l-5.272 3.044c-.208.12-.567.109-.8-.027m16.108 9.301-5.51-3.183c-.235-.134-.256-.341-.048-.461l5.273-3.044c.208-.121.566-.109.8.027l5.511 3.182c.235.135.256.342.048.462l-5.272 3.044c-.209.12-.567.108-.802-.027m-40.273-23.252-5.511-3.183c-.234-.134-.255-.341-.047-.461l5.272-3.044c.208-.12.567-.109.801.027l5.511 3.182c.234.135.255.342.047.462l-5.272 3.044c-.208.12-.566.108-.801-.027m32.219 18.601-5.511-3.181c-.234-.136-.255-.343-.047-.463l5.272-3.044c.208-.12.566-.108.8.027l5.512 3.183c.234.134.255.341.047.461l-5.273 3.045c-.208.12-.566.107-.8-.028M-58.74-37.947l-5.511-3.181c-.235-.136-.255-.343-.047-.463l5.272-3.044c.208-.12.566-.108.8.028l5.511 3.182c.235.134.256.342.048.462l-5.272 3.044c-.208.12-.567.107-.801-.028m15.527-23.65c.208-.12.567-.108.8.027l5.512 3.183c.234.135.255.341.047.462l-5.272 3.044c-.209.12-.567.108-.801-.028l-5.511-3.182c-.234-.135-.255-.342-.047-.462zm8.855 4.678 5.511 3.182c.234.135.256.342.048.462l-5.273 3.045c-.208.119-.566.107-.801-.029l-5.511-3.181c-.233-.135-.255-.343-.047-.462l5.273-3.044c.208-.12.566-.109.8.027m-22.224 4.999c.208-.121.567-.108.801.026l5.511 3.183c.234.135.255.342.047.461l-5.272 3.045c-.208.12-.566.107-.8-.027l-5.511-3.182c-.235-.136-.256-.342-.048-.462zm-10.213 9.323-5.511-3.182c-.234-.135-.256-.342-.047-.462l5.272-3.044c.208-.12.566-.108.801.027l5.511 3.182c.234.135.255.342.047.462l-5.273 3.044c-.208.12-.566.108-.8-.027m19.865-12.448c.208-.121.567-.108.801.027l5.511 3.182c.234.135.255.342.047.462l-5.272 3.044c-.208.12-.567.108-.801-.027l-5.511-3.182c-.234-.135-.255-.342-.047-.462zM-2.357-5.394l-5.512-3.182c-.234-.135-.255-.342-.047-.462l5.272-3.045c.208-.12.567-.107.801.028l5.511 3.182c.234.135.255.342.048.462l-5.273 3.044c-.208.12-.567.108-.8-.027m8.054 4.65L.186-3.926c-.234-.135-.255-.342-.047-.462l5.272-3.044c.208-.12.567-.108.801.028l5.511 3.181c.234.136.255.342.047.462L6.498-.716c-.208.12-.566.107-.801-.028m36.776-3.12 12.294 7.098c.233.136.254.342.046.462l-12.804 7.393c-.208.12-.567.107-.8-.027L34.85 7.39c-.235-.135-.255-.342-.048-.462l6.779-3.914c.208-.12.187-.327-.048-.462L36.446-.385c-.233-.135-.255-.343-.047-.462l5.273-3.044c.208-.121.566-.108.801.027m9.001 13.894 5.51 3.182c.235.135.255.342.048.462l-5.273 3.044c-.207.12-.566.108-.8-.027l-5.511-3.182c-.234-.135-.256-.342-.048-.462l5.273-3.044c.208-.121.566-.108.801.027m-41.22-32.495 5.511 3.181c.234.136.255.343.047.463l-5.273 3.044c-.208.119-.565.108-.8-.028l-5.51-3.182c-.235-.135-.256-.342-.048-.462l5.272-3.044c.208-.12.567-.108.801.028m8.055 4.65 5.51 3.182c.235.135.255.341.047.462l-5.271 3.044c-.208.12-.567.108-.801-.027l-5.512-3.182c-.234-.136-.255-.342-.047-.462l5.273-3.044c.208-.12.566-.108.801.027m8.054 4.65 5.511 3.182c.234.135.255.342.047.462l-5.272 3.044c-.208.12-.566.108-.8-.027l-5.512-3.182c-.233-.135-.255-.342-.047-.462l5.272-3.044c.209-.12.567-.108.801.027m8.055 4.65 5.511 3.182c.233.136.256.343.047.462l-5.272 3.045c-.209.12-.567.107-.801-.028l-5.51-3.181c-.235-.135-.256-.342-.048-.463l5.272-3.044c.208-.12.567-.107.801.027M13.752 3.907 8.24.725C8.007.59 7.985.383 8.193.263l5.273-3.044c.208-.12.566-.108.801.027l5.51 3.182c.235.135.256.342.047.462l-5.271 3.044c-.208.12-.567.108-.801-.027m8.055 4.65-5.511-3.182c-.234-.135-.256-.342-.048-.462l5.273-3.044c.208-.12.566-.108.8.027l5.511 3.182c.234.135.255.342.047.462l-5.272 3.044c-.208.121-.567.108-.8-.027m21.62 12.483-5.512-3.183c-.233-.134-.255-.341-.047-.461l5.274-3.044c.207-.121.565-.108.799.027l5.511 3.182c.235.135.256.342.048.462l-5.272 3.043c-.208.121-.567.109-.801-.026m-9.75-5.63-9.327-5.385c-.234-.134-.255-.342-.047-.462l5.272-3.043c.208-.121.567-.108.801.027l9.326 5.384c.235.135.256.342.047.463l-5.271 3.044c-.209.12-.568.107-.801-.028m17.804 10.28-5.511-3.182c-.234-.135-.255-.342-.047-.462l5.272-3.045c.208-.119.567-.107.801.028l5.511 3.182c.234.135.256.342.048.462l-5.273 3.044c-.208.12-.566.108-.801-.027m8.047-11.009 5.511 3.181c.234.136.255.343.048.463l-5.273 3.044c-.209.12-.567.107-.8-.028l-5.512-3.182c-.234-.135-.255-.342-.047-.462l5.273-3.044c.208-.12.566-.108.8.028" style="fill:#375a64;fill-opacity:1;fill-rule:nonzero;stroke:none" transform="translate(251.776 193.355)"/><path d="m0 0 1.13-.651 30.014-17.326L84.52 12.84l1.111.634-31.144 17.977Z" style="fill:#2b454e;fill-opacity:1;fill-rule:nonzero;stroke:none" transform="translate(275.613 151.814)"/><path d="m0 0 30.014-17.326L83.39 13.492 53.357 30.818Z" style="fill:#1a2e35;fill-opacity:1;fill-rule:nonzero;stroke:none" transform="translate(276.743 151.162)"/></g><g clip-path="url(#g)" transform="matrix(1.33333 0 0 -1.33333 0 666.667)"><path d="m0 0-12.229 7.06c-.543.314-.94.393-1.154.268-.256-.15-1.275-.739-1.49-.861-.259-.148-.255-.591.074-1.271l2.975-6.159L-14.044-3c-1.018-.934-.873-2.25.323-2.941l12.228-7.06L0-12.138z" style="fill:#00dfbf;fill-opacity:1;fill-rule:nonzero;stroke:none" transform="translate(107.063 286.795)"/><g clip-path="url(#h)" opacity=".5"><path d="m0 0-12.229 7.06c-.543.314-.94.393-1.154.268-.256-.15-1.275-.739-1.49-.861-.259-.148-.255-.591.074-1.271l2.975-6.159L-14.044-3c-1.018-.934-.873-2.25.323-2.941l12.228-7.06L0-12.138z" style="fill:#fff;fill-opacity:1;fill-rule:nonzero;stroke:none" transform="translate(107.063 286.795)"/></g><path d="M0 0c-1.196.69-1.678.242-1.078-1.001L1.897-7.16l-2.22-2.038c-1.018-.933-.873-2.25.323-2.94l12.229-7.06V-7.06Z" style="fill:#00dfbf;fill-opacity:1;fill-rule:nonzero;stroke:none" transform="translate(93.342 292.992)"/><path d="M0 0c-.794 0-1.437.643-1.437 1.437v40.62a1.437 1.437 0 1 0 2.874 0V1.437C1.437.643.793 0 0 0" style="fill:#375a64;fill-opacity:1;fill-rule:nonzero;stroke:none" transform="translate(107.007 247.89)"/><path d="M0 0v2.538h.626c.729 1.477 2.095 2.872 4.11 4.035 6.319 3.648 16.562 3.648 22.88 0 2.015-1.163 3.381-2.558 4.11-4.035h.619V.081c.051-2.428-1.52-4.865-4.729-6.718-6.318-3.648-16.561-3.648-22.88 0C1.563-4.805-.014-2.401 0 0" style="fill:#1a2e35;fill-opacity:1;fill-rule:nonzero;stroke:none" transform="translate(54.385 139.727)"/><path d="M0 0c-6.318 3.648-16.562 3.648-22.88 0s-6.318-9.562 0-13.209 16.562-3.648 22.88 0C6.318-9.562 6.318-3.647 0 0" style="fill:#375a64;fill-opacity:1;fill-rule:nonzero;stroke:none" transform="translate(82.001 148.87)"/><path d="m0 0-.003-86.853c0-.615-.407-1.23-1.22-1.7-1.626-.939-4.262-.939-5.888 0-.813.47-1.22 1.085-1.22 1.7L-8.328 0Z" style="fill:#2b454e;fill-opacity:1;fill-rule:nonzero;stroke:none" transform="translate(74.728 230.225)"/><path d="M0 0v-8.17l8.329-4.797.002 8.149z" style="fill:#1a2e35;fill-opacity:1;fill-rule:nonzero;stroke:none" transform="translate(66.397 219.72)"/><path d="m0 0 15.4-8.9c-.08-.12-.19-.24-.3-.31l-26.94-15.55c-.23-.13-.41-.03-.41.24v19.41c0 3.38.78 7.14 2.25 10.88z" style="fill:#00dfbf;fill-opacity:1;fill-rule:nonzero;stroke:none" transform="translate(96.6 237.995)"/><g clip-path="url(#i)" opacity=".4"><path d="m0 0 15.4-8.9c-.08-.12-.19-.24-.3-.31l-26.94-15.55c-.23-.13-.41-.03-.41.24v19.41c0 3.38.78 7.14 2.25 10.88z" style="fill:#000;fill-opacity:1;fill-rule:nonzero;stroke:none" transform="translate(96.6 237.995)"/></g><path d="M0 0v-21.72L-25.514-6.986q.04.107.083.213C-22.695.061-18.083 5.856-13.083 8.732c2.05 1.187 3.992 1.787 5.77 1.787C-2.803 10.519 0 6.488 0 0" style="fill:#00dfbf;fill-opacity:1;fill-rule:nonzero;stroke:none" transform="translate(112.118 250.747)"/><g clip-path="url(#j)" opacity=".3"><path d="M0 0v-21.72L-25.514-6.986q.04.107.083.213C-22.695.061-18.083 5.856-13.083 8.732c2.05 1.187 3.992 1.787 5.77 1.787C-2.803 10.519 0 6.488 0 0" style="fill:#000;fill-opacity:1;fill-rule:nonzero;stroke:none" transform="translate(112.118 250.747)"/></g><path d="m0 0-.001 1.94h-.184v-.277a8.4 8.4 0 0 1-.506 1.57c-1.018 2.377-3.164 4.656-6.44 6.548l-18.232 10.526c-.759.438-1.987.438-2.749 0L-55.987 4.214c-.294.263-.616.522-.886.976V3.235c0-.287.19-.573.569-.793l18.232-10.525c4.878-2.818 11.259-4.202 17.438-4.12 5.349.07 10.548 1.238 14.509 3.53C-2.026-6.317-.006-3.191-.006 0z" style="fill:#00dfbf;fill-opacity:1;fill-rule:nonzero;stroke:none" transform="translate(139.829 204.78)"/><g clip-path="url(#k)" opacity=".4"><path d="m0 0-.001 1.94h-.184v-.277a8.4 8.4 0 0 1-.506 1.57c-1.018 2.377-3.164 4.656-6.44 6.548l-18.232 10.526c-.759.438-1.987.438-2.749 0L-55.987 4.214c-.294.263-.616.522-.886.976V3.235c0-.287.19-.573.569-.793l18.232-10.525c4.878-2.818 11.259-4.202 17.438-4.12 5.349.07 10.548 1.238 14.509 3.53C-2.026-6.317-.006-3.191-.006 0z" style="fill:#000;fill-opacity:1;fill-rule:nonzero;stroke:none" transform="translate(139.829 204.78)"/></g><path d="M0 0c-1.019 2.377-3.165 4.656-6.44 6.548l-18.232 10.526c-.759.438-1.987.438-2.749 0L-55.296.981l17.915-10.345c4.878-2.818 11.258-4.202 17.438-4.119 5.349.072 10.548 1.24 14.509 3.529C-1.755-7.837.254-5.104.625-2.257A8.1 8.1 0 0 1 0 0" style="fill:#00dfbf;fill-opacity:1;fill-rule:nonzero;stroke:none" transform="translate(139.138 208.013)"/><g clip-path="url(#l)" opacity=".2"><path d="M0 0c-1.019 2.377-3.165 4.656-6.44 6.548l-18.232 10.526c-.759.438-1.987.438-2.749 0L-55.296.981l17.915-10.345c4.878-2.818 11.258-4.202 17.438-4.119 5.349.072 10.548 1.24 14.509 3.529C-1.755-7.837.254-5.104.625-2.257A8.1 8.1 0 0 1 0 0" style="fill:#000;fill-opacity:1;fill-rule:nonzero;stroke:none" transform="translate(139.138 208.013)"/></g><path d="M0 0a8.2 8.2 0 0 1-.625 2.257c-1.019 2.377-3.165 4.656-6.44 6.548l-18.232 10.526c-.759.438-1.988.438-2.749 0L-55.921 3.238l-.318.18c-.759.438-.759 1.149 0 1.588l28.193 16.276c.761.438 1.99.438 2.749 0l18.232-10.525c3.275-1.892 5.421-4.171 6.44-6.548a8.3 8.3 0 0 0 .644-2.397A7.5 7.5 0 0 0 0 0" style="fill:#00dfbf;fill-opacity:1;fill-rule:nonzero;stroke:none" transform="translate(139.763 205.756)"/><g clip-path="url(#m)" opacity=".3"><path d="M0 0a8.2 8.2 0 0 1-.625 2.257c-1.019 2.377-3.165 4.656-6.44 6.548l-18.232 10.526c-.759.438-1.988.438-2.749 0L-55.921 3.238l-.318.18c-.759.438-.759 1.149 0 1.588l28.193 16.276c.761.438 1.99.438 2.749 0l18.232-10.525c3.275-1.892 5.421-4.171 6.44-6.548a8.3 8.3 0 0 0 .644-2.397A7.5 7.5 0 0 0 0 0" style="fill:#000;fill-opacity:1;fill-rule:nonzero;stroke:none" transform="translate(139.763 205.756)"/></g><path d="m0 0 28.192 16.277-.625 1.473L.625 2.193Z" style="fill:#00dfbf;fill-opacity:1;fill-rule:nonzero;stroke:none" transform="translate(84.138 211.04)"/><g clip-path="url(#n)" opacity=".1"><path d="m0 0 28.192 16.277-.625 1.473L.625 2.193Z" style="fill:#000;fill-opacity:1;fill-rule:nonzero;stroke:none" transform="translate(84.138 211.04)"/></g><path d="M0 0c0 .428-.3.948-.671 1.162l-34.325 19.817c-.37.214-.971.214-1.341 0l-.757-.436c-.37-.214-.671-.734-.671-1.162V-6.93c0-.425.302-.948.671-1.162l34.325-19.817c.369-.213.973-.213 1.342 0l.756.437c.369.213.671.736.671 1.161Z" style="fill:#f5f5f5;fill-opacity:1;fill-rule:nonzero;stroke:none" transform="translate(109.633 252.042)"/><path d="m0 0-1.904-1.098-35.468 20.479c.121.209.289.393.473.501l.758.435c.369.216.972.216 1.34 0L-.476.501C-.289.394-.121.209 0 0" style="fill:#e1e1e1;fill-opacity:1;fill-rule:nonzero;stroke:none" transform="translate(109.437 252.703)"/><path d="M0 0c.041-.01.081-.01.13-.01H.09C.05-.01.03-.01 0 0" style="fill:#00dfbf;fill-opacity:1;fill-rule:nonzero;stroke:none" transform="translate(107.376 223.988)"/><path d="m0 0-.35-.21C-.14-.29 0-.5 0-.78v-26.31c0-.22-.08-.37-.21-.44a.44.44 0 0 0-.32-.01c-.05.02-.1.04-.14.06L-35-7.66c-.37.22-.67.74-.67 1.16v26.31c0 .22.08.46.2.67z" style="fill:#ececec;fill-opacity:1;fill-rule:nonzero;stroke:none" transform="translate(107.537 251.608)"/><g clip-path="url(#o)" opacity=".2"><path d="m0 0-15.896-5.939a2.58 2.58 0 0 0-3.066 1.009l-2.553 3.911-14.08 21.571 13.571-21.718-13.641-5.338a1.4 1.4 0 0 1 .21-.67l13.469 5.947 2.966-4.747a2.584 2.584 0 0 1 3.235-.993l2.112.932L-.207-27.526c.127.067.207.219.207.441v.438L-13.607-6.006z" style="fill:#000;fill-opacity:1;fill-rule:nonzero;stroke:none" transform="translate(107.533 251.605)"/></g><path d="M0 0c0 .428-.3.948-.671 1.162l-34.325 19.817c-.37.214-.971.214-1.341 0l-.757-.436c-.37-.214-.671-.734-.671-1.162V-6.93c0-.426.302-.948.671-1.162l34.325-19.817c.369-.213.973-.213 1.342 0l.756.436c.369.214.671.737.671 1.162Z" style="fill:#f5f5f5;fill-opacity:1;fill-rule:nonzero;stroke:none" transform="translate(101.508 247.385)"/><path d="m0 0-1.904-1.099-35.468 20.48c.121.209.289.393.473.501l.758.435c.369.216.972.216 1.34 0L-.476.501C-.289.394-.121.209 0 0" style="fill:#e1e1e1;fill-opacity:1;fill-rule:nonzero;stroke:none" transform="translate(101.313 248.046)"/><path d="M0 0c.04-.01.08-.01.13-.01H.09C.05-.01.03-.01 0 0" style="fill:#00dfbf;fill-opacity:1;fill-rule:nonzero;stroke:none" transform="translate(99.252 219.332)"/><path d="m0 0-.35-.21C-.14-.29 0-.5 0-.78v-26.31c0-.22-.08-.37-.21-.44a.44.44 0 0 0-.32-.01c-.05.02-.1.04-.14.06L-35-7.66c-.37.22-.67.74-.67 1.16v26.31c0 .22.08.46.2.67z" style="fill:#ececec;fill-opacity:1;fill-rule:nonzero;stroke:none" transform="translate(99.412 246.951)"/><g clip-path="url(#p)" opacity=".2"><path d="m0 0-15.896-5.938a2.58 2.58 0 0 0-3.066 1.009l-2.553 3.91-14.08 21.571 13.571-21.718-13.641-5.337a1.4 1.4 0 0 1 .21-.67l13.469 5.946 2.966-4.747a2.584 2.584 0 0 1 3.235-.993l2.112.932L-.207-27.526c.127.067.207.219.207.442v.438l-13.607 20.64z" style="fill:#000;fill-opacity:1;fill-rule:nonzero;stroke:none" transform="translate(99.408 246.948)"/></g><path d="M0 0c0 .428-.3.948-.671 1.162l-34.325 19.817c-.37.214-.971.214-1.341 0l-.757-.436c-.37-.214-.671-.734-.671-1.162V-6.93c0-.426.302-.949.671-1.162l34.325-19.817c.369-.213.973-.213 1.342 0l.756.436c.369.213.671.736.671 1.162Z" style="fill:#f5f5f5;fill-opacity:1;fill-rule:nonzero;stroke:none" transform="translate(93.384 242.729)"/><path d="m0 0-1.904-1.098-35.468 20.479c.121.21.289.394.473.502l.758.435c.369.216.972.216 1.34 0L-.476.501C-.289.394-.121.209 0 0" style="fill:#e1e1e1;fill-opacity:1;fill-rule:nonzero;stroke:none" transform="translate(93.188 243.39)"/><path d="M0 0c.04-.01.08-.01.13-.01H.09C.05-.01.03-.01 0 0" style="fill:#00dfbf;fill-opacity:1;fill-rule:nonzero;stroke:none" transform="translate(91.128 214.675)"/><path d="m0 0-.35-.21C-.14-.29 0-.5 0-.78v-26.31c0-.22-.08-.37-.21-.44a.44.44 0 0 0-.32-.01c-.05.02-.1.04-.14.06L-35-7.66c-.37.22-.67.74-.67 1.16v26.31c0 .22.08.46.2.67z" style="fill:#ececec;fill-opacity:1;fill-rule:nonzero;stroke:none" transform="translate(91.288 242.295)"/><g clip-path="url(#q)" opacity=".2"><path d="m0 0-15.896-5.938a2.58 2.58 0 0 0-3.066 1.009l-2.553 3.91-14.08 21.571 13.571-21.718-13.641-5.338c.004-.216.083-.457.21-.669l13.469 5.946 2.966-4.747a2.584 2.584 0 0 1 3.235-.993l2.112.932L-.207-27.526c.127.067.207.219.207.442v.438l-13.607 20.64z" style="fill:#000;fill-opacity:1;fill-rule:nonzero;stroke:none" transform="translate(91.284 242.292)"/></g><path d="M0 0c-2.73 1.43-6.35 1.18-10.31-1.11-4.45-2.56-8.46-7.19-11.27-12.51a39 39 0 0 1-1.76-3.78c-1.55-3.86-2.45-7.9-2.45-11.68v-22.18c-.5 0-.99.12-1.37.33l-39.494 22.812c-.75.44-1.37 1.511-1.37 2.381v21.059c0 10.52 6.93 23.04 15.47 27.98 4.05 2.341 7.73 2.531 10.49.98l.01.02z" style="fill:#00dfbf;fill-opacity:1;fill-rule:nonzero;stroke:none" transform="translate(108.55 261.965)"/><g clip-path="url(#r)" opacity=".2"><path d="M0 0c-2.73 1.43-6.35 1.18-10.31-1.11-4.45-2.56-8.46-7.19-11.27-12.51a39 39 0 0 1-1.76-3.78c-1.55-3.86-2.45-7.9-2.45-11.68v-22.18c-.5 0-.99.12-1.37.33l-39.494 22.812c-.75.44-1.37 1.511-1.37 2.381v21.059c0 10.52 6.93 23.04 15.47 27.98 4.05 2.341 7.73 2.531 10.49.98l.01.02z" style="fill:#000;fill-opacity:1;fill-rule:nonzero;stroke:none" transform="translate(108.55 261.965)"/></g><g clip-path="url(#s)" opacity=".1"><path d="m0 0 39.494-22.812c.38-.21.87-.33 1.37-.33v22.18c0 2.02.264 4.113.74 6.214L-.64 29.642c-.471-2.096-.73-4.186-.73-6.202V2.38C-1.37 1.51-.75.44 0 0" style="fill:#000;fill-opacity:1;fill-rule:nonzero;stroke:none" transform="translate(41.897 233.847)"/></g><path d="M0 0c-1.55-3.86-2.45-7.9-2.45-11.68v-22.18c-.17 0-.34.02-.5.05-.01 1.28-.02 8.4-.02 22.13 0 16.32 12.55 26.69 16 27.97C8.58 13.73 4.57 9.1 1.76 3.78A39 39 0 0 1 0 0" style="fill:#00dfbf;fill-opacity:1;fill-rule:nonzero;stroke:none" transform="translate(85.21 244.565)"/><g clip-path="url(#t)" opacity=".4"><path d="M0 0c-1.55-3.86-2.45-7.9-2.45-11.68v-22.18c-.17 0-.34.02-.5.05-.01 1.28-.02 8.4-.02 22.13 0 16.32 12.55 26.69 16 27.97C8.58 13.73 4.57 9.1 1.76 3.78A39 39 0 0 1 0 0" style="fill:#000;fill-opacity:1;fill-rule:nonzero;stroke:none" transform="translate(85.21 244.565)"/></g><path d="M0 0c-.228-.131-.412-.025-.412.238v19.413c0 3.384.781 7.139 2.253 10.878q.04.106.083.212a37 37 0 0 0 1.879 3.996c2.736 5.06 6.478 9.215 10.468 11.51 2.051 1.187 3.993 1.787 5.771 1.787 1.124 0 2.142-.251 3.038-.727 2.697-1.438 4.275-4.923 4.275-9.792V16.271a.91.91 0 0 0-.413-.715l.625-1.473q.073.043.141.089c.206.143.399.334.567.55q.005 0 .004.006c.4.505.663 1.162.663 1.736v21.051c0 5.634-1.99 9.554-5.151 11.214-2.737 1.435-6.349 1.184-10.313-1.108-4.447-2.558-8.456-7.186-11.275-12.509a39 39 0 0 1-1.752-3.78c-1.549-3.86-2.45-7.897-2.45-11.681V-2.523q.119 0 .238.009c.416.029.819.137 1.136.321z" style="fill:#00dfbf;fill-opacity:1;fill-rule:nonzero;stroke:none" transform="translate(84.763 213.232)"/><g clip-path="url(#u)" opacity=".1"><path d="M0 0c-.228-.131-.412-.025-.412.238v19.413c0 3.384.781 7.139 2.253 10.878q.04.106.083.212a37 37 0 0 0 1.879 3.996c2.736 5.06 6.478 9.215 10.468 11.51 2.051 1.187 3.993 1.787 5.771 1.787 1.124 0 2.142-.251 3.038-.727 2.697-1.438 4.275-4.923 4.275-9.792V16.271a.91.91 0 0 0-.413-.715l.625-1.473q.073.043.141.089c.206.143.399.334.567.55q.005 0 .004.006c.4.505.663 1.162.663 1.736v21.051c0 5.634-1.99 9.554-5.151 11.214-2.737 1.435-6.349 1.184-10.313-1.108-4.447-2.558-8.456-7.186-11.275-12.509a39 39 0 0 1-1.752-3.78c-1.549-3.86-2.45-7.897-2.45-11.681V-2.523q.119 0 .238.009c.416.029.819.137 1.136.321z" style="fill:#000;fill-opacity:1;fill-rule:nonzero;stroke:none" transform="translate(84.763 213.232)"/></g></g><g clip-path="url(#v)" transform="matrix(1.33333 0 0 -1.33333 0 666.667)"><path d="M0 0c0 1.657 1.163 3.671 2.598 4.5l128.174 73.996c1.435.828 3.761.828 5.196 0l2.928-1.691c1.436-.828 2.599-2.843 2.599-4.5V-29.574c0-1.65-1.17-3.675-2.599-4.5L10.723-108.069c-1.429-.825-3.767-.825-5.196 0l-2.928 1.691c-1.429.824-2.599 2.849-2.599 4.5Z" style="fill:#00dfbf;fill-opacity:1;fill-rule:nonzero;stroke:none" transform="translate(178.94 270.123)"/><g clip-path="url(#w)" opacity=".7"><path d="M0 0c0 1.657 1.163 3.671 2.598 4.5l128.174 73.996c1.435.828 3.761.828 5.196 0l2.928-1.691c1.436-.828 2.599-2.843 2.599-4.5V-29.574c0-1.65-1.17-3.675-2.599-4.5L10.723-108.069c-1.429-.825-3.767-.825-5.196 0l-2.928 1.691c-1.429.824-2.599 2.849-2.599 4.5Z" style="fill:#fff;fill-opacity:1;fill-rule:nonzero;stroke:none" transform="translate(178.94 270.123)"/></g><path d="m0 0 7.374-4.253 132.599 76.559c-.467.811-1.118 1.524-1.831 1.942l-2.937 1.684c-1.426.836-3.761.836-5.187 0L1.843 1.942C1.118 1.524.467.811 0 0" style="fill:#00dfbf;fill-opacity:1;fill-rule:nonzero;stroke:none" transform="translate(179.698 272.683)"/><g clip-path="url(#x)" opacity=".8"><path d="m0 0 7.374-4.253 132.599 76.559c-.467.811-1.118 1.524-1.831 1.942l-2.937 1.684c-1.426.836-3.761.836-5.187 0L1.843 1.942C1.118 1.524.467.811 0 0" style="fill:#fff;fill-opacity:1;fill-rule:nonzero;stroke:none" transform="translate(179.698 272.683)"/></g><g clip-path="url(#y)" opacity=".1"><path d="M0 0v-101.877c0-1.66 1.167-3.675 2.605-4.498l2.926-1.697a4.3 4.3 0 0 1 .713-.32c.332-.11.688-.196 1.069-.245a6.4 6.4 0 0 1 2.561.199c.111.037.226.072.316.111-.479-.173-.911-.126-1.255.046-.491.259-.799.848-.799 1.709V-4.695c0 1.069.541 1.881 1.352 2.212l-1.352.787L.762 2.557C.295 1.745 0 .824 0 0" style="fill:#00dfbf;fill-opacity:1;fill-rule:nonzero;stroke:none" transform="translate(178.935 270.126)"/></g><g clip-path="url(#z)" opacity=".05"><path d="M0 0v-101.877c0-1.66 1.167-3.675 2.605-4.498l2.926-1.697a4.3 4.3 0 0 1 .713-.32c.332-.11.688-.196 1.069-.245a6.4 6.4 0 0 1 2.561.199c.111.037.226.072.316.111-.479-.173-.911-.126-1.255.046-.491.259-.799.848-.799 1.709V-4.695c0 1.069.541 1.881 1.352 2.212l-1.352.787L.762 2.557C.295 1.745 0 .824 0 0" style="fill:#000;fill-opacity:1;fill-rule:nonzero;stroke:none" transform="translate(178.935 270.126)"/></g><g clip-path="url(#A)" opacity=".2"><path d="m0 0 61.552-22.996a10 10 0 0 1 11.872 3.909l9.885 15.143 49.29 80.503L85.28-4.513l48.081-23.411c-.012-.836-.319-1.77-.811-2.593L85.132-4.749 73.646-23.131c-2.643-4.216-7.977-5.863-12.524-3.847l-8.179 3.61L.799-106.584c-.491.258-.799.848-.799 1.708v1.696l52.688 79.925z" style="fill:#00dfbf;fill-opacity:1;fill-rule:nonzero;stroke:none" transform="translate(187.072 268.43)"/></g><g clip-path="url(#B)" opacity=".05"><path d="m0 0 61.552-22.996a10 10 0 0 1 11.872 3.909l9.885 15.143 49.29 80.503L85.28-4.513l48.081-23.411c-.012-.836-.319-1.77-.811-2.593L85.132-4.749 73.646-23.131c-2.643-4.216-7.977-5.863-12.524-3.847l-8.179 3.61L.799-106.584c-.491.258-.799.848-.799 1.708v1.696l52.688 79.925z" style="fill:#000;fill-opacity:1;fill-rule:nonzero;stroke:none" transform="translate(187.072 268.43)"/></g><path d="M0 0c0 1.657 1.163 3.671 2.598 4.5l128.174 73.995c1.435.829 3.762.829 5.196.001l2.929-1.691c1.435-.828 2.598-2.843 2.598-4.5V-29.574c0-1.65-1.169-3.675-2.598-4.5L10.723-108.069c-1.429-.825-3.767-.825-5.196 0l-2.928 1.69c-1.429.825-2.599 2.85-2.599 4.5z" style="fill:#00dfbf;fill-opacity:1;fill-rule:nonzero;stroke:none" transform="translate(211.436 251.343)"/><g clip-path="url(#C)" opacity=".5"><path d="M0 0c0 1.657 1.163 3.671 2.598 4.5l128.174 73.995c1.435.829 3.762.829 5.196.001l2.929-1.691c1.435-.828 2.598-2.843 2.598-4.5V-29.574c0-1.65-1.169-3.675-2.598-4.5L10.723-108.069c-1.429-.825-3.767-.825-5.196 0l-2.928 1.69c-1.429.825-2.599 2.85-2.599 4.5z" style="fill:#fff;fill-opacity:1;fill-rule:nonzero;stroke:none" transform="translate(211.436 251.343)"/></g><path d="m0 0 7.374-4.252 132.6 76.559c-.468.811-1.12 1.524-1.832 1.942l-2.938 1.683c-1.426.836-3.761.836-5.186 0L1.843 1.942C1.118 1.524.467.812 0 0" style="fill:#00dfbf;fill-opacity:1;fill-rule:nonzero;stroke:none" transform="translate(212.194 253.901)"/><g clip-path="url(#D)" opacity=".6"><path d="m0 0 7.374-4.252 132.6 76.559c-.468.811-1.12 1.524-1.832 1.942l-2.938 1.683c-1.426.836-3.761.836-5.186 0L1.843 1.942C1.118 1.524.467.812 0 0" style="fill:#fff;fill-opacity:1;fill-rule:nonzero;stroke:none" transform="translate(212.194 253.901)"/></g><g clip-path="url(#E)" opacity=".1"><path d="M0 0v-101.877c0-1.66 1.167-3.675 2.605-4.498l2.926-1.697a4.3 4.3 0 0 1 .713-.32c.332-.11.688-.196 1.069-.245a6.4 6.4 0 0 1 2.053.074c.172.036.344.085.503.135.111.036.21.074.308.123-.48-.173-.898-.148-1.242.024-.491.258-.799.848-.799 1.709V-4.695c0 1.069.541 1.881 1.352 2.212l-1.352.787L.762 2.556C.295 1.745 0 .823 0 0" style="fill:#000;fill-opacity:1;fill-rule:nonzero;stroke:none" transform="translate(211.432 251.345)"/></g><g clip-path="url(#F)" opacity=".4"><path d="m0 0 61.552-22.996a10 10 0 0 1 11.873 3.909l9.884 15.143L132.6 76.559 85.279-4.513l48.082-23.411c-.012-.836-.319-1.77-.811-2.593L85.132-4.749 73.646-23.131c-2.642-4.216-7.977-5.863-12.524-3.847l-8.179 3.61L.799-106.584c-.491.257-.799.848-.799 1.708v1.696l52.688 79.925z" style="fill:#00dfbf;fill-opacity:1;fill-rule:nonzero;stroke:none" transform="translate(219.568 249.649)"/></g><g clip-path="url(#G)" opacity=".05"><path d="m0 0 61.552-22.996a10 10 0 0 1 11.873 3.909l9.884 15.143L132.6 76.559 85.279-4.513l48.082-23.411c-.012-.836-.319-1.77-.811-2.593L85.132-4.749 73.646-23.131c-2.642-4.216-7.977-5.863-12.524-3.847l-8.179 3.61L.799-106.584c-.491.257-.799.848-.799 1.708v1.696l52.688 79.925z" style="fill:#000;fill-opacity:1;fill-rule:nonzero;stroke:none" transform="translate(219.568 249.649)"/></g></g><g clip-path="url(#H)" transform="matrix(1.33333 0 0 -1.33333 0 666.667)"><path d="m0 0 133.381 77.008 5.337-3.082c1.381-.796 2.51-2.752 2.51-4.345v-98.393c0-1.594-1.129-3.549-2.51-4.346L10.356-107.269c-1.381-.796-3.639-.796-5.019 0l-2.827 1.633c-1.381.797-2.51 2.753-2.51 4.346Z" style="fill:#00dfbf;fill-opacity:1;fill-rule:nonzero;stroke:none" transform="translate(244.202 231.745)"/><g clip-path="url(#I)" opacity=".2"><path d="m0 0 133.381 77.008 5.337-3.082c1.381-.796 2.51-2.752 2.51-4.345v-98.393c0-1.594-1.129-3.549-2.51-4.346L10.356-107.269c-1.381-.796-3.639-.796-5.019 0l-2.827 1.633c-1.381.797-2.51 2.753-2.51 4.346Z" style="fill:#000;fill-opacity:1;fill-rule:nonzero;stroke:none" transform="translate(244.202 231.745)"/></g><path d="m0 0 .546.297-2.072 1.204v-.002a3.6 3.6 0 0 1-.551.263l-58.701 21.752c-1.554.575-3.572-.066-4.508-1.433l-65.665-95.894c-.936-1.367-1.695-3.818-1.694-5.475v-6.368l2.035-1.182L.736-8.65v6.37C.736-1.505.453-.7 0 0" style="fill:#00dfbf;fill-opacity:1;fill-rule:nonzero;stroke:none" transform="translate(376.847 317.402)"/><g clip-path="url(#J)" opacity=".1"><path d="M0 0c-.26-.2-.49-.45-.68-.72l-65.67-95.89c-.48-.71-.92-1.71-1.22-2.74l-2.04 1.18c.15.5.33.99.53 1.45.01.02.01.03.02.04.09.2.18.39.28.58.02.03.03.06.05.09.11.21.23.41.35.58L-2.72.46c.1.15.21.27.33.4.11.11.23.22.35.32z" style="fill:#000;fill-opacity:1;fill-rule:nonzero;stroke:none" transform="translate(314.28 339.019)"/></g><g clip-path="url(#K)" opacity=".35"><path d="M0 0c-.18.11-.37.2-.56.27l-58.71 21.76c-1.24.46-2.78.14-3.82-.72l-2.04 1.18c1.05.85 2.58 1.18 3.83.72L-2.6 1.46q.283-.105.55-.27Z" style="fill:#fff;fill-opacity:1;fill-rule:nonzero;stroke:none" transform="translate(377.37 317.709)"/></g><path d="M0 0" style="fill:#00dfbf;fill-opacity:1;fill-rule:nonzero;stroke:none" transform="translate(245.546 243.012)"/><path d="M0 0" style="fill:#00dfbf;fill-opacity:1;fill-rule:nonzero;stroke:none" transform="translate(311.89 339.879)"/><path d="M0 0" style="fill:#00dfbf;fill-opacity:1;fill-rule:nonzero;stroke:none" transform="translate(244.666 240.846)"/><path d="M0 0" style="fill:#00dfbf;fill-opacity:1;fill-rule:nonzero;stroke:none" transform="translate(245.217 242.342)"/><g clip-path="url(#L)" opacity=".2"><path d="m0 0 .017.042z" style="fill:#000;fill-opacity:1;fill-rule:nonzero;stroke:none" transform="translate(245.2 242.3)"/></g><g clip-path="url(#M)" opacity=".2"><path d="M0 0" style="fill:#000;fill-opacity:1;fill-rule:nonzero;stroke:none" transform="translate(244.666 240.846)"/></g><g clip-path="url(#N)" opacity=".2"><path d="M0 0" style="fill:#000;fill-opacity:1;fill-rule:nonzero;stroke:none" transform="translate(312.242 340.198)"/></g><g clip-path="url(#O)" opacity=".2"><path d="M0 0q.024.048.048.096Q.024.048 0 0" style="fill:#000;fill-opacity:1;fill-rule:nonzero;stroke:none" transform="translate(245.498 242.917)"/></g><g clip-path="url(#P)" opacity=".2"><path d="M0 0" style="fill:#000;fill-opacity:1;fill-rule:nonzero;stroke:none" transform="translate(311.56 339.483)"/></g><path d="m0 0-65.665-95.894c-.936-1.367-1.694-3.818-1.694-5.475v-6.368L66.023-30.725l-.001 6.364c0 1.656-1.259 3.466-2.813 4.042L4.508 1.433C2.954 2.008.937 1.367 0 0" style="fill:#00dfbf;fill-opacity:1;fill-rule:nonzero;stroke:none" transform="translate(313.596 338.301)"/><g clip-path="url(#Q)" opacity=".05"><path d="M0 0c0 .761-.274 1.55-.713 2.242l-132.196-76.513-.013-.021c-.283-.951-.46-1.923-.459-2.716v-6.368L.001-6.363Z" style="fill:#000;fill-opacity:1;fill-rule:nonzero;stroke:none" transform="translate(379.618 313.94)"/></g><path d="M0 0c0 .686-.238 1.168-.625 1.397-.393.231-3.68 2.124-4.071 2.35-.392.226-.933.193-1.531-.152l-109.405-63.162c-1.195-.69-2.165-2.369-2.165-3.75l.001-131.023c0-.69.242-1.175.633-1.401l4.063-2.345c.392-.227.934-.194 1.532.151l109.404 63.162c1.196.69 2.165 2.37 2.165 3.75z" style="fill:#f0f0f0;fill-opacity:1;fill-rule:nonzero;stroke:none" transform="translate(373.92 340.969)"/><path d="m0 0 109.404 63.162c1.197.691 2.165 2.37 2.165 3.75l-.001 131.023c0 1.381-.968 1.94-2.165 1.25L-.001 136.023c-1.195-.69-2.165-2.369-2.165-3.75L-2.165 1.25C-2.165-.13-1.196-.69 0 0" style="fill:#fafafa;fill-opacity:1;fill-rule:nonzero;stroke:none" transform="translate(262.353 143.034)"/><path d="M0 0q-.118-2.943.6-4.165.713-1.222 2.154-.485 1.52.776 2.346 2.758.822 1.98.944 4.984.117 2.942-.577 4.205-.697 1.26-2.217.483Q1.81 7.045.965 4.994.117 2.942 0 0m18.777 7.312a19 19 0 0 0-.818-4.361Q17.312.913 16.383-.708q-.931-1.625-2.065-2.792-1.134-1.17-2.285-1.758-2.056-1.05-3.151-.759-1.097.293-1.632 1.019a48 48 0 0 0-.747-1.558 9.7 9.7 0 0 0-.988-1.565 10 10 0 0 0-1.469-1.517q-.877-.743-2.151-1.394-1.52-.778-2.72-.538-1.199.24-2.018 1.409-.82 1.17-1.201 3.18-.384 2.01-.272 4.773.109 2.762.651 5.246.543 2.484 1.43 4.524.886 2.044 2.135 3.564t2.771 2.301q1.684.86 2.477.532.792-.333 1.282-1.198l.022.541q.027.658.373 1.307.349.65.801.882l2.138 1.092q.45.233.762-.081.308-.312.283-.972l-.511-12.791q-.059-1.442.549-1.897.606-.455 1.427-.035.823.422 1.452 1.537.627 1.115.788 3.08.146 1.663.216 3.436.07 1.77.01 3.27-.116 3.176-.794 5.299-.682 2.123-1.992 3.069-1.313.947-3.354.727-2.044-.223-4.88-1.672a16.7 16.7 0 0 1-4.315-3.179 22 22 0 0 1-3.359-4.424 27.2 27.2 0 0 1-2.348-5.348A32 32 0 0 1-7.584.709a27 27 0 0 1-.186-2.124 185 185 0 0 1-.216-5.436 25 25 0 0 1 .016-2.108q.131-2.757.858-4.739.726-1.984 2.012-3.059 1.286-1.078 3.138-1.101 1.852-.024 4.236 1.196a25 25 0 0 1 2.93 1.733 19.5 19.5 0 0 1 2.185 1.765 18 18 0 0 1 1.619 1.741q.677.847 1.234 1.661.472.709.747 1.058.275.347.729.579l3.042 1.557q.45.23.783-.042.332-.271.259-1.073-.019-.48-.323-1.047a77 77 0 0 0-2.057-3.583 27 27 0 0 0-2.704-3.677q-1.562-1.799-3.685-3.532t-5.001-3.207q-3.579-1.829-6.228-1.685-2.653.143-4.419 1.799-1.768 1.655-2.698 4.563-.931 2.905-1.027 6.563-.007.819.028 2.221a205 205 0 0 0 .235 5.854q.075 1.394.146 2.194.356 3.827 1.541 7.819a38 38 0 0 0 3.184 7.599 33 33 0 0 0 4.795 6.6 23 23 0 0 0 6.374 4.819q4.193 2.145 7.052 2.137t4.627-1.632q1.765-1.628 2.553-4.637.787-3.009.874-6.847a68 68 0 0 0-.063-3.592 78 78 0 0 0-.229-3.734" style="fill:#00dfbf;fill-opacity:1;fill-rule:nonzero;stroke:none" transform="translate(313.688 259.725)"/><path d="M0 0c0-.61.189-1.06.51-1.32C-.221-.91-3.061.74-3.42.94c-.4.23-.641.71-.641 1.4v131.03c0 .69.241 1.45.641 2.13l4.06-2.34c-.401-.68-.64-1.45-.64-2.14Z" style="fill:#e1e1e1;fill-opacity:1;fill-rule:nonzero;stroke:none" transform="translate(260.184 144.285)"/><path d="M0 0a1 1 0 0 0-.139-.2l-55.583 17.625c-4.365 1.938-9.475.359-12.011-3.698l-59.42-88.316-2.199-1.269-.019-.011c-.666-.369-1.263-.419-1.7-.189l61.111 91.034a9.6 9.6 0 0 0 12.022 3.708z" style="fill:#00dfbf;fill-opacity:1;fill-rule:nonzero;stroke:none" transform="translate(382.045 201.622)"/><g clip-path="url(#R)" opacity=".4"><path d="m0 0 .14.12-54.09-79.771-2.2-1.27-.021-.01c-.659-.37-1.26-.41-1.7-.19L-2.141 1.28Z" style="fill:#fff;fill-opacity:1;fill-rule:nonzero;stroke:none" transform="translate(308.84 206.68)"/></g><g clip-path="url(#S)" opacity=".4"><path d="M0 0c-.04-.07-.08-.13-.141-.2L-55.73 17.432c-4.361 1.94-9.47.36-12.01-3.701l-2.2 1.281a9.595 9.595 0 0 0 12 3.679z" style="fill:#fff;fill-opacity:1;fill-rule:nonzero;stroke:none" transform="translate(382.05 201.618)"/></g><path d="M0 0h-.01c-.12.72-.5.92-.99.58-.189-.13-.41-.35-.64-.66l-.28-.39-54.85-83.389-8.19-11.41c-.92-1.3-2.94-2.05-4.51-1.69l-7.07 1.68-53.97 19.869c-.39.09-.76.1-1.1.04-.14-.03-.28-.07-.41-.13l2.035 1.176 51.743-18.964 6.812-2.431c1.56-.37 3.58.38 4.51 1.69l8.191 11.4L-3.61 1.15c.18.25.4.43.62.57l-4.77 2.75 2 1.15 3.3-1.9C-1.26 3.02-.25 1.45 0 0" style="fill:#00dfbf;fill-opacity:1;fill-rule:nonzero;stroke:none" transform="translate(385.383 301.954)"/><g clip-path="url(#T)" opacity=".4"><path d="m0 0-8.19-11.41c-.92-1.3-2.94-2.05-4.51-1.69l-7.07 1.68.14.12.34.54 4.63-1.1c1.56-.37 3.58.38 4.51 1.69l8.11 11.28z" style="fill:#fff;fill-opacity:1;fill-rule:nonzero;stroke:none" transform="translate(328.61 218.1)"/></g><g clip-path="url(#U)" opacity=".1"><path d="m0 0-3.3 1.9-2-1.15L-.529-2l.011-.009-.008.005a2.2 2.2 0 0 1-.62-.57L-56.27-86.349l-.08-.109v-.011l2.04-1.11L.54-4.19l.28.39c.231.31.451.53.641.66.489.34.869.14.989-.58h.011C2.211-2.27 1.2-.7 0 0" style="fill:#000;fill-opacity:1;fill-rule:nonzero;stroke:none" transform="translate(382.919 305.678)"/></g><path d="m0 0-11.767 6.797v-101.29c0-1.593 1.129-3.549 2.51-4.346l2.827-1.633c1.38-.797 3.639-.797 5.019 0L0-99.657Z" style="fill:#00dfbf;fill-opacity:1;fill-rule:nonzero;stroke:none" transform="translate(255.969 224.948)"/><g clip-path="url(#V)" opacity=".15"><path d="m0 0-11.767 6.797v-101.29c0-1.593 1.129-3.549 2.51-4.346l2.827-1.633c1.38-.797 3.639-.797 5.019 0L0-99.657Z" style="fill:#000;fill-opacity:1;fill-rule:nonzero;stroke:none" transform="translate(255.969 224.948)"/></g><path d="M0 0v-98.39c0-.83-.3-1.74-.779-2.54-.401-.66-.901-1.25-1.471-1.65l-.1-.05c-.06-.04-.1-.08-.16-.11l-128.36-74.1-.02-.01c-.67-.38-1.27-.43-1.71-.2-.389.2-.66.61-.75 1.2q-.03.21-.03.45V-77c0 1.59 1.25 2.59 2.82 2.22l53.97-19.869 7.07-1.68c1.57-.36 3.59.39 4.51 1.69l8.191 11.41L-1.97.16l.281.39C-.76 1.84 0 1.6 0 0" style="fill:#00dfbf;fill-opacity:1;fill-rule:nonzero;stroke:none" transform="translate(385.433 301.324)"/><path d="M0 0c.058.029.105.068.164.106l.097.058c.569.396 1.072.985 1.468 1.642.474.789.768 1.688.778 2.498l-56.813 15.207 38.045-28.898z" style="fill:#00dfbf;fill-opacity:1;fill-rule:nonzero;stroke:none" transform="translate(382.922 198.583)"/><g clip-path="url(#W)" opacity=".2"><path d="M0 0c.058.029.105.068.164.106l.097.058c.569.396 1.072.985 1.468 1.642.474.789.768 1.688.778 2.498l-56.813 15.207 38.045-28.898z" style="fill:#000;fill-opacity:1;fill-rule:nonzero;stroke:none" transform="translate(382.922 198.583)"/></g><path d="M0 0c0-.831.299-1.4.782-1.651.445-.232 1.043-.184 1.709.193l.02.009 44.193 25.514L56.797 80.75.002 1.635Z" style="fill:#00dfbf;fill-opacity:1;fill-rule:nonzero;stroke:none" transform="translate(252.05 125.928)"/><g clip-path="url(#X)" opacity=".15"><path d="m0 0-61.46-91.082c-.479.25-.779.821-.779 1.65l.003 1.636L-2.199 1.24c0 .01.01.02.019.03z" style="fill:#000;fill-opacity:1;fill-rule:nonzero;stroke:none" transform="translate(314.29 215.36)"/></g><path d="M0 0c-.396-.657-.898-1.246-1.468-1.642l-.096-.058-128.525-74.21-.019-.009c-.666-.377-1.265-.425-1.709-.193l61.465 91.097a9.66 9.66 0 0 0 12.085 3.709z" style="fill:#00dfbf;fill-opacity:1;fill-rule:nonzero;stroke:none" transform="translate(384.65 200.39)"/><g clip-path="url(#Y)" opacity=".15"><path d="m0 0 2.04-1.18c-.29-.96-.47-1.94-.47-2.74v-6.36L-.47-9.1v6.37c0 .79.18 1.77.47 2.73" style="fill:#000;fill-opacity:1;fill-rule:nonzero;stroke:none" transform="translate(244.67 240.849)"/></g><path d="m0 0-2.034-1.176-2.061 1.19-5.07 2.92 1.971 1.17z" style="fill:#00dfbf;fill-opacity:1;fill-rule:nonzero;stroke:none" transform="translate(255.398 227.63)"/><g clip-path="url(#Z)" opacity=".1"><path d="m0 0-7.284 4.142-1.97-1.17 5.069-2.92 2.061-1.19.021.013q.187.08.385.122c.34.06.71.049 1.1-.04l4.101-1.514L50.596-19.9l.736 1.092z" style="fill:#000;fill-opacity:1;fill-rule:nonzero;stroke:none" transform="translate(255.487 227.592)"/></g></g><g clip-path="url(#aa)" transform="matrix(1.33333 0 0 -1.33333 0 666.667)"><path d="m0 0-7.618-4.398c.037.34.064.677.064 1.008v2.207c0 3.928-2.758 5.52-6.159 3.556-1.377-.795-2.645-2.056-3.671-3.53-.556 4.939-4.431 6.778-9.138 4.061-5.088-2.938-9.214-10.083-9.214-15.959v-3.301c0-1.522.282-2.804.78-3.826l-6.328-3.653c-1.886-1.09-3.416-3.739-3.416-5.917s1.53-3.062 3.416-1.973L0-7.89C1.887-6.8 3.417-4.151 3.417-1.972 3.417.206 1.887 1.089 0 0" style="fill:#f0f0f0;fill-opacity:1;fill-rule:nonzero;stroke:none" transform="translate(145.026 397.926)"/><path d="m0 0-9.379-5.415c.046.419.079.835.079 1.242v2.717c0 4.835-3.394 6.795-7.582 4.377-1.696-.979-3.256-2.53-4.519-4.345-.685 6.079-5.455 8.344-11.249 4.999-6.265-3.617-11.343-12.412-11.343-19.646v-4.065c0-1.874.347-3.451.96-4.709l-7.79-4.498c-2.323-1.341-4.206-4.602-4.206-7.284s1.883-3.769 4.206-2.428L0-9.713C2.323-8.372 4.206-5.11 4.206-2.428 4.206.253 2.323 1.341 0 0" style="fill:#f0f0f0;fill-opacity:1;fill-rule:nonzero;stroke:none" transform="translate(108.143 423.042)"/></g><path d="m0 0 35.377 22.656 15.583-5.003ZM0 0l30.576 25.499-6.795 7.846z" style="fill:#00dfbf;fill-opacity:1;fill-rule:nonzero;stroke:none" transform="matrix(1.33333 0 0 -1.33333 539.944 219.631)"/><path d="M0 0v-5.917l-30.576-19.582Z" style="fill:#00dfbf;fill-opacity:1;fill-rule:nonzero;stroke:none" transform="matrix(1.33333 0 0 -1.33333 580.712 185.633)"/><g clip-path="url(#ab)" transform="matrix(1.33333 0 0 -1.33333 0 666.667)"><g clip-path="url(#ac)" opacity=".25"><path d="M0 0v-5.917l-30.576-19.582Z" style="fill:#000;fill-opacity:1;fill-rule:nonzero;stroke:none" transform="translate(435.534 360.775)"/></g><path d="M0 0a.75.75 0 0 0-.061 1.498 76 76 0 0 0 6.054.252h.001a.75.75 0 0 0 .001-1.5A75 75 0 0 1 .062.002zm16.956-.533a1 1 0 0 0-.109.008 74 74 0 0 1-5.906.621.75.75 0 0 0 .098 1.497c2.01-.13 4.037-.343 6.024-.634a.75.75 0 0 0-.107-1.492M-10.86-1.684a.75.75 0 0 0-.167 1.481C-9.071.248-7.069.626-5.076.921a.75.75 0 0 0 .221-1.483 75 75 0 0 1-5.836-1.103.8.8 0 0 0-.169-.019m38.538-1.253a.8.8 0 0 0-.219.033 72 72 0 0 1-5.744 1.496.75.75 0 0 0 .318 1.466 73 73 0 0 0 5.863-1.527.751.751 0 0 0-.218-1.468M-21.36-4.925a.75.75 0 0 0-.274 1.448 76 76 0 0 0 5.728 1.978.75.75 0 0 0 .431-1.436 74 74 0 0 1-5.612-1.939.8.8 0 0 0-.273-.051m59.268-2.017a.76.76 0 0 0-.325.074 71 71 0 0 1-5.447 2.357.75.75 0 1 0 .537 1.4 72 72 0 0 0 5.562-2.406.75.75 0 0 0-.327-1.425m-69.174-2.741a.749.749 0 0 0-.376 1.399 73 73 0 0 0 5.371 2.81.751.751 0 0 0 .64-1.357 72 72 0 0 1-5.261-2.752.75.75 0 0 0-.374-.1m78.593-2.9a.75.75 0 0 0-.451.151 48 48 0 0 1-4.924 3.255.75.75 0 0 0 .75 1.299 50 50 0 0 0 5.078-3.356.752.752 0 0 0-.453-1.349m7.834-7.675c-.224 0-.447.1-.595.291a39 39 0 0 1-3.943 4.361.75.75 0 1 0 1.035 1.086 40 40 0 0 0 4.096-4.53.75.75 0 0 0-.593-1.208m5.252-9.609a.75.75 0 0 0-.709.504 32 32 0 0 1-2.423 5.328.751.751 0 0 0 1.305.742 33.5 33.5 0 0 0 2.536-5.579.75.75 0 0 0-.709-.995m1.614-10.813-.034.001a.75.75 0 0 0-.716.783 27 27 0 0 1-.363 5.817.75.75 0 0 0 1.479.251c.273-1.613.412-3.248.412-4.859q0-.64-.03-1.277a.75.75 0 0 0-.748-.716m-2.732-10.572a.75.75 0 0 0-.67 1.086 25.2 25.2 0 0 1 1.983 5.463.75.75 0 0 0 1.459-.345 26.6 26.6 0 0 0-2.1-5.79.75.75 0 0 0-.672-.414m-5.628-7.468a.751.751 0 0 0-.509 1.301 26 26 0 0 1 2.888 3.151.75.75 0 1 0 1.187-.917 27.4 27.4 0 0 0-3.057-3.336.75.75 0 0 0-.509-.199" style="fill:#e1e1e1;fill-opacity:1;fill-rule:nonzero;stroke:none" transform="translate(386.963 419.99)"/></g></svg>