<svg xmlns="http://www.w3.org/2000/svg" width="666.667" height="666.667"><defs><clipPath id="a" clipPathUnits="userSpaceOnUse"><path d="M0 500h500V0H0Z"/></clipPath><clipPath id="b" clipPathUnits="userSpaceOnUse"><path d="M0 500h500V0H0Z"/></clipPath><clipPath id="c" clipPathUnits="userSpaceOnUse"><path d="M0 500h500V0H0Z"/></clipPath><clipPath id="d" clipPathUnits="userSpaceOnUse"><path d="M0 500h500V0H0Z"/></clipPath><clipPath id="e" clipPathUnits="userSpaceOnUse"><path d="M344.753 217.006h39.487v-70.925h-39.487Z"/></clipPath><clipPath id="f" clipPathUnits="userSpaceOnUse"><path d="M0 500h500V0H0Z"/></clipPath><clipPath id="g" clipPathUnits="userSpaceOnUse"><path d="M66.579 301.456h74.152V143.011H66.579Z"/></clipPath><clipPath id="h" clipPathUnits="userSpaceOnUse"><path d="M87.417 154.457h9.851v-11.446h-9.85Z"/></clipPath><clipPath id="i" clipPathUnits="userSpaceOnUse"><path d="M249.684 139.71h7.827v-7.978h-7.827z"/></clipPath><clipPath id="j" clipPathUnits="userSpaceOnUse"><path d="M263.487 140.365h2.878v-6.542h-2.878z"/></clipPath><clipPath id="k" clipPathUnits="userSpaceOnUse"><path d="M118.388 145.533h45.197V95.125h-45.197z"/></clipPath><clipPath id="l" clipPathUnits="userSpaceOnUse"><path d="M150.018 200.489h60.045v-30.952h-60.045z"/></clipPath><clipPath id="m" clipPathUnits="userSpaceOnUse"><path d="M203.222 179.383a63 63 0 0 1-6.892-.803 60.8 60.8 0 0 1-12.844-3.688c-21.387-8.832-34.748-29.378-30.482-54.044 5.066-29.299 32.347-49.045 60.935-44.101 28.588 4.942 47.655 32.702 42.588 62.002-4.44 25.683-25.379 40.742-49.735 40.741a60 60 0 0 1-3.57-.107"/></clipPath><clipPath id="n" clipPathUnits="userSpaceOnUse"><path d="M152.669 194.91H291.71V59.831H152.669Z"/></clipPath><clipPath id="o" clipPathUnits="userSpaceOnUse"><path d="M0 500h500V0H0Z"/></clipPath><clipPath id="p" clipPathUnits="userSpaceOnUse"><path d="M152.216 139.128h45.537V83.28h-45.537z"/></clipPath><clipPath id="q" clipPathUnits="userSpaceOnUse"><path d="M204.036 192.273h24.812v-13.846h-24.812z"/></clipPath><clipPath id="r" clipPathUnits="userSpaceOnUse"><path d="M249.947 160.898h3.576v-5.033h-3.576z"/></clipPath><clipPath id="s" clipPathUnits="userSpaceOnUse"><path d="M245.266 158.85h3.646v-5.201h-3.646z"/></clipPath><clipPath id="t" clipPathUnits="userSpaceOnUse"><path d="M168.984 115.862h8.409v-8.16h-8.409z"/></clipPath><clipPath id="u" clipPathUnits="userSpaceOnUse"><path d="M182.623 117.245h3.005v-6.592h-3.005z"/></clipPath><clipPath id="v" clipPathUnits="userSpaceOnUse"><path d="M89.83 166.006h77.77V69.111H89.83Z"/></clipPath><clipPath id="w" clipPathUnits="userSpaceOnUse"><path d="M158.58 176.147h53.441v-47.245H158.58Z"/></clipPath><clipPath id="x" clipPathUnits="userSpaceOnUse"><path d="M208.131 141.56h3.901v-5.038h-3.901z"/></clipPath><clipPath id="y" clipPathUnits="userSpaceOnUse"><path d="M203.473 139.191h4.02v-5.161h-4.02z"/></clipPath><clipPath id="z" clipPathUnits="userSpaceOnUse"><path d="M167.221 180.545h26.106v-10.998h-26.106z"/></clipPath><clipPath id="A" clipPathUnits="userSpaceOnUse"><path d="M193.623 256.72h28.567v-23.333h-28.567Z"/></clipPath><clipPath id="B" clipPathUnits="userSpaceOnUse"><path d="M140.142 235.397h30.026v-26.359h-30.026z"/></clipPath><clipPath id="C" clipPathUnits="userSpaceOnUse"><path d="M0 500h500V0H0Z"/></clipPath><clipPath id="D" clipPathUnits="userSpaceOnUse"><path d="M343.121 308.436h6.894V138.919h-6.894z"/></clipPath><clipPath id="E" clipPathUnits="userSpaceOnUse"><path d="M0 500h500V0H0Z"/></clipPath><clipPath id="F" clipPathUnits="userSpaceOnUse"><path d="M337.949 433.798h4.672v-48.481h-4.672z"/></clipPath><clipPath id="G" clipPathUnits="userSpaceOnUse"><path d="M347.614 427.805h2.4v-54.768h-2.4z"/></clipPath><clipPath id="H" clipPathUnits="userSpaceOnUse"><path d="M334.992 435.504h4.715v-75.995h-4.715z"/></clipPath><clipPath id="I" clipPathUnits="userSpaceOnUse"><path d="M340.665 245.966h4.089V140.824h-4.089z"/></clipPath><clipPath id="J" clipPathUnits="userSpaceOnUse"><path d="M336.786 311.726h5.834V186.67h-5.834z"/></clipPath><clipPath id="K" clipPathUnits="userSpaceOnUse"><path d="M335.349 314.097h2.02v-46.924h-2.02z"/></clipPath><clipPath id="L" clipPathUnits="userSpaceOnUse"><path d="M337.09 204.236h2.61v-60.558h-2.61z"/></clipPath><clipPath id="M" clipPathUnits="userSpaceOnUse"><path d="M342.523 428.219h3.989V383.07h-3.989z"/></clipPath><clipPath id="N" clipPathUnits="userSpaceOnUse"><path d="M0 500h500V0H0Z"/></clipPath><clipPath id="O" clipPathUnits="userSpaceOnUse"><path d="M350.016 267.822h10.015v-19.83h-10.015z"/></clipPath><clipPath id="P" clipPathUnits="userSpaceOnUse"><path d="M334.992 270.712h15.025v-22.72h-15.025z"/></clipPath><clipPath id="Q" clipPathUnits="userSpaceOnUse"><path d="M0 500h500V0H0Z"/></clipPath><clipPath id="R" clipPathUnits="userSpaceOnUse"><path d="M331.574 321.01h98.913v-55.108h-98.913z"/></clipPath><clipPath id="S" clipPathUnits="userSpaceOnUse"><path d="M244.099 402.305h69.486v-44.862h-69.486z"/></clipPath><clipPath id="T" clipPathUnits="userSpaceOnUse"><path d="M355.758 311.412h74.729v-40.567h-74.729z"/></clipPath><clipPath id="U" clipPathUnits="userSpaceOnUse"><path d="M244.068 379.908h122.788V311.12H244.068Z"/></clipPath><clipPath id="V" clipPathUnits="userSpaceOnUse"><path d="M295.411 363.262h135.076v-77.52H295.411Z"/></clipPath><clipPath id="W" clipPathUnits="userSpaceOnUse"><path d="M244.109 408.099h109.525v-63.352H244.109Z"/></clipPath><clipPath id="X" clipPathUnits="userSpaceOnUse"><path d="M300.486 369.632h130.001v-76.5H300.486Z"/></clipPath><clipPath id="Y" clipPathUnits="userSpaceOnUse"><path d="M244.059 375.242h99.981V316.15h-99.981z"/></clipPath><clipPath id="Z" clipPathUnits="userSpaceOnUse"><path d="M244.077 388.043h186.41V277.267h-186.41z"/></clipPath><clipPath id="aa" clipPathUnits="userSpaceOnUse"><path d="M244.054 396.585h55.4v-37.522h-55.4z"/></clipPath><clipPath id="ab" clipPathUnits="userSpaceOnUse"><path d="M263.618 400.262h166.869V260.878H263.618Z"/></clipPath><clipPath id="ac" clipPathUnits="userSpaceOnUse"><path d="M0 500h500V0H0Z"/></clipPath><clipPath id="ad" clipPathUnits="userSpaceOnUse"><path d="M335.405 364.171h98.913v-55.107h-98.913z"/></clipPath><clipPath id="ae" clipPathUnits="userSpaceOnUse"><path d="M249.095 444.796h68.321v-44.191h-68.321z"/></clipPath><clipPath id="af" clipPathUnits="userSpaceOnUse"><path d="M359.589 354.574h74.729v-40.567h-74.729z"/></clipPath><clipPath id="ag" clipPathUnits="userSpaceOnUse"><path d="M249.064 423.94h121.623v-69.658H249.064Z"/></clipPath><clipPath id="ah" clipPathUnits="userSpaceOnUse"><path d="M299.242 406.424h135.076v-77.521H299.242Z"/></clipPath><clipPath id="ai" clipPathUnits="userSpaceOnUse"><path d="M249.105 450.59h108.36v-62.681h-108.36z"/></clipPath><clipPath id="aj" clipPathUnits="userSpaceOnUse"><path d="M304.317 412.794h130.001v-76.5H304.317Z"/></clipPath><clipPath id="ak" clipPathUnits="userSpaceOnUse"><path d="M249.055 417.733h98.817v-58.421h-98.817z"/></clipPath><clipPath id="al" clipPathUnits="userSpaceOnUse"><path d="M249.073 430.534h185.245V320.429H249.073Z"/></clipPath><clipPath id="am" clipPathUnits="userSpaceOnUse"><path d="M249.05 439.076h54.235v-36.851H249.05Z"/></clipPath><clipPath id="an" clipPathUnits="userSpaceOnUse"><path d="M0 500h500V0H0Z"/></clipPath><clipPath id="ao" clipPathUnits="userSpaceOnUse"><path d="M267.45 443.423h166.868V304.039H267.45Z"/></clipPath><clipPath id="ap" clipPathUnits="userSpaceOnUse"><path d="M0 500h500V0H0Z"/></clipPath><clipPath id="aq" clipPathUnits="userSpaceOnUse"><path d="M339.123 308.294h98.914v-61.172h-98.914z"/></clipPath><clipPath id="ar" clipPathUnits="userSpaceOnUse"><path d="M252.813 329.827h68.321v-37.195h-68.321z"/></clipPath><clipPath id="as" clipPathUnits="userSpaceOnUse"><path d="M363.308 289.966h74.729v-47.957h-74.729z"/></clipPath><clipPath id="at" clipPathUnits="userSpaceOnUse"><path d="M252.783 350.738h121.622v-73.294H252.783Z"/></clipPath><clipPath id="au" clipPathUnits="userSpaceOnUse"><path d="M302.96 307.8h135.077v-81.202H302.96Z"/></clipPath><clipPath id="av" clipPathUnits="userSpaceOnUse"><path d="M252.823 323.001h108.36v-63.917h-108.36z"/></clipPath><clipPath id="aw" clipPathUnits="userSpaceOnUse"><path d="M308.035 295.569h130.002V218.51H308.035Z"/></clipPath><clipPath id="ax" clipPathUnits="userSpaceOnUse"><path d="M252.773 357.191h98.817v-58.432h-98.817Z"/></clipPath><clipPath id="ay" clipPathUnits="userSpaceOnUse"><path d="M252.792 344.657h185.245V234.861H252.792Z"/></clipPath><clipPath id="az" clipPathUnits="userSpaceOnUse"><path d="M252.769 336.173h54.234V307.33h-54.234z"/></clipPath><clipPath id="aA" clipPathUnits="userSpaceOnUse"><path d="M0 500h500V0H0Z"/></clipPath><clipPath id="aB" clipPathUnits="userSpaceOnUse"><path d="M271.168 350.591h166.869V211.207H271.168Z"/></clipPath><clipPath id="aC" clipPathUnits="userSpaceOnUse"><path d="M0 500h500V0H0Z"/></clipPath></defs><g clip-path="url(#a)" transform="matrix(1.33333 0 0 -1.33333 0 666.667)"><path d="M0 0c-89.628 51.534-234.942 51.534-324.571 0s-89.627-135.088.001-186.621c89.63-51.533 234.943-51.533 324.571 0C89.626-135.088 89.626-51.535 0 0" style="fill:#f5f5f5;fill-opacity:1;fill-rule:nonzero;stroke:none" transform="translate(410.246 241.04)"/></g><g clip-path="url(#b)" transform="matrix(1.33333 0 0 -1.33333 0 666.667)"><path d="M0 0c15.998-9.237 15.998-24.213 0-33.45-15.999-9.237-41.938-9.237-57.937 0s-15.999 24.213 0 33.45S-15.999 9.237 0 0" style="fill:#e1e1e1;fill-opacity:1;fill-rule:nonzero;stroke:none" transform="translate(380.559 162.743)"/><path d="M0 0c-4.441-.894-8.621-.711-12.485-.725.143.48.214.93.242 1.331.203 2.877-1.656 5.976-5.236 8.726-3.394 2.608-8.22 4.794-13.145 5.805-4.385 5.467-17.772 7.829-26.99 7.061-9.922-.832-17.939-6.18-18.648-12.44-.267-2.362.356-6.215 5.693-9.732-8.004.255-16.353 1.266-24.147 2.85 8.143 7.035 12.217 14.954 12.224 22.874 10.785 2.281 24.523 3.331 40.814 1.831C-17.734 25.379 8.455 12.879 8.837 5.742 8.951 3.612 5.737 1.154 0 0m-16.005-.631c-7.672.438-13.932 2.353-18.4 4.589 3.561 2.397 5.314 4.896 5.236 7.467 3.675-1.037 7.176-2.745 9.698-4.685 2.643-2.03 4.089-4.183 3.968-5.904a3.05 3.05 0 0 0-.502-1.467m-38.104-1.961c6.086.781 11.529 2.193 15.838 4.334q.259.129.512.258c4.302-2.494 10.243-4.589 17.353-5.499-7.212-2.575-20.542-2.204-33.703.907m17.875 15.072c1.176 0 2.39-.103 3.612-.294a3 3 0 0 0 .093-.275c.487-1.743-1.346-3.917-5.083-6.105-2.575 1.72-4.112 3.446-4.453 4.706-.107.392-.227.839.887 1.22 1.501.517 3.182.748 4.944.748M-63.118.016c-6.714 2.467-10.296 5.836-9.896 9.373.528 4.664 7.411 8.86 15.672 9.551 1.142.096 2.304.142 3.473.142 6.367 0 12.894-1.356 17.046-3.349-1.908-.048-3.744-.334-5.416-.909-2.472-.849-3.615-2.829-2.981-5.168.478-1.76 1.967-3.694 4.314-5.54-5.782-2.55-13.602-3.832-22.212-4.1m21.74 30.821c-16.363 1.503-30.287.468-41.342-1.824-1.468 10.435-10.027 20.659-25.679 28.638-34.543 17.608-90.549 17.608-125.093-.001-34.544-17.608-34.544-46.156 0-63.764s90.549-17.608 125.093.001c3.89 1.983 7.338 4.106 10.352 6.335 11.066-2.5 23.353-3.844 34.503-3.525q.58-.202 1.193-.398c9.848-3.145 20.295-4.745 29.073-4.745 7.621 0 13.983 1.207 17.594 3.654.403.272.76.554 1.077.837 4.721-.142 9.851-.336 15.252.75C8.474-1.628 12.321 1.82 12.102 5.917c-.555 10.353-30.599 22.815-53.48 24.92" style="fill:#e1e1e1;fill-opacity:1;fill-rule:nonzero;stroke:none" transform="translate(344.093 73.778)"/></g><g clip-path="url(#c)" transform="matrix(1.33333 0 0 -1.33333 0 666.667)"><path d="m0 0-11.458-6.615c.058.512.097 1.02.097 1.517v3.319c0 5.907-4.147 8.301-9.263 5.348-2.071-1.196-3.977-3.091-5.52-5.309-.838 7.427-6.666 10.195-13.743 6.108-7.654-4.418-13.858-15.164-13.858-24.001v-4.966c0-2.289.424-4.217 1.174-5.753l-9.517-5.495c-2.838-1.638-5.139-5.622-5.139-8.899s2.301-4.605 5.139-2.966L0-11.865c2.838 1.638 5.138 5.622 5.138 8.899S2.838 1.639 0 0" style="fill:#ececec;fill-opacity:1;fill-rule:nonzero;stroke:none" transform="translate(137.167 440.782)"/><path d="m0 0-7.306-4.218c.036.326.062.65.062.968v2.116c0 3.766-2.645 5.293-5.906 3.409-1.321-.762-2.537-1.971-3.52-3.384-.534 4.735-4.25 6.5-8.763 3.894-4.879-2.817-8.836-9.669-8.836-15.304v-3.166c0-1.46.27-2.689.748-3.668l-6.068-3.503c-1.809-1.045-3.276-3.585-3.276-5.675s1.467-2.935 3.276-1.891L0-7.565C1.809-6.521 3.276-3.98 3.276-1.891S1.809 1.044 0 0" style="fill:#ececec;fill-opacity:1;fill-rule:nonzero;stroke:none" transform="translate(183.72 421)"/></g><g clip-path="url(#d)" transform="matrix(1.33333 0 0 -1.33333 0 666.667)"><path d="M0 0c-1.029 11.323-.227 23.125 2.059 34.998 2.658 13.813 10.587 25.048 20.073 30.254 3.296 1.81 10.17 3.752 14.669-.306 4.295-3.873 1.992-10.107-3.248-16.508C23.217 35.813 13.025 25.25 10.235 8.693L9.078-3.585Z" style="fill:#00dfbf;fill-opacity:1;fill-rule:nonzero;stroke:none" transform="translate(345.195 149.666)"/><g clip-path="url(#e)" opacity=".2"><path d="M0 0c-1.029 11.323-.227 23.125 2.059 34.998 2.658 13.813 10.587 25.048 20.073 30.254 3.296 1.81 10.17 3.752 14.669-.306 4.295-3.873 1.992-10.107-3.248-16.508C23.217 35.813 13.025 25.25 10.235 8.693L9.078-3.585Z" style="fill:#000;fill-opacity:1;fill-rule:nonzero;stroke:none" transform="translate(345.195 149.666)"/></g><path d="M0 0a.514.514 0 0 0-.515.515c0 15.996 3.39 29.851 10.364 42.355 4.606 8.261 10.242 14.259 17.228 18.336.243.145.56.061.703-.185a.513.513 0 0 0-.184-.704c-6.823-3.981-12.334-9.852-16.849-17.948C3.861 30.022.515 16.331.515.515A.515.515 0 0 0 0 0" style="fill:#fff;fill-opacity:1;fill-rule:nonzero;stroke:none" transform="translate(348.387 151.22)"/><path d="M0 0c-.034 3.925 2.624 11.204 8.318 18.249 6.3 7.794 15.57 13.259 16.624 18.189 1.266 5.922-4.166 8.794-12.216 5.955C3.049 38.979-6.486 25.67-5.334 2.167Z" style="fill:#00dfbf;fill-opacity:1;fill-rule:nonzero;stroke:none" transform="translate(359.607 143.914)"/><path d="M0 0a.49.49 0 0 1 .313.431c1.182 20.822 13.222 31.515 19.622 34.344a.49.49 0 1 1-.397.897C12.461 32.545.54 21.74-.666.486A.49.49 0 0 1 0 0" style="fill:#fff;fill-opacity:1;fill-rule:nonzero;stroke:none" transform="translate(357.291 147.406)"/></g><g clip-path="url(#f)" transform="matrix(1.33333 0 0 -1.33333 0 666.667)"><path d="M0 0c-1.762 0-3.442-.232-4.943-.748-1.115-.382-.994-.828-.888-1.22.342-1.26 1.879-2.986 4.453-4.706 3.736 2.187 5.57 4.362 5.083 6.105a3 3 0 0 1-.093.275A23.5 23.5 0 0 1 0 0m-17.635 6.601c-1.169 0-2.332-.045-3.473-.142-8.26-.691-15.144-4.886-15.672-9.55-.4-3.538 3.182-6.907 9.896-9.374 8.611.268 16.431 1.55 22.212 4.101-2.347 1.846-3.836 3.781-4.313 5.54-.634 2.339.507 4.319 2.979 5.168 1.673.574 3.509.861 5.417.909-4.151 1.993-10.679 3.348-17.046 3.348M1.829-8.522c4.468-2.236 10.729-4.151 18.4-4.59q.447.69.502 1.467c.122 1.722-1.325 3.874-3.967 5.905-2.524 1.939-6.024 3.647-9.699 4.684.079-2.57-1.674-5.069-5.236-7.466m-19.705-6.551c13.162-3.11 26.492-3.481 33.704-.906-7.109.91-13.051 3.004-17.352 5.499q-.254-.13-.513-.258c-4.309-2.142-9.752-3.553-15.839-4.335m20.832-5.853c-8.777 0-19.225 1.599-29.072 4.744q-.615.197-1.195.398c-16.447-.469-35.38 2.67-49.194 7.817l1.141 3.062c11.372-4.236 26.749-7.094 41.029-7.549-5.337 3.517-5.961 7.369-5.692 9.731.709 6.261 8.724 11.609 18.646 12.441 9.219.768 22.607-1.594 26.991-7.061 4.924-1.011 9.751-3.198 13.145-5.805 3.58-2.751 5.439-5.849 5.236-8.727a6 6 0 0 0-.242-1.331c3.864.015 8.044-.168 12.485.726 5.738 1.154 8.952 3.611 8.837 5.742C44.689.399 18.5 12.899-5.443 15.101c-31.904 2.937-54.046-3.893-63.312-10.632l-1.921 2.643c9.724 7.074 32.727 14.258 65.532 11.244 22.881-2.104 52.925-14.567 53.48-24.92.219-4.096-3.628-7.544-11.457-9.121-5.401-1.086-10.531-.892-15.252-.75a10 10 0 0 0-1.077-.837c-3.611-2.447-9.973-3.654-17.594-3.654" style="fill:#375a64;fill-opacity:1;fill-rule:nonzero;stroke:none" transform="translate(306.757 91.168)"/><path d="M0 0c2.136-.538 5.007-.964 6.774-1.198q.762.385 1.412.823.6.41 1.076.837S6.061.618 3.463.917C2.432.549 1.263.248 0 0" style="fill:#2b454e;fill-opacity:1;fill-rule:nonzero;stroke:none" transform="translate(319.122 74.271)"/><path d="M0 0a33 33 0 0 1 2.415 1.12s-1.31.66-3.147 2.116a34 34 0 0 0-2.438-.954C-2.13 1.25-.963.507 0 0" style="fill:#2b454e;fill-opacity:1;fill-rule:nonzero;stroke:none" transform="translate(302.817 79.567)"/><path d="M0 0c.156-.559.07-1.163-.237-1.798a13.8 13.8 0 0 0 3.22-.822c.263.705.399 1.416.377 2.134 0 0-1.633.577-3.453.76Q-.038.138 0 0" style="fill:#2b454e;fill-opacity:1;fill-rule:nonzero;stroke:none" transform="translate(310.462 90.598)"/><path d="M0 0c1.501-1.459 3.456-2.688 4.995-3.535 2.024-.044 4.026-.043 5.992.013 0 0-4.618 1.763-7.024 3.33C2.65-.151 1.327-.082 0 0" style="fill:#2b454e;fill-opacity:1;fill-rule:nonzero;stroke:none" transform="translate(268.459 78.906)"/><path d="m0 0 1.921-2.643c3.658 2.661 9.331 5.332 16.81 7.415.381 1.226.658 2.421.835 3.573C10.788 6.084 4.169 3.033 0 0" style="fill:#2b454e;fill-opacity:1;fill-rule:nonzero;stroke:none" transform="translate(236.08 98.28)"/><path d="M0 0c-3.505.914-6.828 1.942-9.86 3.071L-11.001.009a104 104 0 0 1 7.825-2.545A46 46 0 0 1 0 0" style="fill:#2b454e;fill-opacity:1;fill-rule:nonzero;stroke:none" transform="translate(241.253 83.19)"/><path d="m0 0-.062.001C-12.488.475-24.246 9.7-35.617 18.622c-9.723 7.628-18.906 14.834-26.757 14.834a1.635 1.635 0 0 0 0 3.269c8.98 0 18.595-7.545 28.776-15.532C-22.638 12.593-11.304 3.7.061 3.268A1.634 1.634 0 0 0 0 0" style="fill:#375a64;fill-opacity:1;fill-rule:nonzero;stroke:none" transform="translate(177.958 221.63)"/><path d="M0 0c-8.839 3.284-16.399 15.369-13.111 28.837 3.958 16.216 21.77 27.708 31.546 37.12 18.161 17.485 29.277 31.466 23.487 56.63-5.069 22.032-25.46 29.356-37.577 28.902-15.021-.562-24.478-6.83-23.649-11.694.369-2.164 4.457-3.127 7.689-4.309 10.014-3.663 13.114-5.907 16.314-10.216 4.874-6.561 5.69-15.124 4.644-15.719-1.054-.6-2.437 4.337-9.087 7.179s-9.902.795-9.842-.685c.063-1.553 6.182-2.884 8.034-11.684 1.54-7.32 1.177-16.753-9.834-31.819-6.778-9.275-22.193-26.65-18.83-48.815C-26.852 1.561-10.021-6.544-3.065-6.936z" style="fill:#00dfbf;fill-opacity:1;fill-rule:nonzero;stroke:none" transform="translate(97.268 149.947)"/><g clip-path="url(#g)" opacity=".05"><path d="M0 0c-8.839 3.284-16.399 15.369-13.111 28.837 3.958 16.216 21.77 27.708 31.546 37.12 18.161 17.485 29.277 31.466 23.487 56.63-5.069 22.032-25.46 29.356-37.577 28.902-15.021-.562-24.478-6.83-23.649-11.694.369-2.164 4.457-3.127 7.689-4.309 10.014-3.663 13.114-5.907 16.314-10.216 4.874-6.561 5.69-15.124 4.644-15.719-1.054-.6-2.437 4.337-9.087 7.179s-9.902.795-9.842-.685c.063-1.553 6.182-2.884 8.034-11.684 1.54-7.32 1.177-16.753-9.834-31.819-6.778-9.275-22.193-26.65-18.83-48.815C-26.852 1.561-10.021-6.544-3.065-6.936z" style="fill:#000;fill-opacity:1;fill-rule:nonzero;stroke:none" transform="translate(97.268 149.947)"/></g><g clip-path="url(#h)" opacity=".15"><path d="m0 0 3.065 6.936c-2.412.896-4.728 2.452-6.755 4.509a48 48 0 0 1-3.096-9.568C-4.145.692-1.757.099 0 0" style="fill:#000;fill-opacity:1;fill-rule:nonzero;stroke:none" transform="translate(94.203 143.012)"/></g><path d="M0 0c1.351.885.872 2.953.198 4.42-1.802 3.924-3.999 7.119-7.102 10.148 2.229-.37 4.334-1.172 6.493-1.837 3.085-.949 5.071-2.316 5.53-1.169.194.486.105 1.764-.115 2.61-.547 2.112-1.059 2.888-1.789 3.459-7.94 6.16-17.604 8.464-24.551 8.203-15.02-.562-24.478-6.83-23.649-11.693.369-2.164 4.458-3.128 7.689-4.31C-27.282 6.168-24.182 3.924-20.981-.385c.04-.054 3.62-1.792 5.248-2.829.723-.461 1.586-.956 2.398-1.018.396-.031.779.042 1.128.272 1.119.736.883 2.42.467 3.692a51 51 0 0 1-3.007 7.249A23.4 23.4 0 0 0-4.31 1.532C-3.088.422-1.381-.905 0 0" style="fill:#375a64;fill-opacity:1;fill-rule:nonzero;stroke:none" transform="translate(122.949 275.602)"/><path d="M0 0c1.267-17.382 6.962-28.198 18.825-38.242s28.69-16.042 36.135-19.276 12.985-7.201 18.364-2.641 4.915 14.43 14.469 22.266c9.556 7.837 12.899 10.031 13.143 15.721.322 7.515-6.902 7.321-9.118 6.193 0 0-1.865 3.201-7.194 2.019-4.485-.995-6.61-4.781-6.61-4.781s-3.326.2-6.837-3.075c-3.111-2.902-9.155-10.698-9.155-10.698s6.457 10.155 3.64 20.986C63.11-1.714 56.833.975 56.833.975s2.7 1.375 9.921.085c0 0-3.057 8.376-16.181 11.627S28.68 6.507 28.68 6.507Z" style="fill:#00dfbf;fill-opacity:1;fill-rule:nonzero;stroke:none" transform="translate(171.67 155.78)"/><g clip-path="url(#i)" opacity=".15"><path d="M0 0c-1.583-1.306-2.355-2.67-2.355-2.67 1.954.054 6.186-.209 7.652-5.308 0 0 1.666 5.747-5.297 7.978" style="fill:#000;fill-opacity:1;fill-rule:nonzero;stroke:none" transform="translate(252.04 139.71)"/></g><g clip-path="url(#j)" opacity=".15"><path d="M0 0s2.712 1.528 1.14 6.542c-.977-.061-1.837-.283-2.388-.563C.298 4.339.497 1.443 0 0" style="fill:#000;fill-opacity:1;fill-rule:nonzero;stroke:none" transform="translate(264.735 133.823)"/></g><path d="M0 0c-6.467-1.586-11.881-5.829-14.879-12.967s-1.933-11.906.958-12.637c2.887-.73 4.302-.32 6.835 3.527 2.101 4.796 4.079 10.74 10.289 15.833 1.838 1.507 3.442 2.802 4.842 3.957C7.774-.221 4.997 1.225 0 0" style="fill:#ff9090;fill-opacity:1;fill-rule:nonzero;stroke:none" transform="translate(256.26 124.132)"/><path d="M0 0c-1.95.793-4.001-3.838-1.744-4.718C.131-5.448 2.611-1.062 0 0" style="fill:#ffaaa8;fill-opacity:1;fill-rule:nonzero;stroke:none" transform="translate(254.74 130.93)"/><path d="M0 0c-1.95.793-4.002-3.838-1.744-4.718C.131-5.448 2.611-1.062 0 0" style="fill:#ff9090;fill-opacity:1;fill-rule:nonzero;stroke:none" transform="translate(262.402 132.5)"/><path d="M0 0c-1.95.793-4.002-3.838-1.744-4.718C.131-5.448 2.611-1.062 0 0" style="fill:#ff9090;fill-opacity:1;fill-rule:nonzero;stroke:none" transform="translate(268.694 132.664)"/><path d="M0 0c-.981-5.546-21.885-10.825-36.227-21.633-14.343-10.809-27.004-25.553-24.749-51.105 2.474-28.022 27.704-38.329 40.982-38.329 13.279.001 58.67 3.517 81.9 36.569C85.135-41.445 53.866 2.076 0 0" style="fill:#00dfbf;fill-opacity:1;fill-rule:nonzero;stroke:none" transform="translate(151.067 200.417)"/><g clip-path="url(#k)" opacity=".15"><path d="M0 0s7.232 12.749 27.083 9.233c19.852-3.515 18.073-34.267 18.073-34.267s.22-17.193-12.477-15.395C19.981-38.632 0 0 0 0" style="fill:#000;fill-opacity:1;fill-rule:nonzero;stroke:none" transform="translate(118.388 135.686)"/></g><g clip-path="url(#l)" opacity=".15"><path d="M0 0c-.101-.572-.425-1.141-.92-1.713-.848-10.244 2.316-23.442 13.996-27.077 12.709-3.956 27.061-1.678 36.691 1.714 2.846 1.003 6.004 2.366 9.229 4.062C47.178-8.831 26.281 1.013 0 0" style="fill:#000;fill-opacity:1;fill-rule:nonzero;stroke:none" transform="translate(151.067 200.417)"/></g><path d="M0 0q-.172 0-.346.036c-43.965 9.45-60.202 37.222-65.967 52.935-7.499 20.441-8.15 42.832-1.621 55.715a1.633 1.633 0 1 0 2.915-1.477c-6.145-12.125-5.431-33.469 1.775-53.112C-57.71 39.016-42.092 12.353.341 3.232A1.634 1.634 0 0 0 0 0" style="fill:#375a64;fill-opacity:1;fill-rule:nonzero;stroke:none" transform="translate(159.08 127.806)"/><path d="M0 0c5.066-29.3-14.001-57.06-42.588-62.003s-55.87 14.802-60.936 44.102c-4.265 24.665 9.095 45.211 30.482 54.043a60.8 60.8 0 0 0 12.845 3.688c2.314.4 4.615.667 6.892.803C-27.453 42.178-4.656 26.929 0 0" style="fill:#375a64;fill-opacity:1;fill-rule:nonzero;stroke:none" transform="translate(256.527 138.75)"/></g><g clip-path="url(#m)" transform="matrix(1.33333 0 0 -1.33333 0 666.667)"><g clip-path="url(#n)" opacity=".15"><path d="M0 0c-4.042-2.974-8.324-5.066-13.075-6.668-7.223-2.43-17.933-3.541-25.375.033.348 2.168.795 4.325 1.438 6.45 3.672-1.754 9.228-1.58 12.541-.959 5.96 1.111 14.088 4.478 17.422 9.948 5.186-.687 10.95-1.079 16.158-.883C6.548 5.012 3.182 2.332 0 0m-43.517-8.575c-.424-4.074-.545-8.422 0-12.649-2.712 7.387-4.597 14.861-4.096 22.946.414 6.57 1.558 13.249 3.443 19.579 0-.316 4.074-2.441 4.5-2.68 1.1-.611 3.943-1.439 4.391-2.735.087-.251.065-.523 0-.774-.153-.588-.491-1.111-.828-1.612-4.49-6.69-6.56-14.11-7.41-22.075m8.782 14.47c.414.915.85 1.83 1.318 2.724a50 50 0 0 0 3.149 5.284c.066.109.12.218.164.338a71 71 0 0 1 5.742-1.864c3.998-1.1 8.15-2.059 12.377-2.811-.348 0-1.58-1.154-1.863-1.361a44 44 0 0 0-2.038-1.373c-1.329-.839-2.713-1.613-4.162-2.223-2.756-1.177-5.764-2.038-8.77-1.994-1.526.022-2.964.414-4.402.817-1.166.338-2.081 1.177-1.515 2.463m97.363 27.914c-12.748-4.173-25.572-6.407-38.298-6.058 2.451.926 4.925 2.19 7.638 3.628 5.611 2.964 12.617 6.352 14.153 12.998.294 1.243-1.221.992-1.808.513-4.381-3.618-9.654-8.205-15.375-11.702-6.395-3.912-14.098-5.012-21.42-3.421a86 86 0 0 0-4.543 1.111c5.491.959 11.211 3.432 14.796 5.48 10.645 6.069 16.114 14.59 18 26.455.217 1.34-1.156 1.787-2.049.915-1.646-1.634-1.94-3.367-2.692-5.579-2.407-7.038-5.763-11.059-11.734-15.439-4.118-3.018-9.022-5.327-13.979-6.581-2.56-.642-5.208-.751-7.801-1.154-2.55-.392-5.546-.316-7.921.762-1.907.872-3.814 1.951-5.688 3.117 11.212.664 23.731 10.568 30.933 17.28 7.616 7.115 13.129 15.951 11.897 26.563-.206 1.885-2.385.752-2.647-.534-.97-4.925-1.449-8.171-3.748-12.868-2.332-4.761-5.491-8.269-9.545-11.788-8.28-7.17-19.677-14.895-30.932-15.919-1.569 1.155-3.127 2.365-4.609 3.661 8.433 3.149 15.636 9.436 21.519 16.234 3.541 4.086 6.287 8.401 8.106 13.522 1.122 3.182 3.65 8.433 2.321 11.756-.632 1.569-2.56.087-2.669-1.046C3.737 77.609-.915 69.753-6.08 63.51c-2.462 6.832-4.172 12.846-3.704 20.407.229 3.65.817 7.039 1.492 10.634.219 1.134.589 2.245.022 3.291-.817 1.514-2.712-.839-2.429-1.94-.076.284-1.025-1.165-1.09-1.263-.85-1.482-.774-3.705-1.046-5.361-.457-2.778-.795-5.6-.85-8.422-.174-7.442 1.885-13.837 4.751-20.549-2.67-2.681-5.698-4.86-8.738-7.028-1.885 1.395-3.215 5.023-4.271 6.93-1.613 2.865-3.334 5.6-4.522 8.705-2.767 7.213-2.103 15.733-5.132 22.576-.348.795-1.82-.12-1.841-.752-.262-9.381 1.285-19.067 5.393-27.598 1.602-3.345 3.922-9.142 6.919-12.378a11.4 11.4 0 0 0-2.452-1.394c-.937-.392-1.906-.763-2.92-.828-2.386-.164-3.715 1.972-5.132 3.563a66 66 0 0 0-4.652 5.817c-3.41 4.816-6.45 10.395-8.172 16.06-1.46 4.784-1.122 10.308-3.421 14.83-1.111 2.179-3.792-.077-3.181-1.951 1.612-4.968.741-10.47 2.299-15.581 2.059-6.755 5.709-13.139 9.827-18.849 6.298-8.716 16.104-16.964 25.79-21.703 14.034-6.865 31.924-10.83 48.616-9.196-17.945-3.618-37.317-1.406-53.987 5.306-19.503 7.866-38.952 25.506-44.084 46.556-.207.807-1.634.36-1.699-.337-.948-10.406 7.005-21.432 13.837-28.536 7.812-8.106 16.114-15.755 26.607-20.342 11.408-4.968 22.848-8.335 35.399-8.564 4.882-.076 10.057-.119 15.167.327-6.406-2.026-13.184-3.508-19.416-3.585-8.574-.108-17.084 1.406-25.397 3.324-13.522 3.105-24.82 8.662-35.051 18.141-4.217 3.911-7.638 8.378-10.929 13.075-3.094 4.434-7.659 9.522-8.814 14.872-.261 1.209-2.266-.12-2.19-1.046.316-4.413 2.408-8.608 4.674-12.323 1.275-2.103 2.735-4.053 4.162-6.047 1.341-1.885 2.474-3.77 2.583-6.156.076-1.918-.622-3.519-.905-5.361-.261-1.688-.61-3.366-.893-5.055-.588-3.498-.828-7.05-.85-10.591-.098-11.418 5.35-21.311 11.506-30.529.642-.98 2.288.567 2.004 1.449-3.377 10.623-9.882 19.046-9.272 30.747.305 5.819 1.962 11.19 3.334 16.736a85.288 85.288 0 0 1 6.44-6.167c1.699-1.46 3.617-3.105 3.366-5.578-.163-1.667-.969-3.28-1.405-4.87-.501-1.809-.763-3.684-.992-5.536-.403-3.214-.533-6.45-.773-9.675-.752-10.481 2.048-23.905 9.577-31.739.349-.359.926-.272 1.373.022 1.056-2.375 2.473-4.576 4.336-6.515.687-.708 1.852.065 1.504.991-2.997 7.9-4.25 16.082-3.694 24.09 7.256-3.258 17.553-2.723 24.471-.577C-9.12-10.296-4.184-8.183.469-4.958 5.742-1.296 9.926 2.517 13.358 7.769c8.836.73 16.202 3.464 23.937 8.084.633.381.948 1.296.916 2.125 1.929.577 3.803 1.274 5.6 2.135.916.436 1.286 2.081.85 2.942 6.635 1.58 12.901 4.195 18.446 8.063 1.024.708 1.406 3.312-.479 2.691" style="fill:#000;fill-opacity:1;fill-rule:nonzero;stroke:none" transform="translate(227.752 96.574)"/></g></g><g clip-path="url(#o)" transform="matrix(1.33333 0 0 -1.33333 0 666.667)"><g clip-path="url(#p)" opacity=".15"><path d="M0 0c-4.426 12.514-10.835 11.63-10.835 11.63s2.625 1.516 9.903.608c0 0-2.047 5.457-9.299 8.706-1.108-5.727-1.201-11.861-.091-18.28A54.8 54.8 0 0 1-2.034-18.26C-.055-14.216 2.48-7.014 0 0" style="fill:#000;fill-opacity:1;fill-rule:nonzero;stroke:none" transform="translate(163.326 118.185)"/><path d="M0 0c1.425 3.108 3.403 6.329 6.717 9.352 9.13 8.329 12.353 10.696 12.297 16.39-.074 7.523-7.279 6.949-9.432 5.706 0 0-2.031 3.098-7.291 1.636-4.425-1.229-6.348-5.122-6.348-5.122s-3.569.367-7.284-3.614c-1.727-1.851-4.213-5.382-5.947-7.943C-12.769 9.65-6.838 4.051 0 0" style="fill:#000;fill-opacity:1;fill-rule:nonzero;stroke:none" transform="translate(178.738 83.28)"/></g><path d="M0 0c-.179 4.441-2.871 10.416-6.348 15.332-5.8 8.199-14.152 13.281-22.572 16.044l-21.663-13.54c23.145.779 31.114-11.407 33.257-18.206 1.48-4.696 2.728-8.319 5.469-8.322 2.686-.002 2.963 2.344 2.963 2.344 1.896-1.795 4.727-.733 4.846 1.577 1.042-.46 2.1-.33 2.909.522C-.06-3.115.063-1.566 0 0" style="fill:#00dfbf;fill-opacity:1;fill-rule:nonzero;stroke:none" transform="translate(254.62 160.898)"/><g clip-path="url(#q)" opacity=".15"><path d="m0 0-21.664-13.54c2.974.1 5.693-.017 8.186-.306 5.838 3.138 11.842 7.398 16.625 12.7A52 52 0 0 1 0 0" style="fill:#000;fill-opacity:1;fill-rule:nonzero;stroke:none" transform="translate(225.7 192.273)"/></g><g clip-path="url(#r)" opacity=".15"><path d="M0 0c.016.016.026.034.041.051-.912-.311-1.745.067-2.217 1.202-.734 1.767-.959 2.597-1.358 2.996 0 0 .843-2.752.624-4.771C-1.867-.982-.81-.852 0 0" style="fill:#000;fill-opacity:1;fill-rule:nonzero;stroke:none" transform="translate(253.481 156.648)"/></g><g clip-path="url(#s)" opacity=".15"><path d="M0 0c-1.107.043-1.961.842-2.355 2.168-.554 1.866-.891 2.444-1.29 2.843 0 0 .679-2.282.46-4.301C-2.205-.218-.976-.377 0 0" style="fill:#000;fill-opacity:1;fill-rule:nonzero;stroke:none" transform="translate(248.912 153.84)"/></g><path d="M0 0c2.18-17.292 8.438-27.792 20.812-37.198s29.496-14.51 37.1-17.347 13.347-6.507 18.478-1.67 4.148 14.669 13.277 22.997c9.13 8.329 12.353 10.697 12.297 16.391-.074 7.522-7.279 6.948-9.432 5.705 0 0-2.031 3.098-7.291 1.637-4.425-1.23-6.348-5.122-6.348-5.122s-3.569.366-7.284-3.615c-2.901-3.11-7.961-10.982-7.961-10.982s7.621 10.989 3.89 21.539C63.112 4.849 56.702 3.965 56.702 3.965s2.625 1.515 9.904.608c0 0-3.367 8.982-16.771 10.759-13.277 1.76-21.538-7.325-21.538-7.325Z" style="fill:#00dfbf;fill-opacity:1;fill-rule:nonzero;stroke:none" transform="translate(90.091 127.68)"/><g clip-path="url(#t)" opacity=".15"><path d="M0 0c-1.512-1.387-2.211-2.791-2.211-2.791 2.866.05 6.348-.2 8.126-5.369 0 0 2.243 5.83-5.915 8.16" style="fill:#000;fill-opacity:1;fill-rule:nonzero;stroke:none" transform="translate(171.196 115.862)"/></g><g clip-path="url(#u)" opacity=".15"><path d="M0 0s2.627 1.669.793 6.593c-.972-.112-1.819-.379-2.355-.688C.069 4.349.42 1.468 0 0" style="fill:#000;fill-opacity:1;fill-rule:nonzero;stroke:none" transform="translate(184.185 110.652)"/></g><path d="M0 0c-6.375-1.924-11.558-6.446-14.176-13.733-2.617-7.287-1.303-11.99 1.622-12.568 2.922-.578 4.314-.094 6.64 3.882 1.845 4.899 3.508 10.94 9.442 16.352 1.756 1.602 3.288 2.98 4.626 4.207C7.775.189 4.926 1.487 0 0" style="fill:#ff9090;fill-opacity:1;fill-rule:nonzero;stroke:none" transform="translate(176.231 100.528)"/><path d="M0 0c-1.989.689-3.793-4.044-1.493-4.803C.418-5.434 2.664-.923 0 0" style="fill:#ff9090;fill-opacity:1;fill-rule:nonzero;stroke:none" transform="translate(173.863 106.742)"/><path d="M0 0c-1.989.689-3.793-4.044-1.493-4.803C.418-5.434 2.664-.923 0 0" style="fill:#ff9090;fill-opacity:1;fill-rule:nonzero;stroke:none" transform="translate(181.924 109.208)"/><path d="M0 0c-1.989.689-3.794-4.044-1.493-4.803C.417-5.434 2.664-.923 0 0" style="fill:#ff9090;fill-opacity:1;fill-rule:nonzero;stroke:none" transform="translate(188.199 109.704)"/><g clip-path="url(#v)" opacity=".05"><path d="M0 0c-11.868 2.556-10.281 8.943-15.583 12.776s-17.147 2.371-36.118 17.888c-18.97 15.515-19.845 49.197-7.727 63.878-7.648-9.408-12.61-21.532-11.127-38.327a45 45 0 0 1 1.409-7.911c2.982-12.753 9.042-21.412 19.403-29.286 12.375-9.405 29.495-14.51 37.1-17.348C-5.039-1.167.704-4.836 5.835 0c.414.39.776.823 1.119 1.274C4.907-.061 2.584-.557 0 0" style="fill:#000;fill-opacity:1;fill-rule:nonzero;stroke:none" transform="translate(160.647 71.464)"/></g><g clip-path="url(#w)" opacity=".15"><path d="M0 0c-6.196 8.504-11.06 12.482-18.574 16.688v4.865a58 58 0 0 1-3.344-1.255C-32.642 15.87-41.346 8.495-46.824-.866-23.969.862-13.679-10.8-11.125-17.514c1.791-4.707 3.28-8.333 6.08-8.173 2.742.158 2.887 2.57 2.887 2.57 2.042-1.72 4.869-.468 4.854 1.898 1.092-.407 2.164-.212 2.941.706 1.033 1.223 1.068 2.811.91 4.407C6.1-11.582 3.627-4.979 0 0" style="fill:#000;fill-opacity:1;fill-rule:nonzero;stroke:none" transform="translate(205.404 154.593)"/></g><path d="M0 0c-.447 4.524-2.919 11.127-6.546 16.106-6.197 8.504-11.06 12.482-18.575 16.688v5.914s-27.09-5.54-27.594-23.5c23.589 2.171 32.451-9.8 35.044-16.616 1.79-4.707 3.28-8.333 6.08-8.173 2.741.158 2.886 2.57 2.886 2.57 2.042-1.72 4.87-.468 4.854 1.898 1.092-.408 2.164-.212 2.941.706C.124-3.185.158-1.596 0 0" style="fill:#00dfbf;fill-opacity:1;fill-rule:nonzero;stroke:none" transform="translate(212.903 141.837)"/><g clip-path="url(#x)" opacity=".15"><path d="M0 0c.015.018.025.037.039.054-.914-.371-1.786-.035-2.336 1.097-.854 1.76-1.133 2.595-1.564 2.978 0 0 1.024-2.761.921-4.835C-1.849-1.114-.776-.918 0 0" style="fill:#000;fill-opacity:1;fill-rule:nonzero;stroke:none" transform="translate(211.993 137.43)"/></g><g clip-path="url(#y)" opacity=".15"><path d="M0 0c-1.133-.021-2.053.744-2.534 2.075C-3.21 3.946-3.589 4.517-4.02 4.9c0 0 .829-2.29.725-4.364C-2.238-.354-.974-.444 0 0" style="fill:#000;fill-opacity:1;fill-rule:nonzero;stroke:none" transform="translate(207.493 134.29)"/></g><g clip-path="url(#z)" opacity=".15"><path d="M0 0c8.854-2.049 18.231-1.375 26.106.394-1.71 1.186-3.53 2.3-5.545 3.428v5.913S8.178 7.195 0 0" style="fill:#000;fill-opacity:1;fill-rule:nonzero;stroke:none" transform="translate(167.221 170.81)"/></g><path d="M0 0c2.73 8.645 14.667 19.555 24.723 16.389 5.667-1.785 3.393-22.672 3.393-22.672S9.729-7.688 0 0" style="fill:#00dfbf;fill-opacity:1;fill-rule:nonzero;stroke:none" transform="translate(193.623 239.771)"/><g clip-path="url(#A)" opacity=".15"><path d="M0 0c2.73 8.645 14.667 19.555 24.723 16.389 5.667-1.785 3.393-22.672 3.393-22.672S9.729-7.688 0 0" style="fill:#000;fill-opacity:1;fill-rule:nonzero;stroke:none" transform="translate(193.623 239.771)"/></g><path d="M0 0c9.263-2.831 19.569-2.044 19.569-2.044s2.274 20.888-3.393 22.672C12.506 21.172 3.615 15.58 0 0" style="fill:#ffaaa8;fill-opacity:1;fill-rule:nonzero;stroke:none" transform="translate(202.17 235.532)"/><path d="M0 0c-.861 2.326.801 5.317.801 5.317-3.39 0-7.812-3.48-8.214-9.094 0 0 6.903-8.32 13.987-3.912.343 1.411.881 2.485 1.481 3.314.06 1.442.093 3.063.066 4.725C4.452 1.171 0 0 0 0" style="fill:#ff9090;fill-opacity:1;fill-rule:nonzero;stroke:none" transform="translate(214.057 243.217)"/><path d="M0 0c-7.532 5.046-23.668 6.111-29.544-2.642-3.311-4.933 11.54-19.846 11.54-19.846S-2.797-12.081 0 0" style="fill:#00dfbf;fill-opacity:1;fill-rule:nonzero;stroke:none" transform="translate(170.168 231.527)"/><g clip-path="url(#B)" opacity=".15"><path d="M0 0c-7.532 5.046-23.668 6.111-29.544-2.642-3.311-4.933 11.54-19.846 11.54-19.846S-2.797-12.081 0 0" style="fill:#000;fill-opacity:1;fill-rule:nonzero;stroke:none" transform="translate(170.168 231.527)"/></g><path d="M0 0c-5.466-7.996-13.977-13.839-13.977-13.839S-28.828 1.074-25.517 6.007C-22.99 8.724-12.554 9.91 0 0" style="fill:#ffaaa8;fill-opacity:1;fill-rule:nonzero;stroke:none" transform="translate(166.14 222.878)"/><path d="M0 0s3.166-1.298 3.946-3.652c0 0-4.594-2.037-6.865-5.2A81 81 0 0 1-.39-11.939c1.183-.196 2.564-.71 4.034-1.845 8.286.982 8.002 11.218 8.002 11.218C8.686 1.629 2.647 2.117 0 0" style="fill:#ff9090;fill-opacity:1;fill-rule:nonzero;stroke:none" transform="translate(148.52 225.382)"/><path d="M0 0c-9.629-3.392-23.981-5.67-36.691-1.714C-51.838 3-52.669 23.804-48.992 33.381c3.678 9.576 11.256 19.343 28.582 25.447 17.327 6.103 29.353 3.242 38.221-1.915 8.867-5.158 21.258-21.889 12.41-35.057C22.797 10.808 9.629 3.393 0 0" style="fill:#00dfbf;fill-opacity:1;fill-rule:nonzero;stroke:none" transform="translate(201.888 177.928)"/><path d="M0 0c19.198 6.763 18.197 18.029 13.344 22.52C8.491 27.009.456 28.018-8.73 24.783s-14.814-9.058-15.782-15.598C-25.479 2.644-19.198-6.763 0 0" style="fill:#f0f0f0;fill-opacity:1;fill-rule:nonzero;stroke:none" transform="translate(201.807 180.104)"/><path d="M0 0s.774-3.246 3.197-2.438c2.496.832 1.01 3.881 1.01 3.881l-2.97 2.176z" style="fill:#ff9090;fill-opacity:1;fill-rule:nonzero;stroke:none" transform="translate(196.562 188.137)"/><path d="m0 0-4.512.506a.62.62 0 0 0-.549.686c.039.34.347.579.687.548l3.929-.44 2.852 2.778a.62.62 0 1 0 .866-.89Z" style="fill:#375a64;fill-opacity:1;fill-rule:nonzero;stroke:none" transform="translate(196.445 195.306)"/><path d="M0 0c-.753 0-1.502.169-2.201.504a5.07 5.07 0 0 0-2.611 2.91.622.622 0 0 0 1.172.412 3.84 3.84 0 0 1 1.975-2.202 3.84 3.84 0 0 1 2.954-.16A3.85 3.85 0 0 1 3.49 3.44c.446.931.503 1.98.161 2.954L2.46 9.773a.62.62 0 0 0 .379.791.616.616 0 0 0 .791-.378l1.191-3.379a5.07 5.07 0 0 0-.211-3.903A5.07 5.07 0 0 0 1.702.293 5.1 5.1 0 0 0 0 0" style="fill:#375a64;fill-opacity:1;fill-rule:nonzero;stroke:none" transform="translate(193.177 185.977)"/><path d="M0 0c-.753 0-1.503.168-2.203.503a5.07 5.07 0 0 0-2.609 2.909l-1.191 3.38a.62.62 0 0 0 .378.791.62.62 0 0 0 .792-.378l1.191-3.38a3.84 3.84 0 0 1 1.975-2.201 3.86 3.86 0 0 1 2.954-.161 3.87 3.87 0 0 1 2.361 4.931.622.622 0 0 0 1.173.413A5.116 5.116 0 0 0 0 0" style="fill:#375a64;fill-opacity:1;fill-rule:nonzero;stroke:none" transform="translate(201.64 188.958)"/><path d="M0 0a4.477 4.477 0 1 0-8.446-2.975A4.477 4.477 0 0 0 0 0" style="fill:#375a64;fill-opacity:1;fill-rule:nonzero;stroke:none" transform="translate(215.057 214.922)"/><path d="M0 0a4.477 4.477 0 1 1 8.445 2.976A4.477 4.477 0 0 1 0 0" style="fill:#375a64;fill-opacity:1;fill-rule:nonzero;stroke:none" transform="translate(169.66 198.93)"/><path d="M0 0a.92.92 0 0 0-.665.279c-3.418 3.489-9.188 7.062-17.239 4.259a.931.931 0 1 0-.613 1.76C-9.538 9.418-3.131 5.456.665 1.583A.93.93 0 0 0 0 0" style="fill:#375a64;fill-opacity:1;fill-rule:nonzero;stroke:none" transform="translate(156.61 198.166)"/><path d="M0 0a.93.93 0 0 0-.488.139c-3.089 1.908-8.707 1.91-11.664.639a.931.931 0 1 0-.736 1.711C-9.503 3.944-3.177 3.988.491 1.725A.934.934 0 0 0 0 0" style="fill:#375a64;fill-opacity:1;fill-rule:nonzero;stroke:none" transform="translate(154.539 195.848)"/><path d="M0 0a.93.93 0 0 0-.6 1.643C4.932 6.308 12.094 7.168 16.397 6a.931.931 0 1 0-.487-1.798C12.053 5.251 5.619 4.449.6.219A.92.92 0 0 0 0 0" style="fill:#375a64;fill-opacity:1;fill-rule:nonzero;stroke:none" transform="translate(140.12 188.003)"/><path d="M0 0a.931.931 0 0 0-.928 1.022c.53 5.398 3.042 12.504 11.992 15.697a.93.93 0 1 0 .626-1.754C3.659 12.099 1.403 5.702.926.839A.93.93 0 0 0 0 0" style="fill:#375a64;fill-opacity:1;fill-rule:nonzero;stroke:none" transform="translate(224.458 222.066)"/><path d="M0 0a.931.931 0 0 0-.878 1.243c1.439 4.063 6.396 7.993 9.946 8.979a.927.927 0 0 0 1.146-.648.93.93 0 0 0-.648-1.146C6.465 7.566 2.089 4.044.877.622A.93.93 0 0 0 0 0" style="fill:#375a64;fill-opacity:1;fill-rule:nonzero;stroke:none" transform="translate(227.524 221.557)"/><path d="M0 0a.932.932 0 0 0-.752 1.479c2.625 3.612 8.725 7.408 15.975 7.258a.93.93 0 0 0-.022-1.862h-.021C8.595 7.019 3.104 3.616.754.383A.93.93 0 0 0 0 0" style="fill:#375a64;fill-opacity:1;fill-rule:nonzero;stroke:none" transform="translate(228.474 217.607)"/><path d="M0 0c.799 3.66 4.255 7.183 7.645 7.183 0 0-1.662-2.991-.802-5.317 0 0 8.644 2.274 11.768-1.738 0 0-3.921-.722-5.194-5.952C6.333-10.231 0 0 0 0" style="fill:#00dfbf;fill-opacity:1;fill-rule:nonzero;stroke:none" transform="translate(208.321 239.311)"/><path d="M0 0c-2.91 2.36-7.809 2.952-10.456.835 0 0 3.165-1.298 3.946-3.652 0 0-8.171-3.623-8.105-8.707 0 0 3.543 1.864 7.803-1.425C1.474-11.967 0 0 0 0" style="fill:#00dfbf;fill-opacity:1;fill-rule:nonzero;stroke:none" transform="translate(158.976 221.988)"/><path d="M0 0c-1.174-.269-1.268 1.916-.727 4.644.488 2.455 2.476 7.366-.974 7.308-3.449-.058-7.191-3.187-8.653-9.12 0 0-1.597 2.007-2.143 4.248s-3.347 2.443-4.58-2.027c-.936-3.391.694-6.785 1.59-8.208.498-.79.292-2.095-1.381-3.03 0 0 7.216-2.467 12.069 0C.053-3.717 0 0 0 0" style="fill:#00dfbf;fill-opacity:1;fill-rule:nonzero;stroke:none" transform="translate(189.336 239.01)"/><path d="M0 0a2.18 2.18 0 0 1 1.964 2.375c-.413 4.353-2.265 8.598-5.508 12.669a60 60 0 0 1-4.087-1.915c3.118-3.654 4.899-7.398 5.256-11.165A2.18 2.18 0 0 1 0 0" style="fill:#375a64;fill-opacity:1;fill-rule:nonzero;stroke:none" transform="translate(180.788 220.048)"/><path d="M0 0a2.18 2.18 0 0 1 2.558-1.719A2.18 2.18 0 0 1 4.277.839c-.781 3.985-2.811 7.75-6.001 11.255a57 57 0 0 1-5.074-1.064C-3.056 7.577-.761 3.878 0 0" style="fill:#375a64;fill-opacity:1;fill-rule:nonzero;stroke:none" transform="translate(193.961 227.452)"/><path d="M0 0c2.288-2.535 5.948-7.383 6.825-13.275a2.18 2.18 0 0 1 2.477-1.834 2.18 2.18 0 0 1 1.834 2.477C10.24-6.615 7.042-1.647 4.448 1.523A73 73 0 0 1 1.36.515C.891.349.456.17 0 0" style="fill:#375a64;fill-opacity:1;fill-rule:nonzero;stroke:none" transform="translate(180.117 236.241)"/><path d="M0 0q-.078 0-.158.007A1.635 1.635 0 0 0-1.629 1.79c.659 6.879 7.427 18.849 23.373 23.627 15.463 4.637 31.651-.593 38.37-8.322a1.634 1.634 0 0 0-2.467-2.145c-4.956 5.701-19.496 11.972-34.964 7.337C8.281 17.97 2.199 7.478 1.625 1.479A1.635 1.635 0 0 0 0 0" style="fill:#375a64;fill-opacity:1;fill-rule:nonzero;stroke:none" transform="translate(101.307 95.383)"/><path d="M0 0c-.896 0-1.626.721-1.634 1.619-.031 3.349 2.47 14.768 10.792 21.934 12.884 11.095 27.832 6.846 32.502 4.271a1.633 1.633 0 0 0 .643-2.22 1.63 1.63 0 0 0-2.22-.643c-4.119 2.269-17.321 5.994-28.793-3.885C3.936 14.743 1.609 4.475 1.634 1.649A1.634 1.634 0 0 0 .015 0Z" style="fill:#375a64;fill-opacity:1;fill-rule:nonzero;stroke:none" transform="translate(117.317 82.883)"/><path d="M0 0c-4.822-11.382-.41-35.572 9.504-50.483C20.205-66.578 41.9-86.847 66.246-95.849a1.637 1.637 0 0 0 .966-2.1 1.637 1.637 0 0 0-2.101-.966C40.076-89.658 17.776-68.829 6.782-52.292-4.343-35.558-8.678-8.654-2.135 3.07A16.6 16.6 0 0 0-.509 5.483C-.17 3.667.017 1.839 0 0" style="fill:#375a64;fill-opacity:1;fill-rule:nonzero;stroke:none" transform="translate(96.376 248.059)"/></g><path d="m0 0 10.016 5.782.001-289.109-10.015-5.781z" style="fill:#2b454e;fill-opacity:1;fill-rule:nonzero;stroke:none" transform="matrix(1.33333 0 0 -1.33333 466.685 97.559)"/><path d="m0 0 15.022-8.673-.001 289.108-3.638 2.101-1.22-12.563-1.243 13.985-8.922 5.15z" style="fill:#375a64;fill-opacity:1;fill-rule:nonzero;stroke:none" transform="matrix(1.33333 0 0 -1.33333 446.658 471.472)"/><g clip-path="url(#C)" transform="matrix(1.33333 0 0 -1.33333 0 666.667)"><g clip-path="url(#D)" opacity=".1"><path d="M0 0c-2.29 1.002-1.739 54.819.64 53.964C2.497 53.296 2.29-1.001 0 0m3.421 7.544L3.42 43.185C2.835 57.038 2.162 75.19 2.272 83.11l-3.465 2.001c0-12.084-1.36-34.362-2.099-49.391-1.047-21.288 2.763-48.797 2.93-59.896.166-11.098 0-59.241 0-59.242l1.71-.988c0 .003-.514 60.538.924 76.62.495 5.527.868 10.74 1.149 15.33" style="fill:#000;fill-opacity:1;fill-rule:nonzero;stroke:none" transform="translate(346.595 223.326)"/></g></g><path d="m0 0-2.463 1.421 1.243-13.984Z" style="fill:#1a2e35;fill-opacity:1;fill-rule:nonzero;stroke:none" transform="matrix(1.33333 0 0 -1.33333 461.835 94.757)"/><g clip-path="url(#E)" transform="matrix(1.33333 0 0 -1.33333 0 666.667)"><g clip-path="url(#F)" opacity=".05"><path d="M0 0c-.209-15.487 2.827-25.865 2.771-47.385 0 0-.34 15.221-2.387 26.504C-1.899-8.3-1.899 1.096-1.899 1.096Z" style="fill:#fff;fill-opacity:1;fill-rule:nonzero;stroke:none" transform="translate(339.849 432.702)"/></g><g clip-path="url(#G)" opacity=".05"><path d="M0 0c0-5.096-.22-16.733-.857-23.893-.553-6.211-.655-19.561-.229-29.901 0 0-1.788 16.895-1.191 26.906.595 10.013.59 27.862.59 27.862z" style="fill:#fff;fill-opacity:1;fill-rule:nonzero;stroke:none" transform="translate(350.014 426.831)"/></g><g clip-path="url(#H)" opacity=".1"><path d="M0 0v-18.54C1.586-8.773 4.08 1.544 4.518 5.927c.655 6.575-.438 18.646-1.561 25.463S.001 49.709.292 57.287l-.293.169L0 39.021q.07-.597.146-1.186c1.239-9.127 1.895-22.627 1.435-28.643C1.367 6.402.678 2.93 0 0" style="fill:#000;fill-opacity:1;fill-rule:nonzero;stroke:none" transform="translate(334.992 378.049)"/></g><g clip-path="url(#I)" opacity=".05"><path d="M0 0c-.302-6.793 2.607-32.152 3.168-40.146 1.095-15.608.603-64.996.603-64.996l-2.024 1.169s.241 55.836 0 62.325C1.412-32.659-.905-7.838 0 0" style="fill:#fff;fill-opacity:1;fill-rule:nonzero;stroke:none" transform="translate(340.873 245.966)"/></g><g clip-path="url(#J)" opacity=".1"><path d="M0 0c0-12.36-.391-35.799-1.955-45.682-1.565-9.882-2.823-25.968-.958-44.176 1.866-18.207.578-33.008.578-33.008s-.602 19.064-2.336 34.657c-1.733 15.594-1.356 31.555 0 46.633C-3.313-26.498-2.917 2.19-2.917 2.19z" style="fill:#000;fill-opacity:1;fill-rule:nonzero;stroke:none" transform="translate(342.62 309.536)"/></g><g clip-path="url(#K)" opacity=".05"><path d="M0 0s-.226-19.624-.583-26.147-1.298-19.249-1.298-19.249-.313 20.901 0 27.61c.314 6.708-.139 19.315-.139 19.315z" style="fill:#fff;fill-opacity:1;fill-rule:nonzero;stroke:none" transform="translate(337.37 312.568)"/></g><g clip-path="url(#L)" opacity=".05"><path d="M0 0c1.116-10.5 1.269-22.79 1.573-27.424s.758-33.134.758-33.134l-2.334 1.347s-.191 29.512-.268 36.144C-.369-14.564.408-5.633 0 0" style="fill:#fff;fill-opacity:1;fill-rule:nonzero;stroke:none" transform="translate(337.37 204.236)"/></g><g clip-path="url(#M)" opacity=".1"><path d="M0 0c.505-8.149 2.41-16.026 2.961-21.741.55-5.716.98-23.407.98-23.407l-1.962 1.132s.41 16.171-.573 24.058C.425-12.073-.234-5.176 0 0" style="fill:#000;fill-opacity:1;fill-rule:nonzero;stroke:none" transform="translate(342.57 428.219)"/></g></g><path d="m0 0-15.022 8.673-10.016-5.782 15.022-8.673Z" style="fill:#1a2e35;fill-opacity:1;fill-rule:nonzero;stroke:none" transform="matrix(1.33333 0 0 -1.33333 480.04 89.849)"/><g clip-path="url(#N)" transform="matrix(1.33333 0 0 -1.33333 0 666.667)"><g clip-path="url(#O)" opacity=".15"><path d="m0 0-10.015-5.783.002-14.046L0-14.047Z" style="fill:#000;fill-opacity:1;fill-rule:nonzero;stroke:none" transform="translate(360.03 267.821)"/></g><g clip-path="url(#P)" opacity=".15"><path d="m0 0-15.024 8.674V-5.373L.002-14.046z" style="fill:#000;fill-opacity:1;fill-rule:nonzero;stroke:none" transform="translate(350.016 262.038)"/></g></g><path d="m0 0 185.261-106.921 10.742 6.18L10.76 6.221Z" style="fill:#1a2e35;fill-opacity:1;fill-rule:nonzero;stroke:none" transform="matrix(1.33333 0 0 -1.33333 337.035 185.054)"/><path d="m0 0 186.425-107.593v43.081l-16.498 9.525-1.801-12.563-1.081 14.227L0 43.081l.006-27.862 5.357-5.337L0 11.442Z" style="fill:#375a64;fill-opacity:1;fill-rule:nonzero;stroke:none" transform="matrix(1.33333 0 0 -1.33333 325.417 175.373)"/><g clip-path="url(#Q)" transform="matrix(1.33333 0 0 -1.33333 0 666.667)"><g clip-path="url(#R)" opacity=".05"><path d="M0 0c-9.702 5.612-50.494 28.632-55.194 30.879-13.663 6.533-25.442 11.679-43.719 22.087 0 0 8.476-6.053 26.756-15.477 8.577-4.422 16.444-8.204 20.565-10.257S0-2.142 0-2.142Z" style="fill:#fff;fill-opacity:1;fill-rule:nonzero;stroke:none" transform="translate(430.487 268.043)"/></g><g clip-path="url(#S)" opacity=".1"><path d="M0 0s6.887-3.981 15.906-9.199c14.256-8.246 23.829-14.182 30.02-19.862 6.189-5.68 18.171-12.878 23.556-15.801 0 0-6.322 2.294-18.169 9.631-11.846 7.337-14.004 11.154-30.833 20.889C3.652-4.607-.003-2.495-.003-2.495Z" style="fill:#000;fill-opacity:1;fill-rule:nonzero;stroke:none" transform="translate(244.102 402.305)"/></g><g clip-path="url(#T)" opacity=".1"><path d="M0 0c-10.193 5.896-44.254 25.529-49.65 28.651s-18.109 5.572-25.079 9.604c0 0 5.17-3.764 12.255-6.49S-6.634 1.525 0-2.312Z" style="fill:#000;fill-opacity:1;fill-rule:nonzero;stroke:none" transform="translate(430.487 273.157)"/></g><g clip-path="url(#U)" opacity=".05"><path d="M0 0s36.708-21.231 47.481-27.464c10.775-6.232 28.673-18.737 43.757-26.906 15.084-8.168 26.192-12.862 26.192-12.862s-14.426 4.113-26.361 11.017c-11.934 6.903-33.645 20.484-46.74 28.058L-5.357.583l.001.973z" style="fill:#fff;fill-opacity:1;fill-rule:nonzero;stroke:none" transform="translate(249.426 378.352)"/></g><g clip-path="url(#V)" opacity=".05"><path d="M0 0c-10.009 5.789-43.121 24.878-51.042 29.46s-19.972 13.03-33.403 20.799-24.453 12.557-32.894 15.863c-8.439 3.305-17.738 8.572-17.738 8.572s8.859-6.213 22.167-12.26 29.252-14.386 43.404-24.441S0-2.826 0-2.826Z" style="fill:#fff;fill-opacity:1;fill-rule:nonzero;stroke:none" transform="translate(430.487 288.568)"/></g><g clip-path="url(#W)" opacity=".05"><path d="M0 0s59.932-33.958 74.913-42.624 34.609-20.728 34.609-20.728S77.837-46.498 46.153-28.17L-.002-1.474Z" style="fill:#fff;fill-opacity:1;fill-rule:nonzero;stroke:none" transform="translate(244.111 408.1)"/></g><g clip-path="url(#X)" opacity=".1"><path d="M0 0s-69.231 39.973-88.744 51.26c-19.512 11.287-41.258 21.717-41.258 21.717s16.211-10.719 40.184-24.623C-82.719 44.236 0-3.524 0-3.524z" style="fill:#000;fill-opacity:1;fill-rule:nonzero;stroke:none" transform="translate(430.487 296.656)"/></g><g clip-path="url(#Y)" opacity=".1"><path d="m0 0 53.646-31.029c11.004-6.366 39.526-23.748 46.331-28.063 0 0-28.092 14.759-65.447 36.368L-.004-2.75Z" style="fill:#000;fill-opacity:1;fill-rule:nonzero;stroke:none" transform="translate(244.063 375.242)"/></g><g clip-path="url(#Z)" opacity=".1"><path d="M0 0c.003 1.511 13.88-4.825 23.419-10.343 8.408-4.864 25.116-16.113 25.114-17.515s-16.326 7.361-25.122 12.449S-.002-1.51 0 0m-70.327 38.467 45.188-26.137c10.515-6.083 35.046-22.612 45.812-28.839s81.89-44.942 95.41-52.762v3.037c-8.387 4.852-76.493 49.069-92.767 58.483C7.044 1.662-9.61 6.387-19.751 12.253l-50.572 29.251Z" style="fill:#000;fill-opacity:1;fill-rule:nonzero;stroke:none" transform="translate(314.404 346.539)"/></g><g clip-path="url(#aa)" opacity=".05"><path d="M0 0c6.574-3.796 27.044-15.372 32.739-19.75 5.694-4.377 11.6-11.419 22.605-17.773 0 0-11.355 4.741-17.884 10.931C30.933-20.402-.055-3.069-.055-3.069z" style="fill:#fff;fill-opacity:1;fill-rule:nonzero;stroke:none" transform="translate(244.109 396.585)"/></g><g clip-path="url(#ab)" opacity=".2"><path d="m0 0 147.626-86.921.994-4.034 1.517 2.542 14.869-9.285 1.863-41.686v43.081l-16.498 9.525-1.44.86-1.442.804z" style="fill:#fff;fill-opacity:1;fill-rule:nonzero;stroke:none" transform="translate(263.618 400.262)"/></g></g><path d="m0 0-10.742-6.211V36.87L0 43.203Z" style="fill:#2b454e;fill-opacity:1;fill-rule:nonzero;stroke:none" transform="matrix(1.33333 0 0 -1.33333 588.306 310.548)"/><path d="m0 0-1.801-12.563-1.081 14.227L-1.44.86Z" style="fill:#1a2e35;fill-opacity:1;fill-rule:nonzero;stroke:none" transform="matrix(1.33333 0 0 -1.33333 551.986 248.689)"/><path d="m0 0 1.441-.804-.36-13.424Z" style="fill:#2b454e;fill-opacity:1;fill-rule:nonzero;stroke:none" transform="matrix(1.33333 0 0 -1.33333 548.143 246.47)"/><path d="m0 0 1.602-2.971-1.601-.81 5.356-1.556Z" style="fill:#2b454e;fill-opacity:1;fill-rule:nonzero;stroke:none" transform="matrix(1.33333 0 0 -1.33333 325.425 155.081)"/><path d="m0 0 1.602-2.971 3.755-2.366Z" style="fill:#1a2e35;fill-opacity:1;fill-rule:nonzero;stroke:none" transform="matrix(1.33333 0 0 -1.33333 325.425 155.081)"/><path d="m0 0-4.557-.151-8.333 3.536 8.333-8.045Z" style="fill:#1a2e35;fill-opacity:1;fill-rule:nonzero;stroke:none" transform="matrix(1.33333 0 0 -1.33333 580.059 310.458)"/><path d="m0 0-4.557-2.296-8.333 5.681 8.333-3.536z" style="fill:#2b454e;fill-opacity:1;fill-rule:nonzero;stroke:none" transform="matrix(1.33333 0 0 -1.33333 580.059 310.458)"/><path d="m0 0 186.425-107.592 10.742 6.333L10.856 6.268Z" style="fill:#1a2e35;fill-opacity:1;fill-rule:nonzero;stroke:none" transform="matrix(1.33333 0 0 -1.33333 325.417 117.932)"/><path d="m0 0 185.26-106.921v43.08L18.391 32.462 16.59 19.899l-1.081 14.227L0 43.081Z" style="fill:#375a64;fill-opacity:1;fill-rule:nonzero;stroke:none" transform="matrix(1.33333 0 0 -1.33333 332.078 118.719)"/><g clip-path="url(#ac)" transform="matrix(1.33333 0 0 -1.33333 0 666.667)"><g clip-path="url(#ad)" opacity=".05"><path d="M0 0c-9.701 5.612-50.493 28.631-55.194 30.879-13.663 6.533-25.442 11.679-43.719 22.087 0 0 8.477-6.053 26.756-15.477 8.577-4.423 16.444-8.204 20.565-10.257S0-2.142 0-2.142Z" style="fill:#fff;fill-opacity:1;fill-rule:nonzero;stroke:none" transform="translate(434.318 311.206)"/></g><g clip-path="url(#ae)" opacity=".1"><path d="m0 0 14.742-8.528C28.997-16.774 38.57-22.71 44.761-28.39c6.189-5.679 18.172-12.878 23.556-15.801 0 0-6.321 2.294-18.168 9.631-11.846 7.338-14.004 11.155-30.834 20.889L-.004-2.495Z" style="fill:#000;fill-opacity:1;fill-rule:nonzero;stroke:none" transform="translate(249.099 444.796)"/></g><g clip-path="url(#af)" opacity=".1"><path d="M0 0c-10.193 5.896-44.254 25.529-49.65 28.651s-18.109 5.572-25.079 9.604c0 0 5.17-3.763 12.255-6.49C-55.389 29.039-6.633 1.525 0-2.312Z" style="fill:#000;fill-opacity:1;fill-rule:nonzero;stroke:none" transform="translate(434.318 316.319)"/></g><g clip-path="url(#ag)" opacity=".05"><path d="m0 0 51.671-29.89c10.774-6.232 28.672-18.737 43.756-26.905s26.193-12.863 26.193-12.863-14.427 4.113-26.362 11.017-33.645 20.484-46.74 28.058L-.003-2.515z" style="fill:#fff;fill-opacity:1;fill-rule:nonzero;stroke:none" transform="translate(249.068 423.94)"/></g><g clip-path="url(#ah)" opacity=".05"><path d="M0 0c-10.008 5.79-43.121 24.878-51.042 29.46s-19.972 13.03-33.403 20.799-24.453 12.557-32.893 15.863c-8.439 3.305-17.738 8.572-17.738 8.572s8.858-6.213 22.167-12.26c13.307-6.047 29.251-14.386 43.403-24.441C-55.353 27.938 0-2.826 0-2.826Z" style="fill:#fff;fill-opacity:1;fill-rule:nonzero;stroke:none" transform="translate(434.318 331.73)"/></g><g clip-path="url(#ai)" opacity=".05"><path d="M0 0c57.891-32.791 57.633-32.631 73.749-41.953 14.98-8.666 34.609-20.728 34.609-20.728S76.672-45.827 44.99-27.5L-.002-1.474Z" style="fill:#fff;fill-opacity:1;fill-rule:nonzero;stroke:none" transform="translate(249.107 450.59)"/></g><g clip-path="url(#aj)" opacity=".1"><path d="M0 0s-69.231 39.973-88.744 51.26c-19.512 11.287-41.257 21.717-41.257 21.717s16.211-10.719 40.183-24.623C-82.719 44.236 0-3.524 0-3.524z" style="fill:#000;fill-opacity:1;fill-rule:nonzero;stroke:none" transform="translate(434.318 339.817)"/></g><g clip-path="url(#ak)" opacity=".1"><path d="m0 0 52.481-30.358c11.004-6.366 39.527-23.748 46.332-28.063 0 0-28.092 14.759-65.448 36.369L-.004-2.75Z" style="fill:#000;fill-opacity:1;fill-rule:nonzero;stroke:none" transform="translate(249.06 417.733)"/></g><g clip-path="url(#al)" opacity=".1"><path d="M0 0c.003 1.51 13.88-4.825 23.419-10.343 8.409-4.864 25.116-16.113 25.114-17.515s-16.325 7.361-25.121 12.449S-.002-1.511 0 0m-69.162 37.795 44.023-25.465c10.515-6.083 35.047-22.612 45.812-28.839s81.89-44.942 95.41-52.762v3.037c-8.387 4.852-76.493 49.068-92.766 58.482S-9.609 6.387-19.75 12.252l-49.408 28.581Z" style="fill:#000;fill-opacity:1;fill-rule:nonzero;stroke:none" transform="translate(318.235 389.7)"/></g><g clip-path="url(#am)" opacity=".05"><path d="M0 0c6.574-3.795 25.879-14.701 31.574-19.078 5.694-4.378 11.601-11.42 22.606-17.774 0 0-11.356 4.741-17.884 10.931S-.055-3.069-.055-3.069z" style="fill:#fff;fill-opacity:1;fill-rule:nonzero;stroke:none" transform="translate(249.105 439.076)"/></g></g><path d="m0 0-1.439.83-1.443.834 1.081-14.227z" style="fill:#1a2e35;fill-opacity:1;fill-rule:nonzero;stroke:none" transform="matrix(1.33333 0 0 -1.33333 356.599 75.436)"/><g clip-path="url(#an)" transform="matrix(1.33333 0 0 -1.33333 0 666.667)"><g clip-path="url(#ao)" opacity=".2"><path d="m0 0 165.007-97.698 1.862-41.686v43.081z" style="fill:#fff;fill-opacity:1;fill-rule:nonzero;stroke:none" transform="translate(267.45 443.423)"/></g></g><path d="m0 0-10.117 3.003L0-5.257Z" style="fill:#2b454e;fill-opacity:1;fill-rule:nonzero;stroke:none" transform="matrix(1.33333 0 0 -1.33333 579.091 221.977)"/><path d="m0 0-10.742-6.252v43.081L0 43.202Z" style="fill:#2b454e;fill-opacity:1;fill-rule:nonzero;stroke:none" transform="matrix(1.33333 0 0 -1.33333 593.414 252.945)"/><path d="m0 0 10.742 6.373-185.094 106.824-10.908-6.276z" style="fill:#1a2e35;fill-opacity:1;fill-rule:nonzero;stroke:none" transform="matrix(1.33333 0 0 -1.33333 579.091 203.84)"/><path d="m0 0 2.867-1.018L0-5.257Z" style="fill:#2b454e;fill-opacity:1;fill-rule:nonzero;stroke:none" transform="matrix(1.33333 0 0 -1.33333 579.091 221.977)"/><path d="m0 0-2.867-1.657-10.117 5.678 10.117-8.26z" style="fill:#1a2e35;fill-opacity:1;fill-rule:nonzero;stroke:none" transform="matrix(1.33333 0 0 -1.33333 582.914 223.334)"/><path d="m0 0 1.442-.834-.361-13.393Z" style="fill:#2b454e;fill-opacity:1;fill-rule:nonzero;stroke:none" transform="matrix(1.33333 0 0 -1.33333 352.757 73.217)"/><path d="m0 0 185.261-106.921v-43.081L18.392-53.699 16.59-39.056l-1.08-12.979L0-43.081Z" style="fill:#375a64;fill-opacity:1;fill-rule:nonzero;stroke:none" transform="matrix(1.33333 0 0 -1.33333 337.035 185.054)"/><g clip-path="url(#ap)" transform="matrix(1.33333 0 0 -1.33333 0 666.667)"><g clip-path="url(#aq)" opacity=".05"><path d="M0 0c-9.702 5.59-50.494 29.596-55.194 32.777-13.663 9.244-25.443 17.699-43.72 28.395 0 0 8.477-3.735 26.757-15.418 8.577-5.482 35.677-21.85 39.798-24.555C-28.239 18.493 0 2.142 0 2.142Z" style="fill:#fff;fill-opacity:1;fill-rule:nonzero;stroke:none" transform="translate(438.037 247.122)"/></g><g clip-path="url(#ar)" opacity=".1"><path d="m0 0 14.741-8.495C28.997-16.709 38.57-21.828 44.76-23.296s18.172-8.104 23.557-11.4c0 0-6.322 5.007-18.169 11.349-11.846 6.342-14.004 5.016-30.833 14.714L-.004 2.499Z" style="fill:#000;fill-opacity:1;fill-rule:nonzero;stroke:none" transform="translate(252.817 327.328)"/></g><g clip-path="url(#as)" opacity=".1"><path d="M0 0c-10.193 5.874-25.022 14.429-30.419 17.538-5.396 3.11-37.34 26.403-44.31 30.42 0 0 5.17-2.208 12.255-7.662C-55.389 34.841-6.634 6.134 0 2.312Z" style="fill:#000;fill-opacity:1;fill-rule:nonzero;stroke:none" transform="translate(438.037 242.009)"/></g><g clip-path="url(#at)" opacity=".05"><path d="m0 0 51.671-29.775c10.774-6.208 28.672-14.37 43.757-23.619s26.191-17.382 26.191-17.382-14.426 12.545-26.36 19.422c-11.935 6.877-33.647 18.367-46.74 25.913L-.004 2.519z" style="fill:#fff;fill-opacity:1;fill-rule:nonzero;stroke:none" transform="translate(252.786 348.22)"/></g><g clip-path="url(#au)" opacity=".05"><path d="M0 0c-10.009 5.767-23.889 13.771-31.81 18.335-7.92 4.565-39.205 21.098-52.635 28.837s-24.453 15.68-32.894 22.12c-8.439 6.439-17.738 11.91-17.738 11.91s8.859-4.016 22.167-13.336c13.307-9.32 29.251-19.391 43.404-25.678S0 2.826 0 2.826Z" style="fill:#fff;fill-opacity:1;fill-rule:nonzero;stroke:none" transform="translate(438.037 226.598)"/></g><g clip-path="url(#av)" opacity=".05"><path d="M0 0s58.768-34.572 73.749-43.204 34.609-19.236 34.609-19.236-31.685 19.733-63.369 37.99L-.002 1.476Z" style="fill:#fff;fill-opacity:1;fill-rule:nonzero;stroke:none" transform="translate(252.825 321.524)"/></g><g clip-path="url(#aw)" opacity=".1"><path d="m0 0-88.744 51.135c-19.512 11.244-41.258 25.924-41.258 25.924s16.211-8 40.184-21.777C-82.719 51.202 0 3.524 0 3.524z" style="fill:#000;fill-opacity:1;fill-rule:nonzero;stroke:none" transform="translate(438.037 218.51)"/></g><g clip-path="url(#ax)" opacity=".1"><path d="m0 0 52.481-30.242c11.004-6.341 39.527-21.893 46.332-25.436 0 0-28.092 17.678-65.449 39.204L-.004 2.754Z" style="fill:#000;fill-opacity:1;fill-rule:nonzero;stroke:none" transform="translate(252.777 354.437)"/></g><g clip-path="url(#ay)" opacity=".1"><path d="M0 0c8.796-5.068 25.12-15.153 25.122-16.559.002-1.404-16.706 6.64-25.114 11.485C-9.531.422-23.409 10.111-23.411 11.624S-8.795 5.068 0 0m-92.569 50.648 49.407-28.47C-33.021 16.334-16.368 1.83-.095-7.547c16.274-9.378 84.379-43.725 92.767-48.558v3.037C79.152-45.278 8.027-1.94-2.738 4.263s-35.297 18.001-45.813 24.06l-44.022 25.368z" style="fill:#000;fill-opacity:1;fill-rule:nonzero;stroke:none" transform="translate(345.365 290.966)"/></g><g clip-path="url(#az)" opacity=".05"><path d="M0 0c6.574-3.795 25.88-15.182 31.574-17.38s11.601-1.976 22.606-8.33c0 0-11.356 8.372-17.884 9.72C29.769-14.643-.055 3.132-.055 3.132z" style="fill:#fff;fill-opacity:1;fill-rule:nonzero;stroke:none" transform="translate(252.823 333.04)"/></g></g><path d="m0 0-1.94 4.459-.942-2.795 1.08 12.979z" style="fill:#1a2e35;fill-opacity:1;fill-rule:nonzero;stroke:none" transform="matrix(1.33333 0 0 -1.33333 361.557 256.652)"/><g clip-path="url(#aA)" transform="matrix(1.33333 0 0 -1.33333 0 666.667)"><g clip-path="url(#aB)" opacity=".2"><path d="m0 0 165.006-97.698 1.863-41.686v43.081z" style="fill:#fff;fill-opacity:1;fill-rule:nonzero;stroke:none" transform="translate(271.168 350.591)"/></g></g><path d="m0 0-10.117 8.679L0 5.257Z" style="fill:#2b454e;fill-opacity:1;fill-rule:nonzero;stroke:none" transform="matrix(1.33333 0 0 -1.33333 584.05 366.92)"/><path d="m0 0-10.742-6.18v-43.081L0-43.066Z" style="fill:#2b454e;fill-opacity:1;fill-rule:nonzero;stroke:none" transform="matrix(1.33333 0 0 -1.33333 598.372 319.376)"/><path d="m0 0 7.874 7.82L0 5.257Z" style="fill:#2b454e;fill-opacity:1;fill-rule:nonzero;stroke:none" transform="matrix(1.33333 0 0 -1.33333 584.05 366.92)"/><path d="m0 0-7.874-5.145L-17.991.859l10.117-3.422Z" style="fill:#1a2e35;fill-opacity:1;fill-rule:nonzero;stroke:none" transform="matrix(1.33333 0 0 -1.33333 594.548 356.493)"/><path d="m0 0 .941 2.795.139 10.184Z" style="fill:#2b454e;fill-opacity:1;fill-rule:nonzero;stroke:none" transform="matrix(1.33333 0 0 -1.33333 357.715 254.434)"/><g clip-path="url(#aC)" transform="matrix(1.33333 0 0 -1.33333 0 666.667)"><path d="M0 0q.228 7.412 0 14.913a42 42 0 0 1-.434 4.334 18.3 18.3 0 0 1-1.007 3.821 12.7 12.7 0 0 1-1.846 3.241q-1.154 1.464-2.883 2.463t-2.882.866c-.769-.088-1.389-.273-1.85-.925-.461-.651-.831-1.673-1.063-2.781-.23-1.111-.337-2.439-.374-3.895a193 193 0 0 1 0-14.914q.056-2.251.375-4.299a17.3 17.3 0 0 1 1.037-3.839 13.2 13.2 0 0 1 1.875-3.256Q-7.9-5.737-6.17-6.734q1.729-1 2.883-.868 1.152.134 1.873 1.094.72.96 1.039 2.641Q-.058-2.186 0 0m-6.17 42.975a27.4 27.4 0 0 0 7.439-6.248 36.8 36.8 0 0 0 5.158-8.215 43 43 0 0 0 3.056-9.443 60.4 60.4 0 0 0 1.183-9.87q.114-3.885.115-8.055-.001-4.174-.115-7.746-.174-4.694-1.183-8.504-1.008-3.813-3.056-5.915-2.046-2.104-5.158-2.258-3.116-.156-7.439 2.341t-7.437 6.247a36.8 36.8 0 0 0-5.162 8.216 43.2 43.2 0 0 0-3.055 9.444 60 60 0 0 0-1.181 9.869 251 251 0 0 0-.115 7.878q-.001 4.171.115 7.923.171 4.695 1.181 8.505t3.055 5.915q2.049 2.1 5.162 2.256t7.437-2.34" style="fill:#1a2e35;fill-opacity:1;fill-rule:nonzero;stroke:none" transform="translate(346.17 338.224)"/><path d="M0 0c-1.369-1.405-3.082-2.157-5.166-2.268-2.07-.099-4.549.678-7.434 2.342q-4.326 2.497-7.432 6.25a37 37 0 0 0-2.7 3.698l3.525 2.034a40 40 0 0 1 2.293-3.069q3.107-3.754 7.434-6.25C-6.596 1.073-4.118.296-2.034.395-1.048.444.02.657.845 1.002A9 9 0 0 0 0 0" style="fill:#2b454e;fill-opacity:1;fill-rule:nonzero;stroke:none" transform="translate(352.6 317.208)"/><path d="m0 0-3.525-2.071c-.136.197-.259.407-.408.604-.776.974-1.737 1.8-2.884 2.466-1.159.665-2.121.949-2.884.862-.765-.086-1.381-.271-1.85-.924-.296-.432-.32-.469 0 0 .197.271.407.48.642.653.345.259 2.846 2.268 3.056 2.429.358.283.79.456 1.27.505.777.086 1.738-.197 2.885-.863A9.87 9.87 0 0 0 0 0" style="fill:#2b454e;fill-opacity:1;fill-rule:nonzero;stroke:none" transform="translate(346.818 366)"/><path d="M0 0q-.057-2.185-.374-3.867-.319-1.68-1.039-2.641a2.9 2.9 0 0 0-.667-.651c-.052-.035-2.883-2.312-3.134-2.484a2.6 2.6 0 0 0-1.195-.434q-1.154-.133-2.883.867-1.73.997-2.882 2.462a13.2 13.2 0 0 0-1.875 3.257A17.3 17.3 0 0 0-15.086.348a33 33 0 0 0-.375 4.299 193 193 0 0 0 0 14.914q.056 2.185.403 3.851.348 1.663 1.038 2.64.282.396.639.655c.348.251 2.844 2.262 3.055 2.425a2.5 2.5 0 0 0 1.274.506q1.154.133 2.883-.866 1.728-.998 2.883-2.462a12.7 12.7 0 0 0 1.846-3.241q.69-1.777 1.007-3.821.317-2.05.433-4.334A242 242 0 0 0 0 0m6.361 16.593a43.2 43.2 0 0 1-3.056 9.443 36.8 36.8 0 0 1-5.159 8.215q-3.115 3.75-7.438 6.249-4.324 2.494-7.437 2.34a8.1 8.1 0 0 1-2.715-.599c-1.023-1.321-1.826-3.004-2.379-5.097q-1.01-3.81-1.181-8.505-.116-3.75-.116-7.923 0-4.171.116-7.878a60 60 0 0 1 1.181-9.869 43.2 43.2 0 0 1 3.055-9.443 36.8 36.8 0 0 1 5.162-8.216 27.4 27.4 0 0 1 7.437-6.247q4.323-2.496 7.439-2.342c.986.049 2.058.259 2.883.602.981 1.246 1.719 3.064 2.274 5.157.672 2.541 1.002 5.313 1.117 8.442q.114 3.572.115 7.745-.001 4.171-.115 8.056a60.4 60.4 0 0 1-1.183 9.87" style="fill:#00dfbf;fill-opacity:1;fill-rule:nonzero;stroke:none" transform="translate(349.292 340.887)"/><path d="M0 0v16.334L-8.417 4.86Zm1.27-26.387q-.636.367-1.096 1.343a4.5 4.5 0 0 0-.461 1.953v9.055L-18.449-3.55q-.637.366-1.096 1.342a4.5 4.5 0 0 0-.462 1.953v9.41q0 2.306.75 3.383l17.239 23.513q.519.677.952.738t1.182-.372l8.705-5.026q.634-.367 1.097-1.343.46-.977.46-1.952V-5.992l4.958-2.862q.636-.368 1.096-1.343.462-.979.462-1.954v-9.409q0-.977-.462-1.419-.46-.445-1.096-.079l-4.958 2.863v-9.053q0-.979-.46-1.42c-.31-.298-.673-.323-1.097-.079z" style="fill:#1a2e35;fill-opacity:1;fill-rule:nonzero;stroke:none" transform="translate(301.428 366.097)"/><path d="M0 0q.463.443.462 1.419v2.07l-3.394 1.959-3.122-2.663 4.958-2.863Q-.46-.445 0 0" style="fill:#2b454e;fill-opacity:1;fill-rule:nonzero;stroke:none" transform="translate(317.86 343.118)"/><path d="M0 0v-2.071c0-.654-.16-1.122-.469-1.418s-.666-.321-1.097-.074L-9.11.789c-.419.246-.789.69-1.098 1.343-.024.062-.036.112-.062.161l3.12 2.663a1 1 0 0 1 .061-.161c.309-.641.679-1.097 1.098-1.343Z" style="fill:#2b454e;fill-opacity:1;fill-rule:nonzero;stroke:none" transform="translate(311.809 338.917)"/><path d="m0 0-3.119-2.663L-21.29 7.828c-.419.247-.788.691-1.084 1.344-.05.099-.074.185-.111.284l3.229 2.378c.309-.653.666-1.097 1.098-1.343z" style="fill:#2b454e;fill-opacity:1;fill-rule:nonzero;stroke:none" transform="translate(304.264 354.72)"/><path d="m0 0-3.123-2.477-8.417 4.86 8.417 11.474L0 16.334Zm12.213-11.331L7.255-8.468v34.087a4.55 4.55 0 0 1-.46 1.953q-.463.976-1.097 1.342l-8.705 5.026c-.156.09-.282.135-.417.193l-15.833-21.595q-.75-1.077-.75-3.383v-9.41q0-.977.462-1.953.459-.976 1.096-1.342L-.288-14.036v-9.056q-.001-.976.461-1.952.46-.976 1.096-1.343l5.986-3.456v6.985l3.122 2.663 3.394-1.959v7.527q0 .976-.462 1.954-.46.976-1.096 1.342" style="fill:#00dfbf;fill-opacity:1;fill-rule:nonzero;stroke:none" transform="translate(304.55 368.76)"/><path d="M0 0v16.334L-8.417 4.86Zm1.269-26.386q-.636.366-1.095 1.342a4.5 4.5 0 0 0-.462 1.953v9.055L-18.449-3.55q-.637.366-1.096 1.342a4.5 4.5 0 0 0-.462 1.953v9.41q0 2.307.75 3.383l17.239 23.513q.519.677.952.738t1.181-.372l8.705-5.026q.635-.366 1.097-1.343t.46-1.952V-5.992l4.959-2.862q.635-.368 1.096-1.343.462-.978.462-1.953v-9.41q0-.977-.462-1.419-.461-.445-1.096-.079l-4.959 2.863v-9.053q.001-.979-.46-1.42-.462-.446-1.097-.079z" style="fill:#1a2e35;fill-opacity:1;fill-rule:nonzero;stroke:none" transform="translate(381.627 319.794)"/><path d="M0 0q.463.443.462 1.419v2.07l-3.394 1.959-3.123-2.663 4.959-2.863Q-.461-.444 0 0" style="fill:#2b454e;fill-opacity:1;fill-rule:nonzero;stroke:none" transform="translate(398.059 296.815)"/><path d="M0 0v-2.071c0-.653-.16-1.122-.468-1.418s-.666-.32-1.097-.074L-9.109.789c-.419.247-.789.69-1.098 1.344-.024.061-.037.111-.062.16l3.12 2.663a1 1 0 0 1 .061-.161c.309-.641.678-1.097 1.097-1.343z" style="fill:#2b454e;fill-opacity:1;fill-rule:nonzero;stroke:none" transform="translate(392.007 292.614)"/><path d="m0 0-3.119-2.663L-21.29 7.828c-.419.246-.789.69-1.085 1.343-.049.099-.073.185-.11.284l3.229 2.379c.309-.653.666-1.097 1.098-1.343z" style="fill:#2b454e;fill-opacity:1;fill-rule:nonzero;stroke:none" transform="translate(384.463 308.418)"/><path d="m0 0-3.123-2.477-8.417 4.861 8.417 11.473L0 16.334Zm12.213-11.331L7.254-8.468v34.087a4.5 4.5 0 0 1-.46 1.953q-.462.977-1.097 1.343l-8.705 5.025c-.155.09-.281.135-.416.193l-15.833-21.595q-.75-1.076-.75-3.383v-9.41q0-.977.462-1.953.459-.976 1.096-1.342L-.288-14.036v-9.055c0-.652.151-1.302.461-1.953q.46-.976 1.096-1.342l5.985-3.456v6.984l3.123 2.663 3.394-1.959v7.527q0 .976-.462 1.954-.461.976-1.096 1.342" style="fill:#00dfbf;fill-opacity:1;fill-rule:nonzero;stroke:none" transform="translate(384.75 322.457)"/><path d="M0 0a.6.6 0 0 0 .211-.257A.9.9 0 0 0 .3-.634v-1.811q0-.188-.089-.272-.09-.087-.211-.015L-5.26.304a.56.56 0 0 0-.209.258.86.86 0 0 0-.089.375v11.034q0 .188.089.275.089.083.209.014l5.172-2.985a.57.57 0 0 0 .21-.258.9.9 0 0 0 .089-.375V6.831q0-.188-.089-.273-.09-.086-.21-.016l-3.419 1.973V6.671L-.333 4.84a.6.6 0 0 0 .212-.26.9.9 0 0 0 .088-.375V2.394q0-.188-.088-.274-.09-.085-.212-.016l-3.174 1.833V2.024Z" style="fill:#fafafa;fill-opacity:1;fill-rule:nonzero;stroke:none" transform="translate(286.884 322.11)"/><path d="M0 0a.57.57 0 0 0 .212-.259A.9.9 0 0 0 .3-.634v-1.725q0-.189-.088-.274-.09-.084-.212-.014l-1.009.583q-1.021.588-1.021-.983v-4.202q0-.188-.089-.272-.088-.086-.211-.017l-1.398.807a.56.56 0 0 0-.21.26.9.9 0 0 0-.089.375v7.96q0 .188.089.273.088.086.21.014l1.288-.742a.58.58 0 0 0 .211-.258.9.9 0 0 0 .088-.377V.382q.255.228.616.26.36.03.859-.258z" style="fill:#fafafa;fill-opacity:1;fill-rule:nonzero;stroke:none" transform="translate(292.353 325.103)"/><path d="M0 0a.56.56 0 0 0 .212-.258A.9.9 0 0 0 .3-.633v-1.725q0-.188-.088-.275-.09-.084-.212-.013l-1.009.583q-1.02.588-1.02-.983v-4.203q0-.188-.089-.272t-.211-.015l-1.398.807a.55.55 0 0 0-.211.258.9.9 0 0 0-.088.376v7.96q0 .188.088.273.088.084.211.014l1.288-.742a.57.57 0 0 0 .21-.258.9.9 0 0 0 .088-.377V.383q.256.228.616.26.36.03.861-.258z" style="fill:#fafafa;fill-opacity:1;fill-rule:nonzero;stroke:none" transform="translate(297.445 322.162)"/><path d="M0 0q.032-.668.306-1.193.271-.524.715-.78.443-.257.715-.046.272.21.305.841.023.242.023.567t-.023.594a2.9 2.9 0 0 1-.305 1.193q-.272.523-.715.78-.444.256-.715.046Q.032 1.791 0 1.163a6 6 0 0 1-.022-.57Q-.022.269 0 0m4.038-1.102q.013-.263.013-.665 0-.4-.013-.65-.022-.807-.244-1.396-.222-.59-.61-.904a1.4 1.4 0 0 0-.937-.304q-.55.009-1.226.4-.677.39-1.226 1.017a6.7 6.7 0 0 0-.938 1.386 8 8 0 0 0-.61 1.607 7.4 7.4 0 0 0-.245 1.678q-.01.264-.011.664 0 .401.011.651.012.814.233 1.403.224.591.618.9.392.31.942.311.549-.002 1.226-.393.677-.39 1.226-1.023.55-.633.942-1.399a7.7 7.7 0 0 0 .849-3.283" style="fill:#fafafa;fill-opacity:1;fill-rule:nonzero;stroke:none" transform="translate(300.209 315.545)"/><path d="M0 0a.56.56 0 0 0 .21-.258.9.9 0 0 0 .09-.377V-2.36q0-.187-.09-.273-.088-.084-.21-.014l-1.009.582q-1.022.59-1.022-.981v-4.203q0-.187-.088-.273-.09-.085-.211-.016l-1.399.809a.56.56 0 0 0-.21.258.9.9 0 0 0-.089.376v7.96q0 .187.089.273.088.084.21.014l1.288-.742a.6.6 0 0 0 .212-.258.9.9 0 0 0 .088-.377V.383q.252.227.616.259.359.03.859-.258z" style="fill:#fafafa;fill-opacity:1;fill-rule:nonzero;stroke:none" transform="translate(309.318 315.308)"/><path d="M0 0a.7.7 0 0 0 .14.374Q.256.519.478.39l1.364-.787a.46.46 0 0 0 .173-.209.7.7 0 0 0 .072-.308.5.5 0 0 0-.011-.114L1.21-3.927a.8.8 0 0 0-.149-.272q-.106-.126-.328.001l-.833.481a.45.45 0 0 0-.171.209.7.7 0 0 0-.073.307v.034z" style="fill:#fafafa;fill-opacity:1;fill-rule:nonzero;stroke:none" transform="translate(309.76 308.664)"/><path d="M0 0a7 7 0 0 1 0 .956q-.033.615-.256 1.189a1.68 1.68 0 0 1-.742.874q-.246.14-.422.124a.45.45 0 0 1-.295-.147.9.9 0 0 1-.182-.331 2 2 0 0 1-.089-.443 7 7 0 0 1-.023-.585q0-.342.023-.61a3.6 3.6 0 0 1 .089-.548q.065-.278.182-.541.117-.265.295-.485.177-.223.422-.363.521-.301.742.014Q-.033-.58 0 0m-.5-3.847a2.7 2.7 0 0 0-.565.43 3.728 3.728 0 0 0-.721 1.005 6 6 0 0 0-.2.448v-3.638q0-.188-.088-.272-.091-.087-.211-.016l-1.4.807a.57.57 0 0 0-.21.259.9.9 0 0 0-.089.376V6.757q0 .188.089.273.09.086.21.015l1.343-.775a.56.56 0 0 0 .212-.258.9.9 0 0 0 .088-.376v-.392q.1.111.217.234.117.12.287.166a.95.95 0 0 0 .423-.005q.25-.05.615-.262.5-.287.943-.773a5 5 0 0 0 .778-1.166q.33-.68.538-1.534A8.8 8.8 0 0 0 1.986.031q.01-.263.011-.698 0-.436-.011-.685-.022-.995-.227-1.612-.208-.616-.538-.91a1.07 1.07 0 0 0-.778-.277q-.444.017-.943.304" style="fill:#fafafa;fill-opacity:1;fill-rule:nonzero;stroke:none" transform="translate(319.259 304.65)"/><path d="M0 0a.86.86 0 0 1 .455-.135.57.57 0 0 1 .365.14.86.86 0 0 1 .245.38q.089.246.089.589l-1.021.35q-.3.086-.483-.012-.182-.1-.182-.423 0-.325.138-.534Q-.256.148 0 0m-2.529 1.854q0 1.127.56 1.539.56.41 1.825.021l1.298-.408q-.002.41-.144.759a1.14 1.14 0 0 1-.5.553q-.255.147-.394.115a.6.6 0 0 1-.206-.078q-.098-.078-.188-.062a.7.7 0 0 0-.21.089l-1.409.813a.5.5 0 0 0-.184.208.6.6 0 0 0-.061.308q.023.381.221.692.202.312.551.469.349.158.832.118.482-.041 1.048-.366a5 5 0 0 0 1.177-.937q.498-.543.825-1.186.328-.639.484-1.353.154-.715.154-1.466v-5.176q0-.188-.087-.272-.09-.085-.211-.015l-1.399.806a.56.56 0 0 0-.211.259.9.9 0 0 0-.088.376v.478a1.04 1.04 0 0 0-.66-.43q-.395-.071-1.037.299a3.4 3.4 0 0 0-.851.695 4.3 4.3 0 0 0-.621.923 5.099 5.099 0 0 0-.514 2.229" style="fill:#fafafa;fill-opacity:1;fill-rule:nonzero;stroke:none" transform="translate(324.462 299.818)"/><path d="M0 0a4 4 0 0 1 0-.838q.032-.615.272-1.146.239-.53.726-.812.455-.263.693-.017.24.248.294.71.055.497 0 1.076A3 3 0 0 1 1.697.012a1.7 1.7 0 0 1-.699.779q-.477.275-.72.033Q.032.58 0 0m.977-6.797q.421-.244.742-.131.324.113.323.711v1.195a2 2 0 0 0-.217-.242.66.66 0 0 0-.289-.157.9.9 0 0 0-.421.004q-.25.05-.615.261a4 4 0 0 0-.944.774 5 5 0 0 0-.777 1.158 7.4 7.4 0 0 0-.538 1.508A8.4 8.4 0 0 0-1.986.105a16 16 0 0 0 0 1.213q.021.961.227 1.568t.538.886q.334.276.777.261Q0 4.015.5 3.726q.366-.211.632-.467a3.718 3.718 0 0 0 .765-1.031 6 6 0 0 0 .199-.448v.392q0 .188.09.274.088.085.211.013l1.287-.742a.6.6 0 0 0 .211-.258.9.9 0 0 0 .087-.376v-8.318q0-.957-.227-1.551-.227-.595-.626-.852-.4-.255-.955-.175-.555.082-1.219.465a5.3 5.3 0 0 0-1.416 1.15 6 6 0 0 0-.859 1.3 5.744 5.744 0 0 0-.567 2.197q-.01.196.083.276.096.083.217.012l1.442-.832Q.09-5.38.2-5.786q.078-.268.238-.529.16-.265.539-.482" style="fill:#fafafa;fill-opacity:1;fill-rule:nonzero;stroke:none" transform="translate(330.608 299.172)"/><path d="M0 0q-.466.267-.709-.018-.245-.287-.289-.791L1-1.962Q.954-1.407.711-.838.467-.271 0 0m-.998-2.705q0-.392.095-.703.093-.31.238-.547a1.8 1.8 0 0 1 .322-.401q.178-.16.343-.257.335-.193.527-.201a.46.46 0 0 1 .328.101.6.6 0 0 0 .177.092q.055.013.189-.065l1.442-.833q.245-.14.245-.517 0-.204-.167-.526a1.5 1.5 0 0 0-.515-.557q-.35-.234-.905-.238Q.765-7.36 0-6.92a5.1 5.1 0 0 0-1.28 1.057 6 6 0 0 0-.943 1.458 8 8 0 0 0-.578 1.785 10.4 10.4 0 0 0-.194 2.042q0 .991.194 1.724.195.735.578 1.128.38.394.943.42.56.027 1.28-.39a4.6 4.6 0 0 0 1.383-1.215q.57-.75.931-1.622a8.6 8.6 0 0 0 .522-1.797q.16-.922.161-1.74v-.479q0-.189-.089-.274-.09-.085-.211-.014Z" style="fill:#fafafa;fill-opacity:1;fill-rule:nonzero;stroke:none" transform="translate(338.606 296.264)"/><path d="M0 0q0-.187-.089-.272-.087-.087-.21-.016L-1.697.52a.55.55 0 0 0-.211.259.9.9 0 0 0-.089.374v4.322q0 .735-.232 1.314-.234.58-.733.866-.5.289-.726-.024-.229-.312-.228-1.047V2.262q0-.188-.089-.273-.088-.086-.211-.015l-1.397.807a.56.56 0 0 0-.211.259.84.84 0 0 0-.089.376v7.959q-.001.188.089.273.087.085.211.015l1.342-.775a.56.56 0 0 0 .21-.258.9.9 0 0 0 .089-.376v-.392q.09.119.222.23a.7.7 0 0 0 .321.147q.19.037.439-.013.25-.05.582-.244.533-.306.976-.793a4.8 4.8 0 0 0 .761-1.147q.316-.662.494-1.499A9 9 0 0 0 0 4.697Z" style="fill:#fafafa;fill-opacity:1;fill-rule:nonzero;stroke:none" transform="translate(350.878 282.892)"/><path d="M0 0q.033-.67.306-1.194.27-.524.715-.781.445-.256.715-.045.272.21.306.84.022.243.021.568t-.021.595a2.9 2.9 0 0 1-.306 1.192 1.85 1.85 0 0 1-.715.78q-.444.256-.715.046-.273-.21-.306-.84A6 6 0 0 1-.021.592Q-.021.267 0 0m4.039-1.103q.01-.264.011-.665 0-.4-.011-.649-.023-.808-.244-1.397-.223-.59-.61-.904a1.42 1.42 0 0 0-.939-.303q-.547.007-1.225.399-.677.39-1.227 1.017a6.7 6.7 0 0 0-.937 1.385 8 8 0 0 0-.61 1.608 7.4 7.4 0 0 0-.244 1.678q-.011.264-.011.665t.011.65q.01.815.233 1.404.221.588.616.899.393.312.942.311.55-.002 1.227-.393.678-.39 1.225-1.023a7 7 0 0 0 .943-1.399 7.65 7.65 0 0 0 .85-3.283" style="fill:#fafafa;fill-opacity:1;fill-rule:nonzero;stroke:none" transform="translate(353.862 284.57)"/><path d="M0 0q0-.392.11-.669a.84.84 0 0 1 .367-.427l.887-.511a.56.56 0 0 0 .21-.258.86.86 0 0 0 .089-.377v-1.725q.001-.188-.089-.272-.087-.086-.21-.017l-1.053.61q-.523.3-.95.778-.427.477-.726 1.085-.3.609-.466 1.329-.166.719-.167 1.505v2.87l-.82.474a.55.55 0 0 0-.211.258.9.9 0 0 0-.089.375v1.725q0 .189.089.274.088.085.211.014l.82-.473v2.785q0 .188.09.273.087.085.21.015l1.399-.808a.56.56 0 0 0 .209-.258.86.86 0 0 0 .09-.376V5.415l1.253-.724a.57.57 0 0 0 .212-.257.9.9 0 0 0 .088-.377V2.332q0-.188-.088-.275-.09-.083-.212-.013L0 2.768Z" style="fill:#fafafa;fill-opacity:1;fill-rule:nonzero;stroke:none" transform="translate(361.552 279.736)"/><path d="m0 0 1.365-.788a.56.56 0 0 0 .211-.257.9.9 0 0 0 .089-.377v-1.725q0-.188-.089-.274-.088-.084-.211-.015L0-2.647v-5.774q.001-.188-.088-.273-.088-.085-.211-.015l-1.398.807a.56.56 0 0 0-.211.258.9.9 0 0 0-.088.376v5.774l-.766.442a.57.57 0 0 0-.212.257.9.9 0 0 0-.088.376v1.726q0 .189.088.274.09.084.212.014l.766-.442v.461q-.001.785.184 1.296.183.508.503.741.322.233.766.199.444-.035.966-.335l1.053-.609a.56.56 0 0 0 .211-.259.9.9 0 0 0 .088-.374V.546q0-.187-.088-.273-.088-.085-.211-.014L.478.835Q.212.988.106.845 0 .701 0 .375Z" style="fill:#fafafa;fill-opacity:1;fill-rule:nonzero;stroke:none" transform="translate(369.018 280.84)"/><path d="M0 0q.035-.669.307-1.194.272-.523.714-.78.444-.256.716-.046.274.21.305.842.023.242.023.567t-.023.594a2.8 2.8 0 0 1-.305 1.192q-.272.523-.716.78-.443.256-.714.046Q.035 1.79 0 1.162a7 7 0 0 1-.021-.57Q-.021.268 0 0m4.039-1.103q.012-.263.012-.664 0-.402-.012-.65-.021-.808-.244-1.396-.223-.591-.609-.903a1.4 1.4 0 0 0-.938-.305q-.549.01-1.227.399-.675.392-1.225 1.017a6.7 6.7 0 0 0-.938 1.386 8 8 0 0 0-.61 1.608 7.3 7.3 0 0 0-.243 1.678q-.013.264-.013.664 0 .401.013.65.01.815.232 1.404.222.59.615.901.395.31.944.309.55-.001 1.225-.392a4.8 4.8 0 0 0 1.227-1.024A7 7 0 0 0 3.19 2.18a7.7 7.7 0 0 0 .849-3.283" style="fill:#fafafa;fill-opacity:1;fill-rule:nonzero;stroke:none" transform="translate(373.178 273.417)"/><path d="M0 0q-.001.188.088.274.087.085.21.014l1.397-.807a.55.55 0 0 0 .212-.257.9.9 0 0 0 .088-.376v-4.322q0-.733.211-1.3.212-.567.699-.849.488-.282.694.045t.205 1.059v4.322q0 .188.089.275.089.083.211.014l1.398-.808a.58.58 0 0 0 .211-.258.9.9 0 0 0 .088-.376v-7.96q0-.188-.088-.272-.09-.087-.211-.016l-1.286.743a.56.56 0 0 0-.212.26.9.9 0 0 0-.088.374v.393a1.2 1.2 0 0 0-.217-.242.7.7 0 0 0-.316-.142 1.2 1.2 0 0 0-.439.014 2 2 0 0 0-.593.248Q1.276-9.33.638-8.02-.002-6.712 0-4.697Z" style="fill:#fafafa;fill-opacity:1;fill-rule:nonzero;stroke:none" transform="translate(378.206 275.075)"/><path d="M0 0q.001-.187-.089-.272-.087-.086-.209-.016l-1.399.807a.6.6 0 0 0-.211.26.9.9 0 0 0-.089.374v4.323q0 .733-.232 1.313-.234.578-.732.866-.5.29-.727-.024-.228-.313-.228-1.047V2.262q0-.188-.089-.273-.088-.085-.211-.016l-1.397.808a.57.57 0 0 0-.211.259.9.9 0 0 0-.089.376v7.959q0 .187.089.274.089.085.211.014l1.342-.775a.56.56 0 0 0 .211-.258.9.9 0 0 0 .088-.377v-.392q.09.12.223.231a.7.7 0 0 0 .322.147q.188.036.438-.014.249-.05.582-.243.534-.306.977-.793t.76-1.148a6.7 6.7 0 0 0 .493-1.498A9 9 0 0 0 0 4.698Z" style="fill:#fafafa;fill-opacity:1;fill-rule:nonzero;stroke:none" transform="translate(391.207 259.607)"/><path d="M0 0a7 7 0 0 1 0-.956q.032-.618.254-1.19t.744-.874q.243-.14.421-.122a.44.44 0 0 1 .294.145.9.9 0 0 1 .183.33q.067.202.088.444.023.244.024.586 0 .34-.024.611A3.5 3.5 0 0 1 1.713.062a2.3 2.3 0 0 1-.294.486A1.5 1.5 0 0 1 .998.91q-.522.3-.744-.014Q.032.578 0 0m.498 3.845a2.6 2.6 0 0 0 .565-.428q.246-.244.422-.5.178-.256.3-.507.123-.249.199-.448V5.6q0 .188.09.275.09.083.21.014l1.399-.807a.57.57 0 0 0 .21-.258.9.9 0 0 0 .089-.376V-6.757q0-.189-.089-.274-.088-.085-.21-.015l-1.343.775a.56.56 0 0 0-.211.259.9.9 0 0 0-.089.375v.393a2 2 0 0 0-.216-.243.65.65 0 0 0-.288-.157.9.9 0 0 0-.423.004q-.249.051-.615.261a4 4 0 0 0-.942.776 5 5 0 0 0-.779 1.166q-.33.678-.537 1.531a8.8 8.8 0 0 0-.226 1.873 15 15 0 0 0-.012.7q0 .436.012.685.02.995.226 1.61c.137.413.317.714.537.911q.334.295.779.279.444-.018.942-.307" style="fill:#fafafa;fill-opacity:1;fill-rule:nonzero;stroke:none" transform="translate(394.204 262.337)"/></g></svg>