<svg xmlns="http://www.w3.org/2000/svg" width="667" height="667" ><defs><clipPath id="a" clipPathUnits="userSpaceOnUse"><path d="M0 500h500V0H0Z"/></clipPath><clipPath id="b" clipPathUnits="userSpaceOnUse"><path d="M58.315 470.885h380.55V27.902H58.315Z"/></clipPath><clipPath id="c" clipPathUnits="userSpaceOnUse"><path d="M25.059 449.838h439.856V44.391H25.059Z"/></clipPath><clipPath id="d" clipPathUnits="userSpaceOnUse"><path d="M0 500h500V0H0Z"/></clipPath><clipPath id="e" clipPathUnits="userSpaceOnUse"><path d="M0 500h500V0H0Z"/></clipPath><clipPath id="f" clipPathUnits="userSpaceOnUse"><path d="M237.26 127.33a18.32 18.32 0 0 1-9.87-7.16c-3.55-5.14-4.131-11.45-2.12-16.9 1.28-3.42 3.569-6.5 6.8-8.739 8.369-5.781 19.85-3.691 25.631 4.679 5.789 8.37 3.699 19.849-4.67 25.63a18.34 18.34 0 0 1-10.456 3.273c-1.8 0-3.592-.264-5.315-.783"/></clipPath><clipPath id="g" clipPathUnits="userSpaceOnUse"><path d="M227.046 125.192h31.005V94.187h-31.005z"/></clipPath><clipPath id="h" clipPathUnits="userSpaceOnUse"><path d="M227.046 125.192h31.005V94.187h-31.005z"/></clipPath><clipPath id="i" clipPathUnits="userSpaceOnUse"><path d="M224.121 127.33h13.289v-24.06h-13.289Z"/></clipPath><clipPath id="j" clipPathUnits="userSpaceOnUse"><path d="M224.121 127.33h13.289v-24.06h-13.289Z"/></clipPath><clipPath id="k" clipPathUnits="userSpaceOnUse"><path d="M0 500h500V0H0Z"/></clipPath><clipPath id="l" clipPathUnits="userSpaceOnUse"><path d="M200.739 140.693h31.002v-31.002h-31.002z"/></clipPath><clipPath id="m" clipPathUnits="userSpaceOnUse"><path d="M200.739 140.693h31.002v-31.002h-31.002z"/></clipPath><clipPath id="n" clipPathUnits="userSpaceOnUse"><path d="M288.654 135.145h31.002v-31.002h-31.002z"/></clipPath><clipPath id="o" clipPathUnits="userSpaceOnUse"><path d="M288.654 135.145h31.002v-31.002h-31.002z"/></clipPath><clipPath id="p" clipPathUnits="userSpaceOnUse"><path d="M0 500h500V0H0Z"/></clipPath><clipPath id="q" clipPathUnits="userSpaceOnUse"><path d="M290.253 199.746h102.986V56.638H290.253Z"/></clipPath><clipPath id="r" clipPathUnits="userSpaceOnUse"><path d="M290.253 199.746h102.986V56.638H290.253Z"/></clipPath><clipPath id="s" clipPathUnits="userSpaceOnUse"><path d="m267.98 329.8-13.41-130.9 15.13-1.551 23.63-2.419 121.44-12.44 8.69 84.82 14.13 137.88-160.2 16.41z"/></clipPath><clipPath id="t" clipPathUnits="userSpaceOnUse"><path d="M289.561 346.332c-1.65-16.094 10.061-30.479 26.154-32.128 16.095-1.648 30.479 10.062 32.129 26.155 1.649 16.095-10.061 30.479-26.155 32.128a30 30 0 0 1-3.021.155c-14.837 0-27.562-11.23-29.107-26.31"/></clipPath><clipPath id="u" clipPathUnits="userSpaceOnUse"><path d="M289.406 372.642h58.593v-58.593h-58.593z"/></clipPath><clipPath id="v" clipPathUnits="userSpaceOnUse"><path d="m267.98 329.8-13.41-130.9 15.13-1.551 23.63-2.419 121.44-12.44 8.69 84.82 14.13 137.88-160.2 16.41z"/></clipPath><clipPath id="w" clipPathUnits="userSpaceOnUse"><path d="M254.57 329.8h168.89V182.49H254.57Z"/></clipPath><clipPath id="x" clipPathUnits="userSpaceOnUse"><path d="M254.57 329.8h168.89V182.49H254.57Z"/></clipPath><clipPath id="y" clipPathUnits="userSpaceOnUse"><path d="M0 500h500V0H0Z"/></clipPath><clipPath id="z" clipPathUnits="userSpaceOnUse"><path d="M357.401 294.429h26.012v-64.95h-26.012z"/></clipPath><clipPath id="A" clipPathUnits="userSpaceOnUse"><path d="M384.727 298.294h20.292v-66.959h-20.292z"/></clipPath><clipPath id="B" clipPathUnits="userSpaceOnUse"><path d="M408.005 285.125h.813v-1.305h-.813z"/></clipPath><clipPath id="C" clipPathUnits="userSpaceOnUse"><path d="M405.124 286.82h7.529v-60.014h-7.529z"/></clipPath><clipPath id="D" clipPathUnits="userSpaceOnUse"><path d="M298.047 246.682h49.065v-91.166h-49.065z"/></clipPath><clipPath id="E" clipPathUnits="userSpaceOnUse"><path d="M388.899 219.981h38.75V98.573h-38.75z"/></clipPath><clipPath id="F" clipPathUnits="userSpaceOnUse"><path d="M341.399 119.644h19.837V44.636h-19.837z"/></clipPath><clipPath id="G" clipPathUnits="userSpaceOnUse"><path d="M292.93 250.052h21.58V209.86h-21.58z"/></clipPath><clipPath id="H" clipPathUnits="userSpaceOnUse"><path d="M292.93 250.052h21.58V209.86h-21.58z"/></clipPath><clipPath id="I" clipPathUnits="userSpaceOnUse"><path d="M393.143 295.949 313.024 195.45l-13.488-16.921 9.935-6.334 89.201 118.933 3.314 7.526c-.264 1.397-1.776 1.784-1.776 1.784z"/></clipPath><clipPath id="J" clipPathUnits="userSpaceOnUse"><path d="M299.536 300.438h102.45V172.195h-102.45z"/></clipPath><clipPath id="K" clipPathUnits="userSpaceOnUse"><path d="M299.536 300.438h102.45V172.195h-102.45z"/></clipPath><clipPath id="L" clipPathUnits="userSpaceOnUse"><path d="M0 500h500V0H0Z"/></clipPath><clipPath id="M" clipPathUnits="userSpaceOnUse"><path d="M320.967 187.529a24.3 24.3 0 0 1-5.153 4.944c-2.752 1.954-4.937 2.622-4.937 2.622-15.047-16.532-28.649-42.649-28.649-42.649 2.221-2.502 4.682-3.933 4.682-3.933 9.578 7.786 25.277 23.386 25.277 23.386l6.843 1.771c9.582 13.978 19.536 33.74 19.536 33.74l-.828 1.219z"/></clipPath><clipPath id="N" clipPathUnits="userSpaceOnUse"><path d="M286.91 208.629h51.655v-60.115H286.91Z"/></clipPath><clipPath id="O" clipPathUnits="userSpaceOnUse"><path d="M286.91 208.629h51.655v-60.115H286.91Z"/></clipPath><clipPath id="P" clipPathUnits="userSpaceOnUse"><path d="M0 500h500V0H0Z"/></clipPath><clipPath id="Q" clipPathUnits="userSpaceOnUse"><path d="M325.974 297.61H356.3v-41.37h-30.326z"/></clipPath><clipPath id="R" clipPathUnits="userSpaceOnUse"><path d="M338.426 246.682h8.687v-48.839h-8.687z"/></clipPath><clipPath id="S" clipPathUnits="userSpaceOnUse"><path d="M0 500h500V0H0Z"/></clipPath><clipPath id="T" clipPathUnits="userSpaceOnUse"><path d="M89.058 221.372h82.873V77.592H89.058Z"/></clipPath><clipPath id="U" clipPathUnits="userSpaceOnUse"><path d="M89.058 221.372h82.873V77.592H89.058Z"/></clipPath><clipPath id="V" clipPathUnits="userSpaceOnUse"><path d="M63.1 370.23 123.799 226l26.141-62.11 13.87 5.84 134.56 56.63-86.84 206.34z"/></clipPath><clipPath id="W" clipPathUnits="userSpaceOnUse"><path d="M123.8 272.517h40.387V163.89H123.8Z"/></clipPath><clipPath id="X" clipPathUnits="userSpaceOnUse"><path d="M123.8 272.517h40.387V163.89H123.8Z"/></clipPath><clipPath id="Y" clipPathUnits="userSpaceOnUse"><path d="M0 500h500V0H0Z"/></clipPath><clipPath id="Z" clipPathUnits="userSpaceOnUse"><path d="M89.058 289.473h40.304v-93.331H89.058Z"/></clipPath><clipPath id="aa" clipPathUnits="userSpaceOnUse"><path d="M53.378 226.957h31.27V91.182h-31.27Z"/></clipPath><clipPath id="ab" clipPathUnits="userSpaceOnUse"><path d="M108.44 168.452h42.761V92.47H108.44Z"/></clipPath><clipPath id="ac" clipPathUnits="userSpaceOnUse"><path d="M141.571 264.196h24.226v-83.704h-24.226z"/></clipPath></defs><g clip-path="url(#a)" transform="matrix(1.33333 0 0 -1.33333 0 666.667)"><g clip-path="url(#b)" opacity=".7"><path d="M0 0s-27.877-71.987 11.297-144.503C50.47-217.02 131.176-255.305 195.766-288.052s131.661-16.799 163.534 36.838-11.845 91.929-11.897 168.419S358.85 13.946 317.44 78.569c-41.41 64.622-143.059 78.925-219.899 30.996C20.699 61.636 0 0 0 0" style="fill:#fff;fill-opacity:1;fill-rule:nonzero;stroke:none" transform="translate(67.931 332.914)"/></g><path d="M0 0c124.035 11.047 124.245-58.934 180.132-124.129s67.847-94.754 46.779-169.908-92.064-134.069-179.892-100.688-138.14 1.325-193.538 30.967c-55.397 29.643-75.968 86.913-35.418 154.41C-141.388-141.852-152.941-13.621 0 0" style="fill:#5ae4a7;fill-opacity:1;fill-rule:nonzero;stroke:none" transform="translate(228.253 448.68)"/><g clip-path="url(#c)" opacity=".7"><path d="M0 0c124.035 11.047 124.245-58.934 180.132-124.129s67.847-94.754 46.779-169.908-92.064-134.069-179.892-100.688-138.14 1.325-193.538 30.967c-55.397 29.643-75.968 86.913-35.418 154.41C-141.388-141.852-152.941-13.621 0 0" style="fill:#fff;fill-opacity:1;fill-rule:nonzero;stroke:none" transform="translate(228.253 448.68)"/></g></g><g clip-path="url(#d)" transform="matrix(1.33333 0 0 -1.33333 0 666.667)"><path d="m0 0-20.405-4.297a5.09 5.09 0 0 0-6.03 3.932l-4.297 20.404a5.09 5.09 0 0 0 3.932 6.03l20.404 4.297a5.09 5.09 0 0 0 6.031-3.931L3.932 6.03A5.09 5.09 0 0 0 0 0" style="fill:none;stroke:#1a2e35;stroke-width:1;stroke-linecap:round;stroke-linejoin:round;stroke-miterlimit:10;stroke-dasharray:none;stroke-opacity:1" transform="translate(262.81 413.727)"/><path d="m0 0 2.608-12.383" style="fill:none;stroke:#1a2e35;stroke-width:1;stroke-linecap:round;stroke-linejoin:round;stroke-miterlimit:10;stroke-dasharray:none;stroke-opacity:1" transform="translate(248.106 432.953)"/><path d="m0 0-12.382-2.607" style="fill:none;stroke:#1a2e35;stroke-width:1;stroke-linecap:round;stroke-linejoin:round;stroke-miterlimit:10;stroke-dasharray:none;stroke-opacity:1" transform="translate(255.6 428.065)"/><path d="m0 0-20.404-4.298a5.09 5.09 0 0 0-6.031 3.933l-4.297 20.404a5.09 5.09 0 0 0 3.932 6.03l20.404 4.297a5.09 5.09 0 0 0 6.031-3.931L3.932 6.03A5.09 5.09 0 0 0 0 0" style="fill:none;stroke:#1a2e35;stroke-width:1;stroke-linecap:round;stroke-linejoin:round;stroke-miterlimit:10;stroke-dasharray:none;stroke-opacity:1" transform="translate(468.482 195.595)"/><path d="m0 0-6.912-10.6" style="fill:none;stroke:#1a2e35;stroke-width:1;stroke-linecap:round;stroke-linejoin:round;stroke-miterlimit:10;stroke-dasharray:none;stroke-opacity:1" transform="translate(458.538 213.929)"/><path d="m0 0-10.6 6.912" style="fill:none;stroke:#1a2e35;stroke-width:1;stroke-linecap:round;stroke-linejoin:round;stroke-miterlimit:10;stroke-dasharray:none;stroke-opacity:1" transform="translate(460.382 205.173)"/><path d="m0 0-20.817 1.201a5.09 5.09 0 0 0-4.789 5.376l1.202 20.818a5.09 5.09 0 0 0 5.375 4.788L1.788 30.98a5.09 5.09 0 0 0 4.789-5.375L5.375 4.788A5.09 5.09 0 0 0 0 0" style="fill:none;stroke:#1a2e35;stroke-width:1;stroke-linecap:round;stroke-linejoin:round;stroke-miterlimit:10;stroke-dasharray:none;stroke-opacity:1" transform="translate(185.474 63.265)"/><path d="m0 0-12.633.729" style="fill:none;stroke:#1a2e35;stroke-width:1;stroke-linecap:round;stroke-linejoin:round;stroke-miterlimit:10;stroke-dasharray:none;stroke-opacity:1" transform="translate(182.276 78.991)"/><path d="m0 0-19.794 6.558a5.09 5.09 0 0 0-3.231 6.432l6.557 19.794a5.09 5.09 0 0 0 6.433 3.232l19.794-6.557a5.09 5.09 0 0 0 3.231-6.434L6.433 3.231A5.09 5.09 0 0 0 0 0" style="fill:none;stroke:#1a2e35;stroke-width:1;stroke-linecap:round;stroke-linejoin:round;stroke-miterlimit:10;stroke-dasharray:none;stroke-opacity:1" transform="translate(52.453 208.798)"/><path d="m0 0-15.831-7.952" style="fill:none;stroke:#1a2e35;stroke-width:1;stroke-linecap:round;stroke-linejoin:round;stroke-miterlimit:10;stroke-dasharray:none;stroke-opacity:1" transform="translate(55.351 230.782)"/><path d="M0 0a2.21 2.21 0 1 0-3.948-1.984A2.21 2.21 0 0 0 0 0" style="fill:none;stroke:#1a2e35;stroke-width:1;stroke-linecap:round;stroke-linejoin:round;stroke-miterlimit:10;stroke-dasharray:none;stroke-opacity:1" transform="translate(46.267 234.053)"/><path d="M0 0a2.208 2.208 0 1 0-3.946-1.983A2.208 2.208 0 0 0 0 0" style="fill:none;stroke:#1a2e35;stroke-width:1;stroke-linecap:round;stroke-linejoin:round;stroke-miterlimit:10;stroke-dasharray:none;stroke-opacity:1" transform="translate(52.551 221.542)"/></g><g clip-path="url(#e)" transform="matrix(1.33333 0 0 -1.33333 0 666.667)"><path d="M0 0c-5.78-8.37-17.26-10.46-25.63-4.68a18.48 18.48 0 0 0-6.8 8.74c-2.01 5.45-1.43 11.76 2.12 16.9 2.48 3.58 6 6.01 9.87 7.16a18.35 18.35 0 0 0 15.77-2.49C3.7 19.85 5.79 8.37 0 0" style="fill:#5ae4a7;fill-opacity:1;fill-rule:nonzero;stroke:none" transform="translate(257.7 99.21)"/></g><g clip-path="url(#f)" transform="matrix(1.33333 0 0 -1.33333 0 666.667)"><g clip-path="url(#g)" opacity=".3"><g clip-path="url(#h)" opacity=".7"><path d="M0 0c-4.868-7.042-14.523-8.804-21.565-3.935s-8.804 14.524-3.935 21.566 14.524 8.804 21.565 3.934C3.107 16.697 4.869 7.042 0 0" style="fill:#000;fill-opacity:1;fill-rule:nonzero;stroke:none" transform="translate(255.298 100.874)"/></g></g><path d="M0 0c-4.868-7.042-14.523-8.804-21.565-3.935s-8.804 14.524-3.935 21.566 14.524 8.804 21.565 3.934C3.107 16.697 4.869 7.042 0 0" style="fill:none;stroke:#1a2e35;stroke-width:1;stroke-linecap:round;stroke-linejoin:round;stroke-miterlimit:10;stroke-dasharray:none;stroke-opacity:1" transform="translate(255.298 100.874)"/><path d="m0 0 .744 1.075L2.605-.211l-.744-1.076c1.385-1.446 1.355-3.259-.004-5.224l-.315-.455-2.151 1.487.415.6c.715 1.034.573 1.712-.151 2.213-.723.501-1.409.395-2.125-.641-.714-1.033-.801-2.044-.114-4.321.832-2.776.687-4.356-.458-6.012-1.358-1.964-3.078-2.639-4.92-1.854l-.729-1.056-1.862 1.287.73 1.056c-1.406 1.46-1.36 3.293-.002 5.258l.687.993 2.151-1.487-.786-1.138c-.716-1.034-.518-1.721.206-2.221.724-.501 1.436-.443 2.151.591s.816 2.065.115 4.322c-.846 2.755-.687 4.357.458 6.011C-3.5.066-1.835.749 0 0" style="fill:#5ae4a7;fill-opacity:1;fill-rule:nonzero;stroke:none" transform="translate(246.522 117.427)"/><path d="m0 0 .744 1.075L2.605-.211l-.744-1.076c1.385-1.446 1.355-3.259-.004-5.224l-.315-.455-2.151 1.487.415.6c.715 1.034.573 1.712-.151 2.213-.723.501-1.409.395-2.125-.641-.714-1.033-.801-2.044-.114-4.321.832-2.776.687-4.356-.458-6.012-1.358-1.964-3.078-2.639-4.92-1.854l-.729-1.056-1.862 1.287.73 1.056c-1.406 1.46-1.36 3.293-.002 5.258l.687.993 2.151-1.487-.786-1.138c-.716-1.034-.518-1.721.206-2.221.724-.501 1.436-.443 2.151.591s.816 2.065.115 4.322c-.846 2.755-.687 4.357.458 6.011C-3.5.066-1.835.749 0 0" style="fill:none;stroke:#1a2e35;stroke-width:1;stroke-linecap:round;stroke-linejoin:round;stroke-miterlimit:10;stroke-dasharray:none;stroke-opacity:1" transform="translate(246.522 117.427)"/><g clip-path="url(#i)" opacity=".2"><g clip-path="url(#j)" opacity=".7"><path d="M0 0c0-9.08-4.87-17.021-12.14-21.351C-14.15-15.9-13.57-9.59-10.02-4.45c2.48 3.58 6 6.01 9.87 7.16C-.05 1.82 0 .92 0 0" style="fill:#000;fill-opacity:1;fill-rule:nonzero;stroke:none" transform="translate(237.41 124.62)"/></g></g></g><g clip-path="url(#k)" transform="matrix(1.33333 0 0 -1.33333 0 666.667)"><path d="M0 0c-5.78-8.37-17.26-10.46-25.63-4.68a18.48 18.48 0 0 0-6.8 8.74c-2.01 5.45-1.43 11.76 2.12 16.9 2.48 3.58 6 6.01 9.87 7.16a18.35 18.35 0 0 0 15.77-2.49C3.7 19.85 5.79 8.37 0 0" style="fill:none;stroke:#1a2e35;stroke-width:1;stroke-linecap:round;stroke-linejoin:round;stroke-miterlimit:10;stroke-dasharray:none;stroke-opacity:1" transform="translate(257.7 99.21)"/><path d="M0 0c0-10.177-8.25-18.426-18.425-18.426S-36.85-10.177-36.85 0s8.249 18.425 18.425 18.425S0 10.176 0 0" style="fill:#5ae4a7;fill-opacity:1;fill-rule:nonzero;stroke:none" transform="translate(234.666 125.192)"/><path d="M0 0c0-10.177-8.25-18.426-18.425-18.426S-36.85-10.177-36.85 0s8.249 18.425 18.425 18.425S0 10.176 0 0" style="fill:none;stroke:#1a2e35;stroke-width:1;stroke-linecap:round;stroke-linejoin:round;stroke-miterlimit:10;stroke-dasharray:none;stroke-opacity:1" transform="translate(234.666 125.192)"/><g clip-path="url(#l)" opacity=".3"><g clip-path="url(#m)" opacity=".7"><path d="M0 0c0-8.562-6.94-15.502-15.501-15.502S-31.002-8.562-31.002 0c0 8.561 6.94 15.501 15.501 15.501S0 8.561 0 0" style="fill:#000;fill-opacity:1;fill-rule:nonzero;stroke:none" transform="translate(231.741 125.192)"/></g></g><path d="M0 0c0-8.562-6.94-15.502-15.501-15.502S-31.002-8.562-31.002 0c0 8.561 6.94 15.501 15.501 15.501S0 8.561 0 0" style="fill:none;stroke:#1a2e35;stroke-width:1;stroke-linecap:round;stroke-linejoin:round;stroke-miterlimit:10;stroke-dasharray:none;stroke-opacity:1" transform="translate(231.741 125.192)"/><path d="M0 0v1.309h2.263V0C4.224-.401 5.23-1.91 5.23-4.299v-.554H2.615v.73c0 1.257-.502 1.734-1.382 1.734S-.151-2.866-.151-4.123s.504-2.137 2.363-3.62c2.264-1.811 3.043-3.194 3.043-5.205 0-2.389-1.031-3.922-2.992-4.324v-1.284H0v1.284c-1.986.402-2.992 1.935-2.992 4.324v1.207h2.616v-1.382c0-1.258.552-1.71 1.432-1.71.881 0 1.433.452 1.433 1.71 0 1.256-.502 2.161-2.363 3.619-2.263 1.786-3.042 3.193-3.042 5.205C-2.916-1.936-1.936-.427 0 0" style="fill:#5ae4a7;fill-opacity:1;fill-rule:nonzero;stroke:none" transform="translate(215.108 133.815)"/><path d="M0 0v1.309h2.263V0C4.224-.401 5.23-1.91 5.23-4.299v-.554H2.615v.73c0 1.257-.502 1.734-1.382 1.734S-.151-2.866-.151-4.123s.504-2.137 2.363-3.62c2.264-1.811 3.043-3.194 3.043-5.205 0-2.389-1.031-3.922-2.992-4.324v-1.284H0v1.284c-1.986.402-2.992 1.935-2.992 4.324v1.207h2.616v-1.382c0-1.258.552-1.71 1.432-1.71.881 0 1.433.452 1.433 1.71 0 1.256-.502 2.161-2.363 3.619-2.263 1.786-3.042 3.193-3.042 5.205C-2.916-1.936-1.936-.427 0 0" style="fill:none;stroke:#1a2e35;stroke-width:1;stroke-linecap:round;stroke-linejoin:round;stroke-miterlimit:10;stroke-dasharray:none;stroke-opacity:1" transform="translate(215.108 133.815)"/><path d="M0 0c6.925-7.456 6.494-19.114-.962-26.039s-19.114-6.494-26.039.962-6.494 19.114.962 26.039S-6.925 7.456 0 0" style="fill:#5ae4a7;fill-opacity:1;fill-rule:nonzero;stroke:none" transform="translate(317.655 132.183)"/><path d="M0 0c6.925-7.456 6.494-19.114-.962-26.039s-19.114-6.494-26.039.962-6.494 19.114.962 26.039S-6.925 7.456 0 0" style="fill:none;stroke:#1a2e35;stroke-width:1;stroke-linecap:round;stroke-linejoin:round;stroke-miterlimit:10;stroke-dasharray:none;stroke-opacity:1" transform="translate(317.655 132.183)"/><g clip-path="url(#n)" opacity=".3"><g clip-path="url(#o)" opacity=".7"><path d="M0 0c5.826-6.273 5.464-16.081-.81-21.907-6.272-5.826-16.081-5.464-21.906.809-5.826 6.273-5.464 16.081.809 21.907S-5.826 6.272 0 0" style="fill:#000;fill-opacity:1;fill-rule:nonzero;stroke:none" transform="translate(315.513 130.193)"/></g></g><path d="M0 0c5.826-6.273 5.464-16.081-.81-21.907-6.272-5.826-16.081-5.464-21.906.809-5.826 6.273-5.464 16.081.809 21.907S-5.826 6.272 0 0" style="fill:none;stroke:#1a2e35;stroke-width:1;stroke-linecap:round;stroke-linejoin:round;stroke-miterlimit:10;stroke-dasharray:none;stroke-opacity:1" transform="translate(315.513 130.193)"/><path d="m0 0-.891.959 1.659 1.54.889-.959c1.711 1.041 3.475.62 5.1-1.13l.377-.406-1.916-1.779-.496.534c-.856.922-1.549.929-2.194.33-.644-.599-.689-1.291.167-2.213.855-.921 1.824-1.223 4.196-1.044 2.89.214 4.402-.269 5.771-1.743 1.625-1.75 1.913-3.575.75-5.205l.873-.94-1.658-1.54-.873.941c-1.729-1.058-3.509-.618-5.135 1.132l-.821.884 1.916 1.781.94-1.014c.857-.922 1.57-.876 2.214-.277.645.598.742 1.305-.113 2.227-.856.921-1.84 1.242-4.195 1.044-2.873-.231-4.403.27-5.772 1.744C-.82-3.402-1.128-1.63 0 0" style="fill:#5ae4a7;fill-opacity:1;fill-rule:nonzero;stroke:none" transform="translate(297.457 125.192)"/><path d="m0 0-.891.959 1.659 1.54.889-.959c1.711 1.041 3.475.62 5.1-1.13l.377-.406-1.916-1.779-.496.534c-.856.922-1.549.929-2.194.33-.644-.599-.689-1.291.167-2.213.855-.921 1.824-1.223 4.196-1.044 2.89.214 4.402-.269 5.771-1.743 1.625-1.75 1.913-3.575.75-5.205l.873-.94-1.658-1.54-.873.941c-1.729-1.058-3.509-.618-5.135 1.132l-.821.884 1.916 1.781.94-1.014c.857-.922 1.57-.876 2.214-.277.645.598.742 1.305-.113 2.227-.856.921-1.84 1.242-4.195 1.044-2.873-.231-4.403.27-5.772 1.744C-.82-3.402-1.128-1.63 0 0" style="fill:none;stroke:#1a2e35;stroke-width:1;stroke-linecap:round;stroke-linejoin:round;stroke-miterlimit:10;stroke-dasharray:none;stroke-opacity:1" transform="translate(297.457 125.192)"/></g><g clip-path="url(#p)" transform="matrix(1.33333 0 0 -1.33333 0 666.667)"><g clip-path="url(#q)" opacity=".2"><g clip-path="url(#r)" opacity=".7"><path d="M0 0s-.076-38.235 0-40.469c.076-2.233 2.97-15.66 2.97-15.66l-9.283-17.115 7.992-6.444 15.55 15.287s13.243-8.18 15.663-19.878 16.827-20.219 31.778-52.617c14.95-32.4 32.003 72.495 32.003 72.495L50.546-6.326Z" style="fill:#000;fill-opacity:1;fill-rule:nonzero;stroke:none" transform="translate(296.566 199.746)"/></g></g></g><path d="m0 0-14.13-137.88-8.69-84.82-121.44 12.44-23.63 2.42-15.13 1.55 13.411 130.9 9.409 91.8z" style="fill:#fff;fill-opacity:1;fill-rule:nonzero;stroke:none" transform="matrix(1.33333 0 0 -1.33333 583.453 126.413)"/><g clip-path="url(#s)" transform="matrix(1.33333 0 0 -1.33333 0 666.667)"><path d="m0 0-69.153 7.086a2.364 2.364 0 0 1-.483-4.701L-.482-4.701A2.362 2.362 0 0 1 0 0" style="fill:#1a2e35;fill-opacity:1;fill-rule:nonzero;stroke:none" transform="translate(391.063 400.043)"/><path d="m0 0-34.577 3.543a1.18 1.18 0 1 1-.24-2.35L-.241-2.35A1.181 1.181 0 1 1 0 0" style="fill:#1a2e35;fill-opacity:1;fill-rule:nonzero;stroke:none" transform="translate(372.785 392.154)"/><path d="m0 0-112.236 11.501a1.181 1.181 0 0 1-.242-2.351L-.24-2.351A1.182 1.182 0 0 1 0 0" style="fill:#1a2e35;fill-opacity:1;fill-rule:nonzero;stroke:none" transform="translate(410.827 290.392)"/><path d="m0 0-130.511 13.374a1.182 1.182 0 0 1-.24-2.351L-.241-2.35A1.182 1.182 0 0 1 0 0" style="fill:#1a2e35;fill-opacity:1;fill-rule:nonzero;stroke:none" transform="translate(409.962 281.94)"/><path d="m0 0-93.965 9.628a1.18 1.18 0 1 1-.24-2.35L-.241-2.351A1.183 1.183 0 0 1 0 0" style="fill:#1a2e35;fill-opacity:1;fill-rule:nonzero;stroke:none" transform="translate(372.55 277.234)"/><path d="m0 0-3.818-37.269 131.567-13.482 3.819 37.269z" style="fill:silver;fill-opacity:1;fill-rule:nonzero;stroke:none" transform="translate(277.116 277.744)"/><path d="m0 0-3.818-37.269 131.567-13.482 3.819 37.269z" style="fill:none;stroke:#1a2e35;stroke-width:1;stroke-linecap:butt;stroke-linejoin:miter;stroke-miterlimit:10;stroke-dasharray:none;stroke-opacity:1" transform="translate(277.116 277.744)"/><path d="M0 0c-1.649-16.094-16.033-27.804-32.128-26.155S-59.933-10.122-58.283 5.973s16.033 27.804 32.128 26.155S1.649 16.095 0 0" style="fill:#5ae4a7;fill-opacity:1;fill-rule:nonzero;stroke:none" transform="translate(347.844 340.36)"/></g><g clip-path="url(#t)" transform="matrix(1.33333 0 0 -1.33333 0 666.667)"><g clip-path="url(#u)" opacity=".5"><path d="M0 0c-1.649-16.094-16.033-27.804-32.128-26.155S-59.933-10.122-58.283 5.973s16.033 27.804 32.128 26.155S1.649 16.095 0 0" style="fill:#fff;fill-opacity:1;fill-rule:nonzero;stroke:none" transform="translate(347.844 340.36)"/></g></g><g clip-path="url(#v)" transform="matrix(1.33333 0 0 -1.33333 0 666.667)"><path d="M0 0c-1.649-16.094-16.033-27.804-32.128-26.155S-59.933-10.122-58.283 5.973s16.033 27.804 32.128 26.155S1.649 16.095 0 0Z" style="fill:none;stroke:#1a2e35;stroke-width:1;stroke-linecap:butt;stroke-linejoin:miter;stroke-miterlimit:10;stroke-dasharray:none;stroke-opacity:1" transform="translate(347.844 340.36)"/><path d="m0 0 24.36-12.256a27.9 27.9 0 0 1 2.631 9.313c.771 7.521-1.518 14.646-5.853 20.151z" style="fill:#fff;fill-opacity:1;fill-rule:nonzero;stroke:none" transform="translate(319.543 343.443)"/><path d="m0 0 20.396 16.604A27.9 27.9 0 0 1 9.004 24.72L5.325 14.619Z" style="fill:#5ae4a7;fill-opacity:1;fill-rule:nonzero;stroke:none" transform="translate(319.704 344.76)"/><path d="m0 0-2.474-24.142L5.833-1.334A28 28 0 0 1 0 0" style="fill:#767676;fill-opacity:1;fill-rule:nonzero;stroke:none" transform="translate(322.01 371.125)"/><path d="m0 0 2.823 27.558c-15.184 1.308-28.666-9.797-30.224-25.015a27.84 27.84 0 0 1 2.173-14.001z" style="fill:#9a9a9a;fill-opacity:1;fill-rule:nonzero;stroke:none" transform="translate(318.273 343.66)"/><path d="M0 0c11.718-1.201 22.479 5.018 27.635 14.849L2.842 27.322l-25.273-11.479C-18.373 7.307-10.089 1.034 0 0" style="fill:silver;fill-opacity:1;fill-rule:nonzero;stroke:none" transform="translate(315.85 315.52)"/><path d="m0 0-3.341.342a.625.625 0 0 0-.558.687l.341 3.341a.627.627 0 0 0 .688.559l3.34-.343a.626.626 0 0 0 .559-.687L.687.559A.625.625 0 0 0 0 0" style="fill:#5ae4a7;fill-opacity:1;fill-rule:nonzero;stroke:none" transform="translate(365.232 357.78)"/><path d="m0 0-3.341.342a.625.625 0 0 0-.558.687l.341 3.341a.627.627 0 0 0 .688.559l3.34-.343a.626.626 0 0 0 .559-.687L.687.559A.625.625 0 0 0 0 0Z" style="fill:none;stroke:#1a2e35;stroke-width:1;stroke-linecap:butt;stroke-linejoin:miter;stroke-miterlimit:10;stroke-dasharray:none;stroke-opacity:1" transform="translate(365.232 357.78)"/><path d="m0 0-43.055 4.412a.53.53 0 0 0-.472.581.53.53 0 0 0 .581.473L.108 1.054A.53.53 0 1 0 0 0" style="fill:#1a2e35;fill-opacity:1;fill-rule:nonzero;stroke:none" transform="translate(412.128 355.918)"/><path d="m0 0-38.839 3.979a.531.531 0 0 0 .109 1.055L.108 1.054A.53.53 0 0 0 0 0" style="fill:#1a2e35;fill-opacity:1;fill-rule:nonzero;stroke:none" transform="translate(407.677 354.058)"/><path d="m0 0-3.34.342a.625.625 0 0 0-.559.687l.341 3.341a.627.627 0 0 0 .688.559l3.34-.342a.627.627 0 0 0 .559-.687L.687.559A.626.626 0 0 0 0 0" style="fill:#767676;fill-opacity:1;fill-rule:nonzero;stroke:none" transform="translate(364.18 347.508)"/><path d="m0 0-3.34.342a.625.625 0 0 0-.559.687l.341 3.341a.627.627 0 0 0 .688.559l3.34-.342a.627.627 0 0 0 .559-.687L.687.559A.626.626 0 0 0 0 0" style="fill:none;stroke:#1a2e35;stroke-width:1;stroke-linecap:round;stroke-linejoin:round;stroke-miterlimit:10;stroke-dasharray:none;stroke-opacity:1" transform="translate(364.18 347.508)"/><path d="m0 0-43.055 4.412a.529.529 0 1 0 .109 1.054L.108 1.054A.53.53 0 0 0 0 0" style="fill:#1a2e35;fill-opacity:1;fill-rule:nonzero;stroke:none" transform="translate(411.075 345.646)"/><path d="m0 0-38.839 3.98a.53.53 0 1 0 .109 1.054L.108 1.054A.53.53 0 0 0 0 0" style="fill:#1a2e35;fill-opacity:1;fill-rule:nonzero;stroke:none" transform="translate(406.624 343.785)"/><path d="m0 0-3.34.343a.625.625 0 0 0-.559.686l.341 3.341a.63.63 0 0 0 .688.559l3.341-.342a.626.626 0 0 0 .558-.687L.687.56A.626.626 0 0 0 0 0" style="fill:#9a9a9a;fill-opacity:1;fill-rule:nonzero;stroke:none" transform="translate(363.127 337.235)"/><path d="m0 0-3.34.343a.625.625 0 0 0-.559.686l.341 3.341a.63.63 0 0 0 .688.559l3.341-.342a.626.626 0 0 0 .558-.687L.687.56A.626.626 0 0 0 0 0" style="fill:none;stroke:#1a2e35;stroke-width:1;stroke-linecap:round;stroke-linejoin:round;stroke-miterlimit:10;stroke-dasharray:none;stroke-opacity:1" transform="translate(363.127 337.235)"/><path d="m0 0-43.055 4.412a.53.53 0 0 0-.472.581.53.53 0 0 0 .581.473L.108 1.054A.53.53 0 1 0 0 0" style="fill:#1a2e35;fill-opacity:1;fill-rule:nonzero;stroke:none" transform="translate(410.022 335.373)"/><path d="m0 0-38.84 3.98a.53.53 0 0 0 .109 1.054L.107 1.054A.53.53 0 1 0 0 0" style="fill:#1a2e35;fill-opacity:1;fill-rule:nonzero;stroke:none" transform="translate(405.572 333.512)"/><path d="m0 0-3.34.342a.625.625 0 0 0-.559.687l.342 3.341a.627.627 0 0 0 .687.559l3.341-.342a.627.627 0 0 0 .558-.687L.687.559A.626.626 0 0 0 0 0" style="fill:silver;fill-opacity:1;fill-rule:nonzero;stroke:none" transform="translate(362.074 326.962)"/><path d="m0 0-3.34.342a.625.625 0 0 0-.559.687l.342 3.341a.627.627 0 0 0 .687.559l3.341-.342a.627.627 0 0 0 .558-.687L.687.559A.626.626 0 0 0 0 0Z" style="fill:none;stroke:#1a2e35;stroke-width:1;stroke-linecap:butt;stroke-linejoin:miter;stroke-miterlimit:10;stroke-dasharray:none;stroke-opacity:1" transform="translate(362.074 326.962)"/><path d="m0 0-43.055 4.412a.529.529 0 1 0 .109 1.054L.108 1.054A.53.53 0 0 0 0 0" style="fill:#1a2e35;fill-opacity:1;fill-rule:nonzero;stroke:none" transform="translate(408.97 325.1)"/><path d="m0 0-38.839 3.98a.53.53 0 1 0 .108 1.054L.107 1.054A.53.53 0 0 0 0 0" style="fill:#1a2e35;fill-opacity:1;fill-rule:nonzero;stroke:none" transform="translate(404.52 323.24)"/><path d="m0 0-3.34.342a.626.626 0 0 0-.559.687l.342 3.341a.627.627 0 0 0 .687.559l3.341-.342a.626.626 0 0 0 .558-.687L.687.56A.626.626 0 0 0 0 0" style="fill:#fff;fill-opacity:1;fill-rule:nonzero;stroke:none" transform="translate(361.022 316.69)"/><path d="m0 0-3.34.342a.626.626 0 0 0-.559.687l.342 3.341a.627.627 0 0 0 .687.559l3.341-.342a.626.626 0 0 0 .558-.687L.687.56A.626.626 0 0 0 0 0" style="fill:none;stroke:#1a2e35;stroke-width:1;stroke-linecap:round;stroke-linejoin:round;stroke-miterlimit:10;stroke-dasharray:none;stroke-opacity:1" transform="translate(361.022 316.69)"/><path d="m0 0-43.056 4.412a.529.529 0 1 0 .109 1.054L.107 1.054A.53.53 0 0 0 0 0" style="fill:#1a2e35;fill-opacity:1;fill-rule:nonzero;stroke:none" transform="translate(407.918 314.828)"/><path d="m0 0-38.839 3.98a.53.53 0 1 0 .108 1.054L.107 1.054A.53.53 0 1 0 0 0" style="fill:#1a2e35;fill-opacity:1;fill-rule:nonzero;stroke:none" transform="translate(403.467 312.966)"/><path d="m0 0 2.459-.252-1.44-14.054-2.458.252z" style="fill:#767676;fill-opacity:1;fill-rule:nonzero;stroke:none" transform="translate(390.208 253.635)"/><path d="m0 0 2.459-.252-1.44-14.054-2.458.252z" style="fill:none;stroke:#1a2e35;stroke-width:1;stroke-linecap:round;stroke-linejoin:round;stroke-miterlimit:10;stroke-dasharray:none;stroke-opacity:1" transform="translate(390.208 253.635)"/><path d="m0 0 2.459-.252-.679-6.615-2.458.252Z" style="fill:#5ae4a7;fill-opacity:1;fill-rule:nonzero;stroke:none" transform="translate(389.663 248.314)"/><path d="m0 0 2.459-.252-.679-6.615-2.458.252Z" style="fill:none;stroke:#1a2e35;stroke-width:1;stroke-linecap:butt;stroke-linejoin:miter;stroke-miterlimit:10;stroke-dasharray:none;stroke-opacity:1" transform="translate(389.663 248.314)"/><path d="m0 0 2.458-.252-1.44-14.055-2.458.252z" style="fill:#767676;fill-opacity:1;fill-rule:nonzero;stroke:none" transform="translate(396.106 256.615)"/><path d="m0 0 2.458-.252-1.44-14.055-2.458.252z" style="fill:none;stroke:#1a2e35;stroke-width:1;stroke-linecap:round;stroke-linejoin:round;stroke-miterlimit:10;stroke-dasharray:none;stroke-opacity:1" transform="translate(396.106 256.615)"/><path d="m0 0 2.458-.252-.678-6.616-2.459.252Z" style="fill:#5ae4a7;fill-opacity:1;fill-rule:nonzero;stroke:none" transform="translate(395.724 252.882)"/><path d="m0 0 2.458-.252-.678-6.616-2.459.252Z" style="fill:none;stroke:#1a2e35;stroke-width:1;stroke-linecap:butt;stroke-linejoin:miter;stroke-miterlimit:10;stroke-dasharray:none;stroke-opacity:1" transform="translate(395.724 252.882)"/><path d="m0 0 2.458-.252-1.44-14.054-2.458.252z" style="fill:#767676;fill-opacity:1;fill-rule:nonzero;stroke:none" transform="translate(401.364 253.352)"/><path d="m0 0 2.458-.252-1.44-14.054-2.458.252z" style="fill:none;stroke:#1a2e35;stroke-width:1;stroke-linecap:round;stroke-linejoin:round;stroke-miterlimit:10;stroke-dasharray:none;stroke-opacity:1" transform="translate(401.364 253.352)"/><path d="m0 0 2.459-.252-.678-6.616-2.459.252Z" style="fill:#5ae4a7;fill-opacity:1;fill-rule:nonzero;stroke:none" transform="translate(401.144 251.207)"/><path d="m0 0 2.459-.252-.678-6.616-2.459.252Z" style="fill:none;stroke:#1a2e35;stroke-width:1;stroke-linecap:butt;stroke-linejoin:miter;stroke-miterlimit:10;stroke-dasharray:none;stroke-opacity:1" transform="translate(401.144 251.207)"/><path d="m0 0 2.458-.252-1.439-14.055-2.459.252Z" style="fill:#767676;fill-opacity:1;fill-rule:nonzero;stroke:none" transform="translate(384.959 256.98)"/><path d="m0 0 2.458-.252-1.439-14.055-2.459.252Z" style="fill:none;stroke:#1a2e35;stroke-width:1;stroke-linecap:round;stroke-linejoin:round;stroke-miterlimit:10;stroke-dasharray:none;stroke-opacity:1" transform="translate(384.959 256.98)"/><path d="m0 0 2.458-.252-.678-6.616-2.459.252Z" style="fill:#5ae4a7;fill-opacity:1;fill-rule:nonzero;stroke:none" transform="translate(384.414 251.658)"/><path d="m0 0 2.458-.252-.678-6.616-2.459.252Z" style="fill:none;stroke:#1a2e35;stroke-width:1;stroke-linecap:butt;stroke-linejoin:miter;stroke-miterlimit:10;stroke-dasharray:none;stroke-opacity:1" transform="translate(384.414 251.658)"/><path d="m0 0 2.458-.251-1.44-14.055-2.458.252z" style="fill:#767676;fill-opacity:1;fill-rule:nonzero;stroke:none" transform="translate(378.999 253.388)"/><path d="m0 0 2.458-.251-1.44-14.055-2.458.252z" style="fill:none;stroke:#1a2e35;stroke-width:1;stroke-linecap:round;stroke-linejoin:round;stroke-miterlimit:10;stroke-dasharray:none;stroke-opacity:1" transform="translate(378.999 253.388)"/><path d="m0 0 2.458-.253-.678-6.615-2.459.252Z" style="fill:#5ae4a7;fill-opacity:1;fill-rule:nonzero;stroke:none" transform="translate(378.4 247.538)"/><path d="m0 0 2.458-.253-.678-6.615-2.459.252Z" style="fill:none;stroke:#1a2e35;stroke-width:1;stroke-linecap:butt;stroke-linejoin:miter;stroke-miterlimit:10;stroke-dasharray:none;stroke-opacity:1" transform="translate(378.4 247.538)"/><path d="m0 0 2.459-.251-1.44-14.056-2.458.252z" style="fill:#767676;fill-opacity:1;fill-rule:nonzero;stroke:none" transform="translate(373.836 257.584)"/><path d="m0 0 2.459-.251-1.44-14.056-2.458.252z" style="fill:none;stroke:#1a2e35;stroke-width:1;stroke-linecap:round;stroke-linejoin:round;stroke-miterlimit:10;stroke-dasharray:none;stroke-opacity:1" transform="translate(373.836 257.584)"/><path d="m0 0 2.459-.252-.678-6.616-2.459.252Z" style="fill:#5ae4a7;fill-opacity:1;fill-rule:nonzero;stroke:none" transform="translate(373.128 250.675)"/><path d="m0 0 2.459-.252-.678-6.616-2.459.252Z" style="fill:none;stroke:#1a2e35;stroke-width:1;stroke-linecap:butt;stroke-linejoin:miter;stroke-miterlimit:10;stroke-dasharray:none;stroke-opacity:1" transform="translate(373.128 250.675)"/><path d="m0 0 2.458-.252-1.44-14.055-2.458.252z" style="fill:#767676;fill-opacity:1;fill-rule:nonzero;stroke:none" transform="translate(367.55 250.803)"/><path d="m0 0 2.458-.252-1.44-14.055-2.458.252z" style="fill:none;stroke:#1a2e35;stroke-width:1;stroke-linecap:round;stroke-linejoin:round;stroke-miterlimit:10;stroke-dasharray:none;stroke-opacity:1" transform="translate(367.55 250.803)"/><path d="m0 0 2.459-.252-.678-6.616-2.459.252Z" style="fill:#5ae4a7;fill-opacity:1;fill-rule:nonzero;stroke:none" transform="translate(366.84 243.894)"/><path d="m0 0 2.459-.252-.678-6.616-2.459.252Z" style="fill:none;stroke:#1a2e35;stroke-width:1;stroke-linecap:butt;stroke-linejoin:miter;stroke-miterlimit:10;stroke-dasharray:none;stroke-opacity:1" transform="translate(366.84 243.894)"/><path d="m0 0 2.459-.252-1.44-14.055-2.458.252z" style="fill:#767676;fill-opacity:1;fill-rule:nonzero;stroke:none" transform="translate(362.922 260.221)"/><path d="m0 0 2.459-.252-1.44-14.055-2.458.252z" style="fill:none;stroke:#1a2e35;stroke-width:1;stroke-linecap:round;stroke-linejoin:round;stroke-miterlimit:10;stroke-dasharray:none;stroke-opacity:1" transform="translate(362.922 260.221)"/><path d="m0 0 2.459-.252-.679-6.616-2.458.252Z" style="fill:#5ae4a7;fill-opacity:1;fill-rule:nonzero;stroke:none" transform="translate(362.377 254.9)"/><path d="m0 0 2.459-.252-.679-6.616-2.458.252Z" style="fill:none;stroke:#1a2e35;stroke-width:1;stroke-linecap:butt;stroke-linejoin:miter;stroke-miterlimit:10;stroke-dasharray:none;stroke-opacity:1" transform="translate(362.377 254.9)"/><path d="m0 0 2.458-.252-1.44-14.055-2.458.252z" style="fill:#767676;fill-opacity:1;fill-rule:nonzero;stroke:none" transform="translate(357.473 261.608)"/><path d="m0 0 2.458-.252-1.44-14.055-2.458.252z" style="fill:none;stroke:#1a2e35;stroke-width:1;stroke-linecap:round;stroke-linejoin:round;stroke-miterlimit:10;stroke-dasharray:none;stroke-opacity:1" transform="translate(357.473 261.608)"/><path d="m0 0 2.459-.252-.678-6.616-2.459.252Z" style="fill:#5ae4a7;fill-opacity:1;fill-rule:nonzero;stroke:none" transform="translate(357.252 259.463)"/><path d="m0 0 2.459-.252-.678-6.616-2.459.252Z" style="fill:none;stroke:#1a2e35;stroke-width:1;stroke-linecap:butt;stroke-linejoin:miter;stroke-miterlimit:10;stroke-dasharray:none;stroke-opacity:1" transform="translate(357.252 259.463)"/><path d="m0 0 2.459-.252-1.44-14.055-2.459.252z" style="fill:#767676;fill-opacity:1;fill-rule:nonzero;stroke:none" transform="translate(351.034 253.355)"/><path d="m0 0 2.459-.252-1.44-14.055-2.459.252z" style="fill:none;stroke:#1a2e35;stroke-width:1;stroke-linecap:round;stroke-linejoin:round;stroke-miterlimit:10;stroke-dasharray:none;stroke-opacity:1" transform="translate(351.034 253.355)"/><path d="m0 0 2.459-.252-.678-6.616-2.459.252Z" style="fill:#5ae4a7;fill-opacity:1;fill-rule:nonzero;stroke:none" transform="translate(350.868 251.738)"/><path d="m0 0 2.459-.252-.678-6.616-2.459.252Z" style="fill:none;stroke:#1a2e35;stroke-width:1;stroke-linecap:butt;stroke-linejoin:miter;stroke-miterlimit:10;stroke-dasharray:none;stroke-opacity:1" transform="translate(350.868 251.738)"/><path d="m0 0 2.459-.252-1.44-14.055-2.458.252z" style="fill:#767676;fill-opacity:1;fill-rule:nonzero;stroke:none" transform="translate(346.133 260.1)"/><path d="m0 0 2.459-.252-1.44-14.055-2.458.252z" style="fill:none;stroke:#1a2e35;stroke-width:1;stroke-linecap:round;stroke-linejoin:round;stroke-miterlimit:10;stroke-dasharray:none;stroke-opacity:1" transform="translate(346.133 260.1)"/><path d="m0 0 2.458-.252-.678-6.616-2.459.252Z" style="fill:#5ae4a7;fill-opacity:1;fill-rule:nonzero;stroke:none" transform="translate(345.643 255.307)"/><path d="m0 0 2.458-.252-.678-6.616-2.459.252Z" style="fill:none;stroke:#1a2e35;stroke-width:1;stroke-linecap:butt;stroke-linejoin:miter;stroke-miterlimit:10;stroke-dasharray:none;stroke-opacity:1" transform="translate(345.643 255.307)"/><path d="m0 0 2.458-.252-1.44-14.055-2.458.252z" style="fill:#767676;fill-opacity:1;fill-rule:nonzero;stroke:none" transform="translate(340.224 256.999)"/><path d="m0 0 2.458-.252-1.44-14.055-2.458.252z" style="fill:none;stroke:#1a2e35;stroke-width:1;stroke-linecap:round;stroke-linejoin:round;stroke-miterlimit:10;stroke-dasharray:none;stroke-opacity:1" transform="translate(340.224 256.999)"/><path d="m0 0 2.459-.252-.678-6.616-2.459.252Z" style="fill:#5ae4a7;fill-opacity:1;fill-rule:nonzero;stroke:none" transform="translate(339.678 251.678)"/><path d="m0 0 2.459-.252-.678-6.616-2.459.252Z" style="fill:none;stroke:#1a2e35;stroke-width:1;stroke-linecap:butt;stroke-linejoin:miter;stroke-miterlimit:10;stroke-dasharray:none;stroke-opacity:1" transform="translate(339.678 251.678)"/><path d="m0 0 2.458-.252-1.44-14.054-2.458.252z" style="fill:#767676;fill-opacity:1;fill-rule:nonzero;stroke:none" transform="translate(334.043 251.255)"/><path d="m0 0 2.458-.252-1.44-14.054-2.458.252z" style="fill:none;stroke:#1a2e35;stroke-width:1;stroke-linecap:round;stroke-linejoin:round;stroke-miterlimit:10;stroke-dasharray:none;stroke-opacity:1" transform="translate(334.043 251.255)"/><path d="m0 0 2.459-.252-.679-6.615-2.458.252Z" style="fill:#5ae4a7;fill-opacity:1;fill-rule:nonzero;stroke:none" transform="translate(333.28 243.816)"/><path d="m0 0 2.459-.252-.679-6.615-2.458.252Z" style="fill:none;stroke:#1a2e35;stroke-width:1;stroke-linecap:butt;stroke-linejoin:miter;stroke-miterlimit:10;stroke-dasharray:none;stroke-opacity:1" transform="translate(333.28 243.816)"/><path d="m0 0 2.458-.252-1.44-14.055-2.458.252z" style="fill:#767676;fill-opacity:1;fill-rule:nonzero;stroke:none" transform="translate(329.42 260.725)"/><path d="m0 0 2.458-.252-1.44-14.055-2.458.252z" style="fill:none;stroke:#1a2e35;stroke-width:1;stroke-linecap:round;stroke-linejoin:round;stroke-miterlimit:10;stroke-dasharray:none;stroke-opacity:1" transform="translate(329.42 260.725)"/><path d="m0 0 2.458-.252-.678-6.616-2.458.252Z" style="fill:#5ae4a7;fill-opacity:1;fill-rule:nonzero;stroke:none" transform="translate(328.821 254.874)"/><path d="m0 0 2.458-.252-.678-6.616-2.458.252Z" style="fill:none;stroke:#1a2e35;stroke-width:1;stroke-linecap:butt;stroke-linejoin:miter;stroke-miterlimit:10;stroke-dasharray:none;stroke-opacity:1" transform="translate(328.821 254.874)"/><path d="m0 0 2.458-.252-1.439-14.055-2.459.252Z" style="fill:#767676;fill-opacity:1;fill-rule:nonzero;stroke:none" transform="translate(324.52 267.468)"/><path d="m0 0 2.458-.252-1.439-14.055-2.459.252Z" style="fill:none;stroke:#1a2e35;stroke-width:1;stroke-linecap:round;stroke-linejoin:round;stroke-miterlimit:10;stroke-dasharray:none;stroke-opacity:1" transform="translate(324.52 267.468)"/><path d="m0 0 2.458-.252-.678-6.616-2.458.252Z" style="fill:#5ae4a7;fill-opacity:1;fill-rule:nonzero;stroke:none" transform="translate(323.92 261.617)"/><path d="m0 0 2.458-.252-.678-6.616-2.458.252Z" style="fill:none;stroke:#1a2e35;stroke-width:1;stroke-linecap:butt;stroke-linejoin:miter;stroke-miterlimit:10;stroke-dasharray:none;stroke-opacity:1" transform="translate(323.92 261.617)"/><path d="m0 0 2.459-.252-1.44-14.055-2.458.252z" style="fill:#767676;fill-opacity:1;fill-rule:nonzero;stroke:none" transform="translate(318.223 260.596)"/><path d="m0 0 2.459-.252-1.44-14.055-2.458.252z" style="fill:none;stroke:#1a2e35;stroke-width:1;stroke-linecap:round;stroke-linejoin:round;stroke-miterlimit:10;stroke-dasharray:none;stroke-opacity:1" transform="translate(318.223 260.596)"/><path d="m0 0 2.459-.252-.678-6.616-2.459.252Z" style="fill:#5ae4a7;fill-opacity:1;fill-rule:nonzero;stroke:none" transform="translate(318.003 258.45)"/><path d="m0 0 2.459-.252-.678-6.616-2.459.252Z" style="fill:none;stroke:#1a2e35;stroke-width:1;stroke-linecap:butt;stroke-linejoin:miter;stroke-miterlimit:10;stroke-dasharray:none;stroke-opacity:1" transform="translate(318.003 258.45)"/><path d="m0 0 2.458-.252-1.439-14.055-2.459.252Z" style="fill:#767676;fill-opacity:1;fill-rule:nonzero;stroke:none" transform="translate(311.875 253.219)"/><path d="m0 0 2.458-.252-1.439-14.055-2.459.252Z" style="fill:none;stroke:#1a2e35;stroke-width:1;stroke-linecap:round;stroke-linejoin:round;stroke-miterlimit:10;stroke-dasharray:none;stroke-opacity:1" transform="translate(311.875 253.219)"/><path d="m0 0 2.458-.252-.678-6.616-2.458.252Z" style="fill:#5ae4a7;fill-opacity:1;fill-rule:nonzero;stroke:none" transform="translate(311.764 252.132)"/><path d="m0 0 2.458-.252-.678-6.616-2.458.252Z" style="fill:none;stroke:#1a2e35;stroke-width:1;stroke-linecap:butt;stroke-linejoin:miter;stroke-miterlimit:10;stroke-dasharray:none;stroke-opacity:1" transform="translate(311.764 252.132)"/><path d="m0 0 2.458-.252-1.44-14.055-2.458.252z" style="fill:#767676;fill-opacity:1;fill-rule:nonzero;stroke:none" transform="translate(307.155 261.73)"/><path d="m0 0 2.458-.252-1.44-14.055-2.458.252z" style="fill:none;stroke:#1a2e35;stroke-width:1;stroke-linecap:round;stroke-linejoin:round;stroke-miterlimit:10;stroke-dasharray:none;stroke-opacity:1" transform="translate(307.155 261.73)"/><path d="m0 0 2.459-.252-.678-6.616-2.459.252Z" style="fill:#5ae4a7;fill-opacity:1;fill-rule:nonzero;stroke:none" transform="translate(306.61 256.409)"/><path d="m0 0 2.459-.252-.678-6.616-2.459.252Z" style="fill:none;stroke:#1a2e35;stroke-width:1;stroke-linecap:butt;stroke-linejoin:miter;stroke-miterlimit:10;stroke-dasharray:none;stroke-opacity:1" transform="translate(306.61 256.409)"/><path d="m0 0 2.459-.252-1.44-14.055-2.459.252z" style="fill:#767676;fill-opacity:1;fill-rule:nonzero;stroke:none" transform="translate(301.86 264.636)"/><path d="m0 0 2.459-.252-1.44-14.055-2.459.252z" style="fill:none;stroke:#1a2e35;stroke-width:1;stroke-linecap:round;stroke-linejoin:round;stroke-miterlimit:10;stroke-dasharray:none;stroke-opacity:1" transform="translate(301.86 264.636)"/><path d="m0 0 2.459-.252-.678-6.616-2.459.252Z" style="fill:#5ae4a7;fill-opacity:1;fill-rule:nonzero;stroke:none" transform="translate(301.694 263.02)"/><path d="m0 0 2.459-.252-.678-6.616-2.459.252Z" style="fill:none;stroke:#1a2e35;stroke-width:1;stroke-linecap:butt;stroke-linejoin:miter;stroke-miterlimit:10;stroke-dasharray:none;stroke-opacity:1" transform="translate(301.694 263.02)"/><path d="m0 0 2.459-.252-1.44-14.054-2.459.252z" style="fill:#767676;fill-opacity:1;fill-rule:nonzero;stroke:none" transform="translate(295.877 260.819)"/><path d="m0 0 2.459-.252-1.44-14.054-2.459.252z" style="fill:none;stroke:#1a2e35;stroke-width:1;stroke-linecap:round;stroke-linejoin:round;stroke-miterlimit:10;stroke-dasharray:none;stroke-opacity:1" transform="translate(295.877 260.819)"/><path d="m0 0 2.458-.251-.678-6.616-2.459.252Z" style="fill:#5ae4a7;fill-opacity:1;fill-rule:nonzero;stroke:none" transform="translate(295.115 253.38)"/><path d="m0 0 2.458-.251-.678-6.616-2.459.252Z" style="fill:none;stroke:#1a2e35;stroke-width:1;stroke-linecap:butt;stroke-linejoin:miter;stroke-miterlimit:10;stroke-dasharray:none;stroke-opacity:1" transform="translate(295.115 253.38)"/><path d="m0 0 2.459-.252-1.44-14.055-2.459.252z" style="fill:#767676;fill-opacity:1;fill-rule:nonzero;stroke:none" transform="translate(290.792 265.77)"/><path d="m0 0 2.459-.252-1.44-14.055-2.459.252z" style="fill:none;stroke:#1a2e35;stroke-width:1;stroke-linecap:round;stroke-linejoin:round;stroke-miterlimit:10;stroke-dasharray:none;stroke-opacity:1" transform="translate(290.792 265.77)"/><path d="m0 0 2.458-.252-.678-6.616-2.458.252Z" style="fill:#5ae4a7;fill-opacity:1;fill-rule:nonzero;stroke:none" transform="translate(290.139 259.39)"/><path d="m0 0 2.458-.252-.678-6.616-2.458.252Z" style="fill:none;stroke:#1a2e35;stroke-width:1;stroke-linecap:butt;stroke-linejoin:miter;stroke-miterlimit:10;stroke-dasharray:none;stroke-opacity:1" transform="translate(290.139 259.39)"/><path d="m0 0 2.459-.252-1.44-14.055-2.458.252z" style="fill:#767676;fill-opacity:1;fill-rule:nonzero;stroke:none" transform="translate(285.063 264.44)"/><path d="m0 0 2.459-.252-1.44-14.055-2.458.252z" style="fill:none;stroke:#1a2e35;stroke-width:1;stroke-linecap:round;stroke-linejoin:round;stroke-miterlimit:10;stroke-dasharray:none;stroke-opacity:1" transform="translate(285.063 264.44)"/><path d="m0 0 2.459-.252-.678-6.616-2.459.252Z" style="fill:#5ae4a7;fill-opacity:1;fill-rule:nonzero;stroke:none" transform="translate(284.356 257.532)"/><path d="m0 0 2.459-.252-.678-6.616-2.459.252Z" style="fill:none;stroke:#1a2e35;stroke-width:1;stroke-linecap:butt;stroke-linejoin:miter;stroke-miterlimit:10;stroke-dasharray:none;stroke-opacity:1" transform="translate(284.356 257.532)"/><path d="m0 0 2.458-.252-1.439-14.055-2.459.252Z" style="fill:#767676;fill-opacity:1;fill-rule:nonzero;stroke:none" transform="translate(279.715 266.813)"/><path d="m0 0 2.458-.252-1.439-14.055-2.459.252Z" style="fill:none;stroke:#1a2e35;stroke-width:1;stroke-linecap:round;stroke-linejoin:round;stroke-miterlimit:10;stroke-dasharray:none;stroke-opacity:1" transform="translate(279.715 266.813)"/><path d="m0 0 2.459-.252-.678-6.616-2.459.252Z" style="fill:#5ae4a7;fill-opacity:1;fill-rule:nonzero;stroke:none" transform="translate(279.657 266.256)"/><path d="m0 0 2.459-.252-.678-6.616-2.459.252Z" style="fill:none;stroke:#1a2e35;stroke-width:1;stroke-linecap:butt;stroke-linejoin:miter;stroke-miterlimit:10;stroke-dasharray:none;stroke-opacity:1" transform="translate(279.657 266.256)"/><path d="m0 0-112.237 11.501a1.181 1.181 0 0 1-.241-2.351L-.241-2.351A1.183 1.183 0 0 1 0 0" style="fill:#1a2e35;fill-opacity:1;fill-rule:nonzero;stroke:none" transform="translate(403.853 222.325)"/><path d="m0 0-130.51 13.374a1.182 1.182 0 0 1-.241-2.351L-.24-2.35A1.182 1.182 0 0 1 0 0" style="fill:#1a2e35;fill-opacity:1;fill-rule:nonzero;stroke:none" transform="translate(402.986 213.873)"/><path d="m0 0-75.691 7.756a1.18 1.18 0 1 1-.242-2.351L-.241-2.351A1.183 1.183 0 0 1 0 0" style="fill:#1a2e35;fill-opacity:1;fill-rule:nonzero;stroke:none" transform="translate(347.302 211.04)"/><g clip-path="url(#w)" opacity=".2"><g clip-path="url(#x)" opacity=".7"><path d="M0 0c-3.87.31-5.211-5.86-5.211-5.86s-6.119 8.02-5.149 26.88c0 0-2.991 8.36-11 3.31-8-5.05-16.311-22.85-14.33-42.24l-15.571 51.69c-5.38-1.14-16.309-8.37-13.429-43.28L-81.681 8.46s-4.599 1.48-7.2-2.59c-2.599-4.08-1.359-33.22.79-44.12 2.16-10.91-3.33-32.8-3.33-32.8s-5.858 24.799-16.46 31.075L-148.25 43.29l-13.41-130.899 15.13-1.551 24.297 11.827c-.135-5.47-.268-10.498-.667-14.247l121.439-12.44 8.69 84.82C4.279-8.63 1.46-.11 0 0" style="fill:#000;fill-opacity:1;fill-rule:nonzero;stroke:none" transform="translate(416.23 286.51)"/></g></g></g><path d="m0 0-14.13-137.88-8.69-84.82-121.44 12.44-23.63 2.42-15.13 1.55 13.411 130.9 9.409 91.8z" style="fill:none;stroke:#1a2e35;stroke-width:1;stroke-linecap:round;stroke-linejoin:round;stroke-miterlimit:10;stroke-dasharray:none;stroke-opacity:1" transform="matrix(1.33333 0 0 -1.33333 583.453 126.413)"/><g clip-path="url(#y)" transform="matrix(1.33333 0 0 -1.33333 0 666.667)"><path d="m0 0-71-12.08s-12.359 65.649-19.729 75.989C-98.1 74.26-96.75 78.51-100.33 85.479c-2.16 4.21-12.99 12.06-21.49 19.81h-.01c-.74.671-1.46 1.341-2.149 2.011-.301.269-.581.559-.861.83-1.13 1.12-2.18 2.21-3.11 3.279q-.51.57-.96 1.141c-1.77 2.189-3.02 4.239-3.44 6.09q-.044.147-.06.309c-.029.13-.05.25-.06.37a304 304 0 0 0-.59 5.241c-.04.379-.08.78-.129 1.179l-.061.481c-.17 1.599-.359 3.3-.58 5.05-.22 1.83-.46 3.73-.74 5.639-.09.66-.18 1.32-.289 1.99 0 .01 0 .021-.011.021-.109.739-.23 1.479-.35 2.229q-.164.96-.33 1.92c-.02.111-.05.21-.059.3-.141.75-.281 1.481-.421 2.221-.03.08-.04.16-.05.25-.14.649-.27 1.29-.42 1.939-.31 1.45-.66 2.87-1.04 4.25-.75 2.75-1.63 5.321-2.649 7.601-5.121 11.43 1.54 7.3-2.471 36.71 0 0 2.95 6.82 11.36 1.37.651-.421 1.27-.881 1.88-1.37h.01a23.7 23.7 0 0 0 4.471-4.78c1.669-2.35 2.969-5.04 3.859-7.96 1.33-4.35 1.76-9.22 1.141-14.3 0 0 6.319-21.66 9.649-26.59 3.34-4.931 17.101 23.39 16.21 26.689-.18.661-.43 2.271-.71 4.481-.06.489-.12 1.01-.189 1.559-.061.55-.13 1.121-.191 1.71-.04.281-.07.58-.11.871-.01.12-.02.24-.04.349-.119 1.131-.26 2.33-.39 3.57-.03.35-.07.68-.11 1.021l-.18 1.8c-.02.09-.02.189-.03.3q-.062.51-.11 1.049c-.08.701-.15 1.411-.219 2.12-.071.611-.12 1.22-.181 1.831-.12 1.15-.23 2.299-.34 3.41-.08.83-.16 1.649-.229 2.45-.021.18-.04.359-.051.529-.42 4.401-.75 8.021-.87 9.561 0 0-10.01 14.82-11.04 21.8-1.03 6.989-.94 14.33 3.25 17.319 9.921 7.06 7.02-4.319 11.461-9.029 4.439-4.73 11.25-12.431 15.109-14.84 3.561-2.26 6.74-11.04 7.19-12.321-.51 1.92-5.6 20.801-5.71 24.601-.129 4.009-3.19 25.16 2.01 32.75 5.19 7.58 12.111 1.7 12.75.2.64-1.5.83-21.99 2.66-27.7 1.84-5.701 9.491-29.471 9.491-29.471s.319 23.12 2.049 33.471c1.72 10.339 6.22 18.439 10.621 18.899 4.399.46 8.469-4.39 8.469-4.39s-1.74-16.5-1.24-20.309c.49-3.801-.72-17.571 1.37-24.97 0 0-.24 19.709 2.82 22.23 3.07 2.52 5.69 3.729 7.411 2.029 1.71-1.699 2.089-13.369 3.839-20.389 1.76-7.031 1.53-16.56 2.68-27.51s5.68-26.151 4.78-34.841c-.9-8.67-3.669-30.239-5.9-42.89-2.229-12.66-7.92-29.979-7.92-29.979s2.59-9.25 2.09-17.5C-20.3 54.92 0 0 0 0" style="fill:#fff;fill-opacity:1;fill-rule:nonzero;stroke:none" transform="translate(435.59 50.23)"/><g clip-path="url(#z)" opacity=".4"><path d="M0 0c1.36-4.225 5.905-18.343 8.169-25.392 0 0-9.926-7.295-9.679-14.073.256-6.77-1.817-20.464-6.274-20.071-4.448.384-4.054 28.857-5.509 33.639.904-2.052 1.492-3.726 1.61-4.056-.33 1.226-5.633 20.82-5.745 24.701-.026.912-.21 2.727-.415 5.077l.002.046S-7.977 9.313-.73 3.532l-.001-.009C-.516 2.083-.277.873 0 0" style="fill:#5ae4a7;fill-opacity:1;fill-rule:nonzero;stroke:none" transform="translate(375.244 289.023)"/></g><g clip-path="url(#A)" opacity=".4"><path d="M0 0c-4.621-4.382-11.593-12.125-12.475-19.598 0 0 2.577-20.853 1.476-29.949l-9.008 28.212s.323 23.122 2.054 33.469c.045.283.099.574.153.856 4.417 2.259 10.477 4.28 18.086 4.42-.348-4.46-.632-9.236-.394-11.073C.046 5.095.033 2.795 0 0" style="fill:#5ae4a7;fill-opacity:1;fill-rule:nonzero;stroke:none" transform="translate(404.733 280.883)"/></g><g clip-path="url(#B)" opacity=".4"><path d="m0 0-.01-.009-.029-.026a16 16 0 0 1-.774-.624c.249.463.505.898.789 1.305z" style="fill:#5ae4a7;fill-opacity:1;fill-rule:nonzero;stroke:none" transform="translate(408.818 284.479)"/></g><g clip-path="url(#C)" opacity=".4"><path d="M0 0s-5.938 22.283-6.043 40.224c-.044 6.636.723 12.69 2.869 16.782l.01.009c.249.463.506.898.789 1.304l.024-.646c1.27 1.045 2.452 1.856 3.539 2.341-1.668-2.603-3.59-7.693-1.366-15.964C3.307 31.092.274 15.268 0 0" style="fill:#5ae4a7;fill-opacity:1;fill-rule:nonzero;stroke:none" transform="translate(411.169 226.806)"/></g><g clip-path="url(#D)" opacity=".4"><path d="M0 0s1.596-21.234-15.471-28.837l-.008.001a94 94 0 0 0-2.15 2.009c-.297.275-.582.56-.86.835-1.127 1.118-2.183 2.213-3.112 3.282q-.513.584-.961 1.136c-1.77 2.188-3.014 4.243-3.435 6.091q-.046.154-.064.307a3 3 0 0 0-.06.371 318 318 0 0 0-.589 5.245c-.041.38-.081.778-.13 1.177l-.054.482a421 421 0 0 1-.583 5.05 219 219 0 0 1-.739 5.64l-.292 1.987c0 .009.001.019-.009.019-.11.743-.23 1.486-.35 2.23-.108.642-.225 1.284-.333 1.925a4 4 0 0 0-.055.298c-.139.744-.277 1.481-.426 2.216-.022.084-.035.168-.048.252-.135.652-.271 1.295-.416 1.939a101 101 0 0 1-1.045 4.25c6.751 6.496 22.334 2.422 14.792 17.469 0 0 3.798 12.879-6.672 26.846l.009-.001c7.164-5.777 10.83-15.92 9.475-27.045 0 0 6.318-21.653 9.649-26.587C-.595 3.652 13.16 31.978 12.268 35.28c-.171.656-.422 2.272-.701 4.479q-.09.737-.189 1.557c-.068.547-.134 1.122-.199 1.715-.038.279-.066.574-.104.862-.011.121-.021.241-.043.352l-.387 3.576c-.035.342-.069.676-.113 1.019-.055.593-.12 1.194-.183 1.797-.013.092-.016.193-.029.296-.034.342-.077.695-.11 1.055-.076.704-.144 1.408-.219 2.121-.064.611-.119 1.222-.182 1.833-.114 1.148-.227 2.296-.334 3.407-.078.833-.156 1.656-.237 2.443-.015.186-.033.361-.05.537.279-1.314 5.349-25.448 8.244-31.073C20.398 25.47 7.79-5.006 0 0" style="fill:#5ae4a7;fill-opacity:1;fill-rule:nonzero;stroke:none" transform="translate(329.237 184.352)"/></g><g clip-path="url(#E)" opacity=".4"><path d="M0 0c-2.23-12.663-7.912-29.981-7.912-29.981s2.588-9.25 2.082-17.5c-.136-2.219 1.241-7.825 3.305-14.825-.596 1.536-6.971 18.058-6.866 23.821.122 6.047-1.597 7.717-4.969 15.147-3.363 7.439-8.511 6.614-8.511 6.614s-1.983-18.54-6.638-6.356c-4.653 12.192-5.551 26.353 6.182 75.553 0 0 1.774-6.173.291-24.504C-24.529 9.63-20.14 4.088-20.14 4.088s9.479 15.613 15.591 36.356c0 0-1.514-21.393-2.867-31.137s4.806 11.29 9.109 24.286c4.042 12.192 4.189 16.83 2.651 25.51 1.143-6.117 2-11.948 1.563-16.208C5.007 34.217 2.23 12.653 0 0" style="fill:#5ae4a7;fill-opacity:1;fill-rule:nonzero;stroke:none" transform="translate(421.626 160.879)"/></g><g clip-path="url(#F)" opacity=".4"><path d="M0 0c3.462-5.503 11.935-12.771 16.979-32.885 5.046-20.112 1.875-42.123 1.875-42.123z" style="fill:#5ae4a7;fill-opacity:1;fill-rule:nonzero;stroke:none" transform="translate(341.398 119.644)"/></g><g clip-path="url(#G)" opacity=".2"><g clip-path="url(#H)" opacity=".7"><path d="M0 0s-17.71-8.97-19.109-23.97c-5.12 11.43 1.54 7.3-2.471 36.71 0 0 2.95 6.82 11.36 1.37.651-.421 1.27-.881 1.88-1.37h.01c1.69-1.36 3.19-2.97 4.471-4.78z" style="fill:#000;fill-opacity:1;fill-rule:nonzero;stroke:none" transform="translate(314.51 233.83)"/></g></g><path d="M0 0s-12.353 65.651-19.727 75.994c-7.374 10.342-6.02 14.6-9.597 21.568-3.577 6.967-30.93 23.934-32.142 33.837s-2.597 28.877-7.72 40.314c-5.122 11.436 1.54 7.302-2.479 36.713 0 0 2.966 6.813 11.368 1.366 8.402-5.448 12.83-16.346 11.361-28.416 0 0 6.317-21.647 9.654-26.585 3.338-4.937 17.089 23.393 16.199 26.698s-3.529 31.468-3.942 36.604c0 0-10.012 14.825-11.039 21.804-1.029 6.98-.942 14.332 3.246 17.312 9.922 7.065 7.015-4.315 11.458-9.035s11.251-12.417 15.107-14.838 7.243-12.467 7.243-12.467-5.643 20.742-5.761 24.753-3.189 25.161 2.008 32.745c5.198 7.583 12.117 1.702 12.754.205s.835-21.985 2.669-27.695c1.834-5.709 9.476-29.475 9.476-29.475s.326 23.117 2.053 33.466 6.228 18.445 10.624 18.903 8.468-4.389 8.468-4.389-1.74-16.5-1.246-20.307-.714-17.565 1.38-24.974c0 0-.247 19.713 2.82 22.234s5.689 3.726 7.405 2.028 2.091-13.369 3.845-20.393c1.753-7.024 1.533-16.561 2.681-27.509s5.676-26.151 4.779-34.832-3.675-30.243-5.909-42.902c-2.232-12.659-7.905-29.979-7.905-29.979s2.587-9.247 2.081-17.496c-.507-8.25 19.786-63.167 19.786-63.167" style="fill:none;stroke:#1a2e35;stroke-width:1;stroke-linecap:round;stroke-linejoin:round;stroke-miterlimit:10;stroke-dasharray:none;stroke-opacity:1" transform="translate(364.587 38.148)"/><path d="M0 0c2.068-4.859 7.18-25.375 9.008-28.218s3.899-3.698 3.899-3.698" style="fill:none;stroke:#1a2e35;stroke-width:1;stroke-linecap:round;stroke-linejoin:round;stroke-miterlimit:10;stroke-dasharray:none;stroke-opacity:1" transform="translate(384.723 259.55)"/><path d="M0 0s-.44-4.205 1.832-17.608 3.377-19.114 4.65-22.104" style="fill:none;stroke:#1a2e35;stroke-width:1;stroke-linecap:round;stroke-linejoin:round;stroke-miterlimit:10;stroke-dasharray:none;stroke-opacity:1" transform="translate(406.002 262.248)"/><path d="M0 0c2.775-8.168 4.343-21.187 5.922-25.106 1.58-3.919 2.986-4.734 2.986-4.734" style="fill:none;stroke:#1a2e35;stroke-width:1;stroke-linecap:round;stroke-linejoin:round;stroke-miterlimit:10;stroke-dasharray:none;stroke-opacity:1" transform="translate(363.577 259.017)"/><path d="M0 0s2.909-2.163 3.837-4.847" style="fill:none;stroke:#1a2e35;stroke-width:1;stroke-linecap:round;stroke-linejoin:round;stroke-miterlimit:10;stroke-dasharray:none;stroke-opacity:1" transform="translate(368.07 239.415)"/><path d="M0 0s1.52-10.831 8.307-9.974" style="fill:none;stroke:#1a2e35;stroke-width:1;stroke-linecap:round;stroke-linejoin:round;stroke-miterlimit:10;stroke-dasharray:none;stroke-opacity:1" transform="translate(325.305 192.939)"/><path d="M0 0s1.758-12.875-1.125-18.34" style="fill:none;stroke:#1a2e35;stroke-width:1;stroke-linecap:round;stroke-linejoin:round;stroke-miterlimit:10;stroke-dasharray:none;stroke-opacity:1" transform="translate(341.504 219.637)"/><path d="M0 0s4.561-2.791 1.511-10.977c-3.051-8.185-8.355-41.227-8.355-41.227" style="fill:none;stroke:#1a2e35;stroke-width:1;stroke-linecap:round;stroke-linejoin:round;stroke-miterlimit:10;stroke-dasharray:none;stroke-opacity:1" transform="translate(395.736 219.523)"/><path d="M0 0c1.912-7.397 2.083-7.59-1.023-16.683-3.107-9.091-8.113-31.353-8.113-31.353" style="fill:none;stroke:#1a2e35;stroke-width:1;stroke-linecap:round;stroke-linejoin:round;stroke-miterlimit:10;stroke-dasharray:none;stroke-opacity:1" transform="translate(415.59 210.879)"/><path d="M0 0s-2.982 6.021-.518 10.966" style="fill:none;stroke:#1a2e35;stroke-width:1;stroke-linecap:round;stroke-linejoin:round;stroke-miterlimit:10;stroke-dasharray:none;stroke-opacity:1" transform="translate(413.718 130.895)"/><path d="M0 0s7.54-10.594 10.817-22.444" style="fill:none;stroke:#1a2e35;stroke-width:1;stroke-linecap:round;stroke-linejoin:round;stroke-miterlimit:10;stroke-dasharray:none;stroke-opacity:1" transform="translate(344.86 114.142)"/><path d="m0 0 2.035 2.014.926.261-.062-.997-1.875-2.387Z" style="fill:#767676;fill-opacity:1;fill-rule:nonzero;stroke:none" transform="translate(400.34 299.771)"/><path d="m0 0 2.035 2.014.926.261-.062-.997-1.875-2.387Z" style="fill:none;stroke:#1a2e35;stroke-width:1;stroke-linecap:round;stroke-linejoin:round;stroke-miterlimit:10;stroke-dasharray:none;stroke-opacity:1" transform="translate(400.34 299.771)"/><path d="m0 0-3.314-7.526-89.201-118.933-9.935 6.333 13.487 16.922L-8.843-2.706l7.067 4.49S-.264 1.396 0 0" style="fill:#5ae4a7;fill-opacity:1;fill-rule:nonzero;stroke:none" transform="translate(401.986 298.654)"/></g><g clip-path="url(#I)" transform="matrix(1.33333 0 0 -1.33333 0 666.667)"><g clip-path="url(#J)" opacity=".3"><g clip-path="url(#K)" opacity=".7"><path d="m0 0-3.314-7.526-89.201-118.933-9.935 6.333 13.487 16.922c6.195.641 7.232-3.02 7.232-3.02L-4.881-5.921c-.755 2.697-3.962 3.215-3.962 3.215l7.067 4.49S-.264 1.396 0 0" style="fill:#000;fill-opacity:1;fill-rule:nonzero;stroke:none" transform="translate(401.986 298.654)"/></g></g></g><g clip-path="url(#L)" transform="matrix(1.33333 0 0 -1.33333 0 666.667)"><path d="m0 0-3.314-7.526-89.201-118.933-9.935 6.333 13.487 16.922L-8.843-2.706l7.067 4.49S-.264 1.396 0 0" style="fill:none;stroke:#1a2e35;stroke-width:1;stroke-linecap:round;stroke-linejoin:round;stroke-miterlimit:10;stroke-dasharray:none;stroke-opacity:1" transform="translate(401.986 298.654)"/><path d="M0 0s-9.954-19.762-19.535-33.74l-6.844-1.771S-42.077-51.11-51.655-58.896c0 0-2.461 1.43-4.682 3.931 0 0 13.602 26.117 28.649 42.65 0 0 2.185-.668 4.936-2.623a24.3 24.3 0 0 0 5.153-4.944L-.827 1.219Z" style="fill:#5ae4a7;fill-opacity:1;fill-rule:nonzero;stroke:none" transform="translate(338.565 207.41)"/></g><g clip-path="url(#M)" transform="matrix(1.33333 0 0 -1.33333 0 666.667)"><g clip-path="url(#N)" opacity=".3"><g clip-path="url(#O)" opacity=".7"><path d="M0 0s-9.954-19.762-19.535-33.74l-6.844-1.771S-42.077-51.11-51.655-58.896l.259 4.235C-41.009-38.79-27.81-21.482-22.752-14.938a24.3 24.3 0 0 0 5.153-4.944l-9.321-12.439 5.341.961L-.827 1.219z" style="fill:#000;fill-opacity:1;fill-rule:nonzero;stroke:none" transform="translate(338.565 207.41)"/></g></g></g><g clip-path="url(#P)" transform="matrix(1.33333 0 0 -1.33333 0 666.667)"><path d="M0 0s-9.954-19.762-19.535-33.74l-6.844-1.771S-42.077-51.11-51.655-58.896c0 0-2.461 1.43-4.682 3.931 0 0 13.602 26.117 28.649 42.65 0 0 2.185-.668 4.936-2.623a24.3 24.3 0 0 0 5.153-4.944L-.827 1.219Z" style="fill:none;stroke:#1a2e35;stroke-width:1;stroke-linecap:round;stroke-linejoin:round;stroke-miterlimit:10;stroke-dasharray:none;stroke-opacity:1" transform="translate(338.565 207.41)"/><path d="m0 0-27.864-27.019-4.452-4.318c3.047 7.837 1.574 19.954 1.379 21.429l.001.018-.019.13c-.005.074-.009.157-.024.213-.171.655-.422 2.272-.701 4.479q-.09.737-.189 1.557-.102.822-.199 1.715c-.038.278-.066.574-.104.861-.011.122-.021.242-.043.353-.123 1.13-.261 2.335-.388 3.576-.034.342-.068.676-.112 1.019-.056.592-.12 1.194-.183 1.797-.013.092-.016.193-.029.295-.034.343-.077.696-.11 1.056-.076.704-.144 1.407-.219 2.121-.064.611-.119 1.222-.182 1.833-.114 1.148-.227 2.296-.334 3.406a165 165 0 0 0-.237 2.444c-.015.185-.033.361-.05.537-.42 4.396-.751 8.015-.867 9.559 0 0-10.004 14.821-11.039 21.804-1.025 6.982-.942 14.329 3.253 17.311 9.92 7.066 7.014-4.314 11.454-9.03 4.44-4.726 11.255-12.423 15.11-14.84 3.853-2.427 7.24-12.471 7.24-12.471 2.774-8.167 4.341-21.182 5.922-25.106C-1.404.812 0 0 0 0" style="fill:#fff;fill-opacity:1;fill-rule:nonzero;stroke:none" transform="translate(372.484 229.18)"/><path d="M0 0s2.909-2.163 3.837-4.847" style="fill:none;stroke:#1a2e35;stroke-width:1;stroke-linecap:round;stroke-linejoin:round;stroke-miterlimit:10;stroke-dasharray:none;stroke-opacity:1" transform="translate(368.07 239.415)"/><g clip-path="url(#Q)" opacity=".4"><path d="M0 0c4.422-4.715 11.212-12.374 15.073-14.819-.544.273-7.647 3.736-11.619-.115-4.13-4.017-7.122-15.151-7.122-15.151S-13.672-15.264-14.707-8.281c-1.025 6.983-.942 14.33 3.253 17.311C-1.534 16.096-4.44 4.717 0 0" style="fill:#5ae4a7;fill-opacity:1;fill-rule:nonzero;stroke:none" transform="translate(341.227 286.325)"/></g><g clip-path="url(#R)" opacity=".4"><path d="m0 0-4.452-4.318c3.048 7.837 1.574 19.954 1.38 21.428l.001.019c-.001.138-.022.25-.044.343-.171.655-.422 2.271-.7 4.478q-.091.737-.19 1.558-.102.822-.199 1.715c-.038.278-.066.574-.104.861-.01.121-.021.241-.043.353l-.387 3.576c-.034.341-.069.675-.113 1.018-.055.593-.12 1.195-.183 1.797-.013.093-.016.193-.028.296-.035.343-.078.695-.111 1.056-.076.704-.143 1.407-.219 2.121-.064.61-.119 1.221-.182 1.833-.113 1.147-.227 2.296-.334 3.406-.077.833-.155 1.656-.237 2.443-.015.186-.033.362-.049.538.278-1.315 5.348-25.449 8.243-31.074C3.142 11.318 2.124 5.833 0 0" style="fill:#5ae4a7;fill-opacity:1;fill-rule:nonzero;stroke:none" transform="translate(344.62 202.161)"/></g><path d="M0 0s-1.406.814-2.986 4.733C-4.565 8.652-6.133 21.671-8.908 29.84c0 0-3.388 10.046-7.243 12.467-3.857 2.421-10.664 10.119-15.108 14.838-4.442 4.719-1.536 16.1-11.458 9.035-4.187-2.981-4.274-10.332-3.246-17.312 1.027-6.979 11.039-21.805 11.039-21.805.413-5.135 3.053-33.298 3.943-36.603" style="fill:none;stroke:#1a2e35;stroke-width:1;stroke-linecap:round;stroke-linejoin:round;stroke-miterlimit:10;stroke-dasharray:none;stroke-opacity:1" transform="translate(372.485 229.177)"/><path d="M0 0s1.758-12.875-1.125-18.34" style="fill:none;stroke:#1a2e35;stroke-width:1;stroke-linecap:round;stroke-linejoin:round;stroke-miterlimit:10;stroke-dasharray:none;stroke-opacity:1" transform="translate(341.504 219.637)"/></g><g clip-path="url(#S)" transform="matrix(1.33333 0 0 -1.33333 0 666.667)"><g clip-path="url(#T)" opacity=".2"><g clip-path="url(#U)" opacity=".7"><path d="M0 0s6.33-29.391-7.385-50.775-24.263-27.085-29.011-33.466c-4.747-6.38-23.319-42.052-23.319-42.052l-21.7 64.27 21.7 79.51z" style="fill:#000;fill-opacity:1;fill-rule:nonzero;stroke:none" transform="translate(170.473 203.885)"/></g></g></g><path d="m0 0-134.56-56.63-13.87-5.841L-174.57-.36l-60.7 144.23 148.43 62.47z" style="fill:#fff;fill-opacity:1;fill-rule:nonzero;stroke:none" transform="matrix(1.33333 0 0 -1.33333 397.827 364.853)"/><g clip-path="url(#V)" transform="matrix(1.33333 0 0 -1.33333 0 666.667)"><path d="m0 0-64.072-26.965a2.362 2.362 0 1 1 1.833-4.355L1.833-4.355A2.363 2.363 0 0 1 0 0" style="fill:#1a2e35;fill-opacity:1;fill-rule:nonzero;stroke:none" transform="translate(173.18 405.855)"/><path d="m0 0-32.036-13.482a1.182 1.182 0 0 1 .916-2.178L.917-2.178A1.182 1.182 0 0 1 0 0" style="fill:#1a2e35;fill-opacity:1;fill-rule:nonzero;stroke:none" transform="translate(160.929 390.164)"/><path d="M0 0s1.352-10.615-2.601-12.278c-3.607-1.518-8.36 4.177-12.509 2.431-4.151-1.747-.875-16.793-4.878-18.478-4.002-1.684-8.823 4.498-12.275 3.046s-1.364-9.193-4.922-10.691c-2.937-1.236-7.141 4.917-10.501 6.267-.713.287-1.385.359-2.001.1-3.521-1.482-1.773-17.646-4.812-18.925a5.7 5.7 0 0 0-2.695-.441c-1.197.083-2.257.441-3.428.323a4.4 4.4 0 0 1-1.281-.328c-2.595-1.091-2.24-9.598-4.612-10.596s-4.713.239-7.245-.826c-2.532-1.067-2.49-5.489-6.265-7.078l1.597-3.793 92.107 38.763" style="fill:silver;fill-opacity:1;fill-rule:nonzero;stroke:#1a2e35;stroke-width:1;stroke-linecap:butt;stroke-linejoin:miter;stroke-miterlimit:10;stroke-dasharray:none;stroke-opacity:1" transform="translate(213.637 308.034)"/><path d="m0 0 18.648-44.311 96.438 40.585" style="fill:none;stroke:#1a2e35;stroke-width:1;stroke-linecap:round;stroke-linejoin:round;stroke-miterlimit:10;stroke-dasharray:none;stroke-opacity:1" transform="translate(116.56 281.079)"/><path d="M0 0s-.454.56-1.136 1.222c-1.192 1.15-3.084 2.612-4.52 2.007-1.406-.591-1.531-2.927-1.503-5.422.034-3.036.298-6.305-1.228-6.947-1.299-.546-2.465.276-3.659 1.172-1.367 1.023-2.773 2.139-4.456 1.431-2.845-1.197-1.977-4.901-2.979-8.071-.509-1.621-1.51-3.101-3.741-4.041-2.457-1.034-4.948-.019-7.293 1.583-3.963 2.703-7.52 7.077-9.825 6.107-3.667-1.544.377-11.469-3.566-13.129-2.203-.927-6.762 6.022-11.191 11.994-3.501 4.728-6.924 8.844-9.027 7.96-4.755-2.002 3.081-25.731-.376-27.185q-.052-.023-.105-.041c-1.438-.568-2.499-.208-3.428.323-1.247.706-2.26 1.707-3.637 1.128-2.546-1.072-1.053-10.375-3.86-11.557-2.811-1.182-4.49.528-7.649-.802-2.673-1.124-4.257-7.596-4.257-7.596l1.597-3.793L6.269-14.895" style="fill:#767676;fill-opacity:1;fill-rule:nonzero;stroke:#1a2e35;stroke-width:1;stroke-linecap:round;stroke-linejoin:round;stroke-miterlimit:10;stroke-dasharray:none;stroke-opacity:1" transform="translate(221.047 290.425)"/><path d="m0 0-32.036-13.482a1.182 1.182 0 0 1 .916-2.178L.917-2.178A1.181 1.181 0 0 1 0 0" style="fill:#1a2e35;fill-opacity:1;fill-rule:nonzero;stroke:none" transform="translate(201.555 258.79)"/><path d="m0 0-3.095-1.302a.626.626 0 0 0-.821.334l-1.302 3.095a.626.626 0 0 0 .334.82l3.095 1.303a.63.63 0 0 0 .821-.334L.334.82A.625.625 0 0 0 0 0" style="fill:silver;fill-opacity:1;fill-rule:nonzero;stroke:none" transform="translate(228.72 307.634)"/><path d="m0 0-3.095-1.302a.626.626 0 0 0-.821.334l-1.302 3.095a.626.626 0 0 0 .334.82l3.095 1.303a.63.63 0 0 0 .821-.334L.334.82A.625.625 0 0 0 0 0Z" style="fill:none;stroke:#1a2e35;stroke-width:1;stroke-linecap:butt;stroke-linejoin:miter;stroke-miterlimit:10;stroke-dasharray:none;stroke-opacity:1" transform="translate(228.72 307.634)"/><path d="m0 0-12.803-5.388a.53.53 0 1 0-.411.976L-.411.977A.53.53 0 0 0 0 0" style="fill:#1a2e35;fill-opacity:1;fill-rule:nonzero;stroke:none" transform="translate(243.668 317.103)"/><path d="m0 0-8.897-3.744a.53.53 0 0 0-.693.283c-.114.27.012.58.282.693L-.411.977A.531.531 0 0 0 0 0" style="fill:#1a2e35;fill-opacity:1;fill-rule:nonzero;stroke:none" transform="translate(240.657 313.334)"/><path d="m0 0-3.095-1.303a.63.63 0 0 0-.821.335l-1.302 3.094a.626.626 0 0 0 .334.821l3.095 1.303a.63.63 0 0 0 .821-.335L.334.82A.626.626 0 0 0 0 0" style="fill:#767676;fill-opacity:1;fill-rule:nonzero;stroke:none" transform="translate(232.726 298.116)"/><path d="m0 0-3.095-1.303a.63.63 0 0 0-.821.335l-1.302 3.094a.626.626 0 0 0 .334.821l3.095 1.303a.63.63 0 0 0 .821-.335L.334.82A.626.626 0 0 0 0 0" style="fill:none;stroke:#1a2e35;stroke-width:1;stroke-linecap:round;stroke-linejoin:round;stroke-miterlimit:10;stroke-dasharray:none;stroke-opacity:1" transform="translate(232.726 298.116)"/><path d="m0 0-12.803-5.388a.53.53 0 1 0-.411.976L-.411.977A.531.531 0 0 0 0 0" style="fill:#1a2e35;fill-opacity:1;fill-rule:nonzero;stroke:none" transform="translate(247.674 307.584)"/><path d="m0 0-8.896-3.744a.53.53 0 0 0-.412.976L-.411.977A.53.53 0 0 0 0 0" style="fill:#1a2e35;fill-opacity:1;fill-rule:nonzero;stroke:none" transform="translate(244.662 303.815)"/><path d="m0 0-103.991-43.764a1.182 1.182 0 0 1 .916-2.178L.916-2.178A1.181 1.181 0 1 1 0 0" style="fill:#1a2e35;fill-opacity:1;fill-rule:nonzero;stroke:none" transform="translate(264.51 268.344)"/><path d="m0 0-120.921-50.89a1.182 1.182 0 1 1 .916-2.177L.917-2.178A1.18 1.18 0 1 1 0 0" style="fill:#1a2e35;fill-opacity:1;fill-rule:nonzero;stroke:none" transform="translate(267.806 260.514)"/><path d="m0 0-120.922-50.889a1.181 1.181 0 0 1 .917-2.178L.916-2.178A1.182 1.182 0 0 1 0 0" style="fill:#1a2e35;fill-opacity:1;fill-rule:nonzero;stroke:none" transform="translate(271.102 252.683)"/><path d="m0 0-120.921-50.89a1.182 1.182 0 1 1 .916-2.177L.917-2.178A1.182 1.182 0 0 1 0 0" style="fill:#1a2e35;fill-opacity:1;fill-rule:nonzero;stroke:none" transform="translate(274.397 244.852)"/><path d="m0 0-70.13-29.515a1.181 1.181 0 1 1 .917-2.177L.917-2.178A1.181 1.181 0 0 1 0 0" style="fill:#1a2e35;fill-opacity:1;fill-rule:nonzero;stroke:none" transform="translate(226.9 215.648)"/><path d="M0 0s1.352-10.614-2.601-12.278c-3.607-1.518-8.361 4.177-12.509 2.431-4.151-1.747-.876-16.793-4.878-18.477s-8.824 4.498-12.275 3.045c-3.451-1.452-1.364-9.193-4.923-10.69-2.937-1.236-7.14 4.916-10.501 6.266-.712.287-1.384.359-2 .1-3.521-1.482-1.774-17.646-4.812-18.924a5.7 5.7 0 0 0-2.696-.442c-1.196.084-2.256.441-3.427.323a4.4 4.4 0 0 1-1.282-.327c-2.594-1.092-2.24-9.598-4.612-10.597s-4.712.239-7.244-.826c-2.532-1.066-2.49-5.488-6.265-7.077l1.596-3.794 92.108 38.764" style="fill:silver;fill-opacity:1;fill-rule:nonzero;stroke:#1a2e35;stroke-width:1;stroke-linecap:butt;stroke-linejoin:miter;stroke-miterlimit:10;stroke-dasharray:none;stroke-opacity:1" transform="translate(188.276 368.295)"/><path d="M0 0s.844-5.145-1.193-6.002c-1.689-.711-2.727.279-4.508.345-.71.028-1.539-.093-2.576-.53-1.628-.685-2.023-2.881-2.312-5.245-.355-2.906-.544-6.064-2.672-6.959-1.489-.627-3.099-.261-4.763.319-2.644.922-5.428 2.38-8.112 1.251-1.301-.548-2.214-1.964-2.922-3.709-1.669-4.131-2.194-10.113-4.002-10.874-2.571-1.082-7.279 3.338-9.562 2.377-2.282-.96-1.347-4.926-3.199-5.705-1.852-.78-2.909 1.52-6.17.148-3.262-1.374-1.673-6.188-6.268-8.122s-6.615 1.623-11.064-.249c-4.446-1.871-3.639-5.242-6.773-6.561s-4.459.974-6.705.029c-2.175-.916-2.773-4.494-2.808-4.717l1.227-2.918L7.726-18.358" style="fill:#5ae4a7;fill-opacity:1;fill-rule:nonzero;stroke:#1a2e35;stroke-width:1;stroke-linecap:butt;stroke-linejoin:miter;stroke-miterlimit:10;stroke-dasharray:none;stroke-opacity:1" transform="translate(194.229 354.15)"/><path d="m0 0 18.648-44.312 96.438 40.586" style="fill:none;stroke:#1a2e35;stroke-width:1;stroke-linecap:round;stroke-linejoin:round;stroke-miterlimit:10;stroke-dasharray:none;stroke-opacity:1" transform="translate(91.2 341.34)"/><path d="m0 0-32.036-13.482a1.181 1.181 0 1 1 .916-2.178L.917-2.178A1.182 1.182 0 0 1 0 0" style="fill:#1a2e35;fill-opacity:1;fill-rule:nonzero;stroke:none" transform="translate(175.904 319.739)"/><path d="m0 0-3.095-1.303a.626.626 0 0 0-.82.335l-1.303 3.095a.626.626 0 0 0 .335.82l3.094 1.303a.627.627 0 0 0 .821-.334L.334.82A.625.625 0 0 0 0 0" style="fill:silver;fill-opacity:1;fill-rule:nonzero;stroke:none" transform="translate(201.74 371.742)"/><path d="m0 0-3.095-1.303a.626.626 0 0 0-.82.335l-1.303 3.095a.626.626 0 0 0 .335.82l3.094 1.303a.627.627 0 0 0 .821-.334L.334.82A.625.625 0 0 0 0 0Z" style="fill:none;stroke:#1a2e35;stroke-width:1;stroke-linecap:butt;stroke-linejoin:miter;stroke-miterlimit:10;stroke-dasharray:none;stroke-opacity:1" transform="translate(201.74 371.742)"/><path d="m0 0-12.803-5.388a.53.53 0 1 0-.411.976L-.411.977A.53.53 0 0 0 0 0" style="fill:#1a2e35;fill-opacity:1;fill-rule:nonzero;stroke:none" transform="translate(216.689 381.21)"/><path d="m0 0-8.896-3.744a.53.53 0 0 0-.412.976L-.411.977A.53.53 0 0 0 0 0" style="fill:#1a2e35;fill-opacity:1;fill-rule:nonzero;stroke:none" transform="translate(213.677 377.441)"/><path d="m0 0-3.095-1.303a.63.63 0 0 0-.821.335l-1.302 3.095a.626.626 0 0 0 .334.82l3.095 1.303a.63.63 0 0 0 .821-.334L.334.82A.626.626 0 0 0 0 0" style="fill:#5ae4a7;fill-opacity:1;fill-rule:nonzero;stroke:none" transform="translate(205.746 362.224)"/><path d="m0 0-3.095-1.303a.63.63 0 0 0-.821.335l-1.302 3.095a.626.626 0 0 0 .334.82l3.095 1.303a.63.63 0 0 0 .821-.334L.334.82A.626.626 0 0 0 0 0Z" style="fill:none;stroke:#1a2e35;stroke-width:1;stroke-linecap:butt;stroke-linejoin:miter;stroke-miterlimit:10;stroke-dasharray:none;stroke-opacity:1" transform="translate(205.746 362.224)"/><path d="m0 0-12.803-5.388a.53.53 0 0 0-.411.976L-.411.977A.53.53 0 0 0 0 0" style="fill:#1a2e35;fill-opacity:1;fill-rule:nonzero;stroke:none" transform="translate(220.694 371.692)"/><path d="m0 0-8.896-3.744a.529.529 0 1 0-.412.976L-.411.976A.53.53 0 1 0 0 0" style="fill:#1a2e35;fill-opacity:1;fill-rule:nonzero;stroke:none" transform="translate(217.683 367.924)"/><g clip-path="url(#W)" opacity=".2"><g clip-path="url(#X)" opacity=".7"><path d="m0 0-13.87-5.841-26.14 62.111c1.64 1.559 3.56 4.23 4.37 8.57 1.56 8.319.46 35.07 21.29 37.829 20.82 2.761 3.26-44.079 4.22-53.01C-9.25 41.529 2.62 17.899 0 0" style="fill:#000;fill-opacity:1;fill-rule:nonzero;stroke:none" transform="translate(163.81 169.73)"/></g></g></g><path d="m0 0-134.56-56.63-13.87-5.841L-174.57-.36l-60.7 144.23 148.43 62.47z" style="fill:none;stroke:#1a2e35;stroke-width:1;stroke-linecap:round;stroke-linejoin:round;stroke-miterlimit:10;stroke-dasharray:none;stroke-opacity:1" transform="matrix(1.33333 0 0 -1.33333 397.827 364.853)"/><g clip-path="url(#Y)" transform="matrix(1.33333 0 0 -1.33333 0 666.667)"><path d="M0 0c2.334 7.983 11.455 33.613 10.258 44.944a11 11 0 0 1-.638 2.759c-3.202 8.462-16.285 7.642-21.307.631-5.517-7.711-10.024-21.586-10.408-30.031-.211-4.669-2.212-8.953-3.957-11.857-.009-.018-.008-.028-.017-.038-1.41-2.338-2.647-3.759-2.647-3.759l-29.847 70.819s-4.821-3.895-7.811-8.717c-1.206-1.935-2.112-4.031-2.293-6.07-.612-6.975-8.513-35.634-11.797-47.729-.063-.261-.136-.502-.2-.744-3.157-11.621 5.181-54.782 2.796-67.318-2.393-12.528-3.866-12.258-4.214-21.161-.253-6.5-9.553-26.264-19.971-46.552-5.974-11.627-12.319-23.416-17.548-32.97l76.32 3.17a2501 2501 0 0 1 3.917 28.533c.509 3.901 1.335 7.906 2.28 11.714v.01c1.685 6.798 3.736 12.95 4.984 16.551 1.954 5.624 3.983 16.095 3.983 16.095 8.875 9.395 20.515 24.163 23.887 34.167l.025.066c.851 2.526 1.163 4.745.76 6.493-.336 1.438-.524 3.306-.604 5.463.009.01.009.01-.001.018C-4.435-24.682-1.958-6.654 0 0" style="fill:#fff;fill-opacity:1;fill-rule:nonzero;stroke:none" transform="translate(155.431 216.005)"/><g clip-path="url(#Z)" opacity=".4"><path d="M0 0c-2.368-4.749-5.219-9.362-7.038-14.688-1.82-5.324-3.774-6.076-9.116-10.241-5.343-4.166-9.24 2.696-9.24 2.696s7.067 7.343 4.719 11.428C-23.033-6.711-31.82 3.459-31.3 9.069c.512 5.611-5.333 18.191-5.333 18.191s13.326 7.824 10.74 16.965c-1.412 5.006-8.39 10.333-14.412 14.118 2.99 4.822 7.81 8.717 7.81 8.717L-2.647-3.759S-1.411-2.338 0 0" style="fill:#5ae4a7;fill-opacity:1;fill-rule:nonzero;stroke:none" transform="translate(129.362 222.413)"/></g><g clip-path="url(#aa)" opacity=".4"><path d="M0 0c.181-.6 4.518-14.934.859-20.904-3.745-6.104-7.421-13.886-5.631-21.992 1.427-6.477-10.572-29.882-22.808-44.896C-17.162-67.504-7.862-47.74-7.608-41.24c.347 8.903 1.82 8.634 4.213 21.161C-1.01-7.543-9.348 35.618-6.19 47.239c.063.242.136.484.199.744C-3.661 34.815 1.767 8.585 3.257.153 5.155-10.587.202-.424 0 0" style="fill:#5ae4a7;fill-opacity:1;fill-rule:nonzero;stroke:none" transform="translate(80.958 178.974)"/></g><g clip-path="url(#ab)" opacity=".4"><path d="M0 0c8.866 38.186 38.719 67.471 42.761 75.949C39.39 65.945 27.75 51.177 18.874 41.782c0 0-2.029-10.471-3.983-16.095-1.247-3.601-3.299-9.753-4.984-16.551v-.01C1.24-1.088 0 0 0 0" style="fill:#5ae4a7;fill-opacity:1;fill-rule:nonzero;stroke:none" transform="translate(108.44 92.503)"/></g><g clip-path="url(#ac)" opacity=".4"><path d="M0 0c-1.958-6.654-4.435-24.682-4.05-35.513-1.569 6.801-4.594 15.436-5.093 27.466-.847 20.4 10.708 13.085 6.678 23.13-4.029 10.036-15.518-2.832-9.857 18.444C-8.187 49.059 3.576 48.913 9.62 47.703c.31-.824.531-1.743.638-2.759C11.455 33.613 2.334 7.983 0 0" style="fill:#5ae4a7;fill-opacity:1;fill-rule:nonzero;stroke:none" transform="translate(155.431 216.005)"/></g><path d="M0 0c9.573 17.485 18.877 35.475 25.585 54.879.803 2.791-.267 6.424.537 9.215 9.065 25.195-1.217 51.426.469 77.234 1.416 10.17 4.667 20.417 7.919 30.664 1.53 7.417 2.105 15.714 4.553 23.169 2.524 5.62 5.01 12.158 10.369 15.037 10.2-23.375 20.367-46.852 29.847-70.818 4.282 2.475 4.971 8.019 5.698 12.646 2.295 11.126 4.629 21.334 8.836 30.702 4.284 7.531 15.181 10.742 21.872 4.585 1.911-1.759 2.943-4.474 3.058-7.227-1.303-12.923-5.357-25.961-9.45-38.081-1.606-5.582-3.251-10.246-3.94-15.79l.19-4.589c-2.371-9.29-.193-17.473-.73-26.688-2.066-16.631-15.374-28.215-24.973-40.564-2.371-9.29-4.743-18.581-8.033-27.91-4.016-13.955-5.28-27.796-6.65-41.249" style="fill:none;stroke:#1a2e35;stroke-width:1;stroke-linecap:round;stroke-linejoin:round;stroke-miterlimit:10;stroke-dasharray:none;stroke-opacity:1" transform="translate(47.435 79.274)"/><path d="M0 0s-3.144-6.027-4.395-10.928c-1.251-4.9-7.584-4.193-10.851-7.238" style="fill:none;stroke:#1a2e35;stroke-width:1;stroke-linecap:round;stroke-linejoin:round;stroke-miterlimit:10;stroke-dasharray:none;stroke-opacity:1" transform="translate(126.717 218.653)"/><path d="M0 0s8.611-3.036 13.623-6.95c5.011-3.913 8.72-4.868 8.72-4.868" style="fill:none;stroke:#1a2e35;stroke-width:1;stroke-linecap:round;stroke-linejoin:round;stroke-miterlimit:10;stroke-dasharray:none;stroke-opacity:1" transform="translate(102.843 227.281)"/><path d="M0 0s6.948-1.948 12.101.502c0 0 .382 4.256 1.306 7.387" style="fill:none;stroke:#1a2e35;stroke-width:1;stroke-linecap:round;stroke-linejoin:round;stroke-miterlimit:10;stroke-dasharray:none;stroke-opacity:1" transform="translate(97.35 248.63)"/><path d="M0 0s.072-.969 3.615-1.009" style="fill:none;stroke:#1a2e35;stroke-width:1;stroke-linecap:round;stroke-linejoin:round;stroke-miterlimit:10;stroke-dasharray:none;stroke-opacity:1" transform="translate(111.106 248.123)"/><path d="M0 0s-6.775-6.147-10.921-17.229" style="fill:none;stroke:#1a2e35;stroke-width:1;stroke-linecap:round;stroke-linejoin:round;stroke-miterlimit:10;stroke-dasharray:none;stroke-opacity:1" transform="translate(127.313 134.28)"/><path d="M0 0c-.311-5.987 6.723-27.275 8.859-37.854s2.932-18.061 2.932-18.061" style="fill:none;stroke:#1a2e35;stroke-width:1;stroke-linecap:round;stroke-linejoin:round;stroke-miterlimit:10;stroke-dasharray:none;stroke-opacity:1" transform="translate(74.355 224.076)"/></g></svg>