<svg xmlns="http://www.w3.org/2000/svg" width="512" height="512" style="shape-rendering:geometricPrecision;text-rendering:geometricPrecision;image-rendering:optimizeQuality;fill-rule:evenodd;clip-rule:evenodd"><path fill="#728bab" d="M262.5 58.5q-4.842 1.37-10 1 12.801-32.663 48-29.5 15.04 5.33 10.5 20.5-3.096 1.637-6.5.5.677-12.318-11.5-13.5-20.55 2.893-30.5 21" style="opacity:.911"/><path fill="#738bab" d="M262.5 58.5a419 419 0 0 1 49 1.5q7.265 6.57 1 14a10.1 10.1 0 0 1-4 1.5h-56q-7.292-.512-8-8 .734-7.586 8-8 5.158.37 10-1" style="opacity:.946"/><path fill="#738bab" d="M342.5 67.5a18.4 18.4 0 0 1 6 .5q9.973 7.685 14.5 19.5.867 9.139-7.5 5.5-4.316-11.832-14.5-19.5-1.122-3.51 1.5-6" style="opacity:.907"/><path fill="#738bab" d="M252.5 75.5h10q9.145 18.596 30 21 8.348.595 11-7-1.935-7.87-7-14h12a56.3 56.3 0 0 1 4 14q-2.355 17.212-20 16-22.264-2.007-35.5-20a67 67 0 0 1-4.5-10m10 0h34q5.065 6.13 7 14-2.651 7.595-11 7-20.855-2.404-30-21" style="opacity:.917"/><path fill="#728dac" d="M358.5 110.5q5.938-1.383 7 4.5-3.311 13.79-13 24-10.036 4.337-7.5-6.5 9.44-9.386 13.5-22" style="opacity:.89"/><path fill="#738baa" d="M331.5 141.5q9.334 1.119 4 9a136.5 136.5 0 0 1-25 8q-7.671-2.264-3-8.5 12.74-2.66 24-8.5" style="opacity:.906"/><path fill="#728bab" d="M235.5 151.5a61 61 0 0 1 11 .5q2 3.5 0 7a204 204 0 0 0-26 6.5q-5.881-2.12-3-8 8.873-3.952 18-6" style="opacity:.893"/><path fill="#738bab" d="M262.5 150.5q14.45 1.132 29 1.5 4 4 0 8-15.577 1.305-31-1-2.586-5.304 2-8.5" style="opacity:.89"/><path fill="#728bab" d="M206.5 167.5q7.765-1.196 13.5 4a5168 5168 0 0 0 38.5 56.5 8307 8307 0 0 0 154 50.5 543 543 0 0 0 36-52 7.25 7.25 0 0 0-2-2.5A18557 18557 0 0 0 301 176.5q-2.407.901-4 3l-27 40q-8.32 3.682-8-5a3217 3217 0 0 1 30.5-44.5q5.577-3.447 12-2l118 38a246 246 0 0 1 31 11.5q6.108 6.645 2.5 15a2153 2153 0 0 0-34.5 52 2852 2852 0 0 1 39.5 60q3.711 11.82-7.5 16.5a400 400 0 0 1-34 10.5q.25 34.004-.5 68-3.25 9.25-12.5 12.5l-148 44q-7.153.468-14-2l-140-42q-9.25-3.25-12.5-12.5a757 757 0 0 1 0-55q3.096-1.637 6.5-.5a1198 1198 0 0 1 1.5 48.5q.618 5.987 5.5 9.5a12226 12226 0 0 0 148 45q4.06.492 8-1l140-42q8.064-3.06 9.5-11.5a841 841 0 0 0 0-58 8517 8517 0 0 1-98.5 32.5q-9.055 3.699-16.5-2.5a852 852 0 0 1-33.5-51.5q.988-6.124 7-4a3484 3484 0 0 1 31.5 46.5q1.542 2.792 4.5 4a37768 37768 0 0 0 146.5-48q1-2.5 0-5a5601 5601 0 0 0-40.5-58.5 20486 20486 0 0 1-153-50q-4.587-.686-9 1l-122 40q-5.396 1.915-11 1-2.662-5.09 2-8a5839 5839 0 0 0 129-42.5 2128 2128 0 0 1-30.5-46q-2.519-4.52-7-7A18557 18557 0 0 0 64.5 224q-3.701 2.382-.5 5.5A1440 1440 0 0 0 99.5 281a42611 42611 0 0 0 156 50.5 31315 31315 0 0 1 134-43.5q9.226-2.52 7 6.5a10611 10611 0 0 1-138 46 3310 3310 0 0 0-43.5 64q-7.445 6.199-16.5 2.5a18451 18451 0 0 1-145-48q-5.708-6.136-3.5-14.5a1751 1751 0 0 1 31-47q9.48-7.057 8 5l-30 44q-1.114 2.911.5 5.5a37262 37262 0 0 1 146 47.5 7.3 7.3 0 0 0 3-2 3507 3507 0 0 1 40-58.5 21289 21289 0 0 1-156-51A4634 4634 0 0 0 56 234.5q-6.65-12.538 5.5-19.5 72.81-23.355 145-47.5" style="opacity:.92"/><path fill="#728bab" d="M198.5 187.5q3.124-.042 5.5 2a100.2 100.2 0 0 1 0 20q-5.232 4.443-8-2a72.5 72.5 0 0 1 0-17 10.5 10.5 0 0 0 2.5-3" style="opacity:.871"/><path fill="#728cab" d="M203.5 220.5q3.438-.384 6.5 1a37.9 37.9 0 0 0 6 10q1.968 5.584-3.5 7-2.811.166-4.5-2a196 196 0 0 1-6.5-11.5 27.7 27.7 0 0 1 2-4.5" style="opacity:.878"/><path fill="#738bab" d="M253.5 244.5a8896 8896 0 0 1 124 39.5 5225 5225 0 0 1-122 40.5 5225 5225 0 0 1-122-40.5 5056 5056 0 0 0 120-39.5" style="opacity:.981"/></svg>