<?xml version="1.0" encoding="UTF-8" standalone="no"?>
<!-- Created with Inkscape (http://www.inkscape.org/) -->

<svg
   version="1.1"
   id="svg2"
   width="666.66669"
   height="666.66669"
   viewBox="0 0 666.66669 666.66669"
   sodipodi:docname="8447284.ai"
   xmlns:inkscape="http://www.inkscape.org/namespaces/inkscape"
   xmlns:sodipodi="http://sodipodi.sourceforge.net/DTD/sodipodi-0.dtd"
   xmlns="http://www.w3.org/2000/svg"
   xmlns:svg="http://www.w3.org/2000/svg">
  <defs
     id="defs6">
    <clipPath
       clipPathUnits="userSpaceOnUse"
       id="clipPath16">
      <path
         d="M 0,500 H 500 V 0 H 0 Z"
         id="path14" />
    </clipPath>
    <clipPath
       clipPathUnits="userSpaceOnUse"
       id="clipPath28">
      <path
         d="M 10.0645,476.396 H 478.263 V 20.6017 H 10.0645 Z"
         id="path26" />
    </clipPath>
    <clipPath
       clipPathUnits="userSpaceOnUse"
       id="clipPath44">
      <path
         d="M 0,500 H 500 V 0 H 0 Z"
         id="path42" />
    </clipPath>
    <clipPath
       clipPathUnits="userSpaceOnUse"
       id="clipPath56">
      <path
         d="M 0,500 H 500 V 0 H 0 Z"
         id="path54" />
    </clipPath>
    <clipPath
       clipPathUnits="userSpaceOnUse"
       id="clipPath156">
      <path
         d="M 0,500 H 500 V 0 H 0 Z"
         id="path154" />
    </clipPath>
    <clipPath
       clipPathUnits="userSpaceOnUse"
       id="clipPath216">
      <path
         d="M 0,500 H 500 V 0 H 0 Z"
         id="path214" />
    </clipPath>
    <clipPath
       clipPathUnits="userSpaceOnUse"
       id="clipPath392">
      <path
         d="m 202.776,450.552 h 70.847 v -29.427 h -70.847 z"
         id="path390" />
    </clipPath>
    <clipPath
       clipPathUnits="userSpaceOnUse"
       id="clipPath604">
      <path
         d="M 0,500 H 500 V 0 H 0 Z"
         id="path602" />
    </clipPath>
  </defs>
  <sodipodi:namedview
     id="namedview4"
     pagecolor="#ffffff"
     bordercolor="#000000"
     borderopacity="0.25"
     inkscape:showpageshadow="2"
     inkscape:pageopacity="0.0"
     inkscape:pagecheckerboard="0"
     inkscape:deskcolor="#d1d1d1" />
  <g
     id="g8"
     inkscape:groupmode="layer"
     inkscape:label="8447284"
     transform="matrix(1.3333333,0,0,-1.3333333,0,666.66667)">
    <g
       id="g10">
      <g
         id="g12"
         clip-path="url(#clipPath16)">
        <g
           id="g18"
           transform="translate(477.958,268.965)">
          <path
             d="m 0,0 c -3.052,59.894 -28.029,119.624 -73.055,160.014 -70.785,63.499 -208.676,62.143 -281.327,2.401 -25.196,-20.719 -40.033,-48.096 -45.826,-79.856 -6.201,-33.994 1.905,-70.923 -11.434,-103.656 -11.457,-28.114 -39.71,-45.345 -50.183,-73.789 -12.504,-33.957 -5.821,-77.105 21.316,-102.341 34.763,-32.325 96.798,-44.787 142.505,-49.499 139.612,-14.392 286.814,66.715 297.719,218.282 C 0.396,-18.98 0.483,-9.475 0,0"
             style="fill:#75e6a4;fill-opacity:1;fill-rule:nonzero;stroke:none"
             id="path20" />
        </g>
        <g
           id="g22">
          <g
             id="g24" />
          <g
             id="g36">
            <g
               clip-path="url(#clipPath28)"
               opacity="0.699997"
               id="g34">
              <g
                 transform="translate(477.958,268.965)"
                 id="g32">
                <path
                   d="m 0,0 c -3.052,59.894 -28.029,119.624 -73.055,160.014 -70.785,63.499 -208.676,62.143 -281.327,2.401 -25.196,-20.719 -40.033,-48.096 -45.826,-79.856 -6.201,-33.994 1.905,-70.923 -11.434,-103.656 -11.457,-28.114 -39.71,-45.345 -50.183,-73.789 -12.504,-33.957 -5.821,-77.105 21.316,-102.341 34.763,-32.325 96.798,-44.787 142.505,-49.499 139.612,-14.392 286.814,66.715 297.719,218.282 C 0.396,-18.98 0.483,-9.475 0,0"
                   style="fill:#ffffff;fill-opacity:1;fill-rule:nonzero;stroke:none"
                   id="path30" />
              </g>
            </g>
          </g>
        </g>
      </g>
    </g>
    <g
       id="g38">
      <g
         id="g40"
         clip-path="url(#clipPath44)">
        <g
           id="g46"
           transform="translate(419.1893,454.6109)">
          <path
             d="m 0,0 c 0,-13.279 -10.765,-24.044 -24.044,-24.044 -13.28,0 -24.045,10.765 -24.045,24.044 0,13.279 10.765,24.044 24.045,24.044 C -10.765,24.044 0,13.279 0,0"
             style="fill:#75e6a4;fill-opacity:1;fill-rule:nonzero;stroke:none"
             id="path48" />
        </g>
      </g>
    </g>
    <g
       id="g50">
      <g
         id="g52"
         clip-path="url(#clipPath56)">
        <g
           id="g58"
           transform="translate(359.1343,409.9798)">
          <path
             d="M 0,0 C 0,0 -6.915,9.796 -17.287,10.372 -27.659,10.949 -33.998,0 -36.879,-2.305 -39.76,-4.61 -42.641,1.152 -47.827,0.576 -53.014,0 -55.895,-5.186 -57.623,-6.915 c -1.729,-1.728 -6.339,1.729 -11.525,1.729 -5.186,0 -7.491,-4.034 -9.796,-6.339 -2.305,-2.305 -8.644,-4.033 -8.644,-4.033 H 28.236 c 0,0 -1.729,7.491 -7.491,12.101 C 14.982,1.152 10.372,-2.305 6.915,-2.881 3.457,-3.457 0,0 0,0 Z"
             style="fill:none;stroke:#233239;stroke-width:1;stroke-linecap:butt;stroke-linejoin:miter;stroke-miterlimit:10;stroke-dasharray:none;stroke-opacity:1"
             id="path60" />
        </g>
        <g
           id="g62"
           transform="translate(94.6857,456.8912)">
          <path
             d="M 0,0 C 0,0 -5.085,7.203 -12.711,7.627 -20.338,8.05 -24.998,0 -27.117,-1.695 c -2.119,-1.695 -4.237,2.542 -8.05,2.119 -3.814,-0.424 -5.932,-4.237 -7.203,-5.509 -1.271,-1.271 -4.661,1.272 -8.474,1.272 -3.814,0 -5.508,-2.966 -7.203,-4.661 -1.695,-1.695 -6.356,-2.966 -6.356,-2.966 h 85.164 c 0,0 -1.271,5.508 -5.508,8.898 C 11.016,0.847 7.627,-1.695 5.084,-2.119 2.542,-2.542 0,0 0,0 Z"
             style="fill:none;stroke:#233239;stroke-width:1;stroke-linecap:butt;stroke-linejoin:miter;stroke-miterlimit:10;stroke-dasharray:none;stroke-opacity:1"
             id="path64" />
        </g>
        <g
           id="g66"
           transform="translate(153.1887,438.8337)">
          <path
             d="M 0,0 C 0,0 -5.085,7.203 -12.711,7.627 -20.338,8.05 -24.999,0 -27.117,-1.695 c -2.119,-1.695 -4.237,2.542 -8.05,2.119 -3.814,-0.424 -5.932,-4.237 -7.203,-5.509 -1.271,-1.271 -4.661,1.272 -8.474,1.272 -3.814,0 -5.509,-2.966 -7.203,-4.661 -1.695,-1.695 -6.356,-2.966 -6.356,-2.966 h 85.164 c 0,0 -1.271,5.508 -5.508,8.898 C 11.016,0.847 7.627,-1.695 5.084,-2.118 2.542,-2.542 0,0 0,0 Z"
             style="fill:none;stroke:#233239;stroke-width:1;stroke-linecap:butt;stroke-linejoin:miter;stroke-miterlimit:10;stroke-dasharray:none;stroke-opacity:1"
             id="path68" />
        </g>
      </g>
    </g>
    <g
       id="g70"
       transform="translate(397.1439,283.9783)">
      <path
         d="m 0,0 v 123.991 h 11.497 v 12.783 h 34.492 v -10.226 h 9.034 V -85.644 H 79.66 v -37.069 h 15.603"
         style="fill:none;stroke:#233239;stroke-width:1;stroke-linecap:butt;stroke-linejoin:miter;stroke-miterlimit:10;stroke-dasharray:none;stroke-opacity:1"
         id="path72" />
    </g>
    <g
       id="g74"
       transform="translate(285.4563,267.3608)">
      <path
         d="M 0,0 V 95.87 H 23.816 V 72.861 h 11.497 v 33.235 H 60.771 V -37.07 H 82.123 V -88.2 h 17.246 v 79.252 h 12.319 V 7.67"
         style="fill:none;stroke:#233239;stroke-width:1;stroke-linecap:butt;stroke-linejoin:miter;stroke-miterlimit:10;stroke-dasharray:none;stroke-opacity:1"
         id="path76" />
    </g>
    <g
       id="g78"
       transform="translate(195.9419,331.2739)">
      <path
         d="m 0,0 v -170.009 h 13.961 v 99.705 h 19.71 v -84.366 h 55.843 v 75.418"
         style="fill:none;stroke:#233239;stroke-width:1;stroke-linecap:butt;stroke-linejoin:miter;stroke-miterlimit:10;stroke-dasharray:none;stroke-opacity:1"
         id="path80" />
    </g>
    <g
       id="g82"
       transform="translate(152.4167,206.0043)">
      <path
         d="M 0,0 V 209.635 H 43.525 V 139.331"
         style="fill:none;stroke:#233239;stroke-width:1;stroke-linecap:butt;stroke-linejoin:miter;stroke-miterlimit:10;stroke-dasharray:none;stroke-opacity:1"
         id="path84" />
    </g>
    <g
       id="g86"
       transform="translate(67.8297,267.3608)">
      <path
         d="M 0,0 V -24.287 H 12.319 V 85.644 H 61.592 V -84.365 h 22.995 v 16.617"
         style="fill:none;stroke:#233239;stroke-width:1;stroke-linecap:butt;stroke-linejoin:miter;stroke-miterlimit:10;stroke-dasharray:none;stroke-opacity:1"
         id="path88" />
    </g>
    <g
       id="g90"
       transform="translate(14.4497,161.2651)">
      <path
         d="M 0,0 H 18.067 V 158.504 H 53.38 v -39.626"
         style="fill:none;stroke:#233239;stroke-width:1;stroke-linecap:butt;stroke-linejoin:miter;stroke-miterlimit:10;stroke-dasharray:none;stroke-opacity:1"
         id="path92" />
    </g>
    <g
       id="g94"
       transform="translate(443.2335,282.8662)">
      <path
         d="m 0,0 v -90.834 h 22.899 v -22.899"
         style="fill:none;stroke:#233239;stroke-width:1;stroke-linecap:butt;stroke-linejoin:miter;stroke-miterlimit:10;stroke-dasharray:none;stroke-opacity:1"
         id="path96" />
    </g>
    <g
       id="g98"
       transform="translate(434.8371,414.1555)">
      <path
         d="m 0,0 v -12.976 h 8.396 v -103.81"
         style="fill:none;stroke:#233239;stroke-width:1;stroke-linecap:butt;stroke-linejoin:miter;stroke-miterlimit:10;stroke-dasharray:none;stroke-opacity:1"
         id="path100" />
    </g>
    <g
       id="g102"
       transform="translate(337.1335,236.3043)">
      <path
         d="M 0,0 V -15.266 H 19.846 V -36.639 H 3.816 v -8.396 h 16.03 v -8.397"
         style="fill:none;stroke:#233239;stroke-width:1;stroke-linecap:butt;stroke-linejoin:miter;stroke-miterlimit:10;stroke-dasharray:none;stroke-opacity:1"
         id="path104" />
    </g>
    <g
       id="g106"
       transform="translate(327.9737,365.3036)">
      <path
         d="M 0,0 H 9.16 V -118.313"
         style="fill:none;stroke:#233239;stroke-width:1;stroke-linecap:butt;stroke-linejoin:miter;stroke-miterlimit:10;stroke-dasharray:none;stroke-opacity:1"
         id="path108" />
    </g>
    <g
       id="g110"
       transform="translate(121.1167,226.3812)">
      <path
         d="M 0,0 V -43.385"
         style="fill:none;stroke:#233239;stroke-width:1;stroke-linecap:butt;stroke-linejoin:miter;stroke-miterlimit:10;stroke-dasharray:none;stroke-opacity:1"
         id="path112" />
    </g>
    <g
       id="g114"
       transform="translate(121.1167,344.6943)">
      <path
         d="M 0,0 V -106.1"
         style="fill:none;stroke:#233239;stroke-width:1;stroke-linecap:butt;stroke-linejoin:miter;stroke-miterlimit:10;stroke-dasharray:none;stroke-opacity:1"
         id="path116" />
    </g>
    <g
       id="g118"
       transform="translate(60.8152,311.8719)">
      <path
         d="M 0,0 -23.663,-52.668"
         style="fill:none;stroke:#233239;stroke-width:1;stroke-linecap:butt;stroke-linejoin:miter;stroke-miterlimit:10;stroke-dasharray:none;stroke-opacity:1"
         id="path120" />
    </g>
    <path
       d="M 232.742,58.24 H 166.907 V 26.189 h 65.835 z"
       style="fill:#ffffff;fill-opacity:1;fill-rule:nonzero;stroke:#233239;stroke-width:1;stroke-linecap:butt;stroke-linejoin:miter;stroke-miterlimit:10;stroke-dasharray:none;stroke-opacity:1"
       id="path122" />
    <path
       d="M 263.928,90.292 H 198.093 V 58.241 h 65.835 z"
       style="fill:#ffffff;fill-opacity:1;fill-rule:nonzero;stroke:#233239;stroke-width:1;stroke-linecap:butt;stroke-linejoin:miter;stroke-miterlimit:10;stroke-dasharray:none;stroke-opacity:1"
       id="path124" />
    <path
       d="M 326.587,90.292 H 260.752 V 58.241 h 65.835 z"
       style="fill:#ffffff;fill-opacity:1;fill-rule:nonzero;stroke:#233239;stroke-width:1;stroke-linecap:butt;stroke-linejoin:miter;stroke-miterlimit:10;stroke-dasharray:none;stroke-opacity:1"
       id="path126" />
    <path
       d="M 389.246,90.292 H 323.411 V 58.241 h 65.835 z"
       style="fill:#ffffff;fill-opacity:1;fill-rule:nonzero;stroke:#233239;stroke-width:1;stroke-linecap:butt;stroke-linejoin:miter;stroke-miterlimit:10;stroke-dasharray:none;stroke-opacity:1"
       id="path128" />
    <path
       d="m 326.587,153.528 h -65.835 v -32.051 h 65.835 z"
       style="fill:#ffffff;fill-opacity:1;fill-rule:nonzero;stroke:#233239;stroke-width:1;stroke-linecap:butt;stroke-linejoin:miter;stroke-miterlimit:10;stroke-dasharray:none;stroke-opacity:1"
       id="path130" />
    <path
       d="m 389.246,153.528 h -65.835 v -32.051 h 65.835 z"
       style="fill:#ffffff;fill-opacity:1;fill-rule:nonzero;stroke:#233239;stroke-width:1;stroke-linecap:butt;stroke-linejoin:miter;stroke-miterlimit:10;stroke-dasharray:none;stroke-opacity:1"
       id="path132" />
    <path
       d="M 451.906,90.292 H 386.071 V 58.241 h 65.835 z"
       style="fill:#ffffff;fill-opacity:1;fill-rule:nonzero;stroke:#233239;stroke-width:1;stroke-linecap:butt;stroke-linejoin:miter;stroke-miterlimit:10;stroke-dasharray:none;stroke-opacity:1"
       id="path134" />
    <path
       d="M 298.13,58.24 H 232.295 V 26.189 h 65.835 z"
       style="fill:#ffffff;fill-opacity:1;fill-rule:nonzero;stroke:#233239;stroke-width:1;stroke-linecap:butt;stroke-linejoin:miter;stroke-miterlimit:10;stroke-dasharray:none;stroke-opacity:1"
       id="path136" />
    <path
       d="M 363.519,58.24 H 297.684 V 26.189 h 65.835 z"
       style="fill:#ffffff;fill-opacity:1;fill-rule:nonzero;stroke:#233239;stroke-width:1;stroke-linecap:butt;stroke-linejoin:miter;stroke-miterlimit:10;stroke-dasharray:none;stroke-opacity:1"
       id="path138" />
    <path
       d="M 428.907,58.24 H 363.072 V 26.189 h 65.835 z"
       style="fill:#ffffff;fill-opacity:1;fill-rule:nonzero;stroke:#233239;stroke-width:1;stroke-linecap:butt;stroke-linejoin:miter;stroke-miterlimit:10;stroke-dasharray:none;stroke-opacity:1"
       id="path140" />
    <path
       d="M 298.13,121.91 H 232.295 V 89.859 h 65.835 z"
       style="fill:#ffffff;fill-opacity:1;fill-rule:nonzero;stroke:#233239;stroke-width:1;stroke-linecap:butt;stroke-linejoin:miter;stroke-miterlimit:10;stroke-dasharray:none;stroke-opacity:1"
       id="path142" />
    <path
       d="M 363.519,121.91 H 297.684 V 89.859 h 65.835 z"
       style="fill:#ffffff;fill-opacity:1;fill-rule:nonzero;stroke:#233239;stroke-width:1;stroke-linecap:butt;stroke-linejoin:miter;stroke-miterlimit:10;stroke-dasharray:none;stroke-opacity:1"
       id="path144" />
    <path
       d="M 428.907,121.91 H 363.072 V 89.859 h 65.835 z"
       style="fill:#ffffff;fill-opacity:1;fill-rule:nonzero;stroke:#233239;stroke-width:1;stroke-linecap:butt;stroke-linejoin:miter;stroke-miterlimit:10;stroke-dasharray:none;stroke-opacity:1"
       id="path146" />
    <path
       d="M 494.295,58.24 H 428.46 V 26.189 h 65.835 z"
       style="fill:#ffffff;fill-opacity:1;fill-rule:nonzero;stroke:#233239;stroke-width:1;stroke-linecap:butt;stroke-linejoin:miter;stroke-miterlimit:10;stroke-dasharray:none;stroke-opacity:1"
       id="path148" />
    <g
       id="g150">
      <g
         id="g152"
         clip-path="url(#clipPath156)">
        <g
           id="g158"
           transform="translate(123.9297,27.0474)">
          <path
             d="M 0,0 C -0.143,0.006 -0.286,0.016 -0.43,0.027 -4.762,0.375 -8.557,2.88 -10.579,6.731 l -54.403,103.543 -6.53,1.045 c -1.437,0.231 -2.416,1.582 -2.186,3.02 0.23,1.438 1.57,2.422 3.02,2.186 l 7.832,-1.255 c 0.82,-0.131 1.53,-0.642 1.916,-1.377 L -5.913,9.182 c 1.177,-2.241 3.385,-3.698 5.905,-3.9 3.418,-0.248 6.619,1.909 7.61,5.193 l 11.987,39.743 c 0.202,0.671 0.662,1.234 1.28,1.564 0.619,0.33 1.344,0.401 2.011,0.196 L 101.662,27.976 76.208,77.429 c -0.667,1.294 -0.157,2.883 1.137,3.549 1.297,0.667 2.884,0.157 3.55,-1.138 l 28.308,-54.998 c 0.485,-0.94 0.359,-2.081 -0.32,-2.894 -0.679,-0.813 -1.776,-1.14 -2.792,-0.832 L 23.872,46.165 12.648,8.953 C 10.988,3.447 5.712,-0.26 0,0"
             style="fill:#ffffff;fill-opacity:1;fill-rule:nonzero;stroke:none"
             id="path160" />
        </g>
        <g
           id="g162"
           transform="translate(123.9297,27.0474)">
          <path
             d="M 0,0 C -0.143,0.006 -0.286,0.016 -0.43,0.027 -4.762,0.375 -8.557,2.88 -10.579,6.731 l -54.403,103.543 -6.53,1.045 c -1.437,0.231 -2.416,1.582 -2.186,3.02 0.23,1.438 1.57,2.422 3.02,2.186 l 7.832,-1.255 c 0.82,-0.131 1.53,-0.642 1.916,-1.377 L -5.913,9.182 c 1.177,-2.241 3.385,-3.698 5.905,-3.9 3.418,-0.248 6.619,1.909 7.61,5.193 l 11.987,39.743 c 0.202,0.671 0.662,1.234 1.28,1.564 0.619,0.33 1.344,0.401 2.011,0.196 L 101.662,27.976 76.208,77.429 c -0.667,1.294 -0.157,2.883 1.137,3.549 1.297,0.667 2.884,0.157 3.55,-1.138 l 28.308,-54.998 c 0.485,-0.94 0.359,-2.081 -0.32,-2.894 -0.679,-0.813 -1.776,-1.14 -2.792,-0.832 L 23.872,46.165 12.648,8.953 C 10.988,3.447 5.712,-0.26 0,0 Z"
             style="fill:none;stroke:#233239;stroke-width:1;stroke-linecap:butt;stroke-linejoin:miter;stroke-miterlimit:10;stroke-dasharray:none;stroke-opacity:1"
             id="path164" />
        </g>
        <g
           id="g166"
           transform="translate(52.6292,136.3614)">
          <path
             d="m 0,0 c -0.139,0.006 -0.279,0.019 -0.42,0.039 l -26.038,3.563 c -2.524,0.344 -4.29,2.67 -3.945,5.194 0.345,2.524 2.66,4.295 5.196,3.944 L 0.831,9.178 C 3.355,8.833 5.121,6.507 4.776,3.983 4.45,1.599 2.357,-0.108 0,0"
             style="fill:#233239;fill-opacity:1;fill-rule:nonzero;stroke:none"
             id="path168" />
        </g>
        <g
           id="g170"
           transform="translate(52.6292,136.3614)">
          <path
             d="m 0,0 c -0.139,0.006 -0.279,0.019 -0.42,0.039 l -26.038,3.563 c -2.524,0.344 -4.29,2.67 -3.945,5.194 0.345,2.524 2.66,4.295 5.196,3.944 L 0.831,9.178 C 3.355,8.833 5.121,6.507 4.776,3.983 4.45,1.599 2.357,-0.108 0,0 Z"
             style="fill:none;stroke:#233239;stroke-width:1;stroke-linecap:butt;stroke-linejoin:miter;stroke-miterlimit:10;stroke-dasharray:none;stroke-opacity:1"
             id="path172" />
        </g>
        <g
           id="g174"
           transform="translate(254.0908,49.6186)">
          <path
             d="M 0,0 C 0.588,12.869 -9.368,23.778 -22.236,24.366 -35.105,24.954 -46.015,14.999 -46.603,2.13 -47.191,-10.739 -37.235,-21.648 -24.366,-22.237 -11.497,-22.825 -0.588,-12.869 0,0"
             style="fill:#233239;fill-opacity:1;fill-rule:nonzero;stroke:none"
             id="path176" />
        </g>
        <g
           id="g178"
           transform="translate(254.0908,49.6186)">
          <path
             d="M 0,0 C 0.588,12.869 -9.368,23.778 -22.236,24.366 -35.105,24.954 -46.015,14.999 -46.603,2.13 -47.191,-10.739 -37.235,-21.648 -24.366,-22.237 -11.497,-22.825 -0.588,-12.869 0,0 Z"
             style="fill:none;stroke:#233239;stroke-width:1;stroke-linecap:butt;stroke-linejoin:miter;stroke-miterlimit:10;stroke-dasharray:none;stroke-opacity:1"
             id="path180" />
        </g>
        <g
           id="g182"
           transform="translate(240.403,50.244)">
          <path
             d="m 0,0 c 0.243,5.309 -3.865,9.81 -9.174,10.053 -5.31,0.243 -9.81,-3.865 -10.053,-9.174 -0.243,-5.31 3.865,-9.811 9.174,-10.053 C -4.743,-9.417 -0.243,-5.309 0,0"
             style="fill:#ffffff;fill-opacity:1;fill-rule:nonzero;stroke:none"
             id="path184" />
        </g>
        <g
           id="g186"
           transform="translate(240.403,50.244)">
          <path
             d="m 0,0 c 0.243,5.309 -3.865,9.81 -9.174,10.053 -5.31,0.243 -9.81,-3.865 -10.053,-9.174 -0.243,-5.31 3.865,-9.811 9.174,-10.053 C -4.743,-9.417 -0.243,-5.309 0,0 Z"
             style="fill:none;stroke:#233239;stroke-width:1;stroke-linecap:butt;stroke-linejoin:miter;stroke-miterlimit:10;stroke-dasharray:none;stroke-opacity:1"
             id="path188" />
        </g>
        <g
           id="g190"
           transform="translate(89.031,137.0183)">
          <path
             d="M 0,0 C 0,0 51.249,28.013 63.387,27.925 75.525,27.838 119.281,-5.918 119.281,-5.918 Z"
             style="fill:#75e6a4;fill-opacity:1;fill-rule:nonzero;stroke:none"
             id="path192" />
        </g>
        <g
           id="g194"
           transform="translate(89.031,137.0183)">
          <path
             d="M 0,0 C 0,0 51.249,28.013 63.387,27.925 75.525,27.838 119.281,-5.918 119.281,-5.918 Z"
             style="fill:none;stroke:#233239;stroke-width:1;stroke-linecap:butt;stroke-linejoin:miter;stroke-miterlimit:10;stroke-dasharray:none;stroke-opacity:1"
             id="path196" />
        </g>
        <g
           id="g198"
           transform="translate(80.7916,140.6638)">
          <path
             d="m 0,0 15.83,-62.367 91.807,-4.196 36.831,59.961 z"
             style="fill:#ffffff;fill-opacity:1;fill-rule:nonzero;stroke:none"
             id="path200" />
        </g>
        <g
           id="g202"
           transform="translate(80.7916,140.6638)">
          <path
             d="m 0,0 15.83,-62.367 91.807,-4.196 36.831,59.961 z"
             style="fill:none;stroke:#233239;stroke-width:1;stroke-linecap:butt;stroke-linejoin:miter;stroke-miterlimit:10;stroke-dasharray:none;stroke-opacity:1"
             id="path204" />
        </g>
      </g>
    </g>
    <g
       id="g206"
       transform="translate(7.3736,26.2861)">
      <path
         d="M 0,0 H 488.25"
         style="fill:none;stroke:#233239;stroke-width:1;stroke-linecap:butt;stroke-linejoin:miter;stroke-miterlimit:10;stroke-dasharray:none;stroke-opacity:1"
         id="path208" />
    </g>
    <g
       id="g210">
      <g
         id="g212"
         clip-path="url(#clipPath216)">
        <g
           id="g218"
           transform="translate(182.7261,398.0082)">
          <path
             d="M 0,0 C 0,0 -2.245,0.935 -3.367,-0.935 -4.49,-2.806 -4.864,-4.49 -4.864,-4.49 c 0,0 -2.806,-1.683 -3.367,-2.619 -0.561,-0.935 -1.871,-2.806 -1.871,-2.806 0,0 -21.6,-22.892 -27.212,-29.44 -5.612,-6.547 -5.554,-17.721 3.986,-21.275 9.541,-3.554 18.472,-0.719 21.465,-1.655 2.993,-0.935 34.873,0.363 34.873,0.363 l 7.109,32.364 c 0,0 -3.554,1.31 -6.361,1.123 -2.806,-0.187 -27.848,-6.562 -29.157,-6.562 -1.31,0 0,0 0,0 l 16.45,19.894 c 0,0 1.165,0.986 1.913,2.295 0.749,1.31 1.628,-0.1 1.628,1.022 0,1.123 0.561,2.806 0.561,2.806 0,0 -11.973,5.052 -15.153,8.98"
             style="fill:#233239;fill-opacity:1;fill-rule:nonzero;stroke:none"
             id="path220" />
        </g>
        <g
           id="g222"
           transform="translate(182.7261,398.0082)">
          <path
             d="M 0,0 C 0,0 -2.245,0.935 -3.367,-0.935 -4.49,-2.806 -4.864,-4.49 -4.864,-4.49 c 0,0 -2.806,-1.683 -3.367,-2.619 -0.561,-0.935 -1.871,-2.806 -1.871,-2.806 0,0 -21.6,-22.892 -27.212,-29.44 -5.612,-6.547 -5.554,-17.721 3.986,-21.275 9.541,-3.554 18.472,-0.719 21.465,-1.655 2.993,-0.935 34.873,0.363 34.873,0.363 l 7.109,32.364 c 0,0 -3.554,1.31 -6.361,1.123 -2.806,-0.187 -27.848,-6.562 -29.157,-6.562 -1.31,0 0,0 0,0 l 16.45,19.894 c 0,0 1.165,0.986 1.913,2.295 0.749,1.31 1.628,-0.1 1.628,1.022 0,1.123 0.561,2.806 0.561,2.806 0,0 -11.973,5.052 -15.153,8.98 z"
             style="fill:none;stroke:#233239;stroke-width:1;stroke-linecap:butt;stroke-linejoin:miter;stroke-miterlimit:10;stroke-dasharray:none;stroke-opacity:1"
             id="path224" />
        </g>
        <g
           id="g226"
           transform="translate(176.1014,360.4594)">
          <path
             d="m 0,0 c 0,0 -6.095,-18.578 -7.778,-19.513 -1.684,-0.936 -16.167,0.576 -16.167,0.576"
             style="fill:none;stroke:#858585;stroke-width:1;stroke-linecap:butt;stroke-linejoin:miter;stroke-miterlimit:10;stroke-dasharray:none;stroke-opacity:1"
             id="path228" />
        </g>
        <g
           id="g230"
           transform="translate(183.126,352.1607)">
          <path
             d="M 0,0 20.552,-9.714"
             style="fill:none;stroke:#858585;stroke-width:1;stroke-linecap:butt;stroke-linejoin:miter;stroke-miterlimit:10;stroke-dasharray:none;stroke-opacity:1"
             id="path232" />
        </g>
        <g
           id="g234"
           transform="translate(182.7518,344.1165)">
          <path
             d="M 0,0 19.617,-2.979"
             style="fill:none;stroke:#858585;stroke-width:1;stroke-linecap:butt;stroke-linejoin:miter;stroke-miterlimit:10;stroke-dasharray:none;stroke-opacity:1"
             id="path236" />
        </g>
        <g
           id="g238"
           transform="translate(253.253,395.5763)">
          <path
             d="m 0,0 c 0,0 3.742,-14.031 7.109,-17.211 3.367,-3.18 6.547,-3.741 6.547,-3.741 0,0 1.31,-3.181 -1.683,-9.167 -2.994,-5.986 -15.153,-11.224 -15.153,-11.224 0,0 -8.419,-14.966 -9.728,-15.153 -1.31,-0.188 -4.864,14.404 -4.677,15.34 0.187,0.935 -4.116,5.612 -4.677,10.85 -0.561,5.238 0.561,6.548 0.561,6.548 z"
             style="fill:#ffffff;fill-opacity:1;fill-rule:nonzero;stroke:none"
             id="path240" />
        </g>
        <g
           id="g242"
           transform="translate(253.253,395.5763)">
          <path
             d="m 0,0 c 0,0 3.742,-14.031 7.109,-17.211 3.367,-3.18 6.547,-3.741 6.547,-3.741 0,0 1.31,-3.181 -1.683,-9.167 -2.994,-5.986 -15.153,-11.224 -15.153,-11.224 0,0 -8.419,-14.966 -9.728,-15.153 -1.31,-0.188 -4.864,14.404 -4.677,15.34 0.187,0.935 -4.116,5.612 -4.677,10.85 -0.561,5.238 0.561,6.548 0.561,6.548 z"
             style="fill:none;stroke:#233239;stroke-width:1;stroke-linecap:butt;stroke-linejoin:miter;stroke-miterlimit:10;stroke-dasharray:none;stroke-opacity:1"
             id="path244" />
        </g>
        <g
           id="g246"
           transform="translate(238.3993,343.1046)">
          <path
             d="m 0,0 c 0.753,-2.34 1.487,-4.09 1.946,-4.025 1.309,0.187 9.727,15.153 9.727,15.153 L -0.673,10.006 Z"
             style="fill:#233239;fill-opacity:1;fill-rule:nonzero;stroke:none"
             id="path248" />
        </g>
        <g
           id="g250"
           transform="translate(238.3993,343.1046)">
          <path
             d="m 0,0 c 0.753,-2.34 1.487,-4.09 1.946,-4.025 1.309,0.187 9.727,15.153 9.727,15.153 L -0.673,10.006 Z"
             style="fill:none;stroke:#233239;stroke-width:1;stroke-linecap:butt;stroke-linejoin:miter;stroke-miterlimit:10;stroke-dasharray:none;stroke-opacity:1"
             id="path252" />
        </g>
        <g
           id="g254"
           transform="translate(199.0753,242.4623)">
          <path
             d="m 0,0 c 0,0 0.903,-48.173 4.817,-64.732 3.914,-16.56 5.721,-32.818 5.721,-32.818 0,0 -2.409,-14.452 0.602,-21.678 3.011,-7.226 3.914,-18.667 3.914,-18.667 0,0 -2.71,-6.323 -1.505,-9.033 1.204,-2.709 1.806,-9.634 1.806,-10.838 0,-1.205 26.495,-1.807 26.495,-1.807 0,0 1.205,7.527 0.301,15.054 -0.903,7.527 -2.408,14.452 -2.408,17.764 0,3.312 0.301,21.979 0.602,29.506 0.301,7.527 -0.602,17.764 -0.602,21.076 0,3.311 -2.108,52.086 -2.108,52.086 l 4.817,-6.021 c 0,0 15.355,-61.722 18.065,-68.948 2.71,-7.226 7.226,-28.903 9.033,-32.516 1.806,-3.613 3.914,-14.753 3.914,-15.958 0,-1.204 2.709,-16.86 2.709,-16.86 l 25.291,-0.301 c 0,0 1.807,3.01 2.409,6.322 0.602,3.312 -0.903,1.506 -2.71,10.237 -1.806,8.731 -8.129,52.388 -11.441,59.915 -3.312,7.527 -5.118,12.646 -5.118,13.85 0,1.204 1.505,0 -0.301,6.323 -1.807,6.322 -2.71,11.742 -2.71,11.742 l 1.505,55.399 c 0,0 -19.57,14.15 -31.011,21.075 -11.441,6.925 -19.57,11.14 -25.893,6.323 C 19.871,21.678 0,0 0,0"
             style="fill:#6e6e6e;fill-opacity:1;fill-rule:nonzero;stroke:none"
             id="path256" />
        </g>
        <g
           id="g258"
           transform="translate(199.0753,242.4623)">
          <path
             d="m 0,0 c 0,0 0.903,-48.173 4.817,-64.732 3.914,-16.56 5.721,-32.818 5.721,-32.818 0,0 -2.409,-14.452 0.602,-21.678 3.011,-7.226 3.914,-18.667 3.914,-18.667 0,0 -2.71,-6.323 -1.505,-9.033 1.204,-2.709 1.806,-9.634 1.806,-10.838 0,-1.205 26.495,-1.807 26.495,-1.807 0,0 1.205,7.527 0.301,15.054 -0.903,7.527 -2.408,14.452 -2.408,17.764 0,3.312 0.301,21.979 0.602,29.506 0.301,7.527 -0.602,17.764 -0.602,21.076 0,3.311 -2.108,52.086 -2.108,52.086 l 4.817,-6.021 c 0,0 15.355,-61.722 18.065,-68.948 2.71,-7.226 7.226,-28.903 9.033,-32.516 1.806,-3.613 3.914,-14.753 3.914,-15.958 0,-1.204 2.709,-16.86 2.709,-16.86 l 25.291,-0.301 c 0,0 1.807,3.01 2.409,6.322 0.602,3.312 -0.903,1.506 -2.71,10.237 -1.806,8.731 -8.129,52.388 -11.441,59.915 -3.312,7.527 -5.118,12.646 -5.118,13.85 0,1.204 1.505,0 -0.301,6.323 -1.807,6.322 -2.71,11.742 -2.71,11.742 l 1.505,55.399 c 0,0 -19.57,14.15 -31.011,21.075 -11.441,6.925 -19.57,11.14 -25.893,6.323 C 19.871,21.678 0,0 0,0 Z"
             style="fill:none;stroke:#233239;stroke-width:1;stroke-linecap:butt;stroke-linejoin:miter;stroke-miterlimit:10;stroke-dasharray:none;stroke-opacity:1"
             id="path260" />
        </g>
        <g
           id="g262"
           transform="translate(216.538,225.6017)">
          <path
             d="M 0,0 16.559,-5.419"
             style="fill:none;stroke:#233239;stroke-width:1;stroke-linecap:butt;stroke-linejoin:miter;stroke-miterlimit:10;stroke-dasharray:none;stroke-opacity:1"
             id="path264" />
        </g>
        <g
           id="g266"
           transform="translate(233.3985,217.4725)">
          <path
             d="M 0,0 C 0,0 -9.936,5.721 -22.882,3.914"
             style="fill:none;stroke:#233239;stroke-width:1;stroke-linecap:butt;stroke-linejoin:miter;stroke-miterlimit:10;stroke-dasharray:none;stroke-opacity:1"
             id="path268" />
        </g>
        <g
           id="g270"
           transform="translate(258.6893,236.1396)">
          <path
             d="M 0,0 C -1.505,-0.301 -17.162,-6.624 -19.871,-10.839"
             style="fill:none;stroke:#233239;stroke-width:1;stroke-linecap:butt;stroke-linejoin:miter;stroke-miterlimit:10;stroke-dasharray:none;stroke-opacity:1"
             id="path272" />
        </g>
        <g
           id="g274"
           transform="translate(252.3666,228.9136)">
          <path
             d="M 0,0 C 0,0 -11.742,-7.226 -12.344,-9.936"
             style="fill:none;stroke:#233239;stroke-width:1;stroke-linecap:butt;stroke-linejoin:miter;stroke-miterlimit:10;stroke-dasharray:none;stroke-opacity:1"
             id="path276" />
        </g>
        <g
           id="g278"
           transform="translate(298.899,370.6954)">
          <path
             d="m 0,0 c 0,0 4.303,-0.187 7.67,-9.354 3.367,-9.166 21.139,-52.006 21.139,-52.006 0,0 5.426,-9.728 5.613,-11.973 0.187,-2.245 -0.749,-4.116 -0.749,-4.116 0,0 2.058,-8.231 -0.187,-11.411 -2.245,-3.18 -3.18,-5.612 -15.34,-5.051 -12.16,0.561 -20.952,5.612 -20.952,5.612 -3.18,-0.561 -4.677,-1.684 -4.677,3.929 0,5.612 0.561,17.397 2.432,17.585 1.871,0.187 2.993,0 3.554,0 0.562,0 -5.238,8.044 -4.489,8.792 0.748,0.748 -5.051,9.541 -5.051,23.197 C -11.037,-21.139 -3.18,-1.122 0,0"
             style="fill:#233239;fill-opacity:1;fill-rule:nonzero;stroke:none"
             id="path280" />
        </g>
        <g
           id="g282"
           transform="translate(298.899,370.6954)">
          <path
             d="m 0,0 c 0,0 4.303,-0.187 7.67,-9.354 3.367,-9.166 21.139,-52.006 21.139,-52.006 0,0 5.426,-9.728 5.613,-11.973 0.187,-2.245 -0.749,-4.116 -0.749,-4.116 0,0 2.058,-8.231 -0.187,-11.411 -2.245,-3.18 -3.18,-5.612 -15.34,-5.051 -12.16,0.561 -20.952,5.612 -20.952,5.612 -3.18,-0.561 -4.677,-1.684 -4.677,3.929 0,5.612 0.561,17.397 2.432,17.585 1.871,0.187 2.993,0 3.554,0 0.562,0 -5.238,8.044 -4.489,8.792 0.748,0.748 -5.051,9.541 -5.051,23.197 C -11.037,-21.139 -3.18,-1.122 0,0 Z"
             style="fill:none;stroke:#233239;stroke-width:1;stroke-linecap:butt;stroke-linejoin:miter;stroke-miterlimit:10;stroke-dasharray:none;stroke-opacity:1"
             id="path284" />
        </g>
        <g
           id="g286"
           transform="translate(233.049,364.1478)">
          <path
             d="m 0,0 c 0,0 0.748,-3.928 2.432,-5.986 1.684,-2.058 4.49,-2.619 4.49,-2.619 l 1.87,-11.599 6.735,14.031 c 0,0 7.857,2.245 11.599,4.676 3.741,2.432 6.734,11.973 6.734,11.973 L 65.85,6.548 c 0,0 -7.296,-21.888 -8.418,-35.357 -1.123,-13.47 2.432,-22.636 2.432,-22.636 l -5.051,-52.755 1.309,-22.636 c 0,0 -4.49,-2.993 -21.139,-1.123 -16.65,1.871 -24.694,3.555 -24.694,3.555 0,0 -9.167,16.649 -9.728,17.959 -0.561,1.309 -1.87,4.677 -1.87,4.677 l -3.742,-23.197 c 0,0 -9.354,-1.871 -16.65,-2.245 -7.296,-0.374 -14.591,0 -14.591,0 0,0 -1.497,23.197 0.935,35.544 2.432,12.347 2.993,16.088 2.993,16.088 0,0 -1.122,21.139 0,27.5 1.123,6.361 6.174,35.357 6.735,37.228 0.561,1.871 4.303,17.211 4.303,17.211 L -3.929,5.425 0.935,4.864 Z"
             style="fill:#75e6a4;fill-opacity:1;fill-rule:nonzero;stroke:none"
             id="path288" />
        </g>
        <g
           id="g290"
           transform="translate(233.049,364.1478)">
          <path
             d="m 0,0 c 0,0 0.748,-3.928 2.432,-5.986 1.684,-2.058 4.49,-2.619 4.49,-2.619 l 1.87,-11.599 6.735,14.031 c 0,0 7.857,2.245 11.599,4.676 3.741,2.432 6.734,11.973 6.734,11.973 L 65.85,6.548 c 0,0 -7.296,-21.888 -8.418,-35.357 -1.123,-13.47 2.432,-22.636 2.432,-22.636 l -5.051,-52.755 1.309,-22.636 c 0,0 -4.49,-2.993 -21.139,-1.123 -16.65,1.871 -24.694,3.555 -24.694,3.555 0,0 -9.167,16.649 -9.728,17.959 -0.561,1.309 -1.87,4.677 -1.87,4.677 l -3.742,-23.197 c 0,0 -9.354,-1.871 -16.65,-2.245 -7.296,-0.374 -14.591,0 -14.591,0 0,0 -1.497,23.197 0.935,35.544 2.432,12.347 2.993,16.088 2.993,16.088 0,0 -1.122,21.139 0,27.5 1.123,6.361 6.174,35.357 6.735,37.228 0.561,1.871 4.303,17.211 4.303,17.211 L -3.929,5.425 0.935,4.864 Z"
             style="fill:none;stroke:#233239;stroke-width:1;stroke-linecap:butt;stroke-linejoin:miter;stroke-miterlimit:10;stroke-dasharray:none;stroke-opacity:1"
             id="path292" />
        </g>
        <g
           id="g294"
           transform="translate(202.6883,268.0541)">
          <path
             d="M 0,0 C 6.022,1.807 19.57,3.613 38.839,2.108 53.166,0.988 74.972,-5.621 85.221,-8.939 l -0.048,0.832 1.311,13.689 C 72.883,15.662 47.803,16.559 35.226,16.559 H 14.151 C 7.622,16.559 1.186,14.702 -3.343,13 -3.763,10.763 -4.301,7.957 -4.996,4.427 -5.377,2.496 -5.661,0.299 -5.87,-2.033 -4.093,-1.346 -2.067,-0.62 0,0"
             style="fill:#ffffff;fill-opacity:1;fill-rule:nonzero;stroke:none"
             id="path296" />
        </g>
        <g
           id="g298"
           transform="translate(202.6883,268.0541)">
          <path
             d="M 0,0 C 6.022,1.807 19.57,3.613 38.839,2.108 53.166,0.988 74.972,-5.621 85.221,-8.939 l -0.048,0.832 1.311,13.689 C 72.883,15.662 47.803,16.559 35.226,16.559 H 14.151 C 7.622,16.559 1.186,14.702 -3.343,13 -3.763,10.763 -4.301,7.957 -4.996,4.427 -5.377,2.496 -5.661,0.299 -5.87,-2.033 -4.093,-1.346 -2.067,-0.62 0,0 Z"
             style="fill:none;stroke:#233239;stroke-width:1;stroke-linecap:butt;stroke-linejoin:miter;stroke-miterlimit:10;stroke-dasharray:none;stroke-opacity:1"
             id="path300" />
        </g>
        <g
           id="g302"
           transform="translate(227.0758,327.066)">
          <path
             d="m 0,0 c -10.795,-0.502 -21.793,-3.096 -25.152,-3.945 -0.545,-3.103 -0.989,-5.638 -1.239,-7.051 -0.277,-1.572 -0.417,-4.048 -0.471,-6.884 5.227,0.824 11.92,1.766 20.539,2.826 32.026,3.937 63.763,-5.148 71.372,-7.541 l 0.788,8.232 c 0,0 -1.313,3.408 -2.091,9.099 C 45.358,0.844 11.801,0.549 0,0"
             style="fill:#ffffff;fill-opacity:1;fill-rule:nonzero;stroke:none"
             id="path304" />
        </g>
        <g
           id="g306"
           transform="translate(227.0758,327.066)">
          <path
             d="m 0,0 c -10.795,-0.502 -21.793,-3.096 -25.152,-3.945 -0.545,-3.103 -0.989,-5.638 -1.239,-7.051 -0.277,-1.572 -0.417,-4.048 -0.471,-6.884 5.227,0.824 11.92,1.766 20.539,2.826 32.026,3.937 63.763,-5.148 71.372,-7.541 l 0.788,8.232 c 0,0 -1.313,3.408 -2.091,9.099 C 45.358,0.844 11.801,0.549 0,0 Z"
             style="fill:none;stroke:#233239;stroke-width:1;stroke-linecap:butt;stroke-linejoin:miter;stroke-miterlimit:10;stroke-dasharray:none;stroke-opacity:1"
             id="path308" />
        </g>
        <g
           id="g310"
           transform="translate(205.5491,401.9368)">
          <path
             d="m 0,0 c 0,0 5.799,-11.224 6.173,-12.908 0.375,-1.684 0.375,-7.296 3.555,-11.599 3.18,-4.302 11.973,-12.908 15.714,-13.843 3.742,-0.936 8.98,0 11.412,2.619 2.432,2.619 8.418,12.721 10.289,17.959 1.87,5.238 1.309,9.728 1.309,9.728 0,0 4.677,2.245 5.051,6.734 0.374,4.49 -1.309,7.296 -1.309,7.296 0,0 -3.742,3.555 -6.361,3.929 -2.619,0.374 -5.238,-0.561 -5.238,-0.561 0,0 1.497,8.044 -4.49,10.102 C 30.119,21.513 20.017,17.024 16.088,14.405 12.16,11.786 0,0 0,0"
             style="fill:#ffffff;fill-opacity:1;fill-rule:nonzero;stroke:none"
             id="path312" />
        </g>
        <g
           id="g314"
           transform="translate(205.5491,401.9368)">
          <path
             d="m 0,0 c 0,0 5.799,-11.224 6.173,-12.908 0.375,-1.684 0.375,-7.296 3.555,-11.599 3.18,-4.302 11.973,-12.908 15.714,-13.843 3.742,-0.936 8.98,0 11.412,2.619 2.432,2.619 8.418,12.721 10.289,17.959 1.87,5.238 1.309,9.728 1.309,9.728 0,0 4.677,2.245 5.051,6.734 0.374,4.49 -1.309,7.296 -1.309,7.296 0,0 -3.742,3.555 -6.361,3.929 -2.619,0.374 -5.238,-0.561 -5.238,-0.561 0,0 1.497,8.044 -4.49,10.102 C 30.119,21.513 20.017,17.024 16.088,14.405 12.16,11.786 0,0 0,0 Z"
             style="fill:none;stroke:#233239;stroke-width:1;stroke-linecap:butt;stroke-linejoin:miter;stroke-miterlimit:10;stroke-dasharray:none;stroke-opacity:1"
             id="path316" />
        </g>
        <g
           id="g318"
           transform="translate(224.4436,389.2157)">
          <path
             d="M 0,0 C 0,0 -1.497,-5.051 0,-6.361 1.497,-7.67 6.173,-6.547 6.735,-3.18"
             style="fill:none;stroke:#233239;stroke-width:1;stroke-linecap:butt;stroke-linejoin:miter;stroke-miterlimit:10;stroke-dasharray:none;stroke-opacity:1"
             id="path320" />
        </g>
        <g
           id="g322"
           transform="translate(229.6817,375.4658)">
          <path
             d="m 0,0 c 0,-0.981 -0.754,-1.777 -1.684,-1.777 -0.93,0 -1.683,0.796 -1.683,1.777 0,0.982 0.753,1.777 1.683,1.777 C -0.754,1.777 0,0.982 0,0 Z"
             style="fill:none;stroke:#233239;stroke-width:1;stroke-linecap:butt;stroke-linejoin:miter;stroke-miterlimit:10;stroke-dasharray:none;stroke-opacity:1"
             id="path324" />
        </g>
        <g
           id="g326"
           transform="translate(233.4231,407.1748)">
          <path
             d="m 0,0 c 0,0 -7.67,-4.864 -6.922,-5.986 0.749,-1.123 7.857,1.683 9.728,4.49 C 4.677,1.31 3.18,0.748 0,0"
             style="fill:#233239;fill-opacity:1;fill-rule:nonzero;stroke:none"
             id="path328" />
        </g>
        <g
           id="g330"
           transform="translate(233.4231,407.1748)">
          <path
             d="m 0,0 c 0,0 -7.67,-4.864 -6.922,-5.986 0.749,-1.123 7.857,1.683 9.728,4.49 C 4.677,1.31 3.18,0.748 0,0 Z"
             style="fill:none;stroke:#233239;stroke-width:1;stroke-linecap:butt;stroke-linejoin:miter;stroke-miterlimit:10;stroke-dasharray:none;stroke-opacity:1"
             id="path332" />
        </g>
        <g
           id="g334"
           transform="translate(218.4572,398.3824)">
          <path
             d="M 0,0 C 0,0 -9.354,1.871 -8.418,-0.374 -7.483,-2.619 -0.187,-2.806 0.748,-1.497 1.684,-0.187 0,0 0,0"
             style="fill:#233239;fill-opacity:1;fill-rule:nonzero;stroke:none"
             id="path336" />
        </g>
        <g
           id="g338"
           transform="translate(218.4572,398.3824)">
          <path
             d="M 0,0 C 0,0 -9.354,1.871 -8.418,-0.374 -7.483,-2.619 -0.187,-2.806 0.748,-1.497 1.684,-0.187 0,0 0,0 Z"
             style="fill:none;stroke:#233239;stroke-width:1;stroke-linecap:butt;stroke-linejoin:miter;stroke-miterlimit:10;stroke-dasharray:none;stroke-opacity:1"
             id="path340" />
        </g>
        <g
           id="g342"
           transform="translate(230.8041,395.2021)">
          <path
             d="M 0,0 C 0,0 2.806,5.051 7.483,3.367"
             style="fill:none;stroke:#233239;stroke-width:1;stroke-linecap:butt;stroke-linejoin:miter;stroke-miterlimit:10;stroke-dasharray:none;stroke-opacity:1"
             id="path344" />
        </g>
        <g
           id="g346"
           transform="translate(244.4605,406.4265)">
          <path
             d="M 0,0 C 0,0 0,-5.425 0.748,-6.735 1.497,-8.044 3.554,-6.922 3.742,-5.238 3.929,-3.554 0,0 0,0"
             style="fill:#ffffff;fill-opacity:1;fill-rule:nonzero;stroke:none"
             id="path348" />
        </g>
        <g
           id="g350"
           transform="translate(244.4605,406.4265)">
          <path
             d="M 0,0 C 0,0 0,-5.425 0.748,-6.735 1.497,-8.044 3.554,-6.922 3.742,-5.238 3.929,-3.554 0,0 0,0 Z"
             style="fill:none;stroke:#233239;stroke-width:1;stroke-linecap:butt;stroke-linejoin:miter;stroke-miterlimit:10;stroke-dasharray:none;stroke-opacity:1"
             id="path352" />
        </g>
        <g
           id="g354"
           transform="translate(220.515,391.2736)">
          <path
             d="M 0,0 C 0,0 -3.18,1.497 -4.864,0.561 -6.548,-0.374 -6.735,-1.684 -6.735,-1.684"
             style="fill:none;stroke:#233239;stroke-width:1;stroke-linecap:butt;stroke-linejoin:miter;stroke-miterlimit:10;stroke-dasharray:none;stroke-opacity:1"
             id="path356" />
        </g>
        <g
           id="g358"
           transform="translate(212.4709,429.4366)">
          <path
             d="m 0,0 c 0,0 -13.844,-7.296 -13.095,-8.792 0.748,-1.497 4.864,-1.31 4.864,-1.31 0,0 -4.864,-4.49 -5.425,-10.663 -0.562,-6.174 5.238,-0.936 5.238,-0.936 0,0 -2.994,-8.792 -0.562,-9.353 2.432,-0.562 14.031,6.547 17.211,9.353 3.18,2.807 5.238,6.735 5.238,6.735 0,0 -2.619,-7.109 -0.748,-6.548 1.871,0.562 7.296,8.045 7.296,8.045 0,0 -0.561,-2.245 0.748,-2.245 1.31,0 5.799,4.864 5.799,4.864 0,0 0,-5.051 1.497,-6.174 1.497,-1.122 2.993,1.123 2.993,1.123 0,0 0.561,-2.806 2.432,-4.303 1.871,-1.497 2.619,-2.619 2.806,-4.303 0.187,-1.683 2.993,0.562 3.181,1.684 0.187,1.122 0.187,4.116 2.806,2.806 2.619,-1.309 3.367,-2.993 3.367,-2.993 l -2.619,14.218 c 0,0 2.993,-2.994 2.619,-0.188 -0.374,2.807 -1.309,8.232 -5.612,12.721 -4.303,4.49 -10.102,8.045 -24.133,6.361 C 1.871,8.418 -4.49,2.619 -4.49,1.684 -4.49,0.748 0,0 0,0"
             style="fill:#233239;fill-opacity:1;fill-rule:nonzero;stroke:none"
             id="path360" />
        </g>
        <g
           id="g362"
           transform="translate(212.4709,429.4366)">
          <path
             d="m 0,0 c 0,0 -13.844,-7.296 -13.095,-8.792 0.748,-1.497 4.864,-1.31 4.864,-1.31 0,0 -4.864,-4.49 -5.425,-10.663 -0.562,-6.174 5.238,-0.936 5.238,-0.936 0,0 -2.994,-8.792 -0.562,-9.353 2.432,-0.562 14.031,6.547 17.211,9.353 3.18,2.807 5.238,6.735 5.238,6.735 0,0 -2.619,-7.109 -0.748,-6.548 1.871,0.562 7.296,8.045 7.296,8.045 0,0 -0.561,-2.245 0.748,-2.245 1.31,0 5.799,4.864 5.799,4.864 0,0 0,-5.051 1.497,-6.174 1.497,-1.122 2.993,1.123 2.993,1.123 0,0 0.561,-2.806 2.432,-4.303 1.871,-1.497 2.619,-2.619 2.806,-4.303 0.187,-1.683 2.993,0.562 3.181,1.684 0.187,1.122 0.187,4.116 2.806,2.806 2.619,-1.309 3.367,-2.993 3.367,-2.993 l -2.619,14.218 c 0,0 2.993,-2.994 2.619,-0.188 -0.374,2.807 -1.309,8.232 -5.612,12.721 -4.303,4.49 -10.102,8.045 -24.133,6.361 C 1.871,8.418 -4.49,2.619 -4.49,1.684 -4.49,0.748 0,0 0,0 Z"
             style="fill:none;stroke:#233239;stroke-width:1;stroke-linecap:butt;stroke-linejoin:miter;stroke-miterlimit:10;stroke-dasharray:none;stroke-opacity:1"
             id="path364" />
        </g>
        <g
           id="g366"
           transform="translate(187.9642,425.321)">
          <path
             d="m 0,0 -1.497,-18.333 c 0,0 -4.677,-6.735 -3.741,-8.98 0.935,-2.245 13.095,-9.541 15.153,-8.979 2.058,0.561 6.547,10.289 7.109,11.598 0.561,1.31 9.915,5.612 11.785,8.419 1.871,2.806 3.555,15.34 3.555,16.836 0,1.497 -3.368,2.806 -3.368,2.806 0,0 -16.649,2.619 -19.642,2.245 C 6.36,5.238 0,0 0,0"
             style="fill:#c7c7c7;fill-opacity:1;fill-rule:nonzero;stroke:none"
             id="path368" />
        </g>
        <g
           id="g370"
           transform="translate(187.9642,425.321)">
          <path
             d="m 0,0 -1.497,-18.333 c 0,0 -4.677,-6.735 -3.741,-8.98 0.935,-2.245 13.095,-9.541 15.153,-8.979 2.058,0.561 6.547,10.289 7.109,11.598 0.561,1.31 9.915,5.612 11.785,8.419 1.871,2.806 3.555,15.34 3.555,16.836 0,1.497 -3.368,2.806 -3.368,2.806 0,0 -16.649,2.619 -19.642,2.245 C 6.36,5.238 0,0 0,0 Z"
             style="fill:none;stroke:#233239;stroke-width:1;stroke-linecap:butt;stroke-linejoin:miter;stroke-miterlimit:10;stroke-dasharray:none;stroke-opacity:1"
             id="path372" />
        </g>
        <g
           id="g374"
           transform="translate(213.9674,440.6611)">
          <path
             d="m 0,0 c 0,0 3.929,7.857 3.929,11.037 0,3.181 -0.749,8.98 8.418,15.153 9.167,6.174 27.5,4.677 35.544,0.562 8.044,-4.116 8.793,-12.347 9.354,-16.65 0.561,-4.303 1.496,-9.167 1.87,-11.037 0.375,-1.871 0.375,-4.677 0.375,-4.677 0,0 -0.375,8.231 -10.289,10.476 C 39.286,7.109 35.731,8.044 20.952,4.116 6.173,0.187 -1.122,-2.245 -1.122,-2.245 Z"
             style="fill:#75e6a4;fill-opacity:1;fill-rule:nonzero;stroke:none"
             id="path376" />
        </g>
        <g
           id="g378"
           transform="translate(213.9674,440.6611)">
          <path
             d="m 0,0 c 0,0 3.929,7.857 3.929,11.037 0,3.181 -0.749,8.98 8.418,15.153 9.167,6.174 27.5,4.677 35.544,0.562 8.044,-4.116 8.793,-12.347 9.354,-16.65 0.561,-4.303 1.496,-9.167 1.87,-11.037 0.375,-1.871 0.375,-4.677 0.375,-4.677 0,0 -0.375,8.231 -10.289,10.476 C 39.286,7.109 35.731,8.044 20.952,4.116 6.173,0.187 -1.122,-2.245 -1.122,-2.245 Z"
             style="fill:none;stroke:#233239;stroke-width:1;stroke-linecap:butt;stroke-linejoin:miter;stroke-miterlimit:10;stroke-dasharray:none;stroke-opacity:1"
             id="path380" />
        </g>
        <g
           id="g382"
           transform="translate(273.0828,428.3142)">
          <path
             d="m 0,0 c 0,0 3.367,9.915 -3.554,15.34 -6.922,5.425 -18.147,8.98 -33.861,4.864 -15.714,-4.116 -20.017,-6.922 -21.7,-7.857 -1.684,-0.936 -10.289,-5.238 -10.851,-7.296 -0.561,-2.058 2.806,-5.425 5.238,-6.735 2.432,-1.309 9.915,-1.683 9.915,-1.683 0,0 26.565,-5.426 38.538,-3.742 C -4.303,-5.425 -0.935,-1.122 0,0"
             style="fill:#75e6a4;fill-opacity:1;fill-rule:nonzero;stroke:none"
             id="path384" />
        </g>
        <g
           id="g386">
          <g
             id="g388" />
          <g
             id="g400">
            <g
               clip-path="url(#clipPath392)"
               opacity="0.360001"
               id="g398">
              <g
                 transform="translate(272.8038,428.558)"
                 id="g396">
                <path
                   d="m 0,0 c 0,0 3.367,9.915 -3.554,15.34 -6.922,5.425 -18.147,8.98 -33.861,4.864 -15.714,-4.116 -20.017,-6.922 -21.7,-7.857 -1.684,-0.936 -10.29,-5.238 -10.851,-7.296 -0.561,-2.058 2.806,-5.425 5.238,-6.735 2.432,-1.309 9.915,-1.683 9.915,-1.683 0,0 26.565,-5.426 38.537,-3.742 C -4.303,-5.425 -0.935,-1.122 0,0"
                   style="fill:#000000;fill-opacity:1;fill-rule:nonzero;stroke:none"
                   id="path394" />
              </g>
            </g>
          </g>
        </g>
        <g
           id="g402"
           transform="translate(273.0828,428.3142)">
          <path
             d="m 0,0 c 0,0 3.367,9.915 -3.554,15.34 -6.922,5.425 -18.147,8.98 -33.861,4.864 -15.714,-4.116 -20.017,-6.922 -21.7,-7.857 -1.684,-0.936 -10.289,-5.238 -10.851,-7.296 -0.561,-2.058 2.806,-5.425 5.238,-6.735 2.432,-1.309 9.915,-1.683 9.915,-1.683 0,0 26.565,-5.426 38.538,-3.742 C -4.303,-5.425 -0.935,-1.122 0,0 Z"
             style="fill:none;stroke:#233239;stroke-width:1;stroke-linecap:butt;stroke-linejoin:miter;stroke-miterlimit:10;stroke-dasharray:none;stroke-opacity:1"
             id="path404" />
        </g>
        <g
           id="g406"
           transform="translate(251.9435,428.3142)">
          <path
             d="m 0,0 c -2.432,-0.748 -5.425,-0.748 -5.425,-0.748 l 1.496,12.534 C 0.748,8.418 5.799,1.871 5.799,1.871 5.799,1.871 2.432,0.748 0,0 m -10.476,-0.935 c 0,0 -4.677,-2.058 -11.412,0.561 -6.734,2.619 -4.864,10.289 -4.864,10.289 3.742,5.238 18.334,2.619 18.334,2.619 z m 28.061,16.275 -5.238,3.367 c 0,0 -1.123,-5.238 -1.684,-6.547 -0.561,-1.31 -6.547,5.612 -13.095,6.547 -11.813,1.688 -19.83,0 -25.068,-2.432 0,0 -3.741,-4.676 -3.18,-9.166 0.561,-4.49 1.309,-9.915 9.541,-11.412 8.231,-1.496 14.778,-1.122 21.513,-0.374 6.735,0.749 8.418,1.123 8.418,1.123 l 2.619,-5.987 5.239,2.993 c 0,0 -2.058,3.742 -2.432,5.987 -0.375,2.245 3.367,15.901 3.367,15.901"
             style="fill:#ffffff;fill-opacity:1;fill-rule:nonzero;stroke:none"
             id="path408" />
        </g>
        <g
           id="g410"
           transform="translate(251.9435,428.3142)">
          <path
             d="m 0,0 c -2.432,-0.748 -5.425,-0.748 -5.425,-0.748 l 1.496,12.534 C 0.748,8.418 5.799,1.871 5.799,1.871 5.799,1.871 2.432,0.748 0,0 Z m -10.476,-0.935 c 0,0 -4.677,-2.058 -11.412,0.561 -6.734,2.619 -4.864,10.289 -4.864,10.289 3.742,5.238 18.334,2.619 18.334,2.619 z m 28.061,16.275 -5.238,3.367 c 0,0 -1.123,-5.238 -1.684,-6.547 -0.561,-1.31 -6.547,5.612 -13.095,6.547 -11.813,1.688 -19.83,0 -25.068,-2.432 0,0 -3.741,-4.676 -3.18,-9.166 0.561,-4.49 1.309,-9.915 9.541,-11.412 8.231,-1.496 14.778,-1.122 21.513,-0.374 6.735,0.749 8.418,1.123 8.418,1.123 l 2.619,-5.987 5.239,2.993 c 0,0 -2.058,3.742 -2.432,5.987 -0.375,2.245 3.367,15.901 3.367,15.901 z"
             style="fill:none;stroke:#233239;stroke-width:1;stroke-linecap:butt;stroke-linejoin:miter;stroke-miterlimit:10;stroke-dasharray:none;stroke-opacity:1"
             id="path412" />
        </g>
        <g
           id="g414"
           transform="translate(205.5491,401.9368)">
          <path
             d="m 0,0 c 0,0 12.16,5.799 13.843,11.786 1.684,5.986 2.994,17.023 3.555,19.83 0.561,2.806 -1.31,6.173 -4.49,3.367 -3.18,-2.806 -5.051,-11.412 -5.051,-11.412 0,0 -10.476,-8.605 -11.599,-11.785 C -4.864,8.605 -4.864,7.109 -4.864,7.109"
             style="fill:#c7c7c7;fill-opacity:1;fill-rule:nonzero;stroke:#233239;stroke-width:1;stroke-linecap:butt;stroke-linejoin:miter;stroke-miterlimit:10;stroke-dasharray:none;stroke-opacity:1"
             id="path416" />
        </g>
        <g
           id="g418"
           transform="translate(205.175,434.6747)">
          <path
             d="m 0,0 c 0,0 -3.742,1.497 -5.238,-1.122 -1.497,-2.62 -0.374,-10.289 -0.561,-12.909 -0.187,-2.619 3.367,-3.741 4.864,-1.309 1.496,2.432 2.057,11.973 2.244,13.469 C 1.497,-0.374 0,0 0,0"
             style="fill:#c7c7c7;fill-opacity:1;fill-rule:nonzero;stroke:none"
             id="path420" />
        </g>
        <g
           id="g422"
           transform="translate(205.175,434.6747)">
          <path
             d="m 0,0 c 0,0 -3.742,1.497 -5.238,-1.122 -1.497,-2.62 -0.374,-10.289 -0.561,-12.909 -0.187,-2.619 3.367,-3.741 4.864,-1.309 1.496,2.432 2.057,11.973 2.244,13.469 C 1.497,-0.374 0,0 0,0 Z"
             style="fill:none;stroke:#233239;stroke-width:1;stroke-linecap:butt;stroke-linejoin:miter;stroke-miterlimit:10;stroke-dasharray:none;stroke-opacity:1"
             id="path424" />
        </g>
        <g
           id="g426"
           transform="translate(199.9369,433.5523)">
          <path
             d="m 0,0 c 0,0 -4.677,-0.561 -5.612,-2.993 -0.936,-2.432 -2.245,-8.232 -0.936,-11.038 1.31,-2.806 2.432,-3.367 4.303,-1.683 1.871,1.683 2.058,4.677 2.058,6.36 C -0.187,-7.67 0,0 0,0"
             style="fill:#c7c7c7;fill-opacity:1;fill-rule:nonzero;stroke:none"
             id="path428" />
        </g>
        <g
           id="g430"
           transform="translate(199.9369,433.5523)">
          <path
             d="m 0,0 c 0,0 -4.677,-0.561 -5.612,-2.993 -0.936,-2.432 -2.245,-8.232 -0.936,-11.038 1.31,-2.806 2.432,-3.367 4.303,-1.683 1.871,1.683 2.058,4.677 2.058,6.36 C -0.187,-7.67 0,0 0,0 Z"
             style="fill:none;stroke:#233239;stroke-width:1;stroke-linecap:butt;stroke-linejoin:miter;stroke-miterlimit:10;stroke-dasharray:none;stroke-opacity:1"
             id="path432" />
        </g>
        <g
           id="g434"
           transform="translate(194.3247,430.5591)">
          <path
             d="m 0,0 c 0,0 -4.303,-0.187 -5.799,-2.619 -1.497,-2.432 0.187,-8.98 1.122,-10.663 0.935,-1.684 2.806,-0.374 3.742,0.935 C 0,-11.037 -0.374,-5.051 0,0"
             style="fill:#c7c7c7;fill-opacity:1;fill-rule:nonzero;stroke:none"
             id="path436" />
        </g>
        <g
           id="g438"
           transform="translate(194.3247,430.5591)">
          <path
             d="m 0,0 c 0,0 -4.303,-0.187 -5.799,-2.619 -1.497,-2.432 0.187,-8.98 1.122,-10.663 0.935,-1.684 2.806,-0.374 3.742,0.935 C 0,-11.037 -0.374,-5.051 0,0 Z"
             style="fill:none;stroke:#233239;stroke-width:1;stroke-linecap:butt;stroke-linejoin:miter;stroke-miterlimit:10;stroke-dasharray:none;stroke-opacity:1"
             id="path440" />
        </g>
        <g
           id="g442"
           transform="translate(300.5827,304.0971)">
          <path
             d="m 0,0 16.462,3.367 c 0,0 10.102,-2.058 12.16,-7.483"
             style="fill:none;stroke:#858585;stroke-width:1;stroke-linecap:butt;stroke-linejoin:miter;stroke-miterlimit:10;stroke-dasharray:none;stroke-opacity:1"
             id="path444" />
        </g>
        <g
           id="g446"
           transform="translate(313.3037,309.1481)">
          <path
             d="M 0,0 C 0,0 6.174,3.367 11.599,-0.374"
             style="fill:none;stroke:#233239;stroke-width:1;stroke-linecap:butt;stroke-linejoin:miter;stroke-miterlimit:10;stroke-dasharray:none;stroke-opacity:1"
             id="path448" />
        </g>
        <g
           id="g450"
           transform="translate(238.2158,333.9909)">
          <path
             d="M 0,0 C 0,0 -3.011,-25.592 -4.516,-37.033"
             style="fill:none;stroke:#233239;stroke-width:1;stroke-linecap:butt;stroke-linejoin:miter;stroke-miterlimit:10;stroke-dasharray:none;stroke-opacity:1"
             id="path452" />
        </g>
        <g
           id="g454"
           transform="translate(233.0974,287.6244)">
          <path
             d="M 0,0 C 0,0 -1.806,-16.559 -1.806,-18.366"
             style="fill:none;stroke:#233239;stroke-width:1;stroke-linecap:butt;stroke-linejoin:miter;stroke-miterlimit:10;stroke-dasharray:none;stroke-opacity:1"
             id="path456" />
        </g>
        <g
           id="g458"
           transform="translate(243.5917,85.599)">
          <path
             d="m 0,0 c 0,0 -27.343,1.204 -38.073,1.204 -10.73,0 -20.075,3.613 -30.459,0.603 -10.383,-3.011 -24.574,-14.151 -24.574,-14.151 0,0 -12.115,-3.914 -17.306,-5.119 -5.192,-1.204 -9.692,-2.107 -13.845,-5.419 -4.154,-3.312 -11.076,-8.43 -16.614,-10.237 -5.538,-1.806 -21.806,-3.011 -27.344,-6.022 -5.537,-3.01 -17.306,-10.236 -18.344,-11.14 -1.038,-0.903 -6.576,-3.311 -6.576,-3.311 l -22.498,-5.721 h 459.302 c 0,0 -38.766,6.925 -54.687,13.248 -15.922,6.322 -22.152,15.355 -33.228,17.161 -11.076,1.807 -24.574,2.71 -25.613,2.71 -1.038,0 -11.768,4.215 -16.613,6.925 -4.846,2.71 -25.267,15.355 -34.612,16.559 -9.346,1.205 -36.689,-0.602 -36.689,-0.602 0,0 -6.23,0.301 -8.999,0.301 C 30.459,-3.011 0,0 0,0"
             style="fill:#75e6a4;fill-opacity:1;fill-rule:nonzero;stroke:none"
             id="path460" />
        </g>
        <g
           id="g462"
           transform="translate(243.5917,85.599)">
          <path
             d="m 0,0 c 0,0 -27.343,1.204 -38.073,1.204 -10.73,0 -20.075,3.613 -30.459,0.603 -10.383,-3.011 -24.574,-14.151 -24.574,-14.151 0,0 -12.115,-3.914 -17.306,-5.119 -5.192,-1.204 -9.692,-2.107 -13.845,-5.419 -4.154,-3.312 -11.076,-8.43 -16.614,-10.237 -5.538,-1.806 -21.806,-3.011 -27.344,-6.022 -5.537,-3.01 -17.306,-10.236 -18.344,-11.14 -1.038,-0.903 -6.576,-3.311 -6.576,-3.311 l -22.498,-5.721 h 459.302 c 0,0 -38.766,6.925 -54.687,13.248 -15.922,6.322 -22.152,15.355 -33.228,17.161 -11.076,1.807 -24.574,2.71 -25.613,2.71 -1.038,0 -11.768,4.215 -16.613,6.925 -4.846,2.71 -25.267,15.355 -34.612,16.559 -9.346,1.205 -36.689,-0.602 -36.689,-0.602 0,0 -6.23,0.301 -8.999,0.301 C 30.459,-3.011 0,0 0,0 Z"
             style="fill:none;stroke:#233239;stroke-width:1;stroke-linecap:butt;stroke-linejoin:miter;stroke-miterlimit:10;stroke-dasharray:none;stroke-opacity:1"
             id="path464" />
        </g>
        <g
           id="g466"
           transform="translate(225.0683,76.5666)">
          <path
             d="m 0,0 c 0,0 -12.3,1.519 -19.441,-0.632 -7.141,-2.15 -12.634,-3.344 -20.874,-4.778"
             style="fill:none;stroke:#233239;stroke-width:1;stroke-linecap:butt;stroke-linejoin:miter;stroke-miterlimit:10;stroke-dasharray:none;stroke-opacity:1"
             id="path468" />
        </g>
        <g
           id="g470"
           transform="translate(294.6164,74.5016)">
          <path
             d="m 0,0 c 0,0 15.655,0.717 18.951,-0.717 3.296,-1.433 18.952,-9.556 30.762,-12.662"
             style="fill:none;stroke:#233239;stroke-width:1;stroke-linecap:butt;stroke-linejoin:miter;stroke-miterlimit:10;stroke-dasharray:none;stroke-opacity:1"
             id="path472" />
        </g>
        <g
           id="g474"
           transform="translate(382.5069,31.4964)">
          <path
             d="m 0,0 c 0,0 -46.142,15.53 -60.974,16.485 -14.832,0.956 -29.114,-3.106 -61.523,-10.751 -32.41,-7.645 -48.615,-8.123 -48.615,-8.123"
             style="fill:none;stroke:#233239;stroke-width:1;stroke-linecap:butt;stroke-linejoin:miter;stroke-miterlimit:10;stroke-dasharray:none;stroke-opacity:1"
             id="path476" />
        </g>
        <g
           id="g478"
           transform="translate(110.0166,29.887)">
          <path
             d="m 0,0 c 0,0 13.063,13.158 44.002,13.756 30.939,0.598 37.127,-0.598 39.877,-0.598 2.75,0 15.813,5.98 22.689,6.578 6.875,0.598 25.439,0 30.251,-1.794"
             style="fill:none;stroke:#233239;stroke-width:1;stroke-linecap:butt;stroke-linejoin:miter;stroke-miterlimit:10;stroke-dasharray:none;stroke-opacity:1"
             id="path480" />
        </g>
        <g
           id="g482"
           transform="translate(395.4061,41.9787)">
          <path
             d="m 0,0 c 0,-0.85 -0.792,-1.539 -1.77,-1.539 -0.977,0 -1.769,0.689 -1.769,1.539 0,0.85 0.792,1.539 1.769,1.539 C -0.792,1.539 0,0.85 0,0 Z"
             style="fill:none;stroke:#233239;stroke-width:1;stroke-linecap:butt;stroke-linejoin:miter;stroke-miterlimit:10;stroke-dasharray:none;stroke-opacity:1"
             id="path484" />
        </g>
        <g
           id="g486"
           transform="translate(367.5989,46.8164)">
          <path
             d="m 0,0 c 0,-0.85 -0.792,-1.539 -1.769,-1.539 -0.978,0 -1.77,0.689 -1.77,1.539 0,0.85 0.792,1.539 1.77,1.539 C -0.792,1.539 0,0.85 0,0 Z"
             style="fill:none;stroke:#233239;stroke-width:1;stroke-linecap:butt;stroke-linejoin:miter;stroke-miterlimit:10;stroke-dasharray:none;stroke-opacity:1"
             id="path488" />
        </g>
        <g
           id="g490"
           transform="translate(380.7441,51.6542)">
          <path
             d="m 0,0 c 0,-0.607 -0.566,-1.1 -1.264,-1.1 -0.698,0 -1.264,0.493 -1.264,1.1 0,0.607 0.566,1.1 1.264,1.1 C -0.566,1.1 0,0.607 0,0 Z"
             style="fill:none;stroke:#233239;stroke-width:1;stroke-linecap:butt;stroke-linejoin:miter;stroke-miterlimit:10;stroke-dasharray:none;stroke-opacity:1"
             id="path492" />
        </g>
        <g
           id="g494"
           transform="translate(414.6183,37.8006)">
          <path
             d="m 0,0 c 0,-0.486 -0.453,-0.88 -1.011,-0.88 -0.559,0 -1.011,0.394 -1.011,0.88 0,0.486 0.452,0.88 1.011,0.88 C -0.453,0.88 0,0.486 0,0 Z"
             style="fill:none;stroke:#233239;stroke-width:1;stroke-linecap:butt;stroke-linejoin:miter;stroke-miterlimit:10;stroke-dasharray:none;stroke-opacity:1"
             id="path496" />
        </g>
        <g
           id="g498"
           transform="translate(406.529,32.743)">
          <path
             d="m 0,0 c 0,-0.607 -0.566,-1.1 -1.264,-1.1 -0.698,0 -1.264,0.493 -1.264,1.1 0,0.607 0.566,1.1 1.264,1.1 C -0.566,1.1 0,0.607 0,0 Z"
             style="fill:none;stroke:#233239;stroke-width:1;stroke-linecap:butt;stroke-linejoin:miter;stroke-miterlimit:10;stroke-dasharray:none;stroke-opacity:1"
             id="path500" />
        </g>
        <g
           id="g502"
           transform="translate(294.2891,58.9108)">
          <path
             d="m 0,0 c 0,-0.972 -0.905,-1.759 -2.022,-1.759 -1.117,0 -2.023,0.787 -2.023,1.759 0,0.972 0.906,1.759 2.023,1.759 C -0.905,1.759 0,0.972 0,0 Z"
             style="fill:none;stroke:#233239;stroke-width:1;stroke-linecap:butt;stroke-linejoin:miter;stroke-miterlimit:10;stroke-dasharray:none;stroke-opacity:1"
             id="path504" />
        </g>
        <g
           id="g506"
           transform="translate(271.0322,52.5338)">
          <path
             d="m 0,0 c 0,-0.607 -0.566,-1.1 -1.264,-1.1 -0.698,0 -1.264,0.493 -1.264,1.1 0,0.607 0.566,1.099 1.264,1.099 C -0.566,1.099 0,0.607 0,0 Z"
             style="fill:none;stroke:#233239;stroke-width:1;stroke-linecap:butt;stroke-linejoin:miter;stroke-miterlimit:10;stroke-dasharray:none;stroke-opacity:1"
             id="path508" />
        </g>
        <g
           id="g510"
           transform="translate(221.4849,60.8899)">
          <path
             d="m 0,0 c 0,-0.607 -0.566,-1.1 -1.264,-1.1 -0.698,0 -1.264,0.493 -1.264,1.1 0,0.607 0.566,1.099 1.264,1.099 C -0.566,1.099 0,0.607 0,0 Z"
             style="fill:none;stroke:#233239;stroke-width:1;stroke-linecap:butt;stroke-linejoin:miter;stroke-miterlimit:10;stroke-dasharray:none;stroke-opacity:1"
             id="path512" />
        </g>
        <g
           id="g514"
           transform="translate(154.2421,61.3297)">
          <path
             d="m 0,0 c 0,-0.85 -0.792,-1.539 -1.77,-1.539 -0.977,0 -1.769,0.689 -1.769,1.539 0,0.85 0.792,1.539 1.769,1.539 C -0.792,1.539 0,0.85 0,0 Z"
             style="fill:none;stroke:#233239;stroke-width:1;stroke-linecap:butt;stroke-linejoin:miter;stroke-miterlimit:10;stroke-dasharray:none;stroke-opacity:1"
             id="path516" />
        </g>
        <g
           id="g518"
           transform="translate(176.9934,79.1413)">
          <path
             d="m 0,0 c 0,-0.729 -0.679,-1.319 -1.517,-1.319 -0.837,0 -1.516,0.59 -1.516,1.319 0,0.729 0.679,1.319 1.516,1.319 C -0.679,1.319 0,0.729 0,0 Z"
             style="fill:none;stroke:#233239;stroke-width:1;stroke-linecap:butt;stroke-linejoin:miter;stroke-miterlimit:10;stroke-dasharray:none;stroke-opacity:1"
             id="path520" />
        </g>
        <g
           id="g522"
           transform="translate(189.6331,63.3087)">
          <path
             d="m 0,0 c 0,-0.971 -0.906,-1.759 -2.022,-1.759 -1.117,0 -2.023,0.788 -2.023,1.759 0,0.972 0.906,1.759 2.023,1.759 C -0.906,1.759 0,0.972 0,0 Z"
             style="fill:none;stroke:#233239;stroke-width:1;stroke-linecap:butt;stroke-linejoin:miter;stroke-miterlimit:10;stroke-dasharray:none;stroke-opacity:1"
             id="path524" />
        </g>
        <g
           id="g526"
           transform="translate(211.8788,69.246)">
          <path
             d="m 0,0 c 0,-0.85 -0.792,-1.539 -1.77,-1.539 -0.977,0 -1.769,0.689 -1.769,1.539 0,0.85 0.792,1.539 1.769,1.539 C -0.792,1.539 0,0.85 0,0 Z"
             style="fill:none;stroke:#233239;stroke-width:1;stroke-linecap:butt;stroke-linejoin:miter;stroke-miterlimit:10;stroke-dasharray:none;stroke-opacity:1"
             id="path528" />
        </g>
        <g
           id="g530"
           transform="translate(218.4514,36.0415)">
          <path
             d="m 0,0 c 0,-0.729 -0.679,-1.319 -1.517,-1.319 -0.837,0 -1.517,0.59 -1.517,1.319 0,0.729 0.68,1.319 1.517,1.319 C -0.679,1.319 0,0.729 0,0 Z"
             style="fill:none;stroke:#233239;stroke-width:1;stroke-linecap:butt;stroke-linejoin:miter;stroke-miterlimit:10;stroke-dasharray:none;stroke-opacity:1"
             id="path532" />
        </g>
        <g
           id="g534"
           transform="translate(311.479,38.4603)">
          <path
             d="m 0,0 c 0,-1.093 -1.019,-1.979 -2.275,-1.979 -1.257,0 -2.275,0.886 -2.275,1.979 0,1.093 1.018,1.979 2.275,1.979 C -1.019,1.979 0,1.093 0,0 Z"
             style="fill:none;stroke:#233239;stroke-width:1;stroke-linecap:butt;stroke-linejoin:miter;stroke-miterlimit:10;stroke-dasharray:none;stroke-opacity:1"
             id="path536" />
        </g>
        <g
           id="g538"
           transform="translate(340.2974,35.3818)">
          <path
             d="m 0,0 c 0,-0.607 -0.566,-1.1 -1.264,-1.1 -0.698,0 -1.264,0.493 -1.264,1.1 0,0.607 0.566,1.099 1.264,1.099 C -0.566,1.099 0,0.607 0,0 Z"
             style="fill:none;stroke:#233239;stroke-width:1;stroke-linecap:butt;stroke-linejoin:miter;stroke-miterlimit:10;stroke-dasharray:none;stroke-opacity:1"
             id="path540" />
        </g>
        <g
           id="g542"
           transform="translate(328.1633,39.7797)">
          <path
             d="m 0,0 c 0,-0.607 -0.566,-1.1 -1.264,-1.1 -0.698,0 -1.264,0.493 -1.264,1.1 0,0.607 0.566,1.099 1.264,1.099 C -0.566,1.099 0,0.607 0,0 Z"
             style="fill:none;stroke:#233239;stroke-width:1;stroke-linecap:butt;stroke-linejoin:miter;stroke-miterlimit:10;stroke-dasharray:none;stroke-opacity:1"
             id="path544" />
        </g>
        <g
           id="g546"
           transform="translate(324.6242,59.5705)">
          <path
             d="m 0,0 c 0,-0.607 -0.566,-1.099 -1.264,-1.099 -0.698,0 -1.264,0.492 -1.264,1.099 0,0.607 0.566,1.1 1.264,1.1 C -0.566,1.1 0,0.607 0,0 Z"
             style="fill:none;stroke:#233239;stroke-width:1;stroke-linecap:butt;stroke-linejoin:miter;stroke-miterlimit:10;stroke-dasharray:none;stroke-opacity:1"
             id="path548" />
        </g>
        <g
           id="g550"
           transform="translate(325.6354,76.2827)">
          <path
             d="m 0,0 c 0,-0.607 -0.566,-1.1 -1.264,-1.1 -0.698,0 -1.264,0.493 -1.264,1.1 0,0.607 0.566,1.1 1.264,1.1 C -0.566,1.1 0,0.607 0,0 Z"
             style="fill:none;stroke:#233239;stroke-width:1;stroke-linecap:butt;stroke-linejoin:miter;stroke-miterlimit:10;stroke-dasharray:none;stroke-opacity:1"
             id="path552" />
        </g>
        <g
           id="g554"
           transform="translate(88.5161,40.2195)">
          <path
             d="m 0,0 c 0,-1.093 -1.019,-1.979 -2.275,-1.979 -1.257,0 -2.275,0.886 -2.275,1.979 0,1.093 1.018,1.979 2.275,1.979 C -1.019,1.979 0,1.093 0,0 Z"
             style="fill:none;stroke:#233239;stroke-width:1;stroke-linecap:butt;stroke-linejoin:miter;stroke-miterlimit:10;stroke-dasharray:none;stroke-opacity:1"
             id="path556" />
        </g>
        <g
           id="g558"
           transform="translate(113.2898,43.9578)">
          <path
             d="m 0,0 c 0,-0.729 -0.679,-1.319 -1.517,-1.319 -0.838,0 -1.517,0.59 -1.517,1.319 0,0.729 0.679,1.319 1.517,1.319 C -0.679,1.319 0,0.729 0,0 Z"
             style="fill:none;stroke:#233239;stroke-width:1;stroke-linecap:butt;stroke-linejoin:miter;stroke-miterlimit:10;stroke-dasharray:none;stroke-opacity:1"
             id="path560" />
        </g>
        <g
           id="g562"
           transform="translate(130.4796,58.9108)">
          <path
             d="m 0,0 c 0,-0.729 -0.679,-1.319 -1.517,-1.319 -0.837,0 -1.516,0.59 -1.516,1.319 0,0.729 0.679,1.319 1.516,1.319 C -0.679,1.319 0,0.729 0,0 Z"
             style="fill:none;stroke:#233239;stroke-width:1;stroke-linecap:butt;stroke-linejoin:miter;stroke-miterlimit:10;stroke-dasharray:none;stroke-opacity:1"
             id="path564" />
        </g>
        <g
           id="g566"
           transform="translate(240.1676,76.5666)">
          <path
             d="m 0,0 c 0,0 3.245,27.097 6.491,29.506 3.245,2.409 36.781,1.806 41.468,-0.301 4.688,-2.108 8.655,-31.313 8.655,-31.313 0,0 -12.982,-1.505 -24.16,-1.505 C 21.275,-3.613 0,0 0,0"
             style="fill:#233239;fill-opacity:1;fill-rule:nonzero;stroke:none"
             id="path568" />
        </g>
        <g
           id="g570"
           transform="translate(240.1676,76.5666)">
          <path
             d="m 0,0 c 0,0 3.245,27.097 6.491,29.506 3.245,2.409 36.781,1.806 41.468,-0.301 4.688,-2.108 8.655,-31.313 8.655,-31.313 0,0 -12.982,-1.505 -24.16,-1.505 C 21.275,-3.613 0,0 0,0 Z"
             style="fill:none;stroke:#233239;stroke-width:1;stroke-linecap:butt;stroke-linejoin:miter;stroke-miterlimit:10;stroke-dasharray:none;stroke-opacity:1"
             id="path572" />
        </g>
        <path
           d="m 273.047,88.61 h -8.542 v 198.111 h 8.542 z"
           style="fill:#ffffff;fill-opacity:1;fill-rule:nonzero;stroke:#233239;stroke-width:1;stroke-linecap:butt;stroke-linejoin:miter;stroke-miterlimit:10;stroke-dasharray:none;stroke-opacity:1"
           id="path574" />
        <path
           d="m 264.504,88.61 h 8.542 v 30.108 h -8.542 z"
           style="fill:#6e6e6e;fill-opacity:1;fill-rule:nonzero;stroke:#233239;stroke-width:1;stroke-linecap:butt;stroke-linejoin:miter;stroke-miterlimit:10;stroke-dasharray:none;stroke-opacity:1"
           id="path576" />
        <g
           id="g578"
           transform="translate(294.0351,306.1549)">
          <path
             d="m 0,0 c 0,0 2.619,-3.554 2.245,-12.908 -0.374,-9.354 -3.18,-8.98 -5.051,-8.606 -1.871,0.375 -8.605,1.871 -8.605,1.871 0,0 -4.303,-1.122 -8.045,-2.993 -3.741,-1.871 -7.483,-3.18 -7.483,-3.18 0,0 -0.374,-2.993 -1.87,-4.303 -1.497,-1.309 -4.864,2.993 -5.425,4.677 -0.562,1.684 -0.188,2.058 -0.188,3.741 0,1.684 -5.986,8.045 -5.986,10.851 0,2.806 4.677,8.979 4.677,8.979 0,0 -5.986,-2.993 -7.109,-4.302 -1.122,-1.31 -5.799,-6.174 -7.857,-3.742 -2.058,2.432 2.432,8.418 4.49,10.102 2.058,1.684 15.714,6.735 20.204,8.044 4.49,1.31 18.146,-5.799 20.578,-6.734 C -2.993,0.561 -1.684,1.309 0,0"
             style="fill:#c7c7c7;fill-opacity:1;fill-rule:nonzero;stroke:none"
             id="path580" />
        </g>
        <g
           id="g582"
           transform="translate(294.0351,306.1549)">
          <path
             d="m 0,0 c 0,0 2.619,-3.554 2.245,-12.908 -0.374,-9.354 -3.18,-8.98 -5.051,-8.606 -1.871,0.375 -8.605,1.871 -8.605,1.871 0,0 -4.303,-1.122 -8.045,-2.993 -3.741,-1.871 -7.483,-3.18 -7.483,-3.18 0,0 -0.374,-2.993 -1.87,-4.303 -1.497,-1.309 -4.864,2.993 -5.425,4.677 -0.562,1.684 -0.188,2.058 -0.188,3.741 0,1.684 -5.986,8.045 -5.986,10.851 0,2.806 4.677,8.979 4.677,8.979 0,0 -5.986,-2.993 -7.109,-4.302 -1.122,-1.31 -5.799,-6.174 -7.857,-3.742 -2.058,2.432 2.432,8.418 4.49,10.102 2.058,1.684 15.714,6.735 20.204,8.044 4.49,1.31 18.146,-5.799 20.578,-6.734 C -2.993,0.561 -1.684,1.309 0,0 Z"
             style="fill:none;stroke:#233239;stroke-width:1;stroke-linecap:butt;stroke-linejoin:miter;stroke-miterlimit:10;stroke-dasharray:none;stroke-opacity:1"
             id="path584" />
        </g>
        <g
           id="g586"
           transform="translate(269.3413,312.8896)">
          <path
             d="m 0,0 c 0,0 6.548,-5.799 8.792,-13.656 2.245,-7.858 1.871,-9.728 4.116,-9.167 2.245,0.561 5.425,3.741 1.497,13.095 C 10.476,-0.374 3.18,0.561 0,0"
             style="fill:#75e6a4;fill-opacity:1;fill-rule:nonzero;stroke:none"
             id="path588" />
        </g>
        <g
           id="g590"
           transform="translate(269.3413,312.8896)">
          <path
             d="m 0,0 c 0,0 6.548,-5.799 8.792,-13.656 2.245,-7.858 1.871,-9.728 4.116,-9.167 2.245,0.561 5.425,3.741 1.497,13.095 C 10.476,-0.374 3.18,0.561 0,0 Z"
             style="fill:none;stroke:#233239;stroke-width:1;stroke-linecap:butt;stroke-linejoin:miter;stroke-miterlimit:10;stroke-dasharray:none;stroke-opacity:1"
             id="path592" />
        </g>
        <g
           id="g594"
           transform="translate(261.4842,285.5768)">
          <path
             d="M 0,0 C 0,0 2.993,5.425 4.49,6.36"
             style="fill:none;stroke:#233239;stroke-width:1;stroke-linecap:butt;stroke-linejoin:miter;stroke-miterlimit:10;stroke-dasharray:none;stroke-opacity:1"
             id="path596" />
        </g>
      </g>
    </g>
    <g
       id="g598">
      <g
         id="g600"
         clip-path="url(#clipPath604)">
        <g
           id="g606"
           transform="translate(440.682,150.8291)">
          <path
             d="M 0,0 -32.197,-117.316 H 35.708 L 3.511,0 C 3.021,1.785 0.49,1.785 0,0"
             style="fill:#75e6a4;fill-opacity:1;fill-rule:nonzero;stroke:none"
             id="path608" />
        </g>
        <g
           id="g610"
           transform="translate(440.682,150.8291)">
          <path
             d="M 0,0 -32.197,-117.316 H 35.708 L 3.511,0 C 3.021,1.785 0.49,1.785 0,0 Z"
             style="fill:none;stroke:#233239;stroke-width:1;stroke-linecap:butt;stroke-linejoin:miter;stroke-miterlimit:10;stroke-dasharray:none;stroke-opacity:1"
             id="path612" />
        </g>
        <g
           id="g614"
           transform="translate(408.4851,33.5127)">
          <path
             d="m 0,0 h 58.201 l -29.1,106.034 z"
             style="fill:#233239;fill-opacity:1;fill-rule:nonzero;stroke:none"
             id="path616" />
        </g>
        <g
           id="g618"
           transform="translate(408.4851,33.5127)">
          <path
             d="m 0,0 h 58.201 l -29.1,106.034 z"
             style="fill:none;stroke:#233239;stroke-width:1;stroke-linecap:butt;stroke-linejoin:miter;stroke-miterlimit:10;stroke-dasharray:none;stroke-opacity:1"
             id="path620" />
        </g>
        <g
           id="g622"
           transform="translate(420.9147,78.8026)">
          <path
             d="M 0,0 H 43.046 L 37.249,21.121 H 5.796 Z"
             style="fill:#ffffff;fill-opacity:1;fill-rule:nonzero;stroke:none"
             id="path624" />
        </g>
        <g
           id="g626"
           transform="translate(420.9147,78.8026)">
          <path
             d="M 0,0 H 43.046 L 37.249,21.121 H 5.796 Z"
             style="fill:none;stroke:#233239;stroke-width:1;stroke-linecap:butt;stroke-linejoin:miter;stroke-miterlimit:10;stroke-dasharray:none;stroke-opacity:1"
             id="path628" />
        </g>
        <g
           id="g630"
           transform="translate(484.3939,35.4192)">
          <path
             d="m 0,0 h -83.912 c -2.523,0 -4.567,-2.044 -4.567,-4.566 0,-2.523 2.044,-4.567 4.567,-4.567 H 0 c 2.522,0 4.567,2.044 4.567,4.567 C 4.567,-2.044 2.522,0 0,0"
             style="fill:#75e6a4;fill-opacity:1;fill-rule:nonzero;stroke:none"
             id="path632" />
        </g>
        <g
           id="g634"
           transform="translate(484.3939,35.4192)">
          <path
             d="m 0,0 h -83.912 c -2.523,0 -4.567,-2.044 -4.567,-4.566 0,-2.523 2.044,-4.567 4.567,-4.567 H 0 c 2.522,0 4.567,2.044 4.567,4.567 C 4.567,-2.044 2.522,0 0,0 Z"
             style="fill:none;stroke:#233239;stroke-width:1;stroke-linecap:butt;stroke-linejoin:miter;stroke-miterlimit:10;stroke-dasharray:none;stroke-opacity:1"
             id="path636" />
        </g>
        <g
           id="g638"
           transform="translate(463.8439,30.8527)">
          <path
             d="m 0,0 c 0,2.522 -2.045,4.567 -4.567,4.567 h -58.796 c -2.521,0 -4.566,-2.045 -4.566,-4.567 0,-2.522 2.045,-4.567 4.566,-4.567 H -4.567 C -2.045,-4.567 0,-2.522 0,0"
             style="fill:#233239;fill-opacity:1;fill-rule:nonzero;stroke:none"
             id="path640" />
        </g>
        <g
           id="g642"
           transform="translate(463.8439,30.8527)">
          <path
             d="m 0,0 c 0,2.522 -2.045,4.567 -4.567,4.567 h -58.796 c -2.521,0 -4.566,-2.045 -4.566,-4.567 0,-2.522 2.045,-4.567 4.566,-4.567 H -4.567 C -2.045,-4.567 0,-2.522 0,0 Z"
             style="fill:none;stroke:#233239;stroke-width:1;stroke-linecap:butt;stroke-linejoin:miter;stroke-miterlimit:10;stroke-dasharray:none;stroke-opacity:1"
             id="path644" />
        </g>
      </g>
    </g>
  </g>
</svg>
