<svg xmlns="http://www.w3.org/2000/svg" width="666.667" height="666.667"><defs><clipPath id="a" clipPathUnits="userSpaceOnUse"><path d="M0 500h500V0H0Z"/></clipPath><clipPath id="b" clipPathUnits="userSpaceOnUse"><path d="M10.065 476.396h468.198V20.602H10.065Z"/></clipPath><clipPath id="c" clipPathUnits="userSpaceOnUse"><path d="M0 500h500V0H0Z"/></clipPath><clipPath id="d" clipPathUnits="userSpaceOnUse"><path d="M0 500h500V0H0Z"/></clipPath><clipPath id="e" clipPathUnits="userSpaceOnUse"><path d="M0 500h500V0H0Z"/></clipPath><clipPath id="f" clipPathUnits="userSpaceOnUse"><path d="M0 500h500V0H0Z"/></clipPath><clipPath id="g" clipPathUnits="userSpaceOnUse"><path d="M202.776 450.552h70.847v-29.427h-70.847z"/></clipPath><clipPath id="h" clipPathUnits="userSpaceOnUse"><path d="M0 500h500V0H0Z"/></clipPath></defs><g clip-path="url(#a)" transform="matrix(1.33333 0 0 -1.33333 0 666.667)"><path d="M0 0c-3.052 59.894-28.029 119.624-73.055 160.014-70.785 63.499-208.676 62.143-281.327 2.401-25.196-20.719-40.033-48.096-45.826-79.856-6.201-33.994 1.905-70.923-11.434-103.656-11.457-28.114-39.71-45.345-50.183-73.789-12.504-33.957-5.821-77.105 21.316-102.341 34.763-32.325 96.798-44.787 142.505-49.499C-158.392-261.118-11.19-180.011-.285-28.444.396-18.98.483-9.475 0 0" style="fill:#75e6a4;fill-opacity:1;fill-rule:nonzero;stroke:none" transform="translate(477.958 268.965)"/><g clip-path="url(#b)" opacity=".7"><path d="M0 0c-3.052 59.894-28.029 119.624-73.055 160.014-70.785 63.499-208.676 62.143-281.327 2.401-25.196-20.719-40.033-48.096-45.826-79.856-6.201-33.994 1.905-70.923-11.434-103.656-11.457-28.114-39.71-45.345-50.183-73.789-12.504-33.957-5.821-77.105 21.316-102.341 34.763-32.325 96.798-44.787 142.505-49.499C-158.392-261.118-11.19-180.011-.285-28.444.396-18.98.483-9.475 0 0" style="fill:#fff;fill-opacity:1;fill-rule:nonzero;stroke:none" transform="translate(477.958 268.965)"/></g></g><g clip-path="url(#c)" transform="matrix(1.33333 0 0 -1.33333 0 666.667)"><path d="M0 0c0-13.279-10.765-24.044-24.044-24.044S-48.089-13.279-48.089 0s10.765 24.044 24.045 24.044C-10.765 24.044 0 13.279 0 0" style="fill:#75e6a4;fill-opacity:1;fill-rule:nonzero;stroke:none" transform="translate(419.19 454.61)"/></g><g clip-path="url(#d)" transform="matrix(1.33333 0 0 -1.33333 0 666.667)"><path d="M0 0s-6.915 9.796-17.287 10.372S-33.998 0-36.879-2.305-42.641 1.152-47.827.576s-8.068-5.762-9.796-7.491c-1.729-1.728-6.339 1.729-11.525 1.729s-7.491-4.034-9.796-6.339-8.644-4.033-8.644-4.033H28.236s-1.729 7.491-7.491 12.101c-5.763 4.609-10.373 1.152-13.83.576S0 0 0 0Z" style="fill:none;stroke:#233239;stroke-width:1;stroke-linecap:butt;stroke-linejoin:miter;stroke-miterlimit:10;stroke-dasharray:none;stroke-opacity:1" transform="translate(359.134 409.98)"/><path d="M0 0s-5.085 7.203-12.711 7.627S-24.998 0-27.117-1.695-31.354.847-35.167.424C-38.981 0-41.099-3.813-42.37-5.085c-1.271-1.271-4.661 1.272-8.474 1.272s-5.508-2.966-7.203-4.661-6.356-2.966-6.356-2.966h85.164s-1.271 5.508-5.508 8.898-7.626.847-10.169.423C2.542-2.542 0 0 0 0Z" style="fill:none;stroke:#233239;stroke-width:1;stroke-linecap:butt;stroke-linejoin:miter;stroke-miterlimit:10;stroke-dasharray:none;stroke-opacity:1" transform="translate(94.686 456.891)"/><path d="M0 0s-5.085 7.203-12.711 7.627S-24.999 0-27.117-1.695-31.354.847-35.167.424C-38.981 0-41.099-3.813-42.37-5.085c-1.271-1.271-4.661 1.272-8.474 1.272s-5.509-2.966-7.203-4.661c-1.695-1.695-6.356-2.966-6.356-2.966h85.164s-1.271 5.508-5.508 8.898-7.626.847-10.169.424C2.542-2.542 0 0 0 0Z" style="fill:none;stroke:#233239;stroke-width:1;stroke-linecap:butt;stroke-linejoin:miter;stroke-miterlimit:10;stroke-dasharray:none;stroke-opacity:1" transform="translate(153.189 438.834)"/></g><path d="M0 0v123.991h11.497v12.783h34.492v-10.226h9.034V-85.644H79.66v-37.069h15.603" style="fill:none;stroke:#233239;stroke-width:1;stroke-linecap:butt;stroke-linejoin:miter;stroke-miterlimit:10;stroke-dasharray:none;stroke-opacity:1" transform="matrix(1.33333 0 0 -1.33333 529.525 288.029)"/><path d="M0 0v95.87h23.816V72.861h11.497v33.235h25.458V-37.07h21.352V-88.2h17.246v79.252h12.319V7.67" style="fill:none;stroke:#233239;stroke-width:1;stroke-linecap:butt;stroke-linejoin:miter;stroke-miterlimit:10;stroke-dasharray:none;stroke-opacity:1" transform="matrix(1.33333 0 0 -1.33333 380.608 310.186)"/><path d="M0 0v-170.009h13.961v99.705h19.71v-84.366h55.843v75.418" style="fill:none;stroke:#233239;stroke-width:1;stroke-linecap:butt;stroke-linejoin:miter;stroke-miterlimit:10;stroke-dasharray:none;stroke-opacity:1" transform="matrix(1.33333 0 0 -1.33333 261.256 224.968)"/><path d="M0 0v209.635h43.525v-70.304" style="fill:none;stroke:#233239;stroke-width:1;stroke-linecap:butt;stroke-linejoin:miter;stroke-miterlimit:10;stroke-dasharray:none;stroke-opacity:1" transform="matrix(1.33333 0 0 -1.33333 203.222 391.994)"/><path d="M0 0v-24.287h12.319V85.644h49.273V-84.365h22.995v16.617" style="fill:none;stroke:#233239;stroke-width:1;stroke-linecap:butt;stroke-linejoin:miter;stroke-miterlimit:10;stroke-dasharray:none;stroke-opacity:1" transform="matrix(1.33333 0 0 -1.33333 90.44 310.186)"/><path d="M0 0h18.067v158.504H53.38v-39.626" style="fill:none;stroke:#233239;stroke-width:1;stroke-linecap:butt;stroke-linejoin:miter;stroke-miterlimit:10;stroke-dasharray:none;stroke-opacity:1" transform="matrix(1.33333 0 0 -1.33333 19.266 451.647)"/><path d="M0 0v-90.834h22.899v-22.899" style="fill:none;stroke:#233239;stroke-width:1;stroke-linecap:butt;stroke-linejoin:miter;stroke-miterlimit:10;stroke-dasharray:none;stroke-opacity:1" transform="matrix(1.33333 0 0 -1.33333 590.978 289.512)"/><path d="M0 0v-12.976h8.396v-103.81" style="fill:none;stroke:#233239;stroke-width:1;stroke-linecap:butt;stroke-linejoin:miter;stroke-miterlimit:10;stroke-dasharray:none;stroke-opacity:1" transform="matrix(1.33333 0 0 -1.33333 579.783 114.46)"/><path d="M0 0v-15.266h19.846v-21.373H3.816v-8.396h16.03v-8.397" style="fill:none;stroke:#233239;stroke-width:1;stroke-linecap:butt;stroke-linejoin:miter;stroke-miterlimit:10;stroke-dasharray:none;stroke-opacity:1" transform="matrix(1.33333 0 0 -1.33333 449.511 351.594)"/><path d="M0 0h9.16v-118.313" style="fill:none;stroke:#233239;stroke-width:1;stroke-linecap:butt;stroke-linejoin:miter;stroke-miterlimit:10;stroke-dasharray:none;stroke-opacity:1" transform="matrix(1.33333 0 0 -1.33333 437.298 179.595)"/><path d="M0 0v-43.385" style="fill:none;stroke:#233239;stroke-width:1;stroke-linecap:butt;stroke-linejoin:miter;stroke-miterlimit:10;stroke-dasharray:none;stroke-opacity:1" transform="matrix(1.33333 0 0 -1.33333 161.489 364.825)"/><path d="M0 0v-106.1" style="fill:none;stroke:#233239;stroke-width:1;stroke-linecap:butt;stroke-linejoin:miter;stroke-miterlimit:10;stroke-dasharray:none;stroke-opacity:1" transform="matrix(1.33333 0 0 -1.33333 161.489 207.074)"/><path d="m0 0-23.663-52.668" style="fill:none;stroke:#233239;stroke-width:1;stroke-linecap:butt;stroke-linejoin:miter;stroke-miterlimit:10;stroke-dasharray:none;stroke-opacity:1" transform="matrix(1.33333 0 0 -1.33333 81.087 250.837)"/><path d="M232.742 58.24h-65.835V26.189h65.835zM263.928 90.292h-65.835V58.241h65.835z" style="fill:#fff;fill-opacity:1;fill-rule:nonzero;stroke:#233239;stroke-width:1;stroke-linecap:butt;stroke-linejoin:miter;stroke-miterlimit:10;stroke-dasharray:none;stroke-opacity:1" transform="matrix(1.33333 0 0 -1.33333 0 666.667)"/><path d="M326.587 90.292h-65.835V58.241h65.835z" style="fill:#fff;fill-opacity:1;fill-rule:nonzero;stroke:#233239;stroke-width:1;stroke-linecap:butt;stroke-linejoin:miter;stroke-miterlimit:10;stroke-dasharray:none;stroke-opacity:1" transform="matrix(1.33333 0 0 -1.33333 0 666.667)"/><path d="M389.246 90.292h-65.835V58.241h65.835zM326.587 153.528h-65.835v-32.051h65.835z" style="fill:#fff;fill-opacity:1;fill-rule:nonzero;stroke:#233239;stroke-width:1;stroke-linecap:butt;stroke-linejoin:miter;stroke-miterlimit:10;stroke-dasharray:none;stroke-opacity:1" transform="matrix(1.33333 0 0 -1.33333 0 666.667)"/><path d="M389.246 153.528h-65.835v-32.051h65.835zM451.906 90.292h-65.835V58.241h65.835zM298.13 58.24h-65.835V26.189h65.835z" style="fill:#fff;fill-opacity:1;fill-rule:nonzero;stroke:#233239;stroke-width:1;stroke-linecap:butt;stroke-linejoin:miter;stroke-miterlimit:10;stroke-dasharray:none;stroke-opacity:1" transform="matrix(1.33333 0 0 -1.33333 0 666.667)"/><path d="M363.519 58.24h-65.835V26.189h65.835z" style="fill:#fff;fill-opacity:1;fill-rule:nonzero;stroke:#233239;stroke-width:1;stroke-linecap:butt;stroke-linejoin:miter;stroke-miterlimit:10;stroke-dasharray:none;stroke-opacity:1" transform="matrix(1.33333 0 0 -1.33333 0 666.667)"/><path d="M428.907 58.24h-65.835V26.189h65.835zM298.13 121.91h-65.835V89.859h65.835z" style="fill:#fff;fill-opacity:1;fill-rule:nonzero;stroke:#233239;stroke-width:1;stroke-linecap:butt;stroke-linejoin:miter;stroke-miterlimit:10;stroke-dasharray:none;stroke-opacity:1" transform="matrix(1.33333 0 0 -1.33333 0 666.667)"/><path d="M363.519 121.91h-65.835V89.859h65.835z" style="fill:#fff;fill-opacity:1;fill-rule:nonzero;stroke:#233239;stroke-width:1;stroke-linecap:butt;stroke-linejoin:miter;stroke-miterlimit:10;stroke-dasharray:none;stroke-opacity:1" transform="matrix(1.33333 0 0 -1.33333 0 666.667)"/><path d="M428.907 121.91h-65.835V89.859h65.835zM494.295 58.24H428.46V26.189h65.835z" style="fill:#fff;fill-opacity:1;fill-rule:nonzero;stroke:#233239;stroke-width:1;stroke-linecap:butt;stroke-linejoin:miter;stroke-miterlimit:10;stroke-dasharray:none;stroke-opacity:1" transform="matrix(1.33333 0 0 -1.33333 0 666.667)"/><g clip-path="url(#e)" transform="matrix(1.33333 0 0 -1.33333 0 666.667)"><path d="M0 0q-.214.01-.43.027a12.54 12.54 0 0 0-10.149 6.704l-54.403 103.543-6.53 1.045a2.637 2.637 0 0 0-2.186 3.02 2.625 2.625 0 0 0 3.02 2.186l7.832-1.255a2.64 2.64 0 0 0 1.916-1.377L-5.913 9.182a7.3 7.3 0 0 1 5.905-3.9c3.418-.248 6.619 1.909 7.61 5.193l11.987 39.743a2.63 2.63 0 0 0 3.291 1.76l78.782-24.002-25.454 49.453a2.634 2.634 0 0 0 1.137 3.549 2.634 2.634 0 0 0 3.55-1.138l28.308-54.998a2.636 2.636 0 0 0-3.112-3.726L23.872 46.165 12.648 8.953C10.988 3.447 5.712-.26 0 0" style="fill:#fff;fill-opacity:1;fill-rule:nonzero;stroke:none" transform="translate(123.93 27.047)"/><path d="M0 0q-.214.01-.43.027a12.54 12.54 0 0 0-10.149 6.704l-54.403 103.543-6.53 1.045a2.637 2.637 0 0 0-2.186 3.02 2.625 2.625 0 0 0 3.02 2.186l7.832-1.255a2.64 2.64 0 0 0 1.916-1.377L-5.913 9.182a7.3 7.3 0 0 1 5.905-3.9c3.418-.248 6.619 1.909 7.61 5.193l11.987 39.743a2.63 2.63 0 0 0 3.291 1.76l78.782-24.002-25.454 49.453a2.634 2.634 0 0 0 1.137 3.549 2.634 2.634 0 0 0 3.55-1.138l28.308-54.998a2.636 2.636 0 0 0-3.112-3.726L23.872 46.165 12.648 8.953C10.988 3.447 5.712-.26 0 0Z" style="fill:none;stroke:#233239;stroke-width:1;stroke-linecap:butt;stroke-linejoin:miter;stroke-miterlimit:10;stroke-dasharray:none;stroke-opacity:1" transform="translate(123.93 27.047)"/><path d="M0 0a4 4 0 0 0-.42.039l-26.038 3.563a4.61 4.61 0 0 0-3.945 5.194 4.6 4.6 0 0 0 5.196 3.944L.831 9.178A4.612 4.612 0 0 0 0 0" style="fill:#233239;fill-opacity:1;fill-rule:nonzero;stroke:none" transform="translate(52.63 136.361)"/><path d="M0 0a4 4 0 0 0-.42.039l-26.038 3.563a4.61 4.61 0 0 0-3.945 5.194 4.6 4.6 0 0 0 5.196 3.944L.831 9.178A4.612 4.612 0 0 0 0 0Z" style="fill:none;stroke:#233239;stroke-width:1;stroke-linecap:butt;stroke-linejoin:miter;stroke-miterlimit:10;stroke-dasharray:none;stroke-opacity:1" transform="translate(52.63 136.361)"/><path d="M0 0c.588 12.869-9.368 23.778-22.236 24.366S-46.015 14.999-46.603 2.13s9.368-23.778 22.237-24.367C-11.497-22.825-.588-12.869 0 0" style="fill:#233239;fill-opacity:1;fill-rule:nonzero;stroke:none" transform="translate(254.09 49.619)"/><path d="M0 0c.588 12.869-9.368 23.778-22.236 24.366S-46.015 14.999-46.603 2.13s9.368-23.778 22.237-24.367C-11.497-22.825-.588-12.869 0 0Z" style="fill:none;stroke:#233239;stroke-width:1;stroke-linecap:butt;stroke-linejoin:miter;stroke-miterlimit:10;stroke-dasharray:none;stroke-opacity:1" transform="translate(254.09 49.619)"/><path d="M0 0c.243 5.309-3.865 9.81-9.174 10.053-5.31.243-9.81-3.865-10.053-9.174-.243-5.31 3.865-9.811 9.174-10.053C-4.743-9.417-.243-5.309 0 0" style="fill:#fff;fill-opacity:1;fill-rule:nonzero;stroke:none" transform="translate(240.403 50.244)"/><path d="M0 0c.243 5.309-3.865 9.81-9.174 10.053-5.31.243-9.81-3.865-10.053-9.174-.243-5.31 3.865-9.811 9.174-10.053C-4.743-9.417-.243-5.309 0 0Z" style="fill:none;stroke:#233239;stroke-width:1;stroke-linecap:butt;stroke-linejoin:miter;stroke-miterlimit:10;stroke-dasharray:none;stroke-opacity:1" transform="translate(240.403 50.244)"/><path d="M0 0s51.249 28.013 63.387 27.925c12.138-.087 55.894-33.843 55.894-33.843Z" style="fill:#75e6a4;fill-opacity:1;fill-rule:nonzero;stroke:none" transform="translate(89.031 137.018)"/><path d="M0 0s51.249 28.013 63.387 27.925c12.138-.087 55.894-33.843 55.894-33.843Z" style="fill:none;stroke:#233239;stroke-width:1;stroke-linecap:butt;stroke-linejoin:miter;stroke-miterlimit:10;stroke-dasharray:none;stroke-opacity:1" transform="translate(89.031 137.018)"/><path d="m0 0 15.83-62.367 91.807-4.196 36.831 59.961z" style="fill:#fff;fill-opacity:1;fill-rule:nonzero;stroke:none" transform="translate(80.792 140.664)"/><path d="m0 0 15.83-62.367 91.807-4.196 36.831 59.961z" style="fill:none;stroke:#233239;stroke-width:1;stroke-linecap:butt;stroke-linejoin:miter;stroke-miterlimit:10;stroke-dasharray:none;stroke-opacity:1" transform="translate(80.792 140.664)"/></g><path d="M0 0h488.25" style="fill:none;stroke:#233239;stroke-width:1;stroke-linecap:butt;stroke-linejoin:miter;stroke-miterlimit:10;stroke-dasharray:none;stroke-opacity:1" transform="matrix(1.33333 0 0 -1.33333 9.831 631.619)"/><g clip-path="url(#f)" transform="matrix(1.33333 0 0 -1.33333 0 666.667)"><path d="M0 0s-2.245.935-3.367-.935C-4.49-2.806-4.864-4.49-4.864-4.49S-7.67-6.173-8.231-7.109c-.561-.935-1.871-2.806-1.871-2.806s-21.6-22.892-27.212-29.44c-5.612-6.547-5.554-17.721 3.986-21.275s18.472-.719 21.465-1.655c2.993-.935 34.873.363 34.873.363l7.109 32.364s-3.554 1.31-6.361 1.123-27.848-6.562-29.157-6.562l16.45 19.894s1.165.986 1.913 2.295c.749 1.31 1.628-.1 1.628 1.022s.561 2.806.561 2.806S3.18-3.928 0 0" style="fill:#233239;fill-opacity:1;fill-rule:nonzero;stroke:none" transform="translate(182.726 398.008)"/><path d="M0 0s-2.245.935-3.367-.935C-4.49-2.806-4.864-4.49-4.864-4.49S-7.67-6.173-8.231-7.109c-.561-.935-1.871-2.806-1.871-2.806s-21.6-22.892-27.212-29.44c-5.612-6.547-5.554-17.721 3.986-21.275s18.472-.719 21.465-1.655c2.993-.935 34.873.363 34.873.363l7.109 32.364s-3.554 1.31-6.361 1.123-27.848-6.562-29.157-6.562l16.45 19.894s1.165.986 1.913 2.295c.749 1.31 1.628-.1 1.628 1.022s.561 2.806.561 2.806S3.18-3.928 0 0z" style="fill:none;stroke:#233239;stroke-width:1;stroke-linecap:butt;stroke-linejoin:miter;stroke-miterlimit:10;stroke-dasharray:none;stroke-opacity:1" transform="translate(182.726 398.008)"/><path d="M0 0s-6.095-18.578-7.778-19.513c-1.684-.936-16.167.576-16.167.576" style="fill:none;stroke:#858585;stroke-width:1;stroke-linecap:butt;stroke-linejoin:miter;stroke-miterlimit:10;stroke-dasharray:none;stroke-opacity:1" transform="translate(176.101 360.46)"/><path d="m0 0 20.552-9.714" style="fill:none;stroke:#858585;stroke-width:1;stroke-linecap:butt;stroke-linejoin:miter;stroke-miterlimit:10;stroke-dasharray:none;stroke-opacity:1" transform="translate(183.126 352.16)"/><path d="m0 0 19.617-2.979" style="fill:none;stroke:#858585;stroke-width:1;stroke-linecap:butt;stroke-linejoin:miter;stroke-miterlimit:10;stroke-dasharray:none;stroke-opacity:1" transform="translate(182.752 344.116)"/><path d="M0 0s3.742-14.031 7.109-17.211 6.547-3.741 6.547-3.741 1.31-3.181-1.683-9.167S-3.18-41.343-3.18-41.343s-8.419-14.966-9.728-15.153c-1.31-.188-4.864 14.404-4.677 15.34s-4.116 5.612-4.677 10.85.561 6.548.561 6.548z" style="fill:#fff;fill-opacity:1;fill-rule:nonzero;stroke:none" transform="translate(253.253 395.576)"/><path d="M0 0s3.742-14.031 7.109-17.211 6.547-3.741 6.547-3.741 1.31-3.181-1.683-9.167S-3.18-41.343-3.18-41.343s-8.419-14.966-9.728-15.153c-1.31-.188-4.864 14.404-4.677 15.34s-4.116 5.612-4.677 10.85.561 6.548.561 6.548z" style="fill:none;stroke:#233239;stroke-width:1;stroke-linecap:butt;stroke-linejoin:miter;stroke-miterlimit:10;stroke-dasharray:none;stroke-opacity:1" transform="translate(253.253 395.576)"/><path d="M0 0c.753-2.34 1.487-4.09 1.946-4.025 1.309.187 9.727 15.153 9.727 15.153L-.673 10.006Z" style="fill:#233239;fill-opacity:1;fill-rule:nonzero;stroke:none" transform="translate(238.4 343.105)"/><path d="M0 0c.753-2.34 1.487-4.09 1.946-4.025 1.309.187 9.727 15.153 9.727 15.153L-.673 10.006Z" style="fill:none;stroke:#233239;stroke-width:1;stroke-linecap:butt;stroke-linejoin:miter;stroke-miterlimit:10;stroke-dasharray:none;stroke-opacity:1" transform="translate(238.4 343.105)"/><path d="M0 0s.903-48.173 4.817-64.732c3.914-16.56 5.721-32.818 5.721-32.818s-2.409-14.452.602-21.678 3.914-18.667 3.914-18.667-2.71-6.323-1.505-9.033c1.204-2.709 1.806-9.634 1.806-10.838 0-1.205 26.495-1.807 26.495-1.807s1.205 7.527.301 15.054c-.903 7.527-2.408 14.452-2.408 17.764s.301 21.979.602 29.506-.602 17.764-.602 21.076c0 3.311-2.108 52.086-2.108 52.086l4.817-6.021S57.807-91.83 60.517-99.056s7.226-28.903 9.033-32.516 3.914-14.753 3.914-15.958c0-1.204 2.709-16.86 2.709-16.86l25.291-.301s1.807 3.01 2.409 6.322-.903 1.506-2.71 10.237-8.129 52.388-11.441 59.915-5.118 12.646-5.118 13.85 1.505 0-.301 6.323c-1.807 6.322-2.71 11.742-2.71 11.742L83.098-.903s-19.57 14.15-31.011 21.075-19.57 11.14-25.893 6.323S0 0 0 0" style="fill:#6e6e6e;fill-opacity:1;fill-rule:nonzero;stroke:none" transform="translate(199.075 242.462)"/><path d="M0 0s.903-48.173 4.817-64.732c3.914-16.56 5.721-32.818 5.721-32.818s-2.409-14.452.602-21.678 3.914-18.667 3.914-18.667-2.71-6.323-1.505-9.033c1.204-2.709 1.806-9.634 1.806-10.838 0-1.205 26.495-1.807 26.495-1.807s1.205 7.527.301 15.054c-.903 7.527-2.408 14.452-2.408 17.764s.301 21.979.602 29.506-.602 17.764-.602 21.076c0 3.311-2.108 52.086-2.108 52.086l4.817-6.021S57.807-91.83 60.517-99.056s7.226-28.903 9.033-32.516 3.914-14.753 3.914-15.958c0-1.204 2.709-16.86 2.709-16.86l25.291-.301s1.807 3.01 2.409 6.322-.903 1.506-2.71 10.237-8.129 52.388-11.441 59.915-5.118 12.646-5.118 13.85 1.505 0-.301 6.323c-1.807 6.322-2.71 11.742-2.71 11.742L83.098-.903s-19.57 14.15-31.011 21.075-19.57 11.14-25.893 6.323S0 0 0 0Z" style="fill:none;stroke:#233239;stroke-width:1;stroke-linecap:butt;stroke-linejoin:miter;stroke-miterlimit:10;stroke-dasharray:none;stroke-opacity:1" transform="translate(199.075 242.462)"/><path d="m0 0 16.559-5.419" style="fill:none;stroke:#233239;stroke-width:1;stroke-linecap:butt;stroke-linejoin:miter;stroke-miterlimit:10;stroke-dasharray:none;stroke-opacity:1" transform="translate(216.538 225.602)"/><path d="M0 0s-9.936 5.721-22.882 3.914" style="fill:none;stroke:#233239;stroke-width:1;stroke-linecap:butt;stroke-linejoin:miter;stroke-miterlimit:10;stroke-dasharray:none;stroke-opacity:1" transform="translate(233.399 217.472)"/><path d="M0 0c-1.505-.301-17.162-6.624-19.871-10.839" style="fill:none;stroke:#233239;stroke-width:1;stroke-linecap:butt;stroke-linejoin:miter;stroke-miterlimit:10;stroke-dasharray:none;stroke-opacity:1" transform="translate(258.69 236.14)"/><path d="M0 0s-11.742-7.226-12.344-9.936" style="fill:none;stroke:#233239;stroke-width:1;stroke-linecap:butt;stroke-linejoin:miter;stroke-miterlimit:10;stroke-dasharray:none;stroke-opacity:1" transform="translate(252.367 228.914)"/><path d="M0 0s4.303-.187 7.67-9.354S28.809-61.36 28.809-61.36s5.426-9.728 5.613-11.973-.749-4.116-.749-4.116 2.058-8.231-.187-11.411-3.18-5.612-15.34-5.051-20.952 5.612-20.952 5.612c-3.18-.561-4.677-1.684-4.677 3.929s.561 17.397 2.432 17.585c1.871.187 2.993 0 3.554 0 .562 0-5.238 8.044-4.489 8.792.748.748-5.051 9.541-5.051 23.197C-11.037-21.139-3.18-1.122 0 0" style="fill:#233239;fill-opacity:1;fill-rule:nonzero;stroke:none" transform="translate(298.899 370.695)"/><path d="M0 0s4.303-.187 7.67-9.354S28.809-61.36 28.809-61.36s5.426-9.728 5.613-11.973-.749-4.116-.749-4.116 2.058-8.231-.187-11.411-3.18-5.612-15.34-5.051-20.952 5.612-20.952 5.612c-3.18-.561-4.677-1.684-4.677 3.929s.561 17.397 2.432 17.585c1.871.187 2.993 0 3.554 0 .562 0-5.238 8.044-4.489 8.792.748.748-5.051 9.541-5.051 23.197C-11.037-21.139-3.18-1.122 0 0Z" style="fill:none;stroke:#233239;stroke-width:1;stroke-linecap:butt;stroke-linejoin:miter;stroke-miterlimit:10;stroke-dasharray:none;stroke-opacity:1" transform="translate(298.899 370.695)"/><path d="M0 0s.748-3.928 2.432-5.986 4.49-2.619 4.49-2.619l1.87-11.599 6.735 14.031s7.857 2.245 11.599 4.676 6.734 11.973 6.734 11.973l31.99-3.928s-7.296-21.888-8.418-35.357c-1.123-13.47 2.432-22.636 2.432-22.636L54.813-104.2l1.309-22.636s-4.49-2.993-21.139-1.123c-16.65 1.871-24.694 3.555-24.694 3.555S1.122-107.755.561-106.445s-1.87 4.677-1.87 4.677l-3.742-23.197s-9.354-1.871-16.65-2.245-14.591 0-14.591 0-1.497 23.197.935 35.544 2.993 16.088 2.993 16.088-1.122 21.139 0 27.5 6.174 35.357 6.735 37.228 4.303 17.211 4.303 17.211l17.397-.936 4.864-.561Z" style="fill:#75e6a4;fill-opacity:1;fill-rule:nonzero;stroke:none" transform="translate(233.049 364.148)"/><path d="M0 0s.748-3.928 2.432-5.986 4.49-2.619 4.49-2.619l1.87-11.599 6.735 14.031s7.857 2.245 11.599 4.676 6.734 11.973 6.734 11.973l31.99-3.928s-7.296-21.888-8.418-35.357c-1.123-13.47 2.432-22.636 2.432-22.636L54.813-104.2l1.309-22.636s-4.49-2.993-21.139-1.123c-16.65 1.871-24.694 3.555-24.694 3.555S1.122-107.755.561-106.445s-1.87 4.677-1.87 4.677l-3.742-23.197s-9.354-1.871-16.65-2.245-14.591 0-14.591 0-1.497 23.197.935 35.544 2.993 16.088 2.993 16.088-1.122 21.139 0 27.5 6.174 35.357 6.735 37.228 4.303 17.211 4.303 17.211l17.397-.936 4.864-.561Z" style="fill:none;stroke:#233239;stroke-width:1;stroke-linecap:butt;stroke-linejoin:miter;stroke-miterlimit:10;stroke-dasharray:none;stroke-opacity:1" transform="translate(233.049 364.148)"/><path d="M0 0c6.022 1.807 19.57 3.613 38.839 2.108C53.166.988 74.972-5.621 85.221-8.939l-.048.832 1.311 13.689c-13.601 10.08-38.681 10.977-51.258 10.977H14.151c-6.529 0-12.965-1.857-17.494-3.559-.42-2.237-.958-5.043-1.653-8.573-.381-1.931-.665-4.128-.874-6.46A81 81 0 0 0 0 0" style="fill:#fff;fill-opacity:1;fill-rule:nonzero;stroke:none" transform="translate(202.688 268.054)"/><path d="M0 0c6.022 1.807 19.57 3.613 38.839 2.108C53.166.988 74.972-5.621 85.221-8.939l-.048.832 1.311 13.689c-13.601 10.08-38.681 10.977-51.258 10.977H14.151c-6.529 0-12.965-1.857-17.494-3.559-.42-2.237-.958-5.043-1.653-8.573-.381-1.931-.665-4.128-.874-6.46A81 81 0 0 0 0 0Z" style="fill:none;stroke:#233239;stroke-width:1;stroke-linecap:butt;stroke-linejoin:miter;stroke-miterlimit:10;stroke-dasharray:none;stroke-opacity:1" transform="translate(202.688 268.054)"/><path d="M0 0c-10.795-.502-21.793-3.096-25.152-3.945-.545-3.103-.989-5.638-1.239-7.051-.277-1.572-.417-4.048-.471-6.884 5.227.824 11.92 1.766 20.539 2.826 32.026 3.937 63.763-5.148 71.372-7.541l.788 8.232s-1.313 3.408-2.091 9.099C45.358.844 11.801.549 0 0" style="fill:#fff;fill-opacity:1;fill-rule:nonzero;stroke:none" transform="translate(227.076 327.066)"/><path d="M0 0c-10.795-.502-21.793-3.096-25.152-3.945-.545-3.103-.989-5.638-1.239-7.051-.277-1.572-.417-4.048-.471-6.884 5.227.824 11.92 1.766 20.539 2.826 32.026 3.937 63.763-5.148 71.372-7.541l.788 8.232s-1.313 3.408-2.091 9.099C45.358.844 11.801.549 0 0Z" style="fill:none;stroke:#233239;stroke-width:1;stroke-linecap:butt;stroke-linejoin:miter;stroke-miterlimit:10;stroke-dasharray:none;stroke-opacity:1" transform="translate(227.076 327.066)"/><path d="M0 0s5.799-11.224 6.173-12.908c.375-1.684.375-7.296 3.555-11.599 3.18-4.302 11.973-12.908 15.714-13.843 3.742-.936 8.98 0 11.412 2.619s8.418 12.721 10.289 17.959c1.87 5.238 1.309 9.728 1.309 9.728s4.677 2.245 5.051 6.734c.374 4.49-1.309 7.296-1.309 7.296s-3.742 3.555-6.361 3.929-5.238-.561-5.238-.561 1.497 8.044-4.49 10.102c-5.986 2.057-16.088-2.432-20.017-5.051S0 0 0 0" style="fill:#fff;fill-opacity:1;fill-rule:nonzero;stroke:none" transform="translate(205.55 401.937)"/><path d="M0 0s5.799-11.224 6.173-12.908c.375-1.684.375-7.296 3.555-11.599 3.18-4.302 11.973-12.908 15.714-13.843 3.742-.936 8.98 0 11.412 2.619s8.418 12.721 10.289 17.959c1.87 5.238 1.309 9.728 1.309 9.728s4.677 2.245 5.051 6.734c.374 4.49-1.309 7.296-1.309 7.296s-3.742 3.555-6.361 3.929-5.238-.561-5.238-.561 1.497 8.044-4.49 10.102c-5.986 2.057-16.088-2.432-20.017-5.051S0 0 0 0Z" style="fill:none;stroke:#233239;stroke-width:1;stroke-linecap:butt;stroke-linejoin:miter;stroke-miterlimit:10;stroke-dasharray:none;stroke-opacity:1" transform="translate(205.55 401.937)"/><path d="M0 0s-1.497-5.051 0-6.361 6.173-.186 6.735 3.181" style="fill:none;stroke:#233239;stroke-width:1;stroke-linecap:butt;stroke-linejoin:miter;stroke-miterlimit:10;stroke-dasharray:none;stroke-opacity:1" transform="translate(224.444 389.216)"/><path d="M0 0c0-.981-.754-1.777-1.684-1.777S-3.367-.981-3.367 0c0 .982.753 1.777 1.683 1.777S0 .982 0 0Z" style="fill:none;stroke:#233239;stroke-width:1;stroke-linecap:butt;stroke-linejoin:miter;stroke-miterlimit:10;stroke-dasharray:none;stroke-opacity:1" transform="translate(229.682 375.466)"/><path d="M0 0s-7.67-4.864-6.922-5.986c.749-1.123 7.857 1.683 9.728 4.49C4.677 1.31 3.18.748 0 0" style="fill:#233239;fill-opacity:1;fill-rule:nonzero;stroke:none" transform="translate(233.423 407.175)"/><path d="M0 0s-7.67-4.864-6.922-5.986c.749-1.123 7.857 1.683 9.728 4.49C4.677 1.31 3.18.748 0 0Z" style="fill:none;stroke:#233239;stroke-width:1;stroke-linecap:butt;stroke-linejoin:miter;stroke-miterlimit:10;stroke-dasharray:none;stroke-opacity:1" transform="translate(233.423 407.175)"/><path d="M0 0s-9.354 1.871-8.418-.374S-.187-2.806.748-1.497C1.684-.187 0 0 0 0" style="fill:#233239;fill-opacity:1;fill-rule:nonzero;stroke:none" transform="translate(218.457 398.382)"/><path d="M0 0s-9.354 1.871-8.418-.374S-.187-2.806.748-1.497C1.684-.187 0 0 0 0Z" style="fill:none;stroke:#233239;stroke-width:1;stroke-linecap:butt;stroke-linejoin:miter;stroke-miterlimit:10;stroke-dasharray:none;stroke-opacity:1" transform="translate(218.457 398.382)"/><path d="M0 0s2.806 5.051 7.483 3.367" style="fill:none;stroke:#233239;stroke-width:1;stroke-linecap:butt;stroke-linejoin:miter;stroke-miterlimit:10;stroke-dasharray:none;stroke-opacity:1" transform="translate(230.804 395.202)"/><path d="M0 0s0-5.425.748-6.735c.749-1.309 2.806-.187 2.994 1.497C3.929-3.554 0 0 0 0" style="fill:#fff;fill-opacity:1;fill-rule:nonzero;stroke:none" transform="translate(244.46 406.426)"/><path d="M0 0s0-5.425.748-6.735c.749-1.309 2.806-.187 2.994 1.497C3.929-3.554 0 0 0 0Z" style="fill:none;stroke:#233239;stroke-width:1;stroke-linecap:butt;stroke-linejoin:miter;stroke-miterlimit:10;stroke-dasharray:none;stroke-opacity:1" transform="translate(244.46 406.426)"/><path d="M0 0s-3.18 1.497-4.864.561c-1.684-.935-1.871-2.245-1.871-2.245" style="fill:none;stroke:#233239;stroke-width:1;stroke-linecap:butt;stroke-linejoin:miter;stroke-miterlimit:10;stroke-dasharray:none;stroke-opacity:1" transform="translate(220.515 391.274)"/><path d="M0 0s-13.844-7.296-13.095-8.792c.748-1.497 4.864-1.31 4.864-1.31s-4.864-4.49-5.425-10.663c-.562-6.174 5.238-.936 5.238-.936s-2.994-8.792-.562-9.353c2.432-.562 14.031 6.547 17.211 9.353s5.238 6.735 5.238 6.735-2.619-7.109-.748-6.548c1.871.562 7.296 8.045 7.296 8.045s-.561-2.245.748-2.245 5.799 4.864 5.799 4.864 0-5.051 1.497-6.174c1.497-1.122 2.993 1.123 2.993 1.123s.561-2.806 2.432-4.303 2.619-2.619 2.806-4.303 2.993.562 3.181 1.684c.187 1.122.187 4.116 2.806 2.806s3.367-2.993 3.367-2.993L43.027-8.792s2.993-2.994 2.619-.188-1.309 8.232-5.612 12.721-10.102 8.045-24.133 6.361S-4.49 2.619-4.49 1.684C-4.49.748 0 0 0 0" style="fill:#233239;fill-opacity:1;fill-rule:nonzero;stroke:none" transform="translate(212.47 429.437)"/><path d="M0 0s-13.844-7.296-13.095-8.792c.748-1.497 4.864-1.31 4.864-1.31s-4.864-4.49-5.425-10.663c-.562-6.174 5.238-.936 5.238-.936s-2.994-8.792-.562-9.353c2.432-.562 14.031 6.547 17.211 9.353s5.238 6.735 5.238 6.735-2.619-7.109-.748-6.548c1.871.562 7.296 8.045 7.296 8.045s-.561-2.245.748-2.245 5.799 4.864 5.799 4.864 0-5.051 1.497-6.174c1.497-1.122 2.993 1.123 2.993 1.123s.561-2.806 2.432-4.303 2.619-2.619 2.806-4.303 2.993.562 3.181 1.684c.187 1.122.187 4.116 2.806 2.806s3.367-2.993 3.367-2.993L43.027-8.792s2.993-2.994 2.619-.188-1.309 8.232-5.612 12.721-10.102 8.045-24.133 6.361S-4.49 2.619-4.49 1.684C-4.49.748 0 0 0 0Z" style="fill:none;stroke:#233239;stroke-width:1;stroke-linecap:butt;stroke-linejoin:miter;stroke-miterlimit:10;stroke-dasharray:none;stroke-opacity:1" transform="translate(212.47 429.437)"/><path d="m0 0-1.497-18.333s-4.677-6.735-3.741-8.98 13.095-9.541 15.153-8.979c2.058.561 6.547 10.289 7.109 11.598.561 1.31 9.915 5.612 11.785 8.419C30.68-13.469 32.364-.935 32.364.561c0 1.497-3.368 2.806-3.368 2.806S12.347 5.986 9.354 5.612C6.36 5.238 0 0 0 0" style="fill:#c7c7c7;fill-opacity:1;fill-rule:nonzero;stroke:none" transform="translate(187.964 425.321)"/><path d="m0 0-1.497-18.333s-4.677-6.735-3.741-8.98 13.095-9.541 15.153-8.979c2.058.561 6.547 10.289 7.109 11.598.561 1.31 9.915 5.612 11.785 8.419C30.68-13.469 32.364-.935 32.364.561c0 1.497-3.368 2.806-3.368 2.806S12.347 5.986 9.354 5.612C6.36 5.238 0 0 0 0Z" style="fill:none;stroke:#233239;stroke-width:1;stroke-linecap:butt;stroke-linejoin:miter;stroke-miterlimit:10;stroke-dasharray:none;stroke-opacity:1" transform="translate(187.964 425.321)"/><path d="M0 0s3.929 7.857 3.929 11.037-.749 8.98 8.418 15.153c9.167 6.174 27.5 4.677 35.544.562 8.044-4.116 8.793-12.347 9.354-16.65S58.741.935 59.115-.935s.375-4.677.375-4.677-.375 8.231-10.289 10.476-13.47 3.18-28.249-.748S-1.122-2.245-1.122-2.245Z" style="fill:#75e6a4;fill-opacity:1;fill-rule:nonzero;stroke:none" transform="translate(213.967 440.661)"/><path d="M0 0s3.929 7.857 3.929 11.037-.749 8.98 8.418 15.153c9.167 6.174 27.5 4.677 35.544.562 8.044-4.116 8.793-12.347 9.354-16.65S58.741.935 59.115-.935s.375-4.677.375-4.677-.375 8.231-10.289 10.476-13.47 3.18-28.249-.748S-1.122-2.245-1.122-2.245Z" style="fill:none;stroke:#233239;stroke-width:1;stroke-linecap:butt;stroke-linejoin:miter;stroke-miterlimit:10;stroke-dasharray:none;stroke-opacity:1" transform="translate(213.967 440.661)"/><path d="M0 0s3.367 9.915-3.554 15.34c-6.922 5.425-18.147 8.98-33.861 4.864s-20.017-6.922-21.7-7.857c-1.684-.936-10.289-5.238-10.851-7.296-.561-2.058 2.806-5.425 5.238-6.735 2.432-1.309 9.915-1.683 9.915-1.683s26.565-5.426 38.538-3.742S-.935-1.122 0 0" style="fill:#75e6a4;fill-opacity:1;fill-rule:nonzero;stroke:none" transform="translate(273.083 428.314)"/><g clip-path="url(#g)" opacity=".36"><path d="M0 0s3.367 9.915-3.554 15.34c-6.922 5.425-18.147 8.98-33.861 4.864s-20.017-6.922-21.7-7.857c-1.684-.936-10.29-5.238-10.851-7.296s2.806-5.425 5.238-6.735c2.432-1.309 9.915-1.683 9.915-1.683s26.565-5.426 38.537-3.742C-4.303-5.425-.935-1.122 0 0" style="fill:#000;fill-opacity:1;fill-rule:nonzero;stroke:none" transform="translate(272.804 428.558)"/></g><path d="M0 0s3.367 9.915-3.554 15.34c-6.922 5.425-18.147 8.98-33.861 4.864s-20.017-6.922-21.7-7.857c-1.684-.936-10.289-5.238-10.851-7.296-.561-2.058 2.806-5.425 5.238-6.735 2.432-1.309 9.915-1.683 9.915-1.683s26.565-5.426 38.538-3.742S-.935-1.122 0 0Z" style="fill:none;stroke:#233239;stroke-width:1;stroke-linecap:butt;stroke-linejoin:miter;stroke-miterlimit:10;stroke-dasharray:none;stroke-opacity:1" transform="translate(273.083 428.314)"/><path d="M0 0c-2.432-.748-5.425-.748-5.425-.748l1.496 12.534C.748 8.418 5.799 1.871 5.799 1.871S2.432.748 0 0m-10.476-.935s-4.677-2.058-11.412.561c-6.734 2.619-4.864 10.289-4.864 10.289 3.742 5.238 18.334 2.619 18.334 2.619zM17.585 15.34l-5.238 3.367s-1.123-5.238-1.684-6.547c-.561-1.31-6.547 5.612-13.095 6.547-11.813 1.688-19.83 0-25.068-2.432 0 0-3.741-4.676-3.18-9.166s1.309-9.915 9.541-11.412C-12.908-5.799-6.361-5.425.374-4.677s8.418 1.123 8.418 1.123l2.619-5.987 5.239 2.993s-2.058 3.742-2.432 5.987 3.367 15.901 3.367 15.901" style="fill:#fff;fill-opacity:1;fill-rule:nonzero;stroke:none" transform="translate(251.944 428.314)"/><path d="M0 0c-2.432-.748-5.425-.748-5.425-.748l1.496 12.534C.748 8.418 5.799 1.871 5.799 1.871S2.432.748 0 0Zm-10.476-.935s-4.677-2.058-11.412.561c-6.734 2.619-4.864 10.289-4.864 10.289 3.742 5.238 18.334 2.619 18.334 2.619zM17.585 15.34l-5.238 3.367s-1.123-5.238-1.684-6.547c-.561-1.31-6.547 5.612-13.095 6.547-11.813 1.688-19.83 0-25.068-2.432 0 0-3.741-4.676-3.18-9.166s1.309-9.915 9.541-11.412C-12.908-5.799-6.361-5.425.374-4.677s8.418 1.123 8.418 1.123l2.619-5.987 5.239 2.993s-2.058 3.742-2.432 5.987 3.367 15.901 3.367 15.901z" style="fill:none;stroke:#233239;stroke-width:1;stroke-linecap:butt;stroke-linejoin:miter;stroke-miterlimit:10;stroke-dasharray:none;stroke-opacity:1" transform="translate(251.944 428.314)"/><path d="M0 0s12.16 5.799 13.843 11.786c1.684 5.986 2.994 17.023 3.555 19.83s-1.31 6.173-4.49 3.367-5.051-11.412-5.051-11.412-10.476-8.605-11.599-11.785c-1.122-3.181-1.122-4.677-1.122-4.677" style="fill:#c7c7c7;fill-opacity:1;fill-rule:nonzero;stroke:#233239;stroke-width:1;stroke-linecap:butt;stroke-linejoin:miter;stroke-miterlimit:10;stroke-dasharray:none;stroke-opacity:1" transform="translate(205.55 401.937)"/><path d="M0 0s-3.742 1.497-5.238-1.122-.374-10.289-.561-12.909c-.187-2.619 3.367-3.741 4.864-1.309S1.122-3.367 1.309-1.871C1.497-.374 0 0 0 0" style="fill:#c7c7c7;fill-opacity:1;fill-rule:nonzero;stroke:none" transform="translate(205.175 434.675)"/><path d="M0 0s-3.742 1.497-5.238-1.122-.374-10.289-.561-12.909c-.187-2.619 3.367-3.741 4.864-1.309S1.122-3.367 1.309-1.871C1.497-.374 0 0 0 0Z" style="fill:none;stroke:#233239;stroke-width:1;stroke-linecap:butt;stroke-linejoin:miter;stroke-miterlimit:10;stroke-dasharray:none;stroke-opacity:1" transform="translate(205.175 434.675)"/><path d="M0 0s-4.677-.561-5.612-2.993-2.245-8.232-.936-11.038 2.432-3.367 4.303-1.683 2.058 4.677 2.058 6.36S0 0 0 0" style="fill:#c7c7c7;fill-opacity:1;fill-rule:nonzero;stroke:none" transform="translate(199.937 433.552)"/><path d="M0 0s-4.677-.561-5.612-2.993-2.245-8.232-.936-11.038 2.432-3.367 4.303-1.683 2.058 4.677 2.058 6.36S0 0 0 0Z" style="fill:none;stroke:#233239;stroke-width:1;stroke-linecap:butt;stroke-linejoin:miter;stroke-miterlimit:10;stroke-dasharray:none;stroke-opacity:1" transform="translate(199.937 433.552)"/><path d="M0 0s-4.303-.187-5.799-2.619.187-8.98 1.122-10.663c.935-1.684 2.806-.374 3.742.935S-.374-5.051 0 0" style="fill:#c7c7c7;fill-opacity:1;fill-rule:nonzero;stroke:none" transform="translate(194.325 430.56)"/><path d="M0 0s-4.303-.187-5.799-2.619.187-8.98 1.122-10.663c.935-1.684 2.806-.374 3.742.935S-.374-5.051 0 0Z" style="fill:none;stroke:#233239;stroke-width:1;stroke-linecap:butt;stroke-linejoin:miter;stroke-miterlimit:10;stroke-dasharray:none;stroke-opacity:1" transform="translate(194.325 430.56)"/><path d="m0 0 16.462 3.367s10.102-2.058 12.16-7.483" style="fill:none;stroke:#858585;stroke-width:1;stroke-linecap:butt;stroke-linejoin:miter;stroke-miterlimit:10;stroke-dasharray:none;stroke-opacity:1" transform="translate(300.583 304.097)"/><path d="M0 0s6.174 3.367 11.599-.374" style="fill:none;stroke:#233239;stroke-width:1;stroke-linecap:butt;stroke-linejoin:miter;stroke-miterlimit:10;stroke-dasharray:none;stroke-opacity:1" transform="translate(313.304 309.148)"/><path d="M0 0s-3.011-25.592-4.516-37.033" style="fill:none;stroke:#233239;stroke-width:1;stroke-linecap:butt;stroke-linejoin:miter;stroke-miterlimit:10;stroke-dasharray:none;stroke-opacity:1" transform="translate(238.216 333.99)"/><path d="M0 0s-1.806-16.559-1.806-18.366" style="fill:none;stroke:#233239;stroke-width:1;stroke-linecap:butt;stroke-linejoin:miter;stroke-miterlimit:10;stroke-dasharray:none;stroke-opacity:1" transform="translate(233.097 287.624)"/><path d="M0 0s-27.343 1.204-38.073 1.204-20.075 3.613-30.459.603c-10.383-3.011-24.574-14.151-24.574-14.151s-12.115-3.914-17.306-5.119-9.692-2.107-13.845-5.419-11.076-8.43-16.614-10.237c-5.538-1.806-21.806-3.011-27.344-6.022-5.537-3.01-17.306-10.236-18.344-11.14s-6.576-3.311-6.576-3.311l-22.498-5.721h459.302s-38.766 6.925-54.687 13.248c-15.922 6.322-22.152 15.355-33.228 17.161s-24.574 2.71-25.613 2.71-11.768 4.215-16.613 6.925c-4.846 2.71-25.267 15.355-34.612 16.559s-36.689-.602-36.689-.602-6.23.301-8.999.301S0 0 0 0" style="fill:#75e6a4;fill-opacity:1;fill-rule:nonzero;stroke:none" transform="translate(243.592 85.599)"/><path d="M0 0s-27.343 1.204-38.073 1.204-20.075 3.613-30.459.603c-10.383-3.011-24.574-14.151-24.574-14.151s-12.115-3.914-17.306-5.119-9.692-2.107-13.845-5.419-11.076-8.43-16.614-10.237c-5.538-1.806-21.806-3.011-27.344-6.022-5.537-3.01-17.306-10.236-18.344-11.14s-6.576-3.311-6.576-3.311l-22.498-5.721h459.302s-38.766 6.925-54.687 13.248c-15.922 6.322-22.152 15.355-33.228 17.161s-24.574 2.71-25.613 2.71-11.768 4.215-16.613 6.925c-4.846 2.71-25.267 15.355-34.612 16.559s-36.689-.602-36.689-.602-6.23.301-8.999.301S0 0 0 0Z" style="fill:none;stroke:#233239;stroke-width:1;stroke-linecap:butt;stroke-linejoin:miter;stroke-miterlimit:10;stroke-dasharray:none;stroke-opacity:1" transform="translate(243.592 85.599)"/><path d="M0 0s-12.3 1.519-19.441-.632-12.634-3.344-20.874-4.778" style="fill:none;stroke:#233239;stroke-width:1;stroke-linecap:butt;stroke-linejoin:miter;stroke-miterlimit:10;stroke-dasharray:none;stroke-opacity:1" transform="translate(225.068 76.567)"/><path d="M0 0s15.655.717 18.951-.717 18.952-9.556 30.762-12.662" style="fill:none;stroke:#233239;stroke-width:1;stroke-linecap:butt;stroke-linejoin:miter;stroke-miterlimit:10;stroke-dasharray:none;stroke-opacity:1" transform="translate(294.616 74.502)"/><path d="M0 0s-46.142 15.53-60.974 16.485-29.114-3.106-61.523-10.751-48.615-8.123-48.615-8.123" style="fill:none;stroke:#233239;stroke-width:1;stroke-linecap:butt;stroke-linejoin:miter;stroke-miterlimit:10;stroke-dasharray:none;stroke-opacity:1" transform="translate(382.507 31.496)"/><path d="M0 0s13.063 13.158 44.002 13.756 37.127-.598 39.877-.598 15.813 5.98 22.689 6.578 25.439 0 30.251-1.794" style="fill:none;stroke:#233239;stroke-width:1;stroke-linecap:butt;stroke-linejoin:miter;stroke-miterlimit:10;stroke-dasharray:none;stroke-opacity:1" transform="translate(110.017 29.887)"/><path d="M0 0c0-.85-.792-1.539-1.77-1.539-.977 0-1.769.689-1.769 1.539s.792 1.539 1.769 1.539C-.792 1.539 0 .85 0 0Z" style="fill:none;stroke:#233239;stroke-width:1;stroke-linecap:butt;stroke-linejoin:miter;stroke-miterlimit:10;stroke-dasharray:none;stroke-opacity:1" transform="translate(395.406 41.979)"/><path d="M0 0c0-.85-.792-1.539-1.769-1.539-.978 0-1.77.689-1.77 1.539s.792 1.539 1.77 1.539C-.792 1.539 0 .85 0 0Z" style="fill:none;stroke:#233239;stroke-width:1;stroke-linecap:butt;stroke-linejoin:miter;stroke-miterlimit:10;stroke-dasharray:none;stroke-opacity:1" transform="translate(367.599 46.816)"/><path d="M0 0c0-.607-.566-1.1-1.264-1.1S-2.528-.607-2.528 0s.566 1.1 1.264 1.1S0 .607 0 0Z" style="fill:none;stroke:#233239;stroke-width:1;stroke-linecap:butt;stroke-linejoin:miter;stroke-miterlimit:10;stroke-dasharray:none;stroke-opacity:1" transform="translate(380.744 51.654)"/><path d="M0 0c0-.486-.453-.88-1.011-.88-.559 0-1.011.394-1.011.88s.452.88 1.011.88S0 .486 0 0Z" style="fill:none;stroke:#233239;stroke-width:1;stroke-linecap:butt;stroke-linejoin:miter;stroke-miterlimit:10;stroke-dasharray:none;stroke-opacity:1" transform="translate(414.618 37.8)"/><path d="M0 0c0-.607-.566-1.1-1.264-1.1S-2.528-.607-2.528 0s.566 1.1 1.264 1.1S0 .607 0 0Z" style="fill:none;stroke:#233239;stroke-width:1;stroke-linecap:butt;stroke-linejoin:miter;stroke-miterlimit:10;stroke-dasharray:none;stroke-opacity:1" transform="translate(406.529 32.743)"/><path d="M0 0c0-.972-.905-1.759-2.022-1.759S-4.045-.972-4.045 0s.906 1.759 2.023 1.759S0 .972 0 0Z" style="fill:none;stroke:#233239;stroke-width:1;stroke-linecap:butt;stroke-linejoin:miter;stroke-miterlimit:10;stroke-dasharray:none;stroke-opacity:1" transform="translate(294.29 58.91)"/><path d="M0 0c0-.607-.566-1.1-1.264-1.1S-2.528-.607-2.528 0s.566 1.099 1.264 1.099S0 .607 0 0Z" style="fill:none;stroke:#233239;stroke-width:1;stroke-linecap:butt;stroke-linejoin:miter;stroke-miterlimit:10;stroke-dasharray:none;stroke-opacity:1" transform="translate(271.032 52.534)"/><path d="M0 0c0-.607-.566-1.1-1.264-1.1S-2.528-.607-2.528 0s.566 1.099 1.264 1.099S0 .607 0 0Z" style="fill:none;stroke:#233239;stroke-width:1;stroke-linecap:butt;stroke-linejoin:miter;stroke-miterlimit:10;stroke-dasharray:none;stroke-opacity:1" transform="translate(221.485 60.89)"/><path d="M0 0c0-.85-.792-1.539-1.77-1.539-.977 0-1.769.689-1.769 1.539s.792 1.539 1.769 1.539C-.792 1.539 0 .85 0 0Z" style="fill:none;stroke:#233239;stroke-width:1;stroke-linecap:butt;stroke-linejoin:miter;stroke-miterlimit:10;stroke-dasharray:none;stroke-opacity:1" transform="translate(154.242 61.33)"/><path d="M0 0c0-.729-.679-1.319-1.517-1.319S-3.033-.729-3.033 0s.679 1.319 1.516 1.319C-.679 1.319 0 .729 0 0Z" style="fill:none;stroke:#233239;stroke-width:1;stroke-linecap:butt;stroke-linejoin:miter;stroke-miterlimit:10;stroke-dasharray:none;stroke-opacity:1" transform="translate(176.993 79.141)"/><path d="M0 0c0-.971-.906-1.759-2.022-1.759-1.117 0-2.023.788-2.023 1.759 0 .972.906 1.759 2.023 1.759S0 .972 0 0Z" style="fill:none;stroke:#233239;stroke-width:1;stroke-linecap:butt;stroke-linejoin:miter;stroke-miterlimit:10;stroke-dasharray:none;stroke-opacity:1" transform="translate(189.633 63.309)"/><path d="M0 0c0-.85-.792-1.539-1.77-1.539-.977 0-1.769.689-1.769 1.539s.792 1.539 1.769 1.539C-.792 1.539 0 .85 0 0Z" style="fill:none;stroke:#233239;stroke-width:1;stroke-linecap:butt;stroke-linejoin:miter;stroke-miterlimit:10;stroke-dasharray:none;stroke-opacity:1" transform="translate(211.879 69.246)"/><path d="M0 0c0-.729-.679-1.319-1.517-1.319S-3.034-.729-3.034 0s.68 1.319 1.517 1.319C-.679 1.319 0 .729 0 0Z" style="fill:none;stroke:#233239;stroke-width:1;stroke-linecap:butt;stroke-linejoin:miter;stroke-miterlimit:10;stroke-dasharray:none;stroke-opacity:1" transform="translate(218.451 36.041)"/><path d="M0 0c0-1.093-1.019-1.979-2.275-1.979S-4.55-1.093-4.55 0s1.018 1.979 2.275 1.979S0 1.093 0 0Z" style="fill:none;stroke:#233239;stroke-width:1;stroke-linecap:butt;stroke-linejoin:miter;stroke-miterlimit:10;stroke-dasharray:none;stroke-opacity:1" transform="translate(311.479 38.46)"/><path d="M0 0c0-.607-.566-1.1-1.264-1.1S-2.528-.607-2.528 0s.566 1.099 1.264 1.099S0 .607 0 0Z" style="fill:none;stroke:#233239;stroke-width:1;stroke-linecap:butt;stroke-linejoin:miter;stroke-miterlimit:10;stroke-dasharray:none;stroke-opacity:1" transform="translate(340.297 35.382)"/><path d="M0 0c0-.607-.566-1.1-1.264-1.1S-2.528-.607-2.528 0s.566 1.099 1.264 1.099S0 .607 0 0Z" style="fill:none;stroke:#233239;stroke-width:1;stroke-linecap:butt;stroke-linejoin:miter;stroke-miterlimit:10;stroke-dasharray:none;stroke-opacity:1" transform="translate(328.163 39.78)"/><path d="M0 0c0-.607-.566-1.099-1.264-1.099S-2.528-.607-2.528 0s.566 1.1 1.264 1.1S0 .607 0 0Z" style="fill:none;stroke:#233239;stroke-width:1;stroke-linecap:butt;stroke-linejoin:miter;stroke-miterlimit:10;stroke-dasharray:none;stroke-opacity:1" transform="translate(324.624 59.57)"/><path d="M0 0c0-.607-.566-1.1-1.264-1.1S-2.528-.607-2.528 0s.566 1.1 1.264 1.1S0 .607 0 0Z" style="fill:none;stroke:#233239;stroke-width:1;stroke-linecap:butt;stroke-linejoin:miter;stroke-miterlimit:10;stroke-dasharray:none;stroke-opacity:1" transform="translate(325.635 76.283)"/><path d="M0 0c0-1.093-1.019-1.979-2.275-1.979S-4.55-1.093-4.55 0s1.018 1.979 2.275 1.979S0 1.093 0 0Z" style="fill:none;stroke:#233239;stroke-width:1;stroke-linecap:butt;stroke-linejoin:miter;stroke-miterlimit:10;stroke-dasharray:none;stroke-opacity:1" transform="translate(88.516 40.22)"/><path d="M0 0c0-.729-.679-1.319-1.517-1.319S-3.034-.729-3.034 0s.679 1.319 1.517 1.319S0 .729 0 0Z" style="fill:none;stroke:#233239;stroke-width:1;stroke-linecap:butt;stroke-linejoin:miter;stroke-miterlimit:10;stroke-dasharray:none;stroke-opacity:1" transform="translate(113.29 43.958)"/><path d="M0 0c0-.729-.679-1.319-1.517-1.319S-3.033-.729-3.033 0s.679 1.319 1.516 1.319C-.679 1.319 0 .729 0 0Z" style="fill:none;stroke:#233239;stroke-width:1;stroke-linecap:butt;stroke-linejoin:miter;stroke-miterlimit:10;stroke-dasharray:none;stroke-opacity:1" transform="translate(130.48 58.91)"/><path d="M0 0s3.245 27.097 6.491 29.506 36.781 1.806 41.468-.301 8.655-31.313 8.655-31.313-12.982-1.505-24.16-1.505S0 0 0 0" style="fill:#233239;fill-opacity:1;fill-rule:nonzero;stroke:none" transform="translate(240.168 76.567)"/><path d="M0 0s3.245 27.097 6.491 29.506 36.781 1.806 41.468-.301 8.655-31.313 8.655-31.313-12.982-1.505-24.16-1.505S0 0 0 0Z" style="fill:none;stroke:#233239;stroke-width:1;stroke-linecap:butt;stroke-linejoin:miter;stroke-miterlimit:10;stroke-dasharray:none;stroke-opacity:1" transform="translate(240.168 76.567)"/><path d="M273.047 88.61h-8.542v198.111h8.542z" style="fill:#fff;fill-opacity:1;fill-rule:nonzero;stroke:#233239;stroke-width:1;stroke-linecap:butt;stroke-linejoin:miter;stroke-miterlimit:10;stroke-dasharray:none;stroke-opacity:1"/><path d="M264.504 88.61h8.542v30.108h-8.542z" style="fill:#6e6e6e;fill-opacity:1;fill-rule:nonzero;stroke:#233239;stroke-width:1;stroke-linecap:butt;stroke-linejoin:miter;stroke-miterlimit:10;stroke-dasharray:none;stroke-opacity:1"/><path d="M0 0s2.619-3.554 2.245-12.908-3.18-8.98-5.051-8.606-8.605 1.871-8.605 1.871-4.303-1.122-8.045-2.993-7.483-3.18-7.483-3.18-.374-2.993-1.87-4.303c-1.497-1.309-4.864 2.993-5.425 4.677-.562 1.684-.188 2.058-.188 3.741s-5.986 8.045-5.986 10.851 4.677 8.979 4.677 8.979-5.986-2.993-7.109-4.302c-1.122-1.31-5.799-6.174-7.857-3.742s2.432 8.418 4.49 10.102 15.714 6.735 20.204 8.044S-7.857 2.432-5.425 1.497C-2.993.561-1.684 1.309 0 0" style="fill:#c7c7c7;fill-opacity:1;fill-rule:nonzero;stroke:none" transform="translate(294.035 306.155)"/><path d="M0 0s2.619-3.554 2.245-12.908-3.18-8.98-5.051-8.606-8.605 1.871-8.605 1.871-4.303-1.122-8.045-2.993-7.483-3.18-7.483-3.18-.374-2.993-1.87-4.303c-1.497-1.309-4.864 2.993-5.425 4.677-.562 1.684-.188 2.058-.188 3.741s-5.986 8.045-5.986 10.851 4.677 8.979 4.677 8.979-5.986-2.993-7.109-4.302c-1.122-1.31-5.799-6.174-7.857-3.742s2.432 8.418 4.49 10.102 15.714 6.735 20.204 8.044S-7.857 2.432-5.425 1.497C-2.993.561-1.684 1.309 0 0Z" style="fill:none;stroke:#233239;stroke-width:1;stroke-linecap:butt;stroke-linejoin:miter;stroke-miterlimit:10;stroke-dasharray:none;stroke-opacity:1" transform="translate(294.035 306.155)"/><path d="M0 0s6.548-5.799 8.792-13.656c2.245-7.858 1.871-9.728 4.116-9.167s5.425 3.741 1.497 13.095S3.18.561 0 0" style="fill:#75e6a4;fill-opacity:1;fill-rule:nonzero;stroke:none" transform="translate(269.341 312.89)"/><path d="M0 0s6.548-5.799 8.792-13.656c2.245-7.858 1.871-9.728 4.116-9.167s5.425 3.741 1.497 13.095S3.18.561 0 0Z" style="fill:none;stroke:#233239;stroke-width:1;stroke-linecap:butt;stroke-linejoin:miter;stroke-miterlimit:10;stroke-dasharray:none;stroke-opacity:1" transform="translate(269.341 312.89)"/><path d="M0 0s2.993 5.425 4.49 6.36" style="fill:none;stroke:#233239;stroke-width:1;stroke-linecap:butt;stroke-linejoin:miter;stroke-miterlimit:10;stroke-dasharray:none;stroke-opacity:1" transform="translate(261.484 285.577)"/></g><g clip-path="url(#h)" transform="matrix(1.33333 0 0 -1.33333 0 666.667)"><path d="m0 0-32.197-117.316h67.905L3.511 0C3.021 1.785.49 1.785 0 0" style="fill:#75e6a4;fill-opacity:1;fill-rule:nonzero;stroke:none" transform="translate(440.682 150.83)"/><path d="m0 0-32.197-117.316h67.905L3.511 0C3.021 1.785.49 1.785 0 0Z" style="fill:none;stroke:#233239;stroke-width:1;stroke-linecap:butt;stroke-linejoin:miter;stroke-miterlimit:10;stroke-dasharray:none;stroke-opacity:1" transform="translate(440.682 150.83)"/><path d="M0 0h58.201l-29.1 106.034z" style="fill:#233239;fill-opacity:1;fill-rule:nonzero;stroke:none" transform="translate(408.485 33.513)"/><path d="M0 0h58.201l-29.1 106.034z" style="fill:none;stroke:#233239;stroke-width:1;stroke-linecap:butt;stroke-linejoin:miter;stroke-miterlimit:10;stroke-dasharray:none;stroke-opacity:1" transform="translate(408.485 33.513)"/><path d="M0 0h43.046l-5.797 21.121H5.796Z" style="fill:#fff;fill-opacity:1;fill-rule:nonzero;stroke:none" transform="translate(420.915 78.803)"/><path d="M0 0h43.046l-5.797 21.121H5.796Z" style="fill:none;stroke:#233239;stroke-width:1;stroke-linecap:butt;stroke-linejoin:miter;stroke-miterlimit:10;stroke-dasharray:none;stroke-opacity:1" transform="translate(420.915 78.803)"/><path d="M0 0h-83.912a4.566 4.566 0 1 1 0-9.133H0A4.567 4.567 0 1 1 0 0" style="fill:#75e6a4;fill-opacity:1;fill-rule:nonzero;stroke:none" transform="translate(484.394 35.42)"/><path d="M0 0h-83.912a4.566 4.566 0 1 1 0-9.133H0A4.567 4.567 0 1 1 0 0Z" style="fill:none;stroke:#233239;stroke-width:1;stroke-linecap:butt;stroke-linejoin:miter;stroke-miterlimit:10;stroke-dasharray:none;stroke-opacity:1" transform="translate(484.394 35.42)"/><path d="M0 0a4.567 4.567 0 0 1-4.567 4.567h-58.796a4.567 4.567 0 0 1 0-9.134h58.796A4.567 4.567 0 0 1 0 0" style="fill:#233239;fill-opacity:1;fill-rule:nonzero;stroke:none" transform="translate(463.844 30.853)"/><path d="M0 0a4.567 4.567 0 0 1-4.567 4.567h-58.796a4.567 4.567 0 0 1 0-9.134h58.796A4.567 4.567 0 0 1 0 0Z" style="fill:none;stroke:#233239;stroke-width:1;stroke-linecap:butt;stroke-linejoin:miter;stroke-miterlimit:10;stroke-dasharray:none;stroke-opacity:1" transform="translate(463.844 30.853)"/></g></svg>