<svg xmlns="http://www.w3.org/2000/svg" width="300" height="300"><path fill="#BBD63B" d="M156 5c4.503 2.77 8.756 5.85 13 9 3.282 2.188 3.484 2.223 7.07 1.54l2.442-.432 2.613-.483c20.24-3.374 41.203-2.998 58.688 9.125 12.58 9.846 20.834 23.1 23.324 38.992.654 2.481.654 2.481 3.172 3.387L269 67c8.954 5.711 17.366 14.447 20 25 1.259 11.797-.421 20.512-7.562 29.938-1.645 2.017-3.172 3.84-5.172 5.507-1.495 1.516-1.495 1.516-1.34 3.832l.387 2.66c1.911 16.125.695 30.789-9.59 43.985C250.944 194.012 229.105 198.998 208 200c-8 .193-16 .134-24 0l-.687 1.938C182 205 182 205 180.779 206.659c-5.57 7.988-4.51 17.267-4.486 26.595q-.02 2.805-.046 5.611a2015 2015 0 0 0-.054 14.692c-.01 5.89-.059 11.78-.1 17.67-.06 8.924-.072 17.848-.093 26.773h-43c-1.224-5.507-2.284-10.458-2.907-15.975l-.46-3.95-.238-2.072c-.529-4.5-1.116-8.994-1.694-13.488a683 683 0 0 1-1.407-11.719c-2.277-20.484-5.812-35.55-18.51-52.408-2.246-3.006-4.306-6.115-6.361-9.253a339 339 0 0 0-3.568-5.307c-1.47-2.242-2.74-4.397-3.855-6.828l-2.492.621C84.665 179.272 78.034 180.64 71 181l-2.793.16c-14.414.438-28.496-3.262-39.91-12.3-4.945-4.683-8.482-9.674-11.297-15.86l-.895-1.922c-5.124-12.218-4.634-25.455-3.226-38.351.229-2.658.229-2.658-.332-4.946-2.716-13.81-1.151-27.6 6.265-39.531C25.048 59.562 32.626 54.048 42 49h2l.41-1.652c2.925-10.245 9.848-18.33 18.95-23.754 9.519-4.844 19.704-5.822 30.265-5.407 4.357.123 4.357.123 8-2.187L104 13c15.035-13.939 33.544-17.984 52-8m-7.125 186-2.285.867Q143.793 192.93 141 194c-.028 17.587 1.802 33.203 7 50 .678 2.33 1.34 4.665 2 7h2q1.514-10.321 2.99-20.648.505-3.505 1.02-7.009.74-5.066 1.459-10.136l.464-3.11c1.037-7.401 1.233-14.63 1.067-22.097-3.558 0-6.833 1.738-10.125 3M121 194l6 11c1-4 .807-6.055 0-10z"/><path fill="#077904" d="M156 5c4.503 2.77 8.756 5.85 13 9 3.282 2.188 3.484 2.223 7.07 1.54l2.442-.432 2.613-.483c20.24-3.374 41.203-2.998 58.688 9.125 12.58 9.846 20.834 23.1 23.324 38.992.654 2.481.654 2.481 3.172 3.387L269 67c8.954 5.711 17.366 14.447 20 25 1.259 11.797-.421 20.512-7.562 29.938-1.645 2.017-3.172 3.84-5.172 5.507-1.495 1.516-1.495 1.516-1.34 3.832l.387 2.66c1.911 16.125.695 30.789-9.59 43.985C250.944 194.012 229.105 198.998 208 200c-8 .193-16 .134-24 0l-.687 1.938C182 205 182 205 180.779 206.659c-5.57 7.988-4.51 17.267-4.486 26.595q-.02 2.805-.046 5.611a2015 2015 0 0 0-.054 14.692c-.01 5.89-.059 11.78-.1 17.67-.06 8.924-.072 17.848-.093 26.773h-43c-1.224-5.507-2.284-10.458-2.907-15.975l-.46-3.95-.238-2.072c-.529-4.5-1.116-8.994-1.694-13.488a683 683 0 0 1-1.407-11.719c-2.277-20.484-5.812-35.55-18.51-52.408-2.246-3.006-4.306-6.115-6.361-9.253a339 339 0 0 0-3.568-5.307c-1.47-2.242-2.74-4.397-3.855-6.828l-2.492.621C84.665 179.272 78.034 180.64 71 181l-2.793.16c-14.414.438-28.496-3.262-39.91-12.3-4.945-4.683-8.482-9.674-11.297-15.86l-.895-1.922c-5.124-12.218-4.634-25.455-3.226-38.351.229-2.658.229-2.658-.332-4.946-2.716-13.81-1.151-27.6 6.265-39.531C25.048 59.562 32.626 54.048 42 49h2l.41-1.652c2.925-10.245 9.848-18.33 18.95-23.754 9.519-4.844 19.704-5.822 30.265-5.407 4.357.123 4.357.123 8-2.187L104 13c15.035-13.939 33.544-17.984 52-8m-38 14-3.125 2.375c-2.777 2.32-2.777 2.32-4.038 4.386-2.136 3.168-3.695 4.977-7.504 5.852-3.21.194-6.367.209-9.583.137-10.897-.09-20.653.777-29.75 7.25-4.043 4.206-6.317 8.724-8.562 14.063-3.053 6.419-7.03 8.469-13.31 11.433-8.152 3.919-13.277 10.228-16.253 18.711-.991 4.296-1.135 8.158-1.062 12.543l.001 2.285c.026 3.238.156 5.874 1.186 8.965.037 2.302.013 4.605-.043 6.906q-.034 2.098-.064 4.196c-.037 2.187-.08 4.374-.14 6.561-.294 11.288.225 21.853 8.247 30.65 6.128 6.381 14.629 11.334 23.622 11.832q4.814.038 9.628.042l3.355.038c6.164.01 11.498-.405 17.395-2.225.684-8.72-1.862-17.321-6-25h-2l-.687-1.687c-3.097-5.456-8.483-9.161-13.376-12.938l-1.853-1.445a765 765 0 0 0-3.53-2.732c-1.296-1-2.581-2.015-3.863-3.034-1.623-1.353-1.623-1.353-3.691-1.164l7-10c10.424 4.17 18.88 12.4 27 20l1.758-2.246c5.895-7.24 12.28-13.59 21.242-16.754 2.968 3.351 4.298 5.603 5 10l-1.723 1.285C102.992 126.503 102.992 126.503 97 137c-.552 10.68 1.251 24.347 7.207 33.328 2.487 2.303 4.845 4.008 7.793 5.672l2.73 1.586c10.114 5.408 18.706 5.486 29.582 2.226l2.066-.594c7.016-2.248 10.373-6.625 14.372-12.53C171.438 151.85 185.54 146.12 203 143c4.99-.806 9.978-1.415 15-2v13l-6.062.25c-13.644.994-27.57 4.116-36.938 14.75l-1.598 1.73c-3.698 4.097-3.698 4.097-5.402 9.27a384 384 0 0 0 4.063 2.375l2.285 1.336c12.445 6.049 27.323 3.276 40.59 1.976l3.77-.356c6.786-.714 12.959-1.757 19.292-4.331l2.088-.84c10.27-4.356 17.129-12.504 21.697-22.469 3-9.117 1.572-18.557-.785-27.691h-2l-.715-2.234c-1.499-3.227-3.14-4.728-5.848-7.016-3.57-3.05-6.71-6.166-9.812-9.687-8.112-8.042-19.848-6.23-30.532-6.343-6.276.033-11.972.885-18.093 2.28l-2-13c7.641-1.16 15.283-1.332 23-1.562l4.082-.131q4.959-.159 9.918-.307c.14-5.995-.234-11.207-1.5-17.062l-.434-2.045A611 611 0 0 0 226 68h14l-.187 3.563c-.014 8.705 1.133 20.142 7.292 26.667q1.447 1.387 2.895 2.77 1.998 1.99 3.988 3.988l2.139 2.139L266 117c3.608-1.642 4.859-2.946 6.688-6.5l1.261-2.406c2.294-4.571 2.732-7.968 2.051-13.094-3.146-9.084-10.47-15.153-18.75-19.5-5.64-3.567-6.461-9.39-8.074-15.441C245.758 47.476 237.893 38.716 227 32c-13.352-7.474-29.99-9.154-44.895-6.238-6.657 1.925-12.589 3.977-16.925 9.597-2.286 2.77-4.657 4.76-7.493 6.953C144.105 53.34 142.406 62.98 140 80l-12-2 .656-3.762.844-4.925.434-2.475c.678-3.988 1.265-7.775 1.066-11.838l-1.674-.06C117.45 54.495 105.766 53.714 94 52l2-13 3.25.938c9.224 2.277 18.834 2.29 28.285 2.117C131 42 131 42 133.496 42.195c5.971.154 9.124-3.112 13.254-7.007 1.6-1.572 3.184-3.157 4.764-4.749 2.039-1.974 4.233-3.716 6.486-5.439-1.485-4.027-3.64-5.24-7.375-7.187l-2.898-1.543c-9.5-4.424-21.71-4.249-29.727 2.73m30.875 172-2.285.867Q143.793 192.93 141 194c-.028 17.587 1.802 33.203 7 50 .678 2.33 1.34 4.665 2 7h2q1.514-10.321 2.99-20.648.505-3.505 1.02-7.009.74-5.066 1.459-10.136l.464-3.11c1.037-7.401 1.233-14.63 1.067-22.097-3.558 0-6.833 1.738-10.125 3M121 194l6 11c1-4 .807-6.055 0-10z"/><path fill="#077904" d="m47 50-1 4 1-1h3v4h2v3l-2.633 1.355C38.972 66.81 30.94 71.637 26.871 83.211c-.987 4.294-1.131 8.157-1.058 12.539l.001 2.285c.026 3.238.156 5.874 1.186 8.965.037 2.302.013 4.605-.043 6.906q-.034 2.098-.064 4.196c-.037 2.187-.08 4.374-.14 6.561-.296 11.342.248 21.881 8.31 30.712 5.908 6.153 13.933 10.329 22.56 10.754l2.955.004 3.27.004 3.402-.012 3.355.012C76.5 166.13 82.173 165.895 88 165c-.89-7.476-2.103-14.18-5.195-21.074C82 142 82 142 82 140h-2q-1.409-2.173-2.8-4.356c-1.988-2.723-4.629-4.615-7.325-6.582l-1.718-1.286A445 445 0 0 0 53 117a46.7 46.7 0 0 1 4.625-7.75l1.352-1.86L60 106c10.384 3.613 19.104 12.61 27 20l2.055-2.379C94.823 117.067 100.5 111.62 108 107c4.73 2.016 5.924 4.37 8 9-1.097 3.381-2.874 4.902-5.75 6.875-7.927 5.675-7.927 5.675-12.25 14.125-.571 10.506 1.282 24.182 6.984 33.105 2.245 2.058 4.324 3.481 7.016 4.895l2.664 1.52c9.32 4.99 17.36 5.817 27.558 2.885l2.153-.655 2.09-.62c6.707-2.17 9.446-5.825 13.347-11.442 11.517-15.912 25.569-21.453 44.625-24.938 4.583-.707 8.933-.928 13.563-.75v13l-3.445.516c-24.634 3.75-24.634 3.75-43.243 19.336-1.568 2.327-1.568 2.327-2.312 6.148l8 4-1 2-3.125-1.5c-3.441-1.449-6.112-2.184-9.875-1.5l-1.152 2.328c-2.665 3.854-5.81 4.547-10.16 5.922l-2.264.773c-11.437 3.816-25.234 5.4-36.424-.023-2.687-2.5-2.687-2.5-5-5a177 177 0 0 0-7-3c-5.815-3.446-5.815-3.446-7-7l-2.492.621C84.665 179.272 78.034 180.64 71 181l-2.793.16c-14.414.438-28.496-3.262-39.91-12.3-4.945-4.683-8.482-9.674-11.297-15.86l-.895-1.922c-5.124-12.218-4.634-25.455-3.226-38.351.229-2.658.229-2.658-.332-4.946-2.716-13.81-1.151-27.6 6.265-39.531C24.348 60.538 36.552 46.427 47 50"/><path fill="#734B29" d="M98 182c1.943.735 3.88 1.489 5.813 2.25l3.269 1.266c3.042 1.547 3.972 2.795 5.918 5.484l3.813.625c3.134.603 4.019 1.163 6.042 3.719A107 107 0 0 1 127 203v-8l14-1c.808 3.231 1.112 5.379 1.105 8.613.167 13.77 2.398 25.84 6.266 39.024.829 3.115 1.277 6.162 1.629 9.363h2l.13-2.427c.617-9.97 1.921-19.76 3.37-29.636 1.509-10.307 2.885-20.53 3.5-30.937 3.669 1.651 6.591 3.467 9.625 6.063 4.92 3.857 10.293 4.35 16.375 4.937l-1.242 2.266-1.633 2.984-1.617 2.953L179 210l-1.074 1.664c-1.365 3.443-1.235 6.851-1.245 10.501l-.03 2.485c-.031 2.705-.048 5.41-.065 8.116q-.028 2.816-.059 5.632a5169 5169 0 0 0-.128 14.816c-.047 5.927-.109 11.854-.168 17.781-.088 9.002-.158 18.003-.231 27.005h-43c-1.224-5.507-2.284-10.458-2.907-15.975l-.46-3.95-.238-2.072c-.529-4.5-1.116-8.994-1.694-13.488a683 683 0 0 1-1.407-11.719c-2.289-20.59-5.853-35.648-18.581-52.519-2.356-3.131-4.494-6.381-6.65-9.652l-1.84-2.648C98 184 98 184 98 182"/><path fill="#9FD03D" d="M75 133a141 141 0 0 1 5 5v2h2q1.227 2.84 2.438 5.688l1.37 3.199C87.925 154.415 88.1 159.155 88 165c-6.917 2.118-13.358 2.3-20.562 2.25l-3.327.023C58.353 167.26 53.43 166.963 48 165v-1h38c-2.009-10.722-2.009-10.722-7-20l-1-5a100 100 0 0 0-3-4z"/><path fill="#236E1B" d="M97.875 176.688C100 178 100 178 100.813 180.625L101 183c-4.713-1.488-4.713-1.488-6.164-4.078L94 177l-2.492.621C77.262 181.06 63.386 182.565 49 179c3.404-1.044 6.467-1.088 10.016-1.027l3.543.037q3.667.053 7.336.117c9.335.087 18.945-3.6 27.98-1.44"/><path fill="#A2D240" d="M108 29v3c-1.696 1.696-3.886 1.19-6.207 1.246l-3.217.1q-3.371.09-6.742.172l-3.229.103-2.964.076c-2.703.31-4.289.995-6.641 2.303-2.238.59-4.49 1.128-6.75 1.625-1.756.39-1.756.39-3.547.79-.892.192-1.784.386-2.703.585 4.68-5.078 11.11-6.761 17.83-7.174l3.057-.072 3.342-.1q3.476-.091 6.953-.172l3.33-.103 3.045-.076c2.62-.071 2.62-.071 4.443-2.303"/><path fill="#9ECC3C" d="M75 133a141 141 0 0 1 5 5v2h2q1.227 2.84 2.438 5.688l1.37 3.199C87.925 154.415 88.1 159.155 88 165h-1l-1-10h-2l-.812-3.25c-1.083-3.418-2.08-5-4.188-7.75l-1-5a100 100 0 0 0-3-4z"/><path fill="#97CC3C" d="M225 68c2.099 3.148 2.526 4.947 3.125 8.625l.508 2.977c.444 4.11.367 8.263.367 12.398h-29v-1h28c-.514-6.332-.514-6.332-2.055-9.047-1.342-2.774-1.136-5.146-1.07-8.203l.055-3.266z"/><path fill="#6D4E39" d="M158 206h1l1 7h-2l.582 3.074c.43 4.038.052 6.814-.894 10.738l-.852 3.653L156 234a570 570 0 0 0-1.187 5.875c-.16.802-.318 1.604-.481 2.43L154 244h-1c.38-8.668 1.206-17.17 2.5-25.75l.396-2.634c.52-3.337 1.033-6.403 2.104-9.616"/><path fill="#9ECF3F" d="m97 112 4 1-1.574 1.285C94.806 118.171 91.3 121.945 88 127c-3.806-3.208-7.546-6.407-11-10 2.938.813 2.938.813 6 2l1 3h5l.313-1.812c.792-2.522 1.603-3.585 3.687-5.188h3z"/><path fill="#176C19" d="m246 188 4 2c-13.75 6.026-26.762 9.766-42 9v-1l1.905-.196c19.413-1.186 19.413-1.186 36.095-9.804"/><path fill="#136916" d="m106 11 2 1c-.96.897-.96.897-1.937 1.813-2.266 2.095-2.266 2.095-3.063 5.187-4.823 2.813-7.82 3.196-13.246 2.328-3.608-.43-7.19-.416-10.817-.39l-3.972.027L72 21v-1c7.301-1.117 14.227-2.154 21.625-1.812 4.218.096 4.993.102 8.5-2.563L104 13z"/><path fill="#A2D03E" d="M27 84h1l-.035 3.945q-.015 2.59-.027 5.18l-.026 2.594c-.017 4.564.25 8.78 1.088 13.281.062 1.624.087 3.25.063 4.875l-.028 2.367L29 118h-1l-.402-2.3-.535-3.013-.528-2.988c-.492-2.78-.492-2.78-1.535-5.699a60 60 0 0 1-.098-4.012l.01-2.295.026-2.38.013-2.417Q24.971 89.95 25 87h2z"/><path fill="#675132" d="M106 186c3.653 1.25 4.78 1.671 7 5l3.813.563c3.12.63 3.968 1.122 5.824 3.785A92 92 0 0 1 126 203h-3c-3-5.75-3-5.75-3-8l-2.062-.25c-4.532-1.157-8.775-2.93-11.376-7z"/><path fill="#4C5D1D" d="M159 188c3.669 1.651 6.591 3.467 9.625 6.063 4.92 3.857 10.293 4.35 16.375 4.937v1c-6.822.386-12.496-.991-19-3v-2l-2.375-.687C161 193 161 193 159.688 190.375z"/><path fill="#177117" d="M15 75c1.085 3.255 1.213 5.59 1 9l-2 3a98 98 0 0 0-.187 8l.019 2.293c.08 5.934.455 11.813 1.168 17.707h-1c-1.625-6.918-2.339-13.463-2.312-20.562l-.05-2.67C11.635 85.665 12.723 80.656 15 75"/><path fill="#AED843" d="M97 142h2c4.83 7.246 4.554 15.54 5 24h-2q-1.255-5.437-2.5-10.875l-.723-3.129-.683-2.988-.635-2.761C97 144 97 144 97 142"/><path fill="#207520" d="M237 23c10.091 4.654 18.01 14.776 22 25l-1 3-.996-2.02C251.969 39.224 245.74 30.723 237 24z"/><path fill="#6E4F38" d="m98 182 8 4-.125 2.688c.124 3.285.739 5.366 2.125 8.312h2l1 3-2 1a2333 2333 0 0 1-5.5-8.375l-1.59-2.406-1.504-2.305-1.396-2.126C98 184 98 184 98 182"/><path fill="#6E4D33" d="m129 272 2 1c.594 2.649.742 5.292 1 8h2c1.09 3.27.846 3.851 0 7a85 85 0 0 0-.062 4.75l.027 2.422L134 297l-2-1c-.502-2.317-.502-2.317-.852-5.348l-.39-3.271-.383-3.443-.406-3.456q-.496-4.24-.969-8.482"/><path fill="#A0D443" d="M112 55h19l-1 9h-1v-7h-16z"/><path fill="#338B09" d="M144 57c1.273 2.545.85 3.529.258 6.281l-.543 2.551-.59 2.668-.566 2.668c-1.412 6.538-1.412 6.538-2.559 8.832l-4-1h3l-.25-3.187C138.717 69.609 140.89 63.77 143 58z"/><path fill="#9ECE3C" d="m172 172 1 3-2 3 3 2 2-2 .313 1.875c.562 2.49.562 2.49 3.687 4.125-3 1-3 1-5.262.004l-2.425-1.441-2.45-1.434L168 180c1.75-5.75 1.75-5.75 4-8"/><path fill="#278004" d="m128 52 4 1v11h-2l1-9h-21v-1c1.823-.09 1.823-.09 3.684-.184l4.754-.254 2.431-.119c3.883.152 3.883.152 7.131-1.443"/><path fill="#9CCD3A" d="m273 91 2 1c1.666 4.997 1.634 10.058 0 15.063L274 109h-1z"/><path fill="#167C05" d="m58 109 .375 1.688c.685 2.533 1.616 4.891 2.625 7.312-3.623 1.208-4.641.543-8-1 1.372-2.954 2.989-5.44 5-8"/><path fill="#157B02" d="M181 149v2l-2.437 1.438C175.708 153.8 175.708 153.8 175 157c-2.91 1.416-5.847 2.3-9 3 3.441-4.624 8.72-11 15-11"/><path fill="#147E05" d="M260.938 122.063c1.562 2.848.811 4.872.062 7.937h-2a197 197 0 0 1-3-5c-1.582-1.751-1.582-1.751-3-3 5.411-1.323 5.411-1.323 7.938.063"/><path fill="#A6D13F" d="M155 165c2.063.438 2.063.438 4 1-.618 4.014-2.534 6.83-5 10-2.25.875-2.25.875-4 1l-1-2h4v-3h2l-.562-2.937L154 166z"/><path fill="#AAD13A" d="M120 17c2 1 2 1 3 3l-1 3-10 2z"/><path fill="#5C5427" d="m141 194-2 4-11-1-1 3v-5q2.374-.254 4.75-.5l2.672-.281C137 194 137 194 141 194"/><path fill="#ADD53F" d="M139 34q3.51.43 7 1c-1.658 2.21-2.698 3.558-5 5-3.374.438-6.617.296-10 0v-1l9-1v-2l-2-1z"/><path fill="#1E8204" d="m165 160 2 3-9 9c0-3.803 1.138-4.777 3.5-7.687l1.969-2.45z"/><path fill="#81BC31" d="M84 146c3.25 6.5 4.251 11.847 4 19h-1l-1-10h-2z"/><path fill="#338807" d="M108 107c3.205 1.03 4.633 2.608 6.375 5.375C116 116 116 116 115.25 118.438L114 120c-1-3-1-3-1.375-5-.763-2.44-1.614-3.436-3.625-5-2.103-.714-2.103-.714-4-1z"/><path fill="#406119" d="M106 186c3.653 1.25 4.78 1.671 7 5 3.557 1.219 3.557 1.219 7 2-3.865 1.288-5.286.56-9-1-2.875-2-2.875-2-5-4z"/><path fill="#99CB37" d="M243 50h2a205 205 0 0 1 2.063 3.75l1.16 2.11c.908 2.501.66 3.673-.223 6.14l-3-6h-3z"/><path fill="#6D4F33" d="m159 190 2 1-1 7h2c-1.75 4.875-1.75 4.875-4 6z"/><path fill="#1E6B0E" d="m169 194 16 4v1c-1.918-.06-3.834-.15-5.75-.25l-3.234-.14C173 198 173 198 169 194"/><path fill="#98CA39" d="m189 159 2 1c-1 1.938-1 1.938-3 4-2.7.665-5.206.817-8 1 2.546-2.97 5.422-4.478 9-6"/><path fill="#A1D13C" d="m271 107 2 3-5 7-3-1v-2h4l.438-2.375C270 109 270 109 271 107"/><path fill="#AAD540" d="M168 32h2l1 3-9 6c1.753-3.506 3.416-6.093 6-9"/><path fill="#157117" d="m126 1-1 3-8 1-1 3-3-2q2.4-1.259 4.813-2.5l2.707-1.406C123 1 123 1 126 1"/><path fill="#1D7C02" d="m101 112 1 2h-2l-.75 1.813c-1.414 2.473-2.9 3.62-5.25 5.187l-2-1q1.684-1.723 3.375-3.437l1.898-1.934C99 113 99 113 101 112"/><path fill="#177219" d="M72 22c-1.24.87-2.492 1.72-3.75 2.563l-2.11 1.44C64 27 64 27 61.735 26.654L60 26q2.147-1.297 4.313-2.562l2.425-1.442C69 21 69 21 72 22"/><path fill="#9DD140" d="m58 105 4 1-9 9v-3h2l.938-2.375C57 107 57 107 58 105"/><path fill="#655A2D" d="m98 182 8 4v2c-2.875-.187-2.875-.187-6-1-1.375-2.562-1.375-2.562-2-5"/><path fill="#A7D03D" d="M97 142h2c2.567 3.85 1.833 5.586 1 10-1.884-3.265-2.493-6.281-3-10"/><path fill="#74B52A" d="M275 95h1c.369 9.41.369 9.41-2 14h-1v-7h2z"/><path fill="#93CB3B" d="M149 50c1 3 1 3 .25 5.625C148 58 148 58 145 59c.615-5.538.615-5.538 2.563-7.875z"/><path fill="#0E7F10" d="M126 0h6l-4 6-3-1z"/><path fill="#89C537" d="M172 172c1.208 3.623.543 4.641-1 8h-3c1.75-5.75 1.75-5.75 4-8"/><path fill="#93C532" d="M218 146h2l1 8h-3z"/><path fill="#278106" d="M112 24c-1.393 3.367-2.979 4.986-6 7v-3h2v-3c2-1 2-1 4-1"/></svg>